<svg width="21" height="22" viewBox="0 0 21 22" fill="none" xmlns="http://www.w3.org/2000/svg">
<path d="M10.696 21.012C10.2373 21.012 9.85033 20.8543 9.535 20.539C9.21967 20.195 9.062 19.7937 9.062 19.335V12.584H2.311C1.85233 12.584 1.46533 12.4263 1.15 12.111C0.834667 11.767 0.677 11.3657 0.677 10.907C0.677 10.4197 0.834667 10.0183 1.15 9.703C1.46533 9.38767 1.85233 9.23 2.311 9.23H9.062V2.479C9.062 2.02033 9.21967 1.63333 9.535 1.318C9.85033 1.00267 10.2373 0.844998 10.696 0.844998C11.1833 0.844998 11.5847 1.00267 11.9 1.318C12.2153 1.63333 12.373 2.02033 12.373 2.479V9.23H19.124C19.5827 9.23 19.9697 9.402 20.285 9.746C20.629 10.0613 20.801 10.4483 20.801 10.907C20.801 11.3657 20.629 11.767 20.285 12.111C19.9697 12.4263 19.5827 12.584 19.124 12.584H12.373V19.335C12.373 19.7937 12.2153 20.195 11.9 20.539C11.5847 20.8543 11.1833 21.012 10.696 21.012Z" fill="white"/>
</svg>
