<svg width="29" height="29" viewBox="0 0 29 29" fill="none" xmlns="http://www.w3.org/2000/svg">
<g clip-path="url(#clip0_67_206)">
<path d="M22.9584 3.625C22.9584 6.28333 17.7626 10.875 12.0834 10.875V18.125C17.7626 18.125 22.9584 22.475 22.9584 25.375H25.3751V16.5542C26.1001 16.1917 26.5834 15.3458 26.5834 14.5C26.5834 13.6542 26.1001 12.8083 25.3751 12.4458V3.625H22.9584ZM6.04175 10.875C5.07508 10.875 4.22925 11.4792 3.86675 12.325C3.02091 12.6875 2.41675 13.5333 2.41675 14.5C2.41675 15.4667 3.02091 16.3125 3.86675 16.675C4.22925 17.5208 5.07508 18.125 6.04175 18.125H6.28341L8.94175 26.5833L13.1709 25.2542L10.8751 18.125V10.875H6.04175Z" fill="white"/>
</g>
<defs>
<clipPath id="clip0_67_206">
<rect width="29" height="29" fill="white"/>
</clipPath>
</defs>
</svg>
