<svg width="29" height="29" viewBox="0 0 29 29" fill="none" xmlns="http://www.w3.org/2000/svg">
<g clip-path="url(#clip0_382_4737)">
<path d="M22.2657 0.130951L22.2654 0.130611C22.1024 -0.0323426 21.8443 -0.0433874 21.6642 0.100478C20.1469 1.3136 17.9999 1.35188 16.4436 0.214155C16.1311 -0.014331 15.6995 0.0163679 15.4258 0.290166L0.340931 15.3751C0.0700216 15.646 0.0317329 16.0758 0.258576 16.3844C0.4989 16.7114 0.687115 17.0645 0.823335 17.4326C1.34442 18.8402 1.10484 20.4656 0.104515 21.673C-0.0426922 21.8507 -0.0342528 22.1098 0.128927 22.273L0.129097 22.2732C0.259596 22.4037 0.45591 22.4367 0.625038 22.3632C0.911183 22.2389 1.25657 22.2938 1.49061 22.5278C1.72465 22.7618 1.77953 23.1072 1.65521 23.3934C1.58169 23.5626 1.61477 23.7589 1.74521 23.8893L1.78961 23.9337C1.92011 24.0642 2.11643 24.0972 2.28555 24.0237C2.5717 23.8994 2.91709 23.9543 3.15113 24.1883C3.38516 24.4223 3.44005 24.7677 3.31572 25.0539C3.24221 25.2231 3.27528 25.4194 3.40573 25.5498L3.45013 25.5942C3.58063 25.7247 3.77694 25.7577 3.94607 25.6842C4.23222 25.5599 4.57761 25.6148 4.81165 25.8488C5.04568 26.0829 5.10057 26.4282 4.97624 26.7144C4.90272 26.8836 4.9358 27.08 5.06624 27.2103L5.11065 27.2547C5.24115 27.3852 5.43746 27.4182 5.60659 27.3448C5.89273 27.2204 6.23812 27.2753 6.47216 27.5093C6.7062 27.7434 6.76108 28.0887 6.63676 28.3749C6.56324 28.5442 6.59632 28.7405 6.72676 28.8709C6.88971 29.0338 7.14895 29.0429 7.32624 28.8955C8.85994 27.6201 11.0564 27.5561 12.6362 28.709C12.9482 28.9367 13.3789 28.9048 13.6521 28.6317L28.6825 13.6013C28.9561 13.3278 28.987 12.8968 28.7592 12.5843C27.6219 11.0251 27.6708 8.86576 28.8989 7.33562C29.0432 7.15574 29.0322 6.89723 28.8692 6.73416C28.737 6.60202 28.5386 6.5694 28.3668 6.64297C28.0814 6.76526 27.7379 6.70992 27.5049 6.47685C27.2719 6.24383 27.2164 5.90037 27.3388 5.6149C27.4123 5.44317 27.3797 5.24464 27.2476 5.11256L27.2088 5.07376C27.0766 4.94162 26.8782 4.90899 26.7064 4.98257C26.421 5.10486 26.0775 5.04952 25.8445 4.81644C25.6115 4.58343 25.556 4.23996 25.6784 3.9545C25.7519 3.78276 25.7193 3.58424 25.5872 3.45215L25.5484 3.41336C25.4162 3.28121 25.2178 3.24859 25.046 3.32217C24.7606 3.44445 24.4171 3.38911 24.1841 3.15604C23.9511 2.92297 23.8956 2.57956 24.018 2.29409C24.0915 2.12236 24.0589 1.92384 23.9268 1.79175L23.888 1.75295C23.7558 1.62081 23.5574 1.58819 23.3856 1.66176C23.1002 1.78405 22.7567 1.72871 22.5237 1.49564C22.2907 1.26256 22.2352 0.919154 22.3575 0.633688C22.4306 0.461502 22.3979 0.263092 22.2657 0.130951Z" fill="#D9B43A"/>
<path d="M4.02102 11.695L0.340944 15.3751C0.0700344 15.646 0.0316891 16.0758 0.258589 16.3844C0.471556 16.6743 0.643572 16.9848 0.774807 17.308L19.8612 22.4222L24.9741 17.3093L4.02102 11.695Z" fill="#BB9430"/>
<path d="M4.02124 11.6951L24.9742 17.3094L28.6824 13.6012C28.9559 13.3277 28.9869 12.8967 28.759 12.5842C28.5583 12.3091 28.3953 12.015 28.2686 11.7092L9.13414 6.58215L4.02124 11.6951Z" fill="#E2C35A"/>
<path d="M15.878 3.15916L3.21539 15.8217C2.9984 16.0385 2.93134 16.3612 3.03607 16.6495C3.47956 17.8709 3.5545 19.1971 3.26093 20.4538C3.19942 20.7173 3.27787 20.9938 3.46914 21.1851L7.80573 25.5217C7.99814 25.7141 8.27658 25.7923 8.5412 25.729C9.80886 25.4253 11.1469 25.4953 12.3773 25.9394C12.6652 26.0433 12.9869 25.9759 13.2034 25.7595L25.8153 13.1475C26.0314 12.9314 26.0987 12.6105 25.9959 12.3227C25.5658 11.1198 25.4905 9.81148 25.7706 8.56778C25.8289 8.3091 25.7462 8.03882 25.5588 7.85122L21.1394 3.43166C20.953 3.2452 20.6847 3.16245 20.4271 3.21892C19.192 3.48977 17.8926 3.4086 16.6968 2.97695C16.4113 2.87398 16.0925 2.94472 15.878 3.15916Z" fill="#E2C35A"/>
<path d="M6.64028 12.3969L3.21537 15.8217C2.9985 16.0386 2.93132 16.3612 3.03605 16.6496C3.19594 17.09 3.30718 17.5442 3.3713 18.0037L17.2422 21.7205L22.3551 16.6076L6.64028 12.3969Z" fill="#D9B43A"/>
<path d="M6.64014 12.3969L22.3549 16.6076L25.8151 13.1475C26.0312 12.9313 26.0985 12.6104 25.9956 12.3226C25.8436 11.897 25.7367 11.4582 25.6734 11.0138L11.753 7.28397L6.64014 12.3969Z" fill="#EBD37A"/>
<path d="M20.0602 5.89551L18.3997 7.55597C18.1705 7.78525 18.1705 8.15698 18.3997 8.38625C18.629 8.61553 19.0008 8.61553 19.23 8.38625L19.6451 7.97114L21.444 9.76997C21.6733 9.99925 22.045 9.99925 22.2743 9.76997C22.5035 9.54069 22.5035 9.16896 22.2743 8.93968L20.4754 7.14085L20.8905 6.72574C21.1198 6.49646 21.1198 6.12473 20.8905 5.89545C20.6612 5.66623 20.2895 5.66623 20.0602 5.89551Z" fill="#644D2D"/>
<path d="M16.4624 9.49316C15.6232 10.3324 15.6232 11.6981 16.4624 12.5373C17.3017 13.3766 18.6674 13.3766 19.5066 12.5373C19.7741 12.2699 19.9669 11.9361 20.0641 11.5721C20.1477 11.2589 19.9616 10.9371 19.6483 10.8535C19.335 10.7699 19.0133 10.9559 18.9297 11.2692C18.8857 11.434 18.7981 11.5854 18.6764 11.7072C18.4505 11.933 18.1409 12.0252 17.8465 11.9836L19.5066 10.3234C19.7359 10.0942 19.7359 9.72244 19.5066 9.49316C18.6674 8.65381 17.3017 8.65381 16.4624 9.49316ZM17.0162 11.1533C16.9746 10.859 17.0668 10.5492 17.2926 10.3234C17.5184 10.0976 17.8281 10.0054 18.1225 10.047L17.0162 11.1533Z" fill="#644D2D"/>
<path d="M15.5275 13.4724V11.8455C15.5275 11.5213 15.2647 11.2584 14.9405 11.2584C14.6163 11.2584 14.3534 11.5213 14.3534 11.8455V13.7491L13.6951 13.0908C13.4658 12.8616 13.0941 12.8616 12.8648 13.0908C12.6356 13.3201 12.6356 13.6919 12.8648 13.9211L15.0788 16.1351C15.3081 16.3644 15.6798 16.3644 15.9091 16.1351C16.1383 15.9058 16.1383 15.5341 15.9091 15.3048L15.5275 14.9233V14.6465H17.1544C17.3165 14.6465 17.4633 14.5808 17.5695 14.4745C17.6757 14.3683 17.7415 14.2215 17.7415 14.0594C17.7415 13.7352 17.4786 13.4723 17.1544 13.4723L15.5275 13.4724Z" fill="#644D2D"/>
<path d="M11.813 15.8122C11.9966 15.6286 12.2407 15.5275 12.5003 15.5275C12.8245 15.5275 13.0874 15.2646 13.0874 14.9404C13.0874 14.6162 12.8245 14.3533 12.5003 14.3533C11.3169 14.3533 10.3543 15.316 10.3542 16.4994C10.3543 17.6826 11.317 18.6453 12.5003 18.6454C13.0919 18.6454 13.6284 18.4047 14.0171 18.0161C14.4057 17.6276 14.6464 17.091 14.6464 16.4994C14.6464 16.1752 14.3835 15.9124 14.0593 15.9124C13.7351 15.9124 13.4722 16.1752 13.4722 16.4994C13.4722 16.7591 13.3711 17.0031 13.1876 17.1867C13.004 17.3703 12.7599 17.4714 12.5004 17.4713C11.9645 17.4713 11.5285 17.0352 11.5284 16.4994C11.5283 16.2398 11.6294 15.9957 11.813 15.8122Z" fill="#644D2D"/>
<path d="M8.71371 17.242C8.48443 17.4713 8.48443 17.843 8.71371 18.0723L10.9277 20.2862C11.1569 20.5155 11.5287 20.5155 11.7579 20.2862C11.9872 20.0569 11.9872 19.6852 11.7579 19.4559L9.54399 17.242C9.31471 17.0128 8.94299 17.0128 8.71371 17.242Z" fill="#644D2D"/>
<path d="M7.579 18.3766L5.91854 20.0371C5.68926 20.2663 5.68926 20.6381 5.91854 20.8674C6.14782 21.0966 6.51955 21.0966 6.74883 20.8674L7.16394 20.4522L8.96278 22.2511C9.19205 22.4804 9.56378 22.4804 9.79306 22.2511C10.0223 22.0218 10.0223 21.6501 9.79306 21.4208L7.99417 19.622L8.40929 19.2068C8.63857 18.9776 8.63857 18.6058 8.40929 18.3766C8.18001 18.1473 7.80822 18.1473 7.579 18.3766Z" fill="#644D2D"/>
<path d="M5.89195 15.5732L6.41491 15.8521L6.83008 15.437C6.97327 15.2938 7.21925 15.4169 7.19377 15.6189L7.11696 16.2266L7.66025 16.5164C7.84467 16.6148 7.79772 16.89 7.592 16.916L7.02073 16.9882L6.94857 17.5594C6.92257 17.7652 6.64736 17.8121 6.54898 17.6277L6.25921 17.0844L5.65146 17.1612C5.44942 17.1868 5.32629 16.9407 5.46953 16.7975L5.8847 16.3824L5.60581 15.8594C5.50652 15.673 5.70566 15.4739 5.89195 15.5732Z" fill="#9E7325"/>
<path d="M9.21275 12.2524L9.73571 12.5313L10.1509 12.1161C10.2941 11.9729 10.5401 12.096 10.5146 12.298L10.4378 12.9058L10.9811 13.1956C11.1655 13.2939 11.1185 13.5692 10.9128 13.5952L10.3415 13.6673L10.2694 14.2386C10.2434 14.4443 9.96816 14.4913 9.86978 14.3068L9.58001 13.7635L8.97226 13.8403C8.77022 13.8659 8.64709 13.6198 8.79033 13.4767L9.2055 13.0615L8.92661 12.5385C8.82732 12.3521 9.02646 12.153 9.21275 12.2524Z" fill="#9E7325"/>
<path d="M12.5338 8.9314L13.0568 9.2103L13.4719 8.79513C13.6151 8.65194 13.8611 8.77502 13.8356 8.97705L13.7588 9.5848L14.3021 9.87457C14.4865 9.97296 14.4396 10.2482 14.2338 10.2742L13.6626 10.3463L13.5904 10.9176C13.5644 11.1233 13.2892 11.1703 13.1908 10.9859L12.9011 10.4426L12.2933 10.5194C12.0913 10.5449 11.9681 10.2989 12.1114 10.1557L12.5265 9.74051L12.2477 9.21755C12.1483 9.0312 12.3474 8.83206 12.5338 8.9314Z" fill="#9E7325"/>
<path d="M15.8546 5.61054L16.3776 5.88944L16.7927 5.47427C16.9359 5.33108 17.1819 5.45416 17.1564 5.65619L17.0796 6.26394L17.6229 6.55371C17.8073 6.6521 17.7604 6.92731 17.5546 6.95331L16.9834 7.02547L16.9112 7.59674C16.8852 7.80246 16.61 7.84941 16.5116 7.66499L16.2219 7.1217L15.6141 7.1985C15.4121 7.22405 15.2889 6.978 15.4322 6.83482L15.8473 6.41964L15.5685 5.89669C15.4692 5.71034 15.6683 5.51119 15.8546 5.61054Z" fill="#9E7325"/>
<path d="M11.9803 21.6616L12.5033 21.9405L12.9185 21.5253C13.0616 21.3821 13.3076 21.5052 13.2821 21.7072L13.2053 22.315L13.7486 22.6048C13.9331 22.7032 13.8861 22.9784 13.6804 23.0044L13.1091 23.0765L13.037 23.6478C13.011 23.8535 12.7357 23.9005 12.6374 23.716L12.3476 23.1728L11.7398 23.2496C11.5378 23.2751 11.4147 23.0291 11.5579 22.8859L11.9731 22.4707L11.6942 21.9477C11.5948 21.7613 11.794 21.5623 11.9803 21.6616Z" fill="#9E7325"/>
<path d="M15.3011 18.3407L15.8241 18.6196L16.2393 18.2045C16.3824 18.0613 16.6284 18.1844 16.6029 18.3864L16.5261 18.9941L17.0694 19.2839C17.2539 19.3823 17.2069 19.6575 17.0012 19.6835L16.4299 19.7557L16.3577 20.3269C16.3318 20.5326 16.0565 20.5796 15.9582 20.3952L15.6684 19.8519L15.0606 19.9287C14.8586 19.9542 14.7355 19.7082 14.8787 19.565L15.2939 19.1498L15.015 18.6269C14.9158 18.4405 15.1148 18.2413 15.3011 18.3407Z" fill="#9E7325"/>
<path d="M18.622 15.0198L19.1449 15.2986L19.5601 14.8835C19.7033 14.7403 19.9493 14.8634 19.9238 15.0654L19.847 15.6732L20.3903 15.9629C20.5747 16.0613 20.5278 16.3365 20.322 16.3625L19.7507 16.4347L19.6786 17.0059C19.6526 17.2117 19.3773 17.2586 19.279 17.0742L18.9892 16.5309L18.3814 16.6077C18.1794 16.6333 18.0563 16.3872 18.1995 16.244L18.6147 15.8289L18.3358 15.3059C18.2366 15.1196 18.4357 14.9204 18.622 15.0198Z" fill="#9E7325"/>
<path d="M21.943 11.6989L22.4659 11.9778L22.8811 11.5626C23.0243 11.4194 23.2703 11.5425 23.2448 11.7445L23.168 12.3523L23.7113 12.6421C23.8957 12.7404 23.8487 13.0157 23.643 13.0417L23.0718 13.1138L22.9996 13.6851C22.9736 13.8908 22.6984 13.9378 22.6 13.7533L22.3102 13.21L21.7025 13.2869C21.5004 13.3124 21.3773 13.0664 21.5206 12.9232L21.9357 12.508L21.6568 11.985C21.5575 11.7986 21.7567 11.5995 21.943 11.6989Z" fill="#9E7325"/>
</g>
<defs>
<clipPath id="clip0_382_4737">
<rect width="29" height="29" fill="white"/>
</clipPath>
</defs>
</svg>
