<svg width="28" height="28" viewBox="0 0 28 28" fill="none" xmlns="http://www.w3.org/2000/svg">
<path d="M23.8085 10.7012C24.4295 10.7012 24.7578 10.3614 24.7578 9.74025V6.86915C24.7578 4.4551 23.539 3.24805 21.0781 3.24805H18.2187C17.5976 3.24805 17.2577 3.5879 17.2577 4.18555C17.2577 4.7949 17.5976 5.1348 18.2187 5.1348H21.0546C22.2031 5.1348 22.871 5.7559 22.871 6.9746V9.74025C22.871 10.3614 23.2109 10.7012 23.8085 10.7012ZM4.19133 10.7012C4.80073 10.7012 5.12883 10.3614 5.12883 9.74025V6.9746C5.12883 5.7559 5.78508 5.1348 6.95698 5.1348H9.79288C10.4023 5.1348 10.7421 4.7949 10.7421 4.18555C10.7421 3.5879 10.4023 3.24805 9.79288 3.24805H6.92178C4.48433 3.24805 3.24213 4.4551 3.24213 6.86915V9.74025C3.24213 10.3614 3.58198 10.7012 4.19133 10.7012ZM8.82023 18.4825H9.60538V9.5176H8.82023V18.4825ZM10.6015 18.4825H12.0898V9.5176H10.6015V18.4825ZM12.7577 18.4825H13.6952V9.5176H12.7577V18.4825ZM14.5273 18.4825H15.9804V9.5176H14.5273V18.4825ZM16.5781 18.4825H17.7265V9.5176H16.5781V18.4825ZM18.1484 18.4825H18.8866V9.5176H18.1484V18.4825ZM6.92178 24.7519H9.79288C10.4023 24.7519 10.7421 24.4121 10.7421 23.8144C10.7421 23.2051 10.4023 22.8652 9.79288 22.8652H6.95698C5.78508 22.8652 5.12883 22.2442 5.12883 21.0254V18.2598C5.12883 17.6387 4.78898 17.2989 4.19133 17.2989C3.57023 17.2989 3.24213 17.6387 3.24213 18.2598V21.1192C3.24213 23.5449 4.48433 24.7519 6.92178 24.7519ZM18.2187 24.7519H21.0781C23.539 24.7519 24.7578 23.5332 24.7578 21.1192V18.2598C24.7578 17.6387 24.418 17.2989 23.8085 17.2989C23.1992 17.2989 22.871 17.6387 22.871 18.2598V21.0254C22.871 22.2442 22.2031 22.8652 21.0546 22.8652H18.2187C17.5976 22.8652 17.2577 23.2051 17.2577 23.8144C17.2577 24.4121 17.5976 24.7519 18.2187 24.7519Z" fill="white"/>
</svg>
