<svg width="92" height="66" viewBox="0 0 92 66" fill="none" xmlns="http://www.w3.org/2000/svg">
<rect x="26" width="40" height="40" rx="20" fill="#0864ED"/>
<path d="M45.5579 15.5806L47.1047 14.0338C47.4239 13.7144 47.8028 13.4609 48.22 13.288C48.6371 13.115 49.0842 13.026 49.5357 13.0258C49.9873 13.0257 50.4344 13.1146 50.8516 13.2874C51.2688 13.4601 51.6479 13.7134 51.9672 14.0327C52.2865 14.352 52.5398 14.731 52.7125 15.1482C52.8853 15.5654 52.9741 16.0126 52.974 16.4641C52.9739 16.9157 52.8849 17.3628 52.7119 17.7799C52.539 18.1971 52.2855 18.576 51.9661 18.8952L49.7564 21.1049C49.4372 21.4241 49.0582 21.6773 48.6412 21.85C48.2241 22.0228 47.7771 22.1117 47.3257 22.1117C46.8743 22.1117 46.4273 22.0228 46.0102 21.85C45.5932 21.6773 45.2142 21.4241 44.895 21.1049" stroke="white" stroke-width="1.2" stroke-linecap="round" stroke-linejoin="round"/>
<path d="M46.442 24.4194L44.8952 25.9662C44.576 26.2857 44.1971 26.5391 43.78 26.7121C43.3628 26.885 42.9157 26.9741 42.4642 26.9742C42.0126 26.9743 41.5655 26.8854 41.1483 26.7127C40.7311 26.5399 40.352 26.2867 40.0327 25.9674C39.7134 25.6481 39.4601 25.269 39.2874 24.8518C39.1146 24.4346 39.0258 23.9874 39.0259 23.5359C39.026 23.0843 39.1151 22.6372 39.288 22.2201C39.461 21.803 39.7144 21.424 40.0338 21.1049L42.2435 18.8952C42.5627 18.576 42.9417 18.3228 43.3587 18.15C43.7758 17.9772 44.2228 17.8883 44.6742 17.8883C45.1256 17.8883 45.5726 17.9772 45.9897 18.15C46.4068 18.3228 46.7857 18.576 47.1049 18.8952" stroke="white" stroke-width="1.2" stroke-linecap="round" stroke-linejoin="round"/>
<path d="M22.9589 61.12C22.3109 61.12 21.7029 60.996 21.1349 60.748C20.5749 60.5 20.0789 60.156 19.6469 59.716C19.2229 59.268 18.8909 58.756 18.6509 58.18C18.4109 57.596 18.2909 56.972 18.2909 56.308C18.2909 55.652 18.4069 55.036 18.6389 54.46C18.8789 53.876 19.2109 53.364 19.6349 52.924C20.0669 52.484 20.5629 52.14 21.1229 51.892C21.6909 51.636 22.3029 51.508 22.9589 51.508C23.5349 51.508 24.0589 51.592 24.5309 51.76C25.0029 51.928 25.4589 52.196 25.8989 52.564C25.9709 52.62 26.0109 52.688 26.0189 52.768C26.0349 52.84 26.0269 52.912 25.9949 52.984C25.9629 53.048 25.9149 53.096 25.8509 53.128C25.8349 53.192 25.7949 53.24 25.7309 53.272C25.6669 53.304 25.5909 53.316 25.5029 53.308C25.4229 53.3 25.3429 53.264 25.2629 53.2C24.9509 52.928 24.6109 52.728 24.2429 52.6C23.8749 52.464 23.4469 52.396 22.9589 52.396C22.4389 52.396 21.9509 52.5 21.4949 52.708C21.0469 52.916 20.6509 53.2 20.3069 53.56C19.9629 53.92 19.6909 54.336 19.4909 54.808C19.2989 55.28 19.2029 55.78 19.2029 56.308C19.2029 56.852 19.2989 57.36 19.4909 57.832C19.6909 58.304 19.9629 58.72 20.3069 59.08C20.6509 59.44 21.0469 59.724 21.4949 59.932C21.9509 60.132 22.4389 60.232 22.9589 60.232C23.3989 60.232 23.8149 60.16 24.2069 60.016C24.5989 59.872 24.9709 59.664 25.3229 59.392C25.4189 59.312 25.5189 59.28 25.6229 59.296C25.7349 59.312 25.8309 59.36 25.9109 59.44C25.9909 59.52 26.0309 59.624 26.0309 59.752C26.0309 59.816 26.0189 59.876 25.9949 59.932C25.9789 59.98 25.9469 60.032 25.8989 60.088C25.4909 60.464 25.0349 60.732 24.5309 60.892C24.0269 61.044 23.5029 61.12 22.9589 61.12ZM30.3453 61.06C29.7053 61.06 29.1333 60.916 28.6293 60.628C28.1253 60.34 27.7293 59.944 27.4413 59.44C27.1533 58.936 27.0093 58.364 27.0093 57.724C27.0093 57.076 27.1533 56.5 27.4413 55.996C27.7293 55.492 28.1253 55.096 28.6293 54.808C29.1333 54.52 29.7053 54.376 30.3453 54.376C30.9853 54.376 31.5533 54.52 32.0493 54.808C32.5533 55.096 32.9493 55.492 33.2373 55.996C33.5253 56.5 33.6733 57.076 33.6813 57.724C33.6813 58.364 33.5333 58.936 33.2373 59.44C32.9493 59.944 32.5533 60.34 32.0493 60.628C31.5533 60.916 30.9853 61.06 30.3453 61.06ZM30.3453 60.22C30.8093 60.22 31.2253 60.112 31.5933 59.896C31.9613 59.68 32.2493 59.384 32.4573 59.008C32.6653 58.632 32.7693 58.204 32.7693 57.724C32.7693 57.244 32.6653 56.816 32.4573 56.44C32.2493 56.056 31.9613 55.756 31.5933 55.54C31.2253 55.324 30.8093 55.216 30.3453 55.216C29.8813 55.216 29.4653 55.324 29.0973 55.54C28.7293 55.756 28.4373 56.056 28.2213 56.44C28.0133 56.816 27.9093 57.244 27.9093 57.724C27.9093 58.204 28.0133 58.632 28.2213 59.008C28.4373 59.384 28.7293 59.68 29.0973 59.896C29.4653 60.112 29.8813 60.22 30.3453 60.22ZM35.9464 63.808C35.8024 63.808 35.6864 63.764 35.5984 63.676C35.5184 63.596 35.4784 63.484 35.4784 63.34V57.676C35.4864 57.052 35.6344 56.492 35.9224 55.996C36.2184 55.492 36.6144 55.096 37.1104 54.808C37.6144 54.52 38.1784 54.376 38.8024 54.376C39.4424 54.376 40.0144 54.524 40.5184 54.82C41.0224 55.108 41.4184 55.504 41.7064 56.008C42.0024 56.512 42.1504 57.084 42.1504 57.724C42.1504 58.356 42.0064 58.924 41.7184 59.428C41.4384 59.932 41.0544 60.332 40.5664 60.628C40.0784 60.916 39.5264 61.06 38.9104 61.06C38.3744 61.06 37.8864 60.948 37.4464 60.724C37.0144 60.492 36.6664 60.188 36.4024 59.812V63.34C36.4024 63.484 36.3584 63.596 36.2704 63.676C36.1904 63.764 36.0824 63.808 35.9464 63.808ZM38.8024 60.22C39.2664 60.22 39.6824 60.112 40.0504 59.896C40.4184 59.68 40.7064 59.384 40.9144 59.008C41.1304 58.624 41.2384 58.196 41.2384 57.724C41.2384 57.244 41.1304 56.816 40.9144 56.44C40.7064 56.064 40.4184 55.768 40.0504 55.552C39.6824 55.328 39.2664 55.216 38.8024 55.216C38.3464 55.216 37.9344 55.328 37.5664 55.552C37.1984 55.768 36.9104 56.064 36.7024 56.44C36.4944 56.816 36.3904 57.244 36.3904 57.724C36.3904 58.196 36.4944 58.624 36.7024 59.008C36.9104 59.384 37.1984 59.68 37.5664 59.896C37.9344 60.112 38.3464 60.22 38.8024 60.22ZM44.7275 63.856C44.6635 63.856 44.5915 63.84 44.5115 63.808C44.2395 63.688 44.1635 63.496 44.2835 63.232L48.1595 54.688C48.2795 54.432 48.4715 54.36 48.7355 54.472C49.0075 54.584 49.0835 54.772 48.9635 55.036L45.0755 63.58C44.9955 63.764 44.8795 63.856 44.7275 63.856ZM46.0595 60.796C45.9395 60.852 45.8275 60.864 45.7235 60.832C45.6195 60.792 45.5355 60.712 45.4715 60.592L42.7955 55.048C42.7395 54.928 42.7315 54.816 42.7715 54.712C42.8115 54.608 42.8915 54.528 43.0115 54.472C43.1315 54.416 43.2435 54.408 43.3475 54.448C43.4515 54.48 43.5315 54.556 43.5875 54.676L46.2155 60.22C46.2795 60.34 46.2995 60.452 46.2755 60.556C46.2515 60.66 46.1795 60.74 46.0595 60.796ZM55.1054 61C54.7854 61 54.4974 60.912 54.2414 60.736C53.9934 60.56 53.7974 60.316 53.6534 60.004C53.5174 59.692 53.4494 59.332 53.4494 58.924V52.084C53.4494 51.948 53.4894 51.84 53.5694 51.76C53.6574 51.672 53.7694 51.628 53.9054 51.628C54.0414 51.628 54.1494 51.672 54.2294 51.76C54.3174 51.84 54.3614 51.948 54.3614 52.084V58.924C54.3614 59.268 54.4294 59.548 54.5654 59.764C54.7094 59.98 54.8894 60.088 55.1054 60.088H55.4054C55.5254 60.088 55.6214 60.132 55.6934 60.22C55.7654 60.3 55.8014 60.408 55.8014 60.544C55.8014 60.68 55.7494 60.792 55.6454 60.88C55.5494 60.96 55.4214 61 55.2614 61H55.1054ZM57.7361 61C57.5921 61 57.4761 60.96 57.3881 60.88C57.3081 60.792 57.2681 60.676 57.2681 60.532V54.904C57.2681 54.76 57.3081 54.648 57.3881 54.568C57.4761 54.48 57.5921 54.436 57.7361 54.436C57.8721 54.436 57.9801 54.48 58.0601 54.568C58.1481 54.648 58.1921 54.76 58.1921 54.904V60.532C58.1921 60.676 58.1481 60.792 58.0601 60.88C57.9801 60.96 57.8721 61 57.7361 61ZM57.7241 53.188C57.5481 53.188 57.3961 53.124 57.2681 52.996C57.1401 52.868 57.0761 52.712 57.0761 52.528C57.0761 52.328 57.1401 52.172 57.2681 52.06C57.4041 51.94 57.5601 51.88 57.7361 51.88C57.9041 51.88 58.0521 51.94 58.1801 52.06C58.3161 52.172 58.3841 52.328 58.3841 52.528C58.3841 52.712 58.3201 52.868 58.1921 52.996C58.0641 53.124 57.9081 53.188 57.7241 53.188ZM66.1728 61C66.0368 61 65.9248 60.956 65.8368 60.868C65.7488 60.78 65.7048 60.672 65.7048 60.544V57.424C65.7048 56.928 65.6088 56.52 65.4168 56.2C65.2328 55.88 64.9768 55.64 64.6488 55.48C64.3288 55.32 63.9648 55.24 63.5568 55.24C63.1648 55.24 62.8088 55.316 62.4888 55.468C62.1768 55.62 61.9288 55.828 61.7448 56.092C61.5608 56.356 61.4688 56.656 61.4688 56.992H60.8088C60.8248 56.488 60.9608 56.04 61.2168 55.648C61.4728 55.248 61.8128 54.936 62.2368 54.712C62.6608 54.48 63.1328 54.364 63.6528 54.364C64.2208 54.364 64.7288 54.484 65.1768 54.724C65.6248 54.956 65.9768 55.3 66.2328 55.756C66.4968 56.212 66.6288 56.768 66.6288 57.424V60.544C66.6288 60.672 66.5848 60.78 66.4968 60.868C66.4088 60.956 66.3008 61 66.1728 61ZM61.0128 61C60.8688 61 60.7528 60.96 60.6648 60.88C60.5848 60.792 60.5448 60.68 60.5448 60.544V54.904C60.5448 54.76 60.5848 54.648 60.6648 54.568C60.7528 54.48 60.8688 54.436 61.0128 54.436C61.1488 54.436 61.2568 54.48 61.3368 54.568C61.4248 54.648 61.4688 54.76 61.4688 54.904V60.544C61.4688 60.68 61.4248 60.792 61.3368 60.88C61.2568 60.96 61.1488 61 61.0128 61ZM69.4219 58.804L68.8579 58.192L72.9619 54.484C73.0579 54.396 73.1579 54.356 73.2619 54.364C73.3659 54.364 73.4619 54.412 73.5499 54.508C73.6379 54.604 73.6779 54.708 73.6699 54.82C73.6699 54.924 73.6219 55.016 73.5259 55.096L69.4219 58.804ZM69.1219 61C68.9859 61 68.8739 60.96 68.7859 60.88C68.7059 60.792 68.6659 60.68 68.6659 60.544V52.084C68.6659 51.948 68.7059 51.84 68.7859 51.76C68.8739 51.672 68.9859 51.628 69.1219 51.628C69.2579 51.628 69.3659 51.672 69.4459 51.76C69.5339 51.84 69.5779 51.948 69.5779 52.084V60.544C69.5779 60.68 69.5339 60.792 69.4459 60.88C69.3659 60.96 69.2579 61 69.1219 61ZM73.5619 60.94C73.4579 61.028 73.3499 61.064 73.2379 61.048C73.1259 61.04 73.0299 60.984 72.9499 60.88L70.2739 57.592L70.9219 57.016L73.6219 60.34C73.7019 60.436 73.7379 60.54 73.7299 60.652C73.7219 60.756 73.6659 60.852 73.5619 60.94Z" fill="#464D61"/>
</svg>
