<svg width="26" height="25" viewBox="0 0 26 25" fill="none" xmlns="http://www.w3.org/2000/svg">
<path fill-rule="evenodd" clip-rule="evenodd" d="M15.9167 4.16666H20.2917C21.4375 4.16666 22.375 5.10416 22.375 6.24999V20.8333C22.375 21.9792 21.4375 22.9167 20.2917 22.9167H5.70833C4.5625 22.9167 3.625 21.9792 3.625 20.8333V6.24999C3.625 5.10416 4.5625 4.16666 5.70833 4.16666H10.0833C10.5 2.91666 11.6458 2.08333 13 2.08333C14.3542 2.08333 15.5 2.91666 15.9167 4.16666ZM14.0417 5.20833C14.0417 4.68749 13.5208 4.16666 13 4.16666C12.4792 4.16666 11.9583 4.68749 11.9583 5.20833C11.9583 5.72916 12.4792 6.24999 13 6.24999C13.5208 6.24999 14.0417 5.72916 14.0417 5.20833ZM12.6508 15.6716L9.23102 8.41764L7.01768 13.5421H5.70833V15.1046H8.04482L9.29332 12.214L12.4377 18.8838L15.2621 14.5063L17.0132 17.3597L18.8411 15.1046H20.2917V13.5421H18.0964L17.1899 14.6603L15.2952 11.573L12.6508 15.6716Z" fill="white"/>
</svg>
