<svg width="335" height="12" viewBox="0 0 335 12" fill="none" xmlns="http://www.w3.org/2000/svg">
<line x1="110" y1="6.5" y2="6.5" stroke="#D1D5DB"/>
<path d="M125.116 6.36364C125.116 7.14015 124.974 7.80777 124.69 8.36648C124.406 8.92282 124.017 9.35133 123.522 9.65199C123.03 9.95028 122.47 10.0994 121.842 10.0994C121.213 10.0994 120.65 9.95028 120.156 9.65199C119.663 9.35133 119.275 8.92164 118.991 8.36293C118.707 7.80421 118.565 7.13778 118.565 6.36364C118.565 5.58712 118.707 4.92069 118.991 4.36435C119.275 3.80563 119.663 3.37713 120.156 3.07884C120.65 2.77817 121.213 2.62784 121.842 2.62784C122.47 2.62784 123.03 2.77817 123.522 3.07884C124.017 3.37713 124.406 3.80563 124.69 4.36435C124.974 4.92069 125.116 5.58712 125.116 6.36364ZM124.03 6.36364C124.03 5.77178 123.934 5.27344 123.742 4.86861C123.553 4.46141 123.292 4.15365 122.961 3.94531C122.632 3.73461 122.259 3.62926 121.842 3.62926C121.423 3.62926 121.049 3.73461 120.72 3.94531C120.391 4.15365 120.131 4.46141 119.939 4.86861C119.75 5.27344 119.655 5.77178 119.655 6.36364C119.655 6.95549 119.75 7.45502 119.939 7.86222C120.131 8.26705 120.391 8.57481 120.72 8.78551C121.049 8.99384 121.423 9.09801 121.842 9.09801C122.259 9.09801 122.632 8.99384 122.961 8.78551C123.292 8.57481 123.553 8.26705 123.742 7.86222C123.934 7.45502 124.03 6.95549 124.03 6.36364ZM126.485 10V2.72727H129.077C129.64 2.72727 130.108 2.82434 130.48 3.01847C130.854 3.21259 131.133 3.4813 131.318 3.82457C131.502 4.16548 131.595 4.55966 131.595 5.0071C131.595 5.45218 131.501 5.84399 131.314 6.18253C131.129 6.5187 130.85 6.7803 130.476 6.96733C130.104 7.15436 129.637 7.24787 129.073 7.24787H127.11V6.30327H128.974C129.329 6.30327 129.618 6.25237 129.84 6.15057C130.065 6.04877 130.23 5.9008 130.334 5.70668C130.438 5.51255 130.49 5.27936 130.49 5.0071C130.49 4.73248 130.437 4.49455 130.33 4.29332C130.226 4.09209 130.062 3.93821 129.837 3.83168C129.614 3.72277 129.322 3.66832 128.96 3.66832H127.582V10H126.485ZM130.075 6.71875L131.872 10H130.622L128.86 6.71875H130.075ZM141.617 5.09233H140.509C140.466 4.85559 140.387 4.64725 140.271 4.46733C140.155 4.28741 140.013 4.13471 139.845 4.00923C139.677 3.88376 139.489 3.78906 139.28 3.72514C139.074 3.66122 138.855 3.62926 138.623 3.62926C138.204 3.62926 137.829 3.73461 137.498 3.94531C137.168 4.15601 136.908 4.46496 136.716 4.87216C136.527 5.27936 136.432 5.77652 136.432 6.36364C136.432 6.95549 136.527 7.45502 136.716 7.86222C136.908 8.26941 137.17 8.57718 137.501 8.78551C137.833 8.99384 138.205 9.09801 138.62 9.09801C138.849 9.09801 139.067 9.06723 139.273 9.00568C139.481 8.94176 139.67 8.84825 139.838 8.72514C140.006 8.60204 140.148 8.4517 140.264 8.27415C140.382 8.09422 140.464 7.88826 140.509 7.65625L141.617 7.6598C141.558 8.01728 141.443 8.34635 141.272 8.64702C141.104 8.94531 140.888 9.20336 140.623 9.42116C140.36 9.6366 140.059 9.8035 139.721 9.92188C139.382 10.0402 139.013 10.0994 138.613 10.0994C137.983 10.0994 137.422 9.95028 136.929 9.65199C136.437 9.35133 136.049 8.92164 135.765 8.36293C135.483 7.80421 135.342 7.13778 135.342 6.36364C135.342 5.58712 135.484 4.92069 135.768 4.36435C136.052 3.80563 136.44 3.37713 136.933 3.07884C137.425 2.77817 137.985 2.62784 138.613 2.62784C138.998 2.62784 139.358 2.68348 139.692 2.79474C140.028 2.90365 140.33 3.06463 140.598 3.2777C140.865 3.4884 141.087 3.74645 141.262 4.05185C141.437 4.35488 141.555 4.7017 141.617 5.09233ZM149.247 6.36364C149.247 7.14015 149.105 7.80777 148.821 8.36648C148.537 8.92282 148.148 9.35133 147.653 9.65199C147.16 9.95028 146.601 10.0994 145.973 10.0994C145.343 10.0994 144.781 9.95028 144.286 9.65199C143.794 9.35133 143.406 8.92164 143.122 8.36293C142.838 7.80421 142.695 7.13778 142.695 6.36364C142.695 5.58712 142.838 4.92069 143.122 4.36435C143.406 3.80563 143.794 3.37713 144.286 3.07884C144.781 2.77817 145.343 2.62784 145.973 2.62784C146.601 2.62784 147.16 2.77817 147.653 3.07884C148.148 3.37713 148.537 3.80563 148.821 4.36435C149.105 4.92069 149.247 5.58712 149.247 6.36364ZM148.161 6.36364C148.161 5.77178 148.065 5.27344 147.873 4.86861C147.684 4.46141 147.423 4.15365 147.092 3.94531C146.763 3.73461 146.39 3.62926 145.973 3.62926C145.554 3.62926 145.18 3.73461 144.851 3.94531C144.522 4.15365 144.262 4.46141 144.07 4.86861C143.88 5.27344 143.786 5.77178 143.786 6.36364C143.786 6.95549 143.88 7.45502 144.07 7.86222C144.262 8.26705 144.522 8.57481 144.851 8.78551C145.18 8.99384 145.554 9.09801 145.973 9.09801C146.39 9.09801 146.763 8.99384 147.092 8.78551C147.423 8.57481 147.684 8.26705 147.873 7.86222C148.065 7.45502 148.161 6.95549 148.161 6.36364ZM156.485 2.72727V10H155.477L151.78 4.66619H151.713V10H150.615V2.72727H151.631L155.331 8.06818H155.399V2.72727H156.485ZM157.727 3.67188V2.72727H163.356V3.67188H161.087V10H159.993V3.67188H157.727ZM165.697 2.72727V10H164.6V2.72727H165.697ZM173.165 2.72727V10H172.157L168.46 4.66619H168.392V10H167.295V2.72727H168.311L172.011 8.06818H172.078V2.72727H173.165ZM179.443 2.72727H180.544V7.51065C180.544 8.01965 180.424 8.47064 180.185 8.86364C179.946 9.25426 179.61 9.56203 179.176 9.78693C178.743 10.0095 178.235 10.1207 177.653 10.1207C177.073 10.1207 176.566 10.0095 176.133 9.78693C175.7 9.56203 175.364 9.25426 175.124 8.86364C174.885 8.47064 174.766 8.01965 174.766 7.51065V2.72727H175.863V7.42188C175.863 7.75095 175.935 8.04332 176.08 8.29901C176.227 8.55469 176.434 8.75592 176.701 8.9027C176.969 9.04711 177.286 9.11932 177.653 9.11932C178.022 9.11932 178.341 9.04711 178.608 8.9027C178.878 8.75592 179.084 8.55469 179.226 8.29901C179.37 8.04332 179.443 7.75095 179.443 7.42188V2.72727ZM182.139 10V2.72727H186.699V3.67188H183.236V5.88778H186.461V6.82884H183.236V9.0554H186.741V10H182.139ZM192.235 10L190.218 2.72727H191.372L192.789 8.35938H192.856L194.33 2.72727H195.473L196.947 8.36293H197.015L198.428 2.72727H199.586L197.565 10H196.461L194.93 4.55256H194.873L193.343 10H192.235ZM201.683 2.72727V10H200.586V2.72727H201.683ZM202.923 3.67188V2.72727H208.551V3.67188H206.282V10H205.188V3.67188H202.923ZM209.795 10V2.72727H210.892V5.88778H214.518V2.72727H215.619V10H214.518V6.82884H210.892V10H209.795Z" fill="#9CA3AF"/>
<line x1="335" y1="6.5" x2="225" y2="6.5" stroke="#D1D5DB"/>
</svg>
