<svg width="20" height="20" viewBox="0 0 20 20" fill="none" xmlns="http://www.w3.org/2000/svg">
<mask id="mask0_1_297" style="mask-type:alpha" maskUnits="userSpaceOnUse" x="0" y="0" width="20" height="20">
<rect width="20" height="20" fill="#D9D9D9"/>
</mask>
<g mask="url(#mask0_1_297)">
<path d="M6.74582 17.6729C7.75971 18.1104 8.84304 18.3292 9.99582 18.3292C11.1486 18.3292 12.2319 18.1104 13.2458 17.6729C14.2597 17.2354 15.1417 16.6417 15.8917 15.8917C16.6417 15.1417 17.2354 14.2597 17.6729 13.2458C18.1104 12.2319 18.3291 11.1486 18.3291 9.99583C18.3291 8.84305 18.1104 7.75972 17.6729 6.74583C17.2354 5.73194 16.6417 4.85 15.8917 4.1C15.1417 3.35 14.2597 2.75625 13.2458 2.31875C12.2319 1.88125 11.1486 1.6625 9.99582 1.6625C8.84304 1.6625 7.75971 1.88125 6.74582 2.31875C5.73193 2.75625 4.84998 3.35 4.09998 4.1C3.34998 4.85 2.75623 5.73194 2.31873 6.74583C1.88123 7.75972 1.66248 8.84305 1.66248 9.99583C1.66248 11.1486 1.88123 12.2319 2.31873 13.2458C2.75623 14.2597 3.34998 15.1417 4.09998 15.8917C4.84998 16.6417 5.73193 17.2354 6.74582 17.6729Z" fill="white"/>
<path d="M6.74582 12.2875C6.94026 12.9542 7.24234 13.4924 7.65207 13.9021C8.06179 14.3118 8.59304 14.5931 9.24582 14.7458V15.1C9.24582 15.2944 9.31873 15.4646 9.46457 15.6104C9.6104 15.7563 9.78054 15.8292 9.97498 15.8292C10.1694 15.8292 10.3396 15.7563 10.4854 15.6104C10.6312 15.4646 10.7042 15.2944 10.7042 15.1V14.7875C11.3986 14.6625 11.9958 14.3917 12.4958 13.975C12.9958 13.5583 13.2458 12.9403 13.2458 12.1208C13.2458 11.5375 13.0791 11.0028 12.7458 10.5167C12.4125 10.0306 11.7458 9.60694 10.7458 9.24583C9.91248 8.96805 9.33609 8.725 9.01665 8.51667C8.69721 8.30833 8.53748 8.02361 8.53748 7.6625C8.53748 7.30139 8.66596 7.01667 8.9229 6.80833C9.17985 6.6 9.55137 6.49583 10.0375 6.49583C10.4819 6.49583 10.8292 6.60347 11.0792 6.81875C11.3292 7.03403 11.5097 7.30139 11.6208 7.62083L12.9542 7.07917C12.8014 6.59305 12.5201 6.16944 12.1104 5.80833C11.7007 5.44722 11.2458 5.24583 10.7458 5.20417V4.89167C10.7458 4.69722 10.6729 4.52708 10.5271 4.38125C10.3812 4.23542 10.2111 4.1625 10.0167 4.1625C9.82221 4.1625 9.65207 4.23542 9.50623 4.38125C9.3604 4.52708 9.28748 4.69722 9.28748 4.89167V5.20417C8.59304 5.35694 8.05137 5.6625 7.66248 6.12083C7.27359 6.57917 7.07915 7.09305 7.07915 7.6625C7.07915 8.31528 7.27012 8.84305 7.65207 9.24583C8.03401 9.64861 8.63471 9.99583 9.45415 10.2875C10.3292 10.6069 10.9368 10.8917 11.2771 11.1417C11.6173 11.3917 11.7875 11.7181 11.7875 12.1208C11.7875 12.5792 11.6243 12.916 11.2979 13.1312C10.9715 13.3465 10.5792 13.4542 10.1208 13.4542C9.66248 13.4542 9.25623 13.3118 8.90207 13.0271C8.5479 12.7424 8.28748 12.3153 8.12082 11.7458L6.74582 12.2875ZM9.99582 18.3292C8.84304 18.3292 7.75971 18.1104 6.74582 17.6729C5.73193 17.2354 4.84998 16.6417 4.09998 15.8917C3.34998 15.1417 2.75623 14.2597 2.31873 13.2458C1.88123 12.2319 1.66248 11.1486 1.66248 9.99583C1.66248 8.84305 1.88123 7.75972 2.31873 6.74583C2.75623 5.73194 3.34998 4.85 4.09998 4.1C4.84998 3.35 5.73193 2.75625 6.74582 2.31875C7.75971 1.88125 8.84304 1.6625 9.99582 1.6625C11.1486 1.6625 12.2319 1.88125 13.2458 2.31875C14.2597 2.75625 15.1417 3.35 15.8917 4.1C16.6417 4.85 17.2354 5.73194 17.6729 6.74583C18.1104 7.75972 18.3291 8.84305 18.3291 9.99583C18.3291 11.1486 18.1104 12.2319 17.6729 13.2458C17.2354 14.2597 16.6417 15.1417 15.8917 15.8917C15.1417 16.6417 14.2597 17.2354 13.2458 17.6729C12.2319 18.1104 11.1486 18.3292 9.99582 18.3292Z" fill="#FFD500"/>
</g>
</svg>
