<svg width="92" height="66" viewBox="0 0 92 66" fill="none" xmlns="http://www.w3.org/2000/svg">
<rect x="26" width="40" height="40" rx="20" fill="#767E94"/>
<path d="M42.875 15L37.25 20L42.875 25" stroke="white" stroke-width="1.5" stroke-linecap="round" stroke-linejoin="round"/>
<path d="M49.125 15L54.75 20L49.125 25" stroke="white" stroke-width="1.5" stroke-linecap="round" stroke-linejoin="round"/>
<path d="M25.7774 61C25.6414 61 25.5294 60.956 25.4414 60.868C25.3534 60.78 25.3094 60.668 25.3094 60.532V52.096C25.3094 51.96 25.3534 51.848 25.4414 51.76C25.5294 51.672 25.6414 51.628 25.7774 51.628H31.4054C31.5334 51.628 31.6414 51.672 31.7294 51.76C31.8254 51.84 31.8734 51.948 31.8734 52.084C31.8734 52.204 31.8254 52.308 31.7294 52.396C31.6414 52.484 31.5334 52.528 31.4054 52.528H26.2454V55.84H30.0014C30.1374 55.84 30.2494 55.884 30.3374 55.972C30.4254 56.06 30.4694 56.168 30.4694 56.296C30.4694 56.424 30.4254 56.532 30.3374 56.62C30.2494 56.708 30.1374 56.752 30.0014 56.752H26.2454V60.1H31.4054C31.5334 60.1 31.6414 60.144 31.7294 60.232C31.8254 60.32 31.8734 60.424 31.8734 60.544C31.8734 60.68 31.8254 60.792 31.7294 60.88C31.6414 60.96 31.5334 61 31.4054 61H25.7774ZM42.366 61C42.23 61 42.118 60.96 42.03 60.88C41.942 60.792 41.898 60.68 41.898 60.544V57.088C41.898 56.52 41.75 56.072 41.454 55.744C41.158 55.408 40.778 55.24 40.314 55.24C39.818 55.24 39.41 55.408 39.09 55.744C38.778 56.072 38.626 56.512 38.634 57.064H37.806C37.814 56.528 37.93 56.056 38.154 55.648C38.378 55.24 38.686 54.924 39.078 54.7C39.47 54.476 39.914 54.364 40.41 54.364C40.882 54.364 41.298 54.476 41.658 54.7C42.026 54.924 42.31 55.24 42.51 55.648C42.718 56.056 42.822 56.536 42.822 57.088V60.544C42.822 60.68 42.778 60.792 42.69 60.88C42.61 60.96 42.502 61 42.366 61ZM33.966 61C33.822 61 33.706 60.96 33.618 60.88C33.538 60.792 33.498 60.68 33.498 60.544V54.904C33.498 54.768 33.538 54.656 33.618 54.568C33.706 54.48 33.822 54.436 33.966 54.436C34.102 54.436 34.21 54.48 34.29 54.568C34.378 54.656 34.422 54.768 34.422 54.904V60.544C34.422 60.68 34.378 60.792 34.29 60.88C34.21 60.96 34.102 61 33.966 61ZM38.178 61C38.042 61 37.93 60.96 37.842 60.88C37.754 60.792 37.71 60.68 37.71 60.544V57.088C37.71 56.52 37.562 56.072 37.266 55.744C36.97 55.408 36.59 55.24 36.126 55.24C35.63 55.24 35.222 55.404 34.902 55.732C34.582 56.052 34.422 56.472 34.422 56.992H33.762C33.778 56.48 33.89 56.028 34.098 55.636C34.314 55.236 34.606 54.924 34.974 54.7C35.342 54.476 35.758 54.364 36.222 54.364C36.694 54.364 37.11 54.476 37.47 54.7C37.838 54.924 38.122 55.24 38.322 55.648C38.53 56.056 38.634 56.536 38.634 57.088V60.544C38.634 60.68 38.59 60.792 38.502 60.88C38.422 60.96 38.314 61 38.178 61ZM48.1892 61.06C47.5652 61.06 47.0012 60.916 46.4972 60.628C46.0012 60.34 45.6052 59.948 45.3092 59.452C45.0212 58.948 44.8732 58.384 44.8652 57.76V52.096C44.8652 51.952 44.9052 51.84 44.9852 51.76C45.0732 51.672 45.1892 51.628 45.3332 51.628C45.4692 51.628 45.5772 51.672 45.6572 51.76C45.7452 51.84 45.7892 51.952 45.7892 52.096V55.624C46.0532 55.248 46.4012 54.948 46.8332 54.724C47.2732 54.492 47.7612 54.376 48.2972 54.376C48.9132 54.376 49.4652 54.524 49.9532 54.82C50.4412 55.108 50.8252 55.504 51.1052 56.008C51.3932 56.512 51.5372 57.08 51.5372 57.712C51.5372 58.352 51.3892 58.924 51.0932 59.428C50.8052 59.932 50.4092 60.332 49.9052 60.628C49.4012 60.916 48.8292 61.06 48.1892 61.06ZM48.1892 60.22C48.6532 60.22 49.0692 60.112 49.4372 59.896C49.8052 59.672 50.0932 59.372 50.3012 58.996C50.5172 58.62 50.6252 58.192 50.6252 57.712C50.6252 57.24 50.5172 56.816 50.3012 56.44C50.0932 56.056 49.8052 55.756 49.4372 55.54C49.0692 55.324 48.6532 55.216 48.1892 55.216C47.7332 55.216 47.3212 55.324 46.9532 55.54C46.5852 55.756 46.2972 56.056 46.0892 56.44C45.8812 56.816 45.7772 57.24 45.7772 57.712C45.7772 58.192 45.8812 58.62 46.0892 58.996C46.2972 59.372 46.5852 59.672 46.9532 59.896C47.3212 60.112 47.7332 60.22 48.1892 60.22ZM56.3255 61.06C55.6775 61.06 55.1015 60.92 54.5975 60.64C54.1015 60.352 53.7095 59.956 53.4215 59.452C53.1415 58.948 53.0015 58.372 53.0015 57.724C53.0015 57.068 53.1335 56.492 53.3975 55.996C53.6695 55.492 54.0415 55.096 54.5135 54.808C54.9855 54.52 55.5295 54.376 56.1455 54.376C56.7535 54.376 57.2815 54.516 57.7295 54.796C58.1855 55.068 58.5375 55.448 58.7855 55.936C59.0335 56.424 59.1575 56.98 59.1575 57.604C59.1575 57.732 59.1175 57.836 59.0375 57.916C58.9575 57.988 58.8535 58.024 58.7255 58.024H53.6255V57.256H58.8215L58.3055 57.628C58.3135 57.164 58.2295 56.748 58.0535 56.38C57.8775 56.012 57.6255 55.724 57.2975 55.516C56.9775 55.308 56.5935 55.204 56.1455 55.204C55.6895 55.204 55.2895 55.312 54.9455 55.528C54.6015 55.744 54.3335 56.044 54.1415 56.428C53.9575 56.804 53.8655 57.236 53.8655 57.724C53.8655 58.212 53.9695 58.644 54.1775 59.02C54.3935 59.396 54.6855 59.692 55.0535 59.908C55.4215 60.124 55.8455 60.232 56.3255 60.232C56.6135 60.232 56.9015 60.184 57.1895 60.088C57.4855 59.984 57.7215 59.856 57.8975 59.704C57.9855 59.632 58.0855 59.596 58.1975 59.596C58.3095 59.588 58.4055 59.616 58.4855 59.68C58.5895 59.776 58.6415 59.88 58.6415 59.992C58.6495 60.104 58.6055 60.2 58.5095 60.28C58.2455 60.504 57.9095 60.692 57.5015 60.844C57.0935 60.988 56.7015 61.06 56.3255 61.06ZM63.4743 61.06C62.8423 61.06 62.2743 60.916 61.7703 60.628C61.2663 60.332 60.8663 59.932 60.5703 59.428C60.2823 58.924 60.1383 58.352 60.1383 57.712C60.1383 57.08 60.2783 56.512 60.5583 56.008C60.8462 55.504 61.2343 55.108 61.7223 54.82C62.2103 54.524 62.7623 54.376 63.3783 54.376C63.9143 54.376 64.3983 54.492 64.8303 54.724C65.2623 54.948 65.6103 55.248 65.8743 55.624V52.096C65.8743 51.952 65.9183 51.84 66.0063 51.76C66.0943 51.672 66.2063 51.628 66.3423 51.628C66.4783 51.628 66.5903 51.672 66.6783 51.76C66.7663 51.84 66.8103 51.952 66.8103 52.096V57.76C66.7943 58.384 66.6383 58.948 66.3423 59.452C66.0543 59.948 65.6583 60.34 65.1543 60.628C64.6583 60.916 64.0983 61.06 63.4743 61.06ZM63.4743 60.22C63.9383 60.22 64.3503 60.112 64.7103 59.896C65.0783 59.672 65.3663 59.372 65.5742 58.996C65.7903 58.62 65.8983 58.192 65.8983 57.712C65.8983 57.24 65.7903 56.816 65.5742 56.44C65.3663 56.056 65.0783 55.756 64.7103 55.54C64.3503 55.324 63.9383 55.216 63.4743 55.216C63.0183 55.216 62.6063 55.324 62.2383 55.54C61.8703 55.756 61.5783 56.056 61.3623 56.44C61.1463 56.816 61.0383 57.24 61.0383 57.712C61.0383 58.192 61.1463 58.62 61.3623 58.996C61.5783 59.372 61.8703 59.672 62.2383 59.896C62.6063 60.112 63.0183 60.22 63.4743 60.22Z" fill="#464D61"/>
</svg>
