<svg width="29" height="29" viewBox="0 0 29 29" fill="none" xmlns="http://www.w3.org/2000/svg">
<path d="M1.68797 27.9283C2.20227 28.4857 4.32063 27.5137 5.99266 26.7344C7.24555 26.1521 12.2594 24.0949 14.7516 23.0278C15.4245 22.7401 16.4032 22.364 17.1078 21.4373C17.7331 20.6126 19.3916 17.11 16.052 13.562C12.6627 9.95968 9.17133 10.9543 7.86633 11.8787C7.09829 12.4224 6.47297 13.6481 6.19204 14.2712C5.00485 16.9038 3.31243 21.7273 2.62368 23.6237C2.11844 25.0216 1.17821 27.3755 1.68797 27.9283Z" fill="#FFC107"/>
<path d="M5.85674 15.0641C5.88846 15.4584 5.96775 16.0995 6.23963 17.3343C6.42541 18.1816 6.729 19.0698 6.97596 19.6566C7.71682 21.4215 8.75674 22.1329 9.81025 22.7038C11.6001 23.6735 12.8167 23.8548 12.8167 23.8548L11.3577 24.4506C11.3577 24.4506 10.4741 24.2671 9.26877 23.6735C8.1201 23.1071 6.92385 22.1488 6.04932 20.2728C5.67096 19.4595 5.45119 18.671 5.32432 18.0457C5.16799 17.2709 5.14307 16.8313 5.14307 16.8313L5.85674 15.0641Z" fill="#FF8F00"/>
<path d="M4.06452 19.6588C4.06452 19.6588 4.24577 21.1292 5.46015 22.9848C6.88296 25.1552 8.86991 25.5109 8.86991 25.5109L7.54905 26.0547C7.54905 26.0547 6.07413 25.6038 4.67171 23.6894C3.79718 22.4954 3.55249 21.068 3.55249 21.068L4.06452 19.6588Z" fill="#FF8F00"/>
<path d="M2.80722 23.1434C2.80722 23.1434 3.138 24.4121 3.863 25.3592C4.7262 26.4897 5.82503 26.8182 5.82503 26.8182L4.81229 27.2668C4.81229 27.2668 4.04425 27.1059 3.2037 26.0411C2.56479 25.2323 2.38354 24.3034 2.38354 24.3034L2.80722 23.1434Z" fill="#FF8F00"/>
<path opacity="0.44" d="M2.25661 26.3651C2.21129 26.2631 2.21129 26.1476 2.25887 26.0479L8.02942 14.0809L8.97872 17.6492L2.90684 26.4195C2.74372 26.6642 2.37668 26.6324 2.25661 26.3651Z" fill="#FFFDE7"/>
<path d="M9.43636 18.8477C12.1325 22.0015 15.2024 21.6073 16.2242 20.8098C17.2482 20.01 18.0571 17.2618 15.3723 14.1601C12.5584 10.9112 9.37293 11.8379 8.6366 12.5402C7.90027 13.2426 6.9623 15.9545 9.43636 18.8477Z" fill="url(#paint0_linear_382_4627)"/>
<path d="M18.6959 20.1459C17.7126 19.3212 17.1892 19.4685 16.4869 19.7608C15.5806 20.1369 14.1555 20.4155 12.2207 19.7608L12.803 18.3584C13.9516 18.7458 14.7831 18.5577 15.5013 18.1341C16.4257 17.5903 17.6899 16.8449 19.6565 18.4966C20.4766 19.1853 21.3172 19.643 21.9334 19.4345C22.382 19.285 22.6199 18.6166 22.74 18.0842C22.7513 18.0366 22.7695 17.9007 22.783 17.7806C22.8918 16.9491 23.073 15.1548 24.4098 14.2372C25.8394 13.2562 27.3415 13.2562 27.3415 13.2562L27.6134 15.9568C26.9223 15.8548 26.442 15.9953 26.0365 16.2196C24.5095 17.0692 25.8394 20.3317 23.4627 21.4283C21.1767 22.4909 19.3076 20.658 18.6959 20.1459Z" fill="#03A9F4"/>
<path d="M10.286 16.7022L9.30272 15.8209C11.1084 13.8045 10.6326 12.3227 10.286 11.2443C10.2158 11.0268 10.1501 10.8206 10.107 10.6235C9.95296 9.9257 9.92124 9.31852 9.96882 8.78836C9.27553 7.92516 8.96968 7.02117 8.94928 6.96C8.52788 5.68445 8.84507 4.44062 9.57233 3.27383C11.0427 0.90625 13.7048 0.90625 13.7048 0.90625L14.593 3.28289C13.9178 3.2557 11.7043 3.28969 11.0246 4.36133C10.1659 5.71164 10.7301 6.54539 10.7708 6.64055C10.9362 6.42531 11.1039 6.25313 11.2534 6.11945C12.3387 5.15656 13.2812 5.01836 13.8816 5.07273C14.5567 5.13391 15.1684 5.47375 15.6057 6.03109C16.0837 6.64281 16.2808 7.43805 16.1291 8.16078C15.9818 8.86539 15.5128 9.46125 14.8082 9.83961C13.578 10.5012 12.5539 10.4105 11.8674 10.1817C11.8719 10.1976 11.8742 10.2157 11.8787 10.2316C11.9037 10.3448 11.9535 10.5034 12.0124 10.687C12.4134 11.9285 13.1588 13.8996 10.286 16.7022ZM11.9512 8.1993C12.0826 8.29445 12.2208 8.37375 12.3636 8.43039C12.8394 8.6207 13.3582 8.55727 13.9473 8.24008C14.2939 8.0543 14.3347 7.85492 14.3483 7.78922C14.3891 7.59211 14.3211 7.34062 14.1738 7.15258C14.0447 6.98719 13.8951 6.90109 13.7162 6.88297C13.3763 6.85352 12.9164 7.06875 12.4565 7.47883C12.2367 7.67594 12.0691 7.91836 11.9512 8.1993Z" fill="#F44336"/>
<path d="M14.2214 17.0715L12.8145 17.033C12.8145 17.033 13.4828 13.2584 15.6465 12.6241C16.052 12.5063 16.4961 12.3862 16.9424 12.3205C17.2075 12.2797 17.6266 12.2185 17.8328 12.1415C17.8804 11.7858 17.7309 11.3327 17.5632 10.8184C17.4318 10.4196 17.2959 10.0095 17.2234 9.56095C17.0829 8.68642 17.3162 7.91384 17.8804 7.38142C18.5691 6.73571 19.6816 6.52954 20.9367 6.81501C21.6527 6.97814 22.1805 7.32931 22.645 7.63743C23.3088 8.07923 23.6962 8.30353 24.5073 7.75751C25.4884 7.09595 24.206 4.50634 23.5241 3.01103L26.0684 1.95071C26.4105 2.69837 28.0621 6.5454 26.9723 8.74079C26.6053 9.47939 25.9732 9.96876 25.144 10.1523C23.3405 10.5556 22.2848 9.85321 21.5145 9.34118C21.1497 9.09876 20.8302 8.90845 20.4836 8.80876C18.0752 8.12228 21.4374 11.6657 19.8628 13.2584C18.918 14.2123 16.6094 14.4638 16.4598 14.5C14.9736 14.858 14.2214 17.0715 14.2214 17.0715Z" fill="#F48FB1"/>
<path d="M9.96647 8.78836C9.92342 9.2868 9.90303 9.58359 10.0322 10.2316C10.6552 10.6892 12.0123 10.6892 12.0123 10.6892C11.9534 10.5057 11.9013 10.3471 11.8787 10.2338C11.8741 10.218 11.8719 10.1998 11.8673 10.184C10.4876 9.49524 9.96647 8.78836 9.96647 8.78836Z" fill="#C92B27"/>
<path d="M7.14344 11.02L4.80078 9.87132L5.96758 8.1857L7.805 9.40234L7.14344 11.02Z" fill="#FFC107"/>
<path d="M3.69067 7.83905C2.49442 7.67819 1.27552 6.66319 1.14185 6.54764L2.31771 5.16788C2.67341 5.46921 3.42786 5.97444 3.9331 6.04241L3.69067 7.83905Z" fill="#FB8C00"/>
<path d="M5.8022 4.81898L4.08032 4.25484C4.27743 3.65219 4.32954 3.00195 4.22759 2.37437L6.01743 2.08664C6.1647 2.99742 6.08993 3.94219 5.8022 4.81898Z" fill="#03A9F4"/>
<path d="M16.5557 3.47208L18.3263 3.08466L18.8376 5.42187L17.067 5.8093L16.5557 3.47208Z" fill="#FB8C00"/>
<path d="M20.948 4.02602L19.7019 2.70969C20.3544 2.09118 20.5039 1.28235 20.5039 1.27328L22.2938 1.56555C22.2711 1.70828 22.0423 2.99063 20.948 4.02602Z" fill="#FFC107"/>
<path d="M21.6404 11.0066L23.2234 10.5121L23.7642 12.2421L22.1812 12.7367L21.6404 11.0066Z" fill="#FB8C00"/>
<path d="M22.1012 25.6084L20.3 25.3954C20.377 24.7542 19.899 23.968 19.7676 23.7936L21.2176 22.7061C21.3263 22.8488 22.2711 24.1561 22.1012 25.6084Z" fill="#F44336"/>
<path d="M27.2714 23.311C26.5939 23.2091 25.9007 23.1683 25.2164 23.1932L25.1553 21.3807C25.9505 21.3535 26.7548 21.3988 27.541 21.5189L27.2714 23.311Z" fill="#FB8C00"/>
<path d="M24.8345 25.8059L26.1078 24.5161L27.8604 26.2464L26.5869 27.5362L24.8345 25.8059Z" fill="#F48FB1"/>
<path d="M21.0928 14.3484L22.4023 15.8458L20.905 17.1553L19.5955 15.658L21.0928 14.3484Z" fill="#F44336"/>
<defs>
<linearGradient id="paint0_linear_382_4627" x1="16.8527" y1="14.0104" x2="10.1086" y2="18.0568" gradientUnits="userSpaceOnUse">
<stop offset="0.024" stop-color="#8F4700"/>
<stop offset="1" stop-color="#703E2D"/>
</linearGradient>
</defs>
</svg>
