<svg width="92" height="66" viewBox="0 0 92 66" fill="none" xmlns="http://www.w3.org/2000/svg">
<rect x="26" width="40" height="40" rx="20" fill="#3B5998"/>
<path d="M47.3333 28H44.161V20.1131H42V17.5453H44.1609V15.7181C44.1609 13.5529 45.1167 12 48.2804 12C48.9495 12 50 12.1345 50 12.1345V14.5189H48.8966C47.7724 14.5189 47.3334 14.8599 47.3334 15.8028V17.5453H49.9579L49.7242 20.1131H47.3334L47.3333 28Z" fill="white"/>
<path d="M16.0627 61C15.9347 61 15.8227 60.956 15.7267 60.868C15.6387 60.772 15.5947 60.66 15.5947 60.532V52.096C15.5947 51.96 15.6387 51.848 15.7267 51.76C15.8147 51.672 15.9267 51.628 16.0627 51.628H21.6907C21.8267 51.628 21.9387 51.672 22.0267 51.76C22.1147 51.84 22.1587 51.948 22.1587 52.084C22.1587 52.204 22.1147 52.308 22.0267 52.396C21.9387 52.484 21.8267 52.528 21.6907 52.528H16.5307V55.84H20.2867C20.4227 55.84 20.5347 55.884 20.6227 55.972C20.7107 56.06 20.7547 56.168 20.7547 56.296C20.7547 56.424 20.7107 56.532 20.6227 56.62C20.5347 56.708 20.4227 56.752 20.2867 56.752H16.5307V60.532C16.5307 60.66 16.4867 60.772 16.3987 60.868C16.3107 60.956 16.1987 61 16.0627 61ZM26.6107 61.06C25.9947 61.06 25.4427 60.916 24.9547 60.628C24.4667 60.332 24.0787 59.932 23.7907 59.428C23.5107 58.924 23.3707 58.356 23.3707 57.724C23.3707 57.084 23.5147 56.512 23.8027 56.008C24.0987 55.504 24.4987 55.108 25.0027 54.82C25.5067 54.524 26.0747 54.376 26.7067 54.376C27.3387 54.376 27.9027 54.524 28.3987 54.82C28.9027 55.108 29.2987 55.504 29.5867 56.008C29.8827 56.512 30.0347 57.084 30.0427 57.724L29.6707 58.012C29.6707 58.588 29.5347 59.108 29.2627 59.572C28.9987 60.028 28.6347 60.392 28.1707 60.664C27.7147 60.928 27.1947 61.06 26.6107 61.06ZM26.7067 60.22C27.1707 60.22 27.5827 60.112 27.9427 59.896C28.3107 59.68 28.5987 59.384 28.8067 59.008C29.0227 58.624 29.1307 58.196 29.1307 57.724C29.1307 57.244 29.0227 56.816 28.8067 56.44C28.5987 56.064 28.3107 55.768 27.9427 55.552C27.5827 55.328 27.1707 55.216 26.7067 55.216C26.2507 55.216 25.8387 55.328 25.4707 55.552C25.1027 55.768 24.8107 56.064 24.5947 56.44C24.3787 56.816 24.2707 57.244 24.2707 57.724C24.2707 58.196 24.3787 58.624 24.5947 59.008C24.8107 59.384 25.1027 59.68 25.4707 59.896C25.8387 60.112 26.2507 60.22 26.7067 60.22ZM29.5747 61C29.4387 61 29.3267 60.96 29.2387 60.88C29.1507 60.792 29.1067 60.68 29.1067 60.544V58.492L29.3347 57.544L30.0427 57.724V60.544C30.0427 60.68 29.9987 60.792 29.9107 60.88C29.8227 60.96 29.7107 61 29.5747 61ZM34.7678 61.06C34.1358 61.06 33.5718 60.916 33.0758 60.628C32.5878 60.332 32.1998 59.932 31.9118 59.428C31.6318 58.924 31.4918 58.356 31.4918 57.724C31.4918 57.084 31.6278 56.512 31.8998 56.008C32.1718 55.504 32.5438 55.108 33.0158 54.82C33.4878 54.524 34.0318 54.376 34.6478 54.376C35.1358 54.376 35.5838 54.472 35.9918 54.664C36.4078 54.856 36.7718 55.144 37.0838 55.528C37.1718 55.624 37.2038 55.728 37.1798 55.84C37.1558 55.944 37.0878 56.036 36.9758 56.116C36.8878 56.18 36.7878 56.204 36.6758 56.188C36.5718 56.164 36.4798 56.104 36.3998 56.008C35.9358 55.48 35.3518 55.216 34.6478 55.216C34.1998 55.216 33.8038 55.324 33.4598 55.54C33.1238 55.756 32.8598 56.052 32.6678 56.428C32.4838 56.804 32.3918 57.236 32.3918 57.724C32.3918 58.204 32.4918 58.632 32.6918 59.008C32.8918 59.384 33.1718 59.68 33.5318 59.896C33.8918 60.112 34.3038 60.22 34.7678 60.22C35.0798 60.22 35.3638 60.18 35.6198 60.1C35.8838 60.012 36.1158 59.88 36.3158 59.704C36.4118 59.624 36.5118 59.58 36.6158 59.572C36.7198 59.564 36.8158 59.596 36.9038 59.668C36.9998 59.756 37.0518 59.856 37.0598 59.968C37.0758 60.08 37.0398 60.176 36.9518 60.256C36.3678 60.792 35.6398 61.06 34.7678 61.06ZM41.9525 61.06C41.3045 61.06 40.7285 60.92 40.2245 60.64C39.7285 60.352 39.3365 59.956 39.0485 59.452C38.7685 58.948 38.6285 58.372 38.6285 57.724C38.6285 57.068 38.7605 56.492 39.0245 55.996C39.2965 55.492 39.6685 55.096 40.1405 54.808C40.6125 54.52 41.1565 54.376 41.7725 54.376C42.3805 54.376 42.9085 54.516 43.3565 54.796C43.8125 55.068 44.1645 55.448 44.4125 55.936C44.6605 56.424 44.7845 56.98 44.7845 57.604C44.7845 57.732 44.7445 57.836 44.6645 57.916C44.5845 57.988 44.4805 58.024 44.3525 58.024H39.2525V57.256H44.4485L43.9325 57.628C43.9405 57.164 43.8565 56.748 43.6805 56.38C43.5045 56.012 43.2525 55.724 42.9245 55.516C42.6045 55.308 42.2205 55.204 41.7725 55.204C41.3165 55.204 40.9165 55.312 40.5725 55.528C40.2285 55.744 39.9605 56.044 39.7685 56.428C39.5845 56.804 39.4925 57.236 39.4925 57.724C39.4925 58.212 39.5965 58.644 39.8045 59.02C40.0205 59.396 40.3125 59.692 40.6805 59.908C41.0485 60.124 41.4725 60.232 41.9525 60.232C42.2405 60.232 42.5285 60.184 42.8165 60.088C43.1125 59.984 43.3485 59.856 43.5245 59.704C43.6125 59.632 43.7125 59.596 43.8245 59.596C43.9365 59.588 44.0325 59.616 44.1125 59.68C44.2165 59.776 44.2685 59.88 44.2685 59.992C44.2765 60.104 44.2325 60.2 44.1365 60.28C43.8725 60.504 43.5365 60.692 43.1285 60.844C42.7205 60.988 42.3285 61.06 41.9525 61.06ZM49.6716 61.06C49.0476 61.06 48.4836 60.916 47.9796 60.628C47.4836 60.34 47.0876 59.948 46.7916 59.452C46.5036 58.948 46.3556 58.384 46.3476 57.76V52.096C46.3476 51.952 46.3876 51.84 46.4676 51.76C46.5556 51.672 46.6716 51.628 46.8156 51.628C46.9516 51.628 47.0596 51.672 47.1396 51.76C47.2276 51.84 47.2716 51.952 47.2716 52.096V55.624C47.5356 55.248 47.8836 54.948 48.3156 54.724C48.7556 54.492 49.2436 54.376 49.7796 54.376C50.3956 54.376 50.9476 54.524 51.4356 54.82C51.9236 55.108 52.3076 55.504 52.5876 56.008C52.8756 56.512 53.0196 57.08 53.0196 57.712C53.0196 58.352 52.8716 58.924 52.5756 59.428C52.2876 59.932 51.8916 60.332 51.3876 60.628C50.8836 60.916 50.3116 61.06 49.6716 61.06ZM49.6716 60.22C50.1356 60.22 50.5516 60.112 50.9196 59.896C51.2876 59.672 51.5756 59.372 51.7836 58.996C51.9996 58.62 52.1076 58.192 52.1076 57.712C52.1076 57.24 51.9996 56.816 51.7836 56.44C51.5756 56.056 51.2876 55.756 50.9196 55.54C50.5516 55.324 50.1356 55.216 49.6716 55.216C49.2156 55.216 48.8036 55.324 48.4356 55.54C48.0676 55.756 47.7796 56.056 47.5716 56.44C47.3636 56.816 47.2596 57.24 47.2596 57.712C47.2596 58.192 47.3636 58.62 47.5716 58.996C47.7796 59.372 48.0676 59.672 48.4356 59.896C48.8036 60.112 49.2156 60.22 49.6716 60.22ZM57.82 61.06C57.18 61.06 56.608 60.916 56.104 60.628C55.6 60.34 55.204 59.944 54.916 59.44C54.628 58.936 54.484 58.364 54.484 57.724C54.484 57.076 54.628 56.5 54.916 55.996C55.204 55.492 55.6 55.096 56.104 54.808C56.608 54.52 57.18 54.376 57.82 54.376C58.46 54.376 59.028 54.52 59.524 54.808C60.028 55.096 60.424 55.492 60.712 55.996C61 56.5 61.148 57.076 61.156 57.724C61.156 58.364 61.008 58.936 60.712 59.44C60.424 59.944 60.028 60.34 59.524 60.628C59.028 60.916 58.46 61.06 57.82 61.06ZM57.82 60.22C58.284 60.22 58.7 60.112 59.068 59.896C59.436 59.68 59.724 59.384 59.932 59.008C60.14 58.632 60.244 58.204 60.244 57.724C60.244 57.244 60.14 56.816 59.932 56.44C59.724 56.056 59.436 55.756 59.068 55.54C58.7 55.324 58.284 55.216 57.82 55.216C57.356 55.216 56.94 55.324 56.572 55.54C56.204 55.756 55.912 56.056 55.696 56.44C55.488 56.816 55.384 57.244 55.384 57.724C55.384 58.204 55.488 58.632 55.696 59.008C55.912 59.384 56.204 59.68 56.572 59.896C56.94 60.112 57.356 60.22 57.82 60.22ZM65.941 61.06C65.301 61.06 64.729 60.916 64.225 60.628C63.721 60.34 63.325 59.944 63.037 59.44C62.749 58.936 62.605 58.364 62.605 57.724C62.605 57.076 62.749 56.5 63.037 55.996C63.325 55.492 63.721 55.096 64.225 54.808C64.729 54.52 65.301 54.376 65.941 54.376C66.581 54.376 67.149 54.52 67.645 54.808C68.149 55.096 68.545 55.492 68.833 55.996C69.121 56.5 69.269 57.076 69.277 57.724C69.277 58.364 69.129 58.936 68.833 59.44C68.545 59.944 68.149 60.34 67.645 60.628C67.149 60.916 66.581 61.06 65.941 61.06ZM65.941 60.22C66.405 60.22 66.821 60.112 67.189 59.896C67.557 59.68 67.845 59.384 68.053 59.008C68.261 58.632 68.365 58.204 68.365 57.724C68.365 57.244 68.261 56.816 68.053 56.44C67.845 56.056 67.557 55.756 67.189 55.54C66.821 55.324 66.405 55.216 65.941 55.216C65.477 55.216 65.061 55.324 64.693 55.54C64.325 55.756 64.033 56.056 63.817 56.44C63.609 56.816 63.505 57.244 63.505 57.724C63.505 58.204 63.609 58.632 63.817 59.008C64.033 59.384 64.325 59.68 64.693 59.896C65.061 60.112 65.477 60.22 65.941 60.22ZM71.8301 58.804L71.2661 58.192L75.3701 54.484C75.4661 54.396 75.5661 54.356 75.6701 54.364C75.7741 54.364 75.8701 54.412 75.9581 54.508C76.0461 54.604 76.0861 54.708 76.0781 54.82C76.0781 54.924 76.0301 55.016 75.9341 55.096L71.8301 58.804ZM71.5301 61C71.3941 61 71.2821 60.96 71.1941 60.88C71.1141 60.792 71.0741 60.68 71.0741 60.544V52.084C71.0741 51.948 71.1141 51.84 71.1941 51.76C71.2821 51.672 71.3941 51.628 71.5301 51.628C71.6661 51.628 71.7741 51.672 71.8541 51.76C71.9421 51.84 71.9861 51.948 71.9861 52.084V60.544C71.9861 60.68 71.9421 60.792 71.8541 60.88C71.7741 60.96 71.6661 61 71.5301 61ZM75.9701 60.94C75.8661 61.028 75.7581 61.064 75.6461 61.048C75.5341 61.04 75.4381 60.984 75.3581 60.88L72.6821 57.592L73.3301 57.016L76.0301 60.34C76.1101 60.436 76.1461 60.54 76.1381 60.652C76.1301 60.756 76.0741 60.852 75.9701 60.94Z" fill="#464D61"/>
</svg>
