<svg width="26" height="20" viewBox="0 0 26 20" fill="none" xmlns="http://www.w3.org/2000/svg">
<g clip-path="url(#clip0_67_569)">
<path fill-rule="evenodd" clip-rule="evenodd" d="M0 0H37.0504V1.53848H0V0ZM0 3.07695H37.0504V4.61543H0V3.07695ZM0 6.15391H37.0504V7.69238H0V6.15391ZM0 9.23086H37.0504V10.7693H0V9.23086ZM0 12.3078H37.0504V13.8463H0V12.3078ZM0 15.3848H37.0504V16.9232H0V15.3848ZM0 18.4617H37.0504V20.0002H0V18.4617Z" fill="#BD3D44"/>
<path fill-rule="evenodd" clip-rule="evenodd" d="M0 1.53849H37.0504V3.07697H0V1.53849ZM0 4.61544H37.0504V6.15392H0V4.61544ZM0 7.6924H37.0504V9.23087H0V7.6924ZM0 10.7694H37.0504V12.3078H0V10.7694ZM0 13.8463H37.0504V15.3848H0V13.8463ZM0 16.9233H37.0504V18.4617H0V16.9233Z" fill="white"/>
<path fill-rule="evenodd" clip-rule="evenodd" d="M0 0H14.82V10.7691H0V0Z" fill="#192F5D"/>
<path fill-rule="evenodd" clip-rule="evenodd" d="M1.23503 0.460945L1.36986 0.88657H1.80624L1.45319 1.14966L1.58805 1.57528L1.23499 1.31223L0.882013 1.57528L1.01684 1.14966L0.663818 0.88657H1.10017L1.23503 0.460945ZM3.70502 0.460945L3.83988 0.88657H4.27627L3.92321 1.14966L4.05808 1.57528L3.70502 1.31223L3.35204 1.57528L3.48686 1.14966L3.13384 0.88657H3.57019L3.70502 0.460945ZM6.17512 0.460945L6.30994 0.88657H6.74633L6.39328 1.14966L6.52814 1.57528L6.17512 1.31223L5.8221 1.57528L5.95693 1.14966L5.60391 0.88657H6.0403L6.17512 0.460945ZM8.64507 0.460945L8.77989 0.88657H9.21624L8.86323 1.14966L8.99805 1.57528L8.64507 1.31223L8.29201 1.57528L8.42688 1.14966L8.07382 0.88657H8.51021L8.64507 0.460945ZM11.1151 0.460945L11.25 0.88657H11.6863L11.3333 1.14966L11.4682 1.57528L11.1151 1.31223L10.7621 1.57528L10.8969 1.14966L10.5439 0.88657H10.9803L11.1151 0.460945ZM13.5852 0.460945L13.72 0.88657H14.1564L13.8034 1.14966L13.9382 1.57528L13.5852 1.31223L13.2321 1.57528L13.367 1.14966L13.014 0.88657H13.4504L13.5852 0.460945ZM2.47008 1.5379L2.60491 1.96352H3.04129L2.68824 2.22657L2.82314 2.65223L2.47008 2.38919L2.11706 2.65223L2.25189 2.22657L1.89887 1.96352H2.33526L2.47008 1.5379ZM4.94003 1.5379L5.07486 1.96352H5.51121L5.15819 2.22657L5.29301 2.65223L4.94003 2.38919L4.58697 2.65223L4.72184 2.22657L4.36878 1.96352H4.80517L4.94003 1.5379ZM7.41009 1.5379L7.54492 1.96352H7.98131L7.62825 2.22657L7.76311 2.65223L7.41006 2.38919L7.05708 2.65223L7.1919 2.22657L6.83888 1.96352H7.27523L7.41009 1.5379ZM9.88016 1.5379L10.015 1.96352H10.4514L10.0983 2.22657L10.2332 2.65223L9.88016 2.38919L9.5271 2.65223L9.66204 2.22657L9.30898 1.96352H9.74537L9.88016 1.5379ZM12.3501 1.5379L12.4849 1.96352H12.9213L12.5683 2.22657L12.7031 2.65223L12.3501 2.38919L11.9971 2.65223L12.1319 2.22657L11.7789 1.96352H12.2152L12.3501 1.5379ZM1.23503 2.61481L1.36986 3.04044H1.80624L1.45319 3.30352L1.58805 3.72915L1.23499 3.4661L0.882013 3.72915L1.01684 3.30352L0.663818 3.04044H1.10017L1.23503 2.61481ZM3.70502 2.61481L3.83988 3.04044H4.27627L3.92321 3.30352L4.05808 3.72915L3.70502 3.4661L3.35204 3.72915L3.48686 3.30352L3.13384 3.04044H3.57019L3.70502 2.61481ZM6.17512 2.61481L6.30994 3.04044H6.74633L6.39328 3.30352L6.52814 3.72915L6.17512 3.4661L5.8221 3.72915L5.95693 3.30352L5.60391 3.04044H6.0403L6.17512 2.61481ZM8.64507 2.61481L8.77989 3.04044H9.21624L8.86323 3.30352L8.99805 3.72915L8.64507 3.4661L8.29201 3.72915L8.42688 3.30352L8.07382 3.04044H8.51021L8.64507 2.61481ZM11.1151 2.61481L11.25 3.04044H11.6863L11.3333 3.30352L11.4682 3.72915L11.1151 3.4661L10.7621 3.72915L10.8969 3.30352L10.5439 3.04044H10.9803L11.1151 2.61481ZM13.5852 2.61481L13.72 3.04044H14.1564L13.8034 3.30352L13.9382 3.72915L13.5852 3.4661L13.2321 3.72915L13.367 3.30352L13.014 3.04044H13.4504L13.5852 2.61481ZM2.47008 3.69173L2.60491 4.11739H3.04129L2.68824 4.38044L2.82314 4.8061L2.47008 4.54305L2.11706 4.8061L2.25189 4.38044L1.89887 4.11739H2.33526L2.47008 3.69173ZM4.94003 3.69173L5.07486 4.11739H5.51121L5.15819 4.38044L5.29301 4.8061L4.94003 4.54305L4.58697 4.8061L4.72184 4.38044L4.36878 4.11739H4.80517L4.94003 3.69173ZM7.41009 3.69173L7.54492 4.11739H7.98131L7.62825 4.38044L7.76311 4.8061L7.41006 4.54305L7.05708 4.8061L7.1919 4.38044L6.83888 4.11739H7.27523L7.41009 3.69173ZM9.88016 3.69173L10.015 4.11739H10.4514L10.0983 4.38044L10.2332 4.8061L9.88016 4.54305L9.5271 4.8061L9.662 4.38044L9.30895 4.11739H9.74533L9.88016 3.69173ZM12.3501 3.69173L12.4849 4.11739H12.9213L12.5683 4.38044L12.7031 4.8061L12.3501 4.54305L11.9971 4.8061L12.1319 4.38044L11.7789 4.11739H12.2152L12.3501 3.69173ZM1.23503 4.76868L1.36986 5.1943H1.80624L1.45319 5.45739L1.58805 5.88301L1.23499 5.61997L0.882013 5.88301L1.01684 5.45739L0.663818 5.1943H1.10017L1.23503 4.76868ZM3.70502 4.76868L3.83988 5.1943H4.27627L3.92321 5.45739L4.05808 5.88301L3.70502 5.61997L3.35204 5.88301L3.48686 5.45739L3.13384 5.1943H3.57019L3.70502 4.76868ZM6.17512 4.76868L6.30994 5.1943H6.74633L6.39328 5.45739L6.52814 5.88301L6.17512 5.61997L5.8221 5.88301L5.95693 5.45739L5.60391 5.1943H6.0403L6.17512 4.76868ZM8.64507 4.76868L8.77989 5.1943H9.21624L8.86323 5.45739L8.99805 5.88301L8.64507 5.61997L8.29201 5.88301L8.42688 5.45739L8.07382 5.1943H8.51021L8.64507 4.76868ZM11.1151 4.76868L11.25 5.1943H11.6863L11.3333 5.45739L11.4682 5.88301L11.1151 5.61997L10.7621 5.88301L10.8969 5.45739L10.5439 5.1943H10.9803L11.1151 4.76868ZM13.5852 4.76868L13.72 5.1943H14.1564L13.8034 5.45739L13.9382 5.88301L13.5852 5.61997L13.2321 5.88301L13.367 5.45739L13.014 5.1943H13.4504L13.5852 4.76868ZM2.47008 5.84559L2.60491 6.27126H3.04129L2.68824 6.5343L2.82314 6.95997L2.47008 6.69692L2.11706 6.95997L2.25189 6.5343L1.89887 6.27126H2.33526L2.47008 5.84559ZM4.94003 5.84559L5.07486 6.27126H5.51121L5.15819 6.5343L5.29301 6.95997L4.94003 6.69692L4.58697 6.95997L4.72184 6.5343L4.36878 6.27126H4.80517L4.94003 5.84559ZM7.41009 5.84559L7.54492 6.27126H7.98131L7.62825 6.5343L7.76311 6.95997L7.41006 6.69692L7.05708 6.95997L7.1919 6.5343L6.83888 6.27126H7.27523L7.41009 5.84559ZM9.88016 5.84559L10.015 6.27126H10.4514L10.0983 6.5343L10.2332 6.95997L9.88016 6.69692L9.5271 6.95997L9.662 6.5343L9.30895 6.27126H9.74533L9.88016 5.84559ZM12.3501 5.84559L12.4849 6.27126H12.9213L12.5683 6.5343L12.7031 6.95997L12.3501 6.69692L11.9971 6.95997L12.1319 6.5343L11.7789 6.27126H12.2152L12.3501 5.84559Z" fill="white"/>
<path fill-rule="evenodd" clip-rule="evenodd" d="M1.23503 6.92256L1.36986 7.34819H1.80624L1.45319 7.61127L1.58805 8.0369L1.23499 7.77385L0.882013 8.0369L1.01684 7.61127L0.663818 7.34819H1.10017L1.23503 6.92256ZM3.70502 6.92256L3.83988 7.34819H4.27627L3.92321 7.61127L4.05808 8.0369L3.70502 7.77385L3.35204 8.0369L3.48686 7.61127L3.13384 7.34819H3.57019L3.70502 6.92256ZM6.17512 6.92256L6.30994 7.34819H6.74633L6.39328 7.61127L6.52814 8.0369L6.17512 7.77385L5.8221 8.0369L5.95693 7.61127L5.60391 7.34819H6.0403L6.17512 6.92256ZM8.64507 6.92256L8.77989 7.34819H9.21624L8.86323 7.61127L8.99805 8.0369L8.64507 7.77385L8.29201 8.0369L8.42688 7.61127L8.07382 7.34819H8.51021L8.64507 6.92256ZM11.1151 6.92256L11.25 7.34819H11.6863L11.3333 7.61127L11.4682 8.0369L11.1151 7.77385L10.7621 8.0369L10.8969 7.61127L10.5439 7.34819H10.9803L11.1151 6.92256ZM13.5852 6.92256L13.72 7.34819H14.1564L13.8034 7.61127L13.9382 8.0369L13.5852 7.77385L13.2321 8.0369L13.367 7.61127L13.014 7.34819H13.4504L13.5852 6.92256ZM2.47008 7.99947L2.60491 8.42514H3.04129L2.68824 8.68818L2.82314 9.11385L2.47008 8.8508L2.11706 9.11385L2.25189 8.68818L1.89887 8.42514H2.33526L2.47008 7.99947ZM4.94003 7.99947L5.07486 8.42514H5.51121L5.15819 8.68818L5.29301 9.11385L4.94003 8.8508L4.58697 9.11385L4.72184 8.68818L4.36878 8.42514H4.80517L4.94003 7.99947ZM7.41009 7.99947L7.54492 8.42514H7.98131L7.62825 8.68818L7.76311 9.11385L7.41006 8.8508L7.05708 9.11385L7.1919 8.68818L6.83888 8.42514H7.27523L7.41009 7.99947ZM9.88016 7.99947L10.015 8.42514H10.4514L10.0983 8.68818L10.2332 9.11385L9.88016 8.8508L9.5271 9.11385L9.662 8.68818L9.30895 8.42514H9.74533L9.88016 7.99947ZM12.3501 7.99947L12.4849 8.42514H12.9213L12.5683 8.68818L12.7031 9.11385L12.3501 8.8508L11.9971 9.11385L12.1319 8.68818L11.7789 8.42514H12.2152L12.3501 7.99947Z" fill="white"/>
<path fill-rule="evenodd" clip-rule="evenodd" d="M1.23503 9.07641L1.36986 9.50204H1.80624L1.45319 9.76512L1.58805 10.1907L1.23499 9.9277L0.882013 10.1907L1.01684 9.76512L0.663818 9.50204H1.10017L1.23503 9.07641ZM3.70502 9.07641L3.83988 9.50204H4.27627L3.92321 9.76512L4.05808 10.1907L3.70502 9.9277L3.35204 10.1907L3.48686 9.76512L3.13384 9.50204H3.57019L3.70502 9.07641ZM6.17512 9.07641L6.30994 9.50204H6.74633L6.39328 9.76512L6.52814 10.1907L6.17512 9.9277L5.8221 10.1907L5.95693 9.76512L5.60391 9.50204H6.0403L6.17512 9.07641ZM8.64507 9.07641L8.77989 9.50204H9.21624L8.86323 9.76512L8.99805 10.1907L8.64507 9.9277L8.29201 10.1907L8.42688 9.76512L8.07382 9.50204H8.51021L8.64507 9.07641ZM11.1151 9.07641L11.25 9.50204H11.6863L11.3333 9.76512L11.4682 10.1907L11.1151 9.9277L10.7621 10.1907L10.8969 9.76512L10.5439 9.50204H10.9803L11.1151 9.07641ZM13.5852 9.07641L13.72 9.50204H14.1564L13.8034 9.76512L13.9382 10.1907L13.5852 9.9277L13.2321 10.1907L13.367 9.76512L13.014 9.50204H13.4504L13.5852 9.07641Z" fill="white"/>
</g>
<defs>
<clipPath id="clip0_67_569">
<rect width="26" height="20" fill="white"/>
</clipPath>
</defs>
</svg>
