<svg width="16" height="16" viewBox="0 0 16 16" fill="none" xmlns="http://www.w3.org/2000/svg">
<g opacity="0.4">
<path d="M7.81121 4.48224C8.05437 4.24096 8.44502 4.23912 8.69045 4.47557L8.70073 4.4857L11.7482 7.55696C11.9881 7.79874 11.9915 8.18667 11.7583 8.43257L11.7482 8.44302L8.70073 11.5143C8.45605 11.7609 8.0578 11.7624 7.81121 11.5177C7.56804 11.2765 7.56316 10.8858 7.79769 10.6386L7.80775 10.6282L10.4156 7.99999L7.80775 5.37177C7.56646 5.1286 7.56462 4.73796 7.80107 4.49253L7.81121 4.48224Z" fill="rgba(222, 70, 25, 1)"/>
<path d="M10.8781 7.371C11.2255 7.371 11.5071 7.65261 11.5071 7.99999C11.5071 8.34324 11.2321 8.62227 10.8905 8.62887L10.8781 8.62899H4.69833C4.35095 8.62899 4.06934 8.34738 4.06934 7.99999C4.06934 7.65675 4.34428 7.37772 4.68595 7.37112L4.69833 7.371H10.8781Z" fill="rgba(222, 70, 25, 1)"/>
<path fill-rule="evenodd" clip-rule="evenodd" d="M0 8C0 3.58321 3.58321 0 8 0C12.4168 0 16 3.58321 16 8C16 12.4168 12.4168 16 8 16C3.58321 16 0 12.4168 0 8ZM14.742 8C14.742 4.27797 11.722 1.25799 8 1.25799C4.27797 1.25799 1.25799 4.27797 1.25799 8C1.25799 11.722 4.27797 14.742 8 14.742C11.722 14.742 14.742 11.722 14.742 8Z" fill="rgba(222, 70, 25, 1)"/>
</g>
</svg>
