<svg width="29" height="29" viewBox="0 0 29 29" fill="none" xmlns="http://www.w3.org/2000/svg">
<path d="M22.2031 13.0472H19.4844V15.694H22.2031V13.0472Z" fill="#ED6D64"/>
<path d="M25.375 13.0472H22.6562V15.694H25.375V13.0472Z" fill="#E9483D"/>
<path d="M14.4945 8.01961H10.3643V4.58879C10.3643 3.43267 11.6184 2.30157 12.7745 2.30157H16.0822V6.43177C16.0822 7.30873 15.3713 8.01961 14.4945 8.01961Z" fill="#F7931E"/>
<path d="M6.25043 8.01961H10.3806V4.58879C10.3806 3.43267 9.12648 2.30157 7.97031 2.30157H4.6626V6.43177C4.6626 7.30873 5.37348 8.01961 6.25043 8.01961Z" fill="#FBB03B"/>
<path d="M5.86192 7.63837L4.6626 6.26818V2.79089H5.86192V7.63837Z" fill="white"/>
<path d="M19.1319 11.8316H1.59668V26.3172H19.1319V11.8316Z" fill="#E9483D"/>
<path d="M9.98309 3.06403H9.2207V7.81626H9.98309V3.06403Z" fill="#F7931E"/>
<path d="M6.55227 11.8316H1.59668V26.3172H6.55227V11.8316Z" fill="#ED6D64"/>
<path d="M12.6516 11.8316H8.07715V26.3172H12.6516V11.8316Z" fill="#F7931E"/>
<path d="M20.2755 8.01959H0.453125V11.8316H20.2755V8.01959Z" fill="#E9483D"/>
<path d="M13.4141 8.01959H7.31494V11.8316H13.4141V8.01959Z" fill="#F7931E"/>
<path d="M5.78993 8.01959H0.453125V11.8316H5.78993V8.01959Z" fill="#ED6D64"/>
<path d="M10.7458 8.01959H7.31494V11.8316H10.7458V8.01959Z" fill="#FBB03B"/>
<path d="M1.90552 8.00787H0.762207V11.8316H1.90552V8.00787Z" fill="white"/>
<path d="M3.12547 26.2916H1.90576V12.2128H3.12126L3.12547 26.2916Z" fill="white"/>
<path d="M11.1267 12.2128H8.07715V26.3172H11.1267V12.2128Z" fill="#FBB03B"/>
<path d="M9.98337 20.218H6.17139V13.7376L8.07738 12.2128L9.98337 13.7376V20.218Z" fill="#F7931E"/>
<path d="M20.7286 7.56648H16.034C16.3678 7.15373 16.5683 6.62902 16.5683 6.05807V2.22968H12.3123C11.6702 2.22968 11.0666 2.47985 10.6127 2.93398C10.5214 3.02537 10.4387 3.1231 10.3643 3.2257C10.2898 3.1231 10.2072 3.02537 10.1158 2.93398C9.66195 2.47985 9.05834 2.22968 8.41622 2.22968H4.16031V6.05807C4.16031 6.62902 4.36082 7.15379 4.69462 7.56648H0V12.2848H1.14361V26.7704H19.585V12.2848H20.7286V7.56648ZM6.62426 19.7649V13.9554L8.07714 12.7931L9.53001 13.9554V19.7649H6.62426ZM10.4362 20.6712V13.5198L8.89245 12.2848H12.1984V25.8641H8.53025V20.6712H10.4362ZM7.76787 11.3785V8.47277H12.9608V11.3785H7.76787ZM11.2537 3.57462C11.5365 3.29173 11.9124 3.13597 12.3124 3.13597H15.6622V6.05807C15.6622 6.88334 14.9908 7.55475 14.1655 7.55475H10.8176L10.8193 4.63406C10.8193 4.60911 10.8182 4.58434 10.8175 4.5595C10.8352 4.18735 10.9885 3.83997 11.2537 3.57462ZM5.06654 3.13597H8.41634C8.81623 3.13597 9.19223 3.29173 9.47495 3.57462C9.74018 3.83997 9.89351 4.18735 9.91123 4.55944C9.91052 4.58428 9.90946 4.60905 9.90946 4.634L9.91117 7.55469H6.56327C5.738 7.55469 5.0666 6.88328 5.0666 6.05801L5.06654 3.13597ZM0.906232 11.3785V8.47277H6.86164V11.3785H1.14361H0.906232ZM2.04984 12.2848H7.26183L5.71803 13.5198V20.6712H7.62402V25.8641H2.04984V12.2848ZM18.6788 25.8641H13.1046V12.2848H18.6788V25.8641ZM19.8224 11.3785H19.585H13.867V8.47277H19.8224V11.3785Z" fill="#1D1D1B"/>
<path d="M8.83977 18.2401H7.31494V19.1464H8.83977V18.2401Z" fill="#1D1D1B"/>
<path d="M28.5469 15.8953H16.3125V18.6141H28.5469V15.8953Z" fill="#F7931E"/>
<path d="M25.375 15.8953H16.3125V18.6141H25.375V15.8953Z" fill="#FBB03B"/>
<path d="M27.6407 18.6141H17.2188V25.8641H27.6407V18.6141Z" fill="#F7931E"/>
<path d="M17.6718 15.8953H16.4692V18.5175H17.6718V15.8953Z" fill="white"/>
<path d="M24.9219 18.6141H17.2188V25.8641H24.9219V18.6141Z" fill="#FBB03B"/>
<path d="M24.0156 15.8953H20.3906V18.6141H24.0156V15.8953Z" fill="#E9483D"/>
<path d="M18.5779 18.5175H17.4346V26.3172H18.5779V18.5175Z" fill="white"/>
<path d="M22.2031 15.8953H20.3906V18.6141H22.2031V15.8953Z" fill="#ED6D64"/>
<path d="M23.1094 18.6141H21.2969V26.3172H23.1094V18.6141Z" fill="#E9483D"/>
<path d="M22.2031 18.6141H21.2969V26.3172H22.2031V18.6141Z" fill="#ED6D64"/>
<path d="M23.5625 26.7704H20.8438V18.161H23.5625V26.7704ZM21.75 25.8641H22.6563V19.0673H21.75V25.8641Z" fill="#1D1D1B"/>
<path d="M29.0001 15.4422H25.6899C25.8091 15.2298 25.8773 14.9852 25.8773 14.7249V12.545H23.4848C23.1248 12.545 22.7848 12.6737 22.5165 12.9089C22.2483 12.6737 21.9083 12.545 21.5482 12.545H19.1558V14.7249C19.1558 14.9853 19.2241 15.2298 19.3432 15.4422H15.8594V19.0672H16.7657V26.7704H28.0939V19.0673H29.0001V15.4422ZM20.8438 18.161V16.3485H23.5626V18.161H20.8438ZM23.4849 13.5495H24.8729V14.7249C24.8729 14.9824 24.6635 15.1918 24.406 15.1918H23.0191L23.0198 14.0173C23.0198 14.009 23.0193 14.0009 23.0192 13.9927C23.0249 13.8769 23.0722 13.7689 23.1547 13.6863C23.2428 13.5981 23.3601 13.5495 23.4849 13.5495ZM20.1603 13.5495H21.5483C21.6731 13.5495 21.7904 13.5981 21.8786 13.6863C21.9611 13.7689 22.0083 13.877 22.014 13.9927C22.0139 14.0009 22.0135 14.009 22.0135 14.0173L22.0141 15.1918H20.6272C20.3697 15.1918 20.1603 14.9824 20.1603 14.7249L20.1603 13.5495ZM16.7657 18.161V16.3485H19.9377V18.161H16.7657ZM27.1876 25.8641H17.672V19.0673H27.1876V25.8641ZM28.0939 18.161H24.4688V16.3485H28.0939V18.161Z" fill="#1D1D1B"/>
</svg>
