<svg width="25" height="25" viewBox="0 0 25 25" fill="none" xmlns="http://www.w3.org/2000/svg">
<path d="M7.3301 5.64236C7.14233 5.33424 6.8929 5.06826 6.59746 4.86111C6.24093 4.59856 5.84146 4.4 5.4169 4.2743L4.57662 4.07639C4.41767 4.26125 4.33455 4.49942 4.34398 4.74305C4.34398 5.78472 4.71551 6.06597 4.71551 6.06597H7.52454C7.47614 5.91779 7.4109 5.77566 7.3301 5.64236Z" fill="white"/>
<path d="M7.78457 20.4167C8.02764 20.1325 8.15198 19.7657 8.1318 19.3924V18.75H17.5068C17.4738 18.534 17.4575 18.3157 17.4582 18.0972C17.4582 14.9444 20.1839 10.4583 20.1839 6.87847C20.1839 4.01042 17.4582 3.64931 17.4582 3.64931H5.55541C5.55541 3.64931 7.68735 4.1632 8.18041 6.07986C8.24933 6.34631 8.28318 6.62062 8.2811 6.89583C8.29152 10.4618 5.55541 14.9479 5.55541 18.1007C5.55105 18.5018 5.60843 18.9011 5.72555 19.2847C5.81914 19.5866 5.96874 19.8681 6.16652 20.1146C6.29073 20.2592 6.43585 20.3844 6.59707 20.4861C6.74736 20.5961 6.92287 20.6665 7.10749 20.691C7.2338 20.6999 7.36048 20.6799 7.47784 20.6323C7.5952 20.5848 7.70012 20.511 7.78457 20.4167Z" fill="white"/>
<path d="M8.77789 19.3924C8.79715 19.9278 8.60937 20.4501 8.25358 20.8507C7.94837 21.0928 7.59221 21.2626 7.21191 21.3472H19.2432C19.4432 21.3371 19.6382 21.2804 19.8124 21.1815C19.9867 21.0826 20.1354 20.9444 20.2466 20.7778C20.53 20.3714 20.6737 19.884 20.6564 19.3889H8.77789V19.3924Z" fill="white"/>
</svg>
