<svg width="292" height="404" viewBox="0 0 292 404" fill="none" xmlns="http://www.w3.org/2000/svg">
<path d="M3 182.457H289V362.842C289 382.172 273.33 397.842 254 397.842H39C19.1177 397.842 3 381.724 3 361.842V182.457Z" fill="white" fill-opacity="0.2"/>
<path d="M59 2H37C17.67 2 2 17.67 2 37V50.2328" stroke="#3629B7" stroke-width="4" stroke-linecap="round"/>
<path d="M59 402H37C17.67 402 2 386.33 2 367V353.767" stroke="#3629B7" stroke-width="4" stroke-linecap="round"/>
<path d="M232.5 2H254.5C273.83 2 289.5 17.67 289.5 37V50.2328" stroke="#3629B7" stroke-width="4" stroke-linecap="round"/>
<path d="M232.5 402H254.5C273.83 402 289.5 386.33 289.5 367V353.767" stroke="#3629B7" stroke-width="4" stroke-linecap="round"/>
</svg>
