<svg width="24" height="24" viewBox="0 0 24 24" fill="none" xmlns="http://www.w3.org/2000/svg">
<path d="M16.4702 12.031V18.7665L18.8192 19.1073V12.3719L16.4702 12.031Z" fill="#9CA3AF"/>
<path d="M12.7153 0V22.5694L22.574 24V1.43058L12.7153 0ZM20.2497 20.7605L15.0395 20.0045V10.3778L20.2497 11.1338V20.7605ZM20.2497 10.1681L15.0395 9.41217V7.96622L20.2497 8.72259V10.1681ZM20.2497 7.79873L15.0395 7.04278V5.59683L20.2497 6.3532V7.79873ZM20.2498 5.44144L15.0395 4.68544V3.23953L20.2498 3.99591V5.44144Z" fill="#9CA3AF"/>
<path d="M1.42578 1.43058V24L11.2844 22.5694V0L1.42578 1.43058ZM8.96033 20.0045L3.75008 20.7605V11.1339L8.96033 10.3779V20.0045ZM8.96033 9.41213L3.75008 10.1681V8.72259L8.96033 7.96622V9.41213ZM8.96033 7.04283L3.75008 7.79873V6.35325L8.96033 5.59688V7.04283ZM8.96033 4.68544L3.75008 5.44144V3.99591L8.96033 3.23953V4.68544Z" fill="#9CA3AF"/>
<path d="M5.18066 12.3719V19.1073L7.52966 18.7665V12.031L5.18066 12.3719Z" fill="#9CA3AF"/>
</svg>
