<svg width="48" height="48" viewBox="0 0 48 48" fill="none" xmlns="http://www.w3.org/2000/svg">
<rect width="48" height="48" rx="24" fill="#9CA3AF"/>
<path d="M19.0368 17.4167C18.8565 17.1209 18.6171 16.8655 18.3335 16.6667C17.9912 16.4146 17.6077 16.224 17.2001 16.1033L16.3935 15.9133C16.2409 16.0908 16.1611 16.3194 16.1701 16.5533C16.1701 17.5533 16.5268 17.8233 16.5268 17.8233H19.2235C19.177 17.6811 19.1144 17.5446 19.0368 17.4167Z" fill="#9CA3AF"/>
<path d="M19.4732 31.6C19.7066 31.3272 19.8259 30.9751 19.8066 30.6167V30H28.8066C28.7749 29.7926 28.7592 29.5831 28.7599 29.3733C28.7599 26.3467 31.3766 22.04 31.3766 18.6033C31.3766 15.85 28.7599 15.5033 28.7599 15.5033H17.3332C17.3332 15.5033 19.3799 15.9967 19.8532 17.8367C19.9194 18.0925 19.9519 18.3558 19.9499 18.62C19.9599 22.0433 17.3332 26.35 17.3332 29.3767C17.329 29.7617 17.3841 30.1451 17.4966 30.5133C17.5864 30.8031 17.73 31.0734 17.9199 31.31C18.0391 31.4488 18.1785 31.569 18.3332 31.6667C18.4775 31.7722 18.646 31.8399 18.8232 31.8633C18.9445 31.8719 19.0661 31.8527 19.1788 31.807C19.2914 31.7614 19.3922 31.6906 19.4732 31.6Z" fill="#9CA3AF"/>
<path d="M20.4267 30.6167C20.4452 31.1307 20.2649 31.6321 19.9233 32.0167C19.6303 32.2491 19.2884 32.4121 18.9233 32.4933H30.4733C30.6654 32.4836 30.8526 32.4292 31.0198 32.3342C31.1871 32.2393 31.3298 32.1066 31.4367 31.9467C31.7087 31.5565 31.8467 31.0886 31.83 30.6133H20.4267V30.6167Z" fill="#9CA3AF"/>
</svg>
