<svg width="29" height="29" viewBox="0 0 29 29" fill="none" xmlns="http://www.w3.org/2000/svg">
<path d="M24.7487 25.8622H6.07268C5.04173 25.8622 4.20508 25.0255 4.20508 23.9946V13.0906C4.20508 12.4932 4.49073 11.932 4.97358 11.5811L14.1651 4.89085C14.4811 4.66103 14.8611 4.53603 15.2517 4.53343C15.6424 4.53083 16.0241 4.65076 16.343 4.87635L25.8275 11.5826C26.3219 11.932 26.6163 12.5004 26.6163 13.108V23.996C26.6163 25.0255 25.7796 25.8622 24.7487 25.8622Z" fill="#787CF5"/>
<path d="M2.43891 13.034C2.19821 13.034 2.00391 12.8397 2.00391 12.599V12.0828C2.00391 11.3027 2.38091 10.5618 3.01166 10.1021L4.94016 8.69853C5.13446 8.55644 5.40706 8.59994 5.54771 8.79424C5.68836 8.98854 5.64631 9.26114 5.45201 9.40179L3.52351 10.8054C3.3224 10.9522 3.15876 11.1444 3.04589 11.3664C2.93302 11.5884 2.8741 11.8338 2.87391 12.0828V12.599C2.87391 12.8397 2.67961 13.034 2.43891 13.034ZM2.43891 17.8161C2.19821 17.8161 2.00391 17.6218 2.00391 17.3811V14.5739C2.00391 14.3332 2.19821 14.1389 2.43891 14.1389C2.67961 14.1389 2.87391 14.3332 2.87391 14.5739V17.3811C2.87391 17.6218 2.67961 17.8161 2.43891 17.8161ZM11.4376 4.94304C11.3028 4.94304 11.1708 4.88068 11.0853 4.76468C10.9446 4.57038 10.9867 4.29779 11.181 4.15714L12.9268 2.88549C13.3409 2.58375 13.8393 2.41951 14.3517 2.41586C14.8642 2.41222 15.3648 2.56937 15.7833 2.86519L17.5958 4.14699C17.7915 4.28619 17.8379 4.55734 17.7002 4.75309C17.6334 4.84703 17.5322 4.91073 17.4186 4.9303C17.3051 4.94986 17.1884 4.92368 17.0941 4.85749L15.2816 3.57569C14.7277 3.18419 13.9882 3.18999 13.4401 3.58874L11.6943 4.86039C11.616 4.91549 11.5261 4.94304 11.4376 4.94304Z" fill="#333333"/>
<path d="M22.6476 22.2996H7.93441C7.63291 22.2996 7.34376 22.1798 7.13057 21.9666C6.91738 21.7534 6.79761 21.4643 6.79761 21.1628V6.92376C6.79761 6.62226 6.91738 6.33311 7.13057 6.11992C7.34376 5.90673 7.63291 5.78696 7.93441 5.78696H22.6461C22.9476 5.78696 23.2368 5.90673 23.4499 6.11992C23.6631 6.33311 23.7829 6.62226 23.7829 6.92376V21.1628C23.7844 21.7906 23.2754 22.2996 22.6476 22.2996Z" fill="#ECD300"/>
<path d="M23.7436 21.4586C23.7697 21.3643 23.7842 21.2657 23.7842 21.1628V6.92376C23.7842 6.62226 23.6645 6.33311 23.4513 6.11992C23.2381 5.90673 22.9489 5.78696 22.6474 5.78696H21.9413V16.153L9.21753 21.6616L10.1165 22.2996H21.2496L23.7436 21.4586Z" fill="#E8A200"/>
<path d="M22.6476 22.7346H6.34963C5.48253 22.7346 4.77783 22.0299 4.77783 21.1628V6.42785C4.77783 5.16635 5.80443 4.1412 7.06448 4.1412H21.9313C23.1928 4.1412 24.218 5.16635 24.218 6.42785V21.1628C24.2194 22.0299 23.5133 22.7346 22.6476 22.7346ZM7.06593 5.0112C6.28438 5.0112 5.64928 5.6463 5.64928 6.42785V21.1628C5.64928 21.5499 5.96393 21.8646 6.35108 21.8646H22.6476C23.0348 21.8646 23.3494 21.5499 23.3494 21.1628V6.42785C23.3494 5.6463 22.7143 5.0112 21.9328 5.0112H7.06593Z" fill="#333333"/>
<path d="M5.54781 25.4736H24.6516C24.8662 25.4736 25.0706 25.4359 25.262 25.3692L4.18481 16.0979V24.1106C4.18481 24.8631 4.79526 25.4736 5.54781 25.4736Z" fill="#8F93FB"/>
<path d="M4.18481 23.954V24.1106C4.18481 24.8631 4.79526 25.4736 5.54781 25.4736L15.1352 21.112L12.7978 20.2L4.18481 23.954Z" fill="#787CF5"/>
<path d="M26.6162 23.8467V15.9949L21.0091 18.4295L19.8781 18.921L18.9501 19.3241L4.00781 25.81C4.15136 25.8433 4.30071 25.8607 4.45441 25.8607H24.6022C25.7143 25.8622 26.6162 24.9603 26.6162 23.8467Z" fill="#8F93FB"/>
<path d="M24.7806 23.4552C24.7806 24.3948 24.7589 25.8462 22.4534 25.8462C22.4592 25.852 22.465 25.8564 22.4693 25.8622H24.6008C25.713 25.8622 26.6149 24.9603 26.6149 23.8482V15.9964L24.8618 16.7576L24.7792 16.8388C24.7806 16.8374 24.7806 22.5156 24.7806 23.4552Z" fill="#787CF5"/>
<path d="M2.43891 19.8229C2.67961 19.8229 2.87391 19.6286 2.87391 19.3879V18.8007C2.87391 18.56 2.67961 18.3657 2.43891 18.3657C2.19821 18.3657 2.00391 18.56 2.00391 18.8007V19.3879C2.00391 19.6286 2.19966 19.8229 2.43891 19.8229Z" fill="#333333"/>
<path d="M26.0158 10.1007L24.1642 8.79135C24.1175 8.75838 24.0649 8.73493 24.0091 8.72234C23.9534 8.70974 23.8958 8.70825 23.8395 8.71795C23.7832 8.72764 23.7294 8.74834 23.6811 8.77885C23.6328 8.80935 23.591 8.84908 23.5581 8.89575C23.525 8.94234 23.5014 8.99502 23.4887 9.05075C23.476 9.10649 23.4745 9.16418 23.4842 9.22052C23.4939 9.27685 23.5147 9.3307 23.5452 9.37898C23.5758 9.42727 23.6157 9.46902 23.6625 9.50185L25.5141 10.8112C25.9317 11.107 26.1811 11.5884 26.1811 12.1017V15.7107L21.3874 17.7915C21.2815 17.8375 21.1982 17.9237 21.1558 18.0311C21.1134 18.1385 21.1154 18.2583 21.1612 18.3642C21.2072 18.4701 21.2934 18.5534 21.4008 18.5959C21.5082 18.6383 21.628 18.6363 21.734 18.5904L26.1826 16.659V23.8482C26.1826 24.7196 25.4735 25.4272 24.6035 25.4272H5.98263L19.9461 19.3662C20.052 19.3202 20.1353 19.234 20.1777 19.1266C20.2202 19.0192 20.2182 18.8994 20.1723 18.7934C20.1263 18.6876 20.0401 18.6043 19.9328 18.5618C19.8254 18.5194 19.7055 18.5214 19.5996 18.5672L14.7769 20.661L2.61428 15.312C2.39388 15.2148 2.13723 15.3149 2.04153 15.5353C1.94438 15.7557 2.04443 16.0123 2.26483 16.108L13.6908 21.1337L3.97293 25.3518C3.33638 25.1473 2.87528 24.5514 2.87528 23.8482V21.0859C2.87528 20.8452 2.68098 20.6509 2.44028 20.6509C2.19958 20.6509 2.00528 20.8452 2.00528 21.0859V23.8482C2.00528 25.0082 2.81728 25.9811 3.90188 26.2319C3.90623 26.2334 3.90913 26.2348 3.91203 26.2348C3.91493 26.2348 3.91638 26.2348 3.91928 26.2363C4.00483 26.2551 4.09183 26.2711 4.18173 26.2812C4.18318 26.2812 4.18463 26.2812 4.18753 26.2827C4.27598 26.2928 4.36588 26.2986 4.45723 26.2986H24.605C25.9564 26.2986 27.054 25.1995 27.054 23.8496V12.1002C27.0525 11.7084 26.9574 11.3226 26.7769 10.9748C26.5963 10.6271 26.3354 10.3274 26.0158 10.1007Z" fill="#333333"/>
<path d="M18.2351 10.4124C17.4477 9.57 16.1703 9.57 15.3829 10.4124L14.8131 11.0229L14.8058 11.0156V11.0113L14.8029 11.0142L14.8 11.0113V11.0156L14.7928 11.0229L14.2229 10.4124C13.4356 9.57 12.1581 9.57 11.3708 10.4124C10.5834 11.2549 10.5834 12.6208 11.3708 13.4632L14.3911 16.6938C14.4984 16.8084 14.642 16.8722 14.7928 16.8722C14.7957 16.8722 14.7986 16.8722 14.8029 16.8707C14.8058 16.8707 14.8087 16.8722 14.8131 16.8722C14.9639 16.8722 15.1089 16.8084 15.2147 16.6938L18.2351 13.4632C19.0224 12.6208 19.0224 11.2549 18.2351 10.4124Z" fill="#FF6339"/>
<path d="M18.2352 10.4124C18.0254 10.1864 17.7657 10.0126 17.4768 9.90494C17.9916 10.4327 18.3439 11.4463 17.5841 12.2655C16.6344 13.2892 14.2984 15.6368 13.6851 16.2284L14.3912 16.6938C14.4985 16.8084 14.6421 16.8722 14.7929 16.8722C14.7958 16.8722 14.7987 16.8722 14.803 16.8707C14.8059 16.8707 14.8088 16.8722 14.8132 16.8722C14.964 16.8722 15.109 16.8084 15.2148 16.6938L18.2352 13.4632C19.0225 12.6208 19.0225 11.2549 18.2352 10.4124Z" fill="#F94A21"/>
<path d="M14.4535 17.3333H14.4318C14.1418 17.3333 13.8692 17.2202 13.6647 17.0158L11.539 14.8901C11.4576 14.8085 11.4118 14.6979 11.4118 14.5827C11.4118 14.4674 11.4576 14.3568 11.539 14.2753C11.6206 14.1938 11.7312 14.148 11.8464 14.148C11.9617 14.148 12.0723 14.1938 12.1538 14.2753L14.2795 16.401C14.3172 16.4387 14.3665 16.4604 14.4187 16.4633C14.4347 16.4619 14.4506 16.4633 14.4651 16.4633C14.5173 16.4604 14.5666 16.4387 14.6043 16.401L18.0539 12.9514C18.4062 12.5991 18.6005 12.1293 18.6005 11.6305C18.6005 11.1317 18.4062 10.6619 18.0539 10.3095C17.8807 10.1356 17.6749 9.99779 17.4481 9.90396C17.2214 9.81013 16.9783 9.76217 16.7329 9.76285C16.2341 9.76285 15.7643 9.95715 15.412 10.3095L14.7609 10.9606C14.6551 11.0664 14.5101 11.107 14.3738 11.0809C14.2824 11.0693 14.1925 11.0302 14.1229 10.9606L13.4719 10.3095C13.2987 10.1356 13.0929 9.99779 12.8661 9.90396C12.6394 9.81013 12.3963 9.76217 12.1509 9.76285C11.6521 9.76285 11.1823 9.95715 10.83 10.3095C10.4776 10.6619 10.2833 11.1317 10.2833 11.6305C10.2833 12.1293 10.4776 12.5991 10.83 12.9514L11.1591 13.2806C11.2406 13.3621 11.2863 13.4727 11.2863 13.588C11.2863 13.7032 11.2406 13.8138 11.1591 13.8954C11.0776 13.9768 10.967 14.0226 10.8517 14.0226C10.7365 14.0226 10.6259 13.9768 10.5443 13.8954L10.2152 13.5662C9.69753 13.0486 9.41333 12.3613 9.41333 11.6305C9.41333 10.8997 9.69753 10.2109 10.2152 9.6947C10.7328 9.17705 11.4201 8.89285 12.1509 8.89285C12.8817 8.89285 13.5705 9.17705 14.0867 9.6947L14.4419 10.05L14.7972 9.6947C15.3148 9.17705 16.0021 8.89285 16.7329 8.89285C17.4637 8.89285 18.1525 9.17705 18.6687 9.6947C19.1863 10.2124 19.4705 10.8997 19.4705 11.6305C19.4705 12.3613 19.1863 13.05 18.6687 13.5662L15.2191 17.0158C15.119 17.1168 14.9997 17.197 14.8683 17.2515C14.7368 17.306 14.5958 17.3338 14.4535 17.3333Z" fill="#333333"/>
<path d="M5.43159 21.4411C5.38399 21.4411 5.33685 21.4318 5.29287 21.4135C5.24889 21.3953 5.20893 21.3686 5.17527 21.335C5.1416 21.3013 5.1149 21.2613 5.09669 21.2174C5.07847 21.1734 5.06909 21.1262 5.06909 21.0786V19.6098C5.06909 19.5136 5.10728 19.4214 5.17527 19.3535C5.24325 19.2855 5.33545 19.2473 5.43159 19.2473C5.52773 19.2473 5.61994 19.2855 5.68792 19.3535C5.7559 19.4214 5.79409 19.5136 5.79409 19.6098V21.0786C5.79409 21.1748 5.7559 21.267 5.68792 21.335C5.61994 21.4029 5.52773 21.4411 5.43159 21.4411ZM12.4133 13.3965C12.3336 13.3965 12.2538 13.3704 12.1857 13.3168C11.7681 12.9804 11.5361 12.5918 11.4955 12.1597C11.436 11.5347 11.8072 11.0809 11.8493 11.0301C11.9798 10.8779 12.2074 10.859 12.3597 10.9895C12.4326 11.0515 12.4782 11.1397 12.4863 11.2351C12.4945 11.3304 12.4646 11.4251 12.4032 11.4985C12.3959 11.5086 12.1842 11.774 12.2176 12.0988C12.2408 12.3264 12.3829 12.5468 12.641 12.7527C12.7976 12.8789 12.8222 13.1065 12.6961 13.2617C12.6236 13.3501 12.5192 13.3965 12.4133 13.3965ZM8.12134 9.64104C8.07374 9.64104 8.0266 9.63166 7.98262 9.61345C7.93864 9.59523 7.89868 9.56853 7.86502 9.53487C7.83135 9.5012 7.80465 9.46124 7.78644 9.41726C7.76822 9.37328 7.75884 9.32614 7.75884 9.27854V9.14369C7.75884 9.04755 7.79703 8.95534 7.86502 8.88736C7.933 8.81938 8.0252 8.78119 8.12134 8.78119C8.21748 8.78119 8.30969 8.81938 8.37767 8.88736C8.44565 8.95534 8.48384 9.04755 8.48384 9.14369V9.27854C8.48384 9.32614 8.47447 9.37328 8.45625 9.41726C8.43803 9.46124 8.41133 9.5012 8.37767 9.53487C8.34401 9.56853 8.30405 9.59523 8.26006 9.61345C8.21608 9.63166 8.16895 9.64104 8.12134 9.64104Z" fill="white"/>
<path d="M8.12153 8.43464C8.02539 8.43464 7.93319 8.39645 7.86521 8.32847C7.79723 8.26049 7.75903 8.16828 7.75903 8.07214V7.99674C7.75903 7.39064 8.25203 6.89764 8.85813 6.89764H11.052C11.1481 6.89764 11.2403 6.93584 11.3083 7.00382C11.3763 7.0718 11.4145 7.164 11.4145 7.26014C11.4145 7.35629 11.3763 7.44849 11.3083 7.51647C11.2403 7.58445 11.1481 7.62264 11.052 7.62264H8.85813C8.65223 7.62264 8.48403 7.79084 8.48403 7.99674V8.07214C8.48403 8.27369 8.32163 8.43464 8.12153 8.43464Z" fill="white"/>
</svg>
