<svg width="20" height="20" viewBox="0 0 20 20" fill="none" xmlns="http://www.w3.org/2000/svg">
<path d="M1.6665 10C1.6665 6.85734 1.6665 5.286 2.64281 4.30968C3.61913 3.33337 5.19047 3.33337 8.33317 3.33337H10.8332C12.4688 3.33337 13.2868 3.33337 13.9906 3.68528C14.6943 4.03719 15.1851 4.69147 16.1665 6.00004C17.6109 7.92597 18.3332 8.88896 18.3332 10C18.3332 11.1111 17.6109 12.0741 16.1665 14C15.1851 15.3086 14.6943 15.9629 13.9906 16.3148C13.2868 16.6667 12.4688 16.6667 10.8332 16.6667H8.33317C5.19047 16.6667 3.61913 16.6667 2.64281 15.6904C1.6665 14.7141 1.6665 13.1427 1.6665 10Z" stroke="#030712" stroke-width="1.5"/>
</svg>
