<svg width="92" height="66" viewBox="0 0 92 66" fill="none" xmlns="http://www.w3.org/2000/svg">
<rect x="26" width="40" height="40" rx="20" fill="#0077B5"/>
<g clip-path="url(#clip0_66_705)">
<path d="M53.9961 28V27.9993H54.0001V22.1313C54.0001 19.2607 53.3821 17.0493 50.0261 17.0493C48.4128 17.0493 47.3301 17.9347 46.8881 18.774H46.8414V17.3173H43.6594V27.9993H46.9728V22.71C46.9728 21.3173 47.2368 19.9707 48.9614 19.9707C50.6608 19.9707 50.6861 21.56 50.6861 22.7993V28H53.9961Z" fill="white"/>
<path d="M38.2637 17.318H41.581V28H38.2637V17.318Z" fill="white"/>
<path d="M39.9213 12C38.8607 12 38 12.8607 38 13.9213C38 14.982 38.8607 15.8607 39.9213 15.8607C40.982 15.8607 41.8427 14.982 41.8427 13.9213C41.842 12.8607 40.9813 12 39.9213 12V12Z" fill="white"/>
</g>
<path d="M21.336 61C21.208 61 21.096 60.956 21 60.868C20.912 60.78 20.868 60.668 20.868 60.532V52.096C20.868 51.968 20.912 51.86 21 51.772C21.096 51.676 21.208 51.628 21.336 51.628C21.464 51.628 21.572 51.676 21.66 51.772C21.756 51.86 21.804 51.968 21.804 52.096V60.112H26.496C26.624 60.112 26.732 60.156 26.82 60.244C26.916 60.324 26.964 60.428 26.964 60.556C26.964 60.684 26.916 60.792 26.82 60.88C26.732 60.96 26.624 61 26.496 61H21.336ZM29.0017 61C28.8577 61 28.7417 60.96 28.6537 60.88C28.5737 60.792 28.5337 60.676 28.5337 60.532V54.904C28.5337 54.76 28.5737 54.648 28.6537 54.568C28.7417 54.48 28.8577 54.436 29.0017 54.436C29.1377 54.436 29.2457 54.48 29.3257 54.568C29.4137 54.648 29.4577 54.76 29.4577 54.904V60.532C29.4577 60.676 29.4137 60.792 29.3257 60.88C29.2457 60.96 29.1377 61 29.0017 61ZM28.9897 53.188C28.8137 53.188 28.6617 53.124 28.5337 52.996C28.4057 52.868 28.3417 52.712 28.3417 52.528C28.3417 52.328 28.4057 52.172 28.5337 52.06C28.6697 51.94 28.8257 51.88 29.0017 51.88C29.1697 51.88 29.3177 51.94 29.4457 52.06C29.5817 52.172 29.6497 52.328 29.6497 52.528C29.6497 52.712 29.5857 52.868 29.4577 52.996C29.3297 53.124 29.1737 53.188 28.9897 53.188ZM37.4385 61C37.3025 61 37.1905 60.956 37.1025 60.868C37.0145 60.78 36.9705 60.672 36.9705 60.544V57.424C36.9705 56.928 36.8745 56.52 36.6825 56.2C36.4985 55.88 36.2425 55.64 35.9145 55.48C35.5945 55.32 35.2305 55.24 34.8225 55.24C34.4305 55.24 34.0745 55.316 33.7545 55.468C33.4425 55.62 33.1945 55.828 33.0105 56.092C32.8265 56.356 32.7345 56.656 32.7345 56.992H32.0745C32.0905 56.488 32.2265 56.04 32.4825 55.648C32.7385 55.248 33.0785 54.936 33.5025 54.712C33.9265 54.48 34.3985 54.364 34.9185 54.364C35.4865 54.364 35.9945 54.484 36.4425 54.724C36.8905 54.956 37.2425 55.3 37.4985 55.756C37.7625 56.212 37.8945 56.768 37.8945 57.424V60.544C37.8945 60.672 37.8505 60.78 37.7625 60.868C37.6745 60.956 37.5665 61 37.4385 61ZM32.2785 61C32.1345 61 32.0185 60.96 31.9305 60.88C31.8505 60.792 31.8105 60.68 31.8105 60.544V54.904C31.8105 54.76 31.8505 54.648 31.9305 54.568C32.0185 54.48 32.1345 54.436 32.2785 54.436C32.4145 54.436 32.5225 54.48 32.6025 54.568C32.6905 54.648 32.7345 54.76 32.7345 54.904V60.544C32.7345 60.68 32.6905 60.792 32.6025 60.88C32.5225 60.96 32.4145 61 32.2785 61ZM40.6876 58.804L40.1236 58.192L44.2276 54.484C44.3236 54.396 44.4236 54.356 44.5276 54.364C44.6316 54.364 44.7276 54.412 44.8156 54.508C44.9036 54.604 44.9436 54.708 44.9356 54.82C44.9356 54.924 44.8876 55.016 44.7916 55.096L40.6876 58.804ZM40.3876 61C40.2516 61 40.1396 60.96 40.0516 60.88C39.9716 60.792 39.9316 60.68 39.9316 60.544V52.084C39.9316 51.948 39.9716 51.84 40.0516 51.76C40.1396 51.672 40.2516 51.628 40.3876 51.628C40.5236 51.628 40.6316 51.672 40.7116 51.76C40.7996 51.84 40.8436 51.948 40.8436 52.084V60.544C40.8436 60.68 40.7996 60.792 40.7116 60.88C40.6316 60.96 40.5236 61 40.3876 61ZM44.8276 60.94C44.7236 61.028 44.6156 61.064 44.5036 61.048C44.3916 61.04 44.2956 60.984 44.2156 60.88L41.5396 57.592L42.1876 57.016L44.8876 60.34C44.9676 60.436 45.0036 60.54 44.9956 60.652C44.9876 60.756 44.9316 60.852 44.8276 60.94ZM49.1771 61.06C48.5291 61.06 47.9531 60.92 47.4491 60.64C46.9531 60.352 46.5611 59.956 46.2731 59.452C45.9931 58.948 45.8531 58.372 45.8531 57.724C45.8531 57.068 45.9851 56.492 46.2491 55.996C46.5211 55.492 46.8931 55.096 47.3651 54.808C47.8371 54.52 48.3811 54.376 48.9971 54.376C49.6051 54.376 50.1331 54.516 50.5811 54.796C51.0371 55.068 51.3891 55.448 51.6371 55.936C51.8851 56.424 52.0091 56.98 52.0091 57.604C52.0091 57.732 51.9691 57.836 51.8891 57.916C51.8091 57.988 51.7051 58.024 51.5771 58.024H46.4771V57.256H51.6731L51.1571 57.628C51.1651 57.164 51.0811 56.748 50.9051 56.38C50.7291 56.012 50.4771 55.724 50.1491 55.516C49.8291 55.308 49.4451 55.204 48.9971 55.204C48.5411 55.204 48.1411 55.312 47.7971 55.528C47.4531 55.744 47.1851 56.044 46.9931 56.428C46.8091 56.804 46.7171 57.236 46.7171 57.724C46.7171 58.212 46.8211 58.644 47.0291 59.02C47.2451 59.396 47.5371 59.692 47.9051 59.908C48.2731 60.124 48.6971 60.232 49.1771 60.232C49.4651 60.232 49.7531 60.184 50.0411 60.088C50.3371 59.984 50.5731 59.856 50.7491 59.704C50.8371 59.632 50.9371 59.596 51.0491 59.596C51.1611 59.588 51.2571 59.616 51.3371 59.68C51.4411 59.776 51.4931 59.88 51.4931 59.992C51.5011 60.104 51.4571 60.2 51.3611 60.28C51.0971 60.504 50.7611 60.692 50.3531 60.844C49.9451 60.988 49.5531 61.06 49.1771 61.06ZM56.3258 61.06C55.6938 61.06 55.1258 60.916 54.6218 60.628C54.1178 60.332 53.7178 59.932 53.4218 59.428C53.1338 58.924 52.9898 58.352 52.9898 57.712C52.9898 57.08 53.1298 56.512 53.4098 56.008C53.6978 55.504 54.0858 55.108 54.5738 54.82C55.0618 54.524 55.6138 54.376 56.2298 54.376C56.7658 54.376 57.2498 54.492 57.6818 54.724C58.1138 54.948 58.4618 55.248 58.7258 55.624V52.096C58.7258 51.952 58.7698 51.84 58.8578 51.76C58.9458 51.672 59.0578 51.628 59.1938 51.628C59.3298 51.628 59.4418 51.672 59.5298 51.76C59.6178 51.84 59.6618 51.952 59.6618 52.096V57.76C59.6458 58.384 59.4898 58.948 59.1938 59.452C58.9058 59.948 58.5098 60.34 58.0058 60.628C57.5098 60.916 56.9498 61.06 56.3258 61.06ZM56.3258 60.22C56.7898 60.22 57.2018 60.112 57.5618 59.896C57.9298 59.672 58.2178 59.372 58.4258 58.996C58.6418 58.62 58.7498 58.192 58.7498 57.712C58.7498 57.24 58.6418 56.816 58.4258 56.44C58.2178 56.056 57.9298 55.756 57.5618 55.54C57.2018 55.324 56.7898 55.216 56.3258 55.216C55.8698 55.216 55.4578 55.324 55.0898 55.54C54.7218 55.756 54.4298 56.056 54.2138 56.44C53.9978 56.816 53.8898 57.24 53.8898 57.712C53.8898 58.192 53.9978 58.62 54.2138 58.996C54.4298 59.372 54.7218 59.672 55.0898 59.896C55.4578 60.112 55.8698 60.22 56.3258 60.22ZM62.4822 61C62.3382 61 62.2222 60.96 62.1342 60.88C62.0542 60.792 62.0142 60.676 62.0142 60.532V54.904C62.0142 54.76 62.0542 54.648 62.1342 54.568C62.2222 54.48 62.3382 54.436 62.4822 54.436C62.6182 54.436 62.7262 54.48 62.8062 54.568C62.8942 54.648 62.9382 54.76 62.9382 54.904V60.532C62.9382 60.676 62.8942 60.792 62.8062 60.88C62.7262 60.96 62.6182 61 62.4822 61ZM62.4702 53.188C62.2942 53.188 62.1422 53.124 62.0142 52.996C61.8862 52.868 61.8222 52.712 61.8222 52.528C61.8222 52.328 61.8862 52.172 62.0142 52.06C62.1502 51.94 62.3062 51.88 62.4822 51.88C62.6502 51.88 62.7982 51.94 62.9262 52.06C63.0622 52.172 63.1302 52.328 63.1302 52.528C63.1302 52.712 63.0662 52.868 62.9382 52.996C62.8102 53.124 62.6542 53.188 62.4702 53.188ZM70.9189 61C70.7829 61 70.6709 60.956 70.5829 60.868C70.4949 60.78 70.4509 60.672 70.4509 60.544V57.424C70.4509 56.928 70.3549 56.52 70.1629 56.2C69.9789 55.88 69.7229 55.64 69.3949 55.48C69.0749 55.32 68.7109 55.24 68.3029 55.24C67.9109 55.24 67.5549 55.316 67.2349 55.468C66.9229 55.62 66.6749 55.828 66.4909 56.092C66.3069 56.356 66.2149 56.656 66.2149 56.992H65.5549C65.5709 56.488 65.7069 56.04 65.9629 55.648C66.2189 55.248 66.5589 54.936 66.9829 54.712C67.4069 54.48 67.8789 54.364 68.3989 54.364C68.9669 54.364 69.4749 54.484 69.9229 54.724C70.3709 54.956 70.7229 55.3 70.9789 55.756C71.2429 56.212 71.3749 56.768 71.3749 57.424V60.544C71.3749 60.672 71.3309 60.78 71.2429 60.868C71.1549 60.956 71.0469 61 70.9189 61ZM65.7589 61C65.6149 61 65.4989 60.96 65.4109 60.88C65.3309 60.792 65.2909 60.68 65.2909 60.544V54.904C65.2909 54.76 65.3309 54.648 65.4109 54.568C65.4989 54.48 65.6149 54.436 65.7589 54.436C65.8949 54.436 66.0029 54.48 66.0829 54.568C66.1709 54.648 66.2149 54.76 66.2149 54.904V60.544C66.2149 60.68 66.1709 60.792 66.0829 60.88C66.0029 60.96 65.8949 61 65.7589 61Z" fill="#464D61"/>
<defs>
<clipPath id="clip0_66_705">
<rect width="16" height="16" fill="white" transform="translate(38 12)"/>
</clipPath>
</defs>
</svg>
