<svg width="66" height="66" viewBox="0 0 66 66" fill="none" xmlns="http://www.w3.org/2000/svg">
<path d="M38.8207 52.7392V59.2363H26.7522V27.1923H32.058V20.4286H20.0174V39.2277H6.75471V27.1923H13.2626V20.4286H6.26911C4.60708 20.4307 3.01373 21.0915 1.8385 22.2663C0.663269 23.441 0.0021065 25.0336 0 26.6949V39.7409C0.0021065 41.4022 0.663269 42.9949 1.8385 44.1696C3.01373 45.3443 4.60708 46.0052 6.26911 46.0073H20.0174V59.7456C20.0226 61.4041 20.6846 62.9931 21.8587 64.1651C23.0327 65.3371 24.6232 65.9968 26.2825 66H39.3023C40.9643 65.9979 42.5577 65.337 43.7329 64.1623C44.9081 62.9876 45.5693 61.3949 45.5714 59.7336V52.7392H38.8207Z" fill="#257CFF"/>
<path d="M59.7303 19.9997H45.9849V6.26856C45.9828 4.60668 45.3215 3.01347 44.1462 1.83834C42.9709 0.663218 41.3774 0.00210631 39.7152 0H26.6942C25.0328 0.00315883 23.4403 0.664734 22.2658 1.83975C21.0913 3.01476 20.4307 4.60737 20.4286 6.26856V13.2575H27.164V6.7382H39.2216V38.8054H33.9312V45.5714H45.9849V26.7498H59.2487V38.8054H52.7362V45.5714H59.7303C61.3925 45.5693 62.986 44.9082 64.1613 43.7331C65.3367 42.558 65.9979 40.9647 66 39.3029V26.2682C65.9979 24.6064 65.3367 23.0132 64.1613 21.838C62.986 20.6629 61.3925 20.0018 59.7303 19.9997Z" fill="#257CFF"/>
</svg>
