<svg width="30" height="29" viewBox="0 0 30 29" fill="none" xmlns="http://www.w3.org/2000/svg">
<circle cx="15" cy="14.5" r="14.5" fill="url(#paint0_linear_66_652)"/>
<path d="M4.21774 19L5.66197 10.816H7.74291V11.9807H7.85162C8.06903 11.7012 8.3175 11.4631 8.59703 11.2664C8.88691 11.0593 9.1975 10.904 9.52879 10.8005C9.86009 10.6866 10.1966 10.6296 10.5382 10.6296C11.1283 10.6296 11.6097 10.7435 11.9824 10.9713C12.3551 11.1887 12.6088 11.5252 12.7434 11.9807H12.8521C13.0799 11.7012 13.3387 11.4631 13.6286 11.2664C13.9184 11.0593 14.2239 10.904 14.5448 10.8005C14.8761 10.6866 15.2177 10.6296 15.5697 10.6296C16.3151 10.6296 16.8897 10.8056 17.2935 11.1576C17.6973 11.4993 17.8991 12.0325 17.8991 12.7572C17.8991 12.9125 17.8888 13.0729 17.8681 13.2386C17.8474 13.4042 17.8215 13.5751 17.7904 13.7511L16.8587 19H14.3119L15.197 14.0461C15.2074 13.9529 15.2177 13.8649 15.2281 13.7821C15.2384 13.6993 15.2436 13.6216 15.2436 13.5492C15.2436 13.3421 15.2074 13.1713 15.1349 13.0367C15.0624 12.9021 14.9589 12.8038 14.8243 12.7416C14.7001 12.6692 14.5396 12.6329 14.3429 12.6329C14.0634 12.6329 13.8046 12.7106 13.5664 12.8659C13.3283 13.0108 13.1264 13.2127 12.9608 13.4715C12.8055 13.72 12.6968 14.0099 12.6347 14.3412L11.8116 19H9.26479L10.15 14.0461C10.1603 13.9529 10.1707 13.8649 10.181 13.7821C10.1914 13.6889 10.1966 13.6113 10.1966 13.5492C10.1966 13.3421 10.1603 13.1713 10.0879 13.0367C10.0154 12.9021 9.91185 12.8038 9.77727 12.7416C9.65303 12.6692 9.49256 12.6329 9.29585 12.6329C9.01632 12.6329 8.7575 12.7106 8.51938 12.8659C8.28127 13.0108 8.07938 13.2127 7.91374 13.4715C7.75844 13.72 7.64974 14.0099 7.58762 14.3412L6.76456 19H4.21774ZM20.951 19.1864C20.4334 19.1864 19.9468 19.1398 19.4913 19.0466C19.0461 18.9534 18.6527 18.8188 18.311 18.6428C17.9797 18.4565 17.7157 18.2287 17.519 17.9595C17.3327 17.68 17.2395 17.3591 17.2395 16.9967C17.2395 16.8932 17.2499 16.7845 17.2706 16.6706C17.2913 16.5464 17.312 16.448 17.3327 16.3755H19.7397C19.7294 16.4273 19.719 16.4842 19.7087 16.5464C19.6983 16.5981 19.6932 16.6395 19.6932 16.6706C19.6932 16.8569 19.7501 17.0174 19.864 17.152C19.9882 17.2762 20.1539 17.3694 20.3609 17.4315C20.5783 17.4833 20.8113 17.5092 21.0597 17.5092C21.2254 17.5092 21.4014 17.4988 21.5877 17.4781C21.7741 17.4471 21.9449 17.4005 22.1002 17.3384C22.2659 17.2762 22.3953 17.1986 22.4885 17.1054C22.5816 17.0019 22.6282 16.8725 22.6282 16.7172C22.6282 16.5722 22.5765 16.4532 22.4729 16.36C22.3797 16.2668 22.2452 16.184 22.0692 16.1115C21.9035 16.0391 21.7068 15.9769 21.479 15.9252C21.2616 15.8734 21.0287 15.8165 20.7802 15.7544C20.4593 15.6715 20.1332 15.5835 19.8019 15.4904C19.4809 15.3868 19.1859 15.2574 18.9167 15.1021C18.6475 14.9365 18.4301 14.7346 18.2645 14.4965C18.0988 14.248 18.016 13.9374 18.016 13.5647C18.016 13.0574 18.1195 12.6174 18.3266 12.2447C18.544 11.872 18.839 11.5666 19.2117 11.3285C19.5948 11.0904 20.0348 10.9144 20.5317 10.8005C21.0287 10.6762 21.5619 10.6141 22.1313 10.6141C22.5868 10.6141 23.0216 10.6555 23.4357 10.7384C23.8499 10.8212 24.2174 10.9454 24.5383 11.1111C24.8696 11.2767 25.1285 11.4838 25.3148 11.7322C25.5012 11.9807 25.5943 12.2706 25.5943 12.6019C25.5943 12.7365 25.5788 12.8659 25.5477 12.9901C25.527 13.104 25.5115 13.1868 25.5012 13.2386H23.1096C23.12 13.1868 23.1252 13.1454 23.1252 13.1144C23.1355 13.0729 23.1407 13.0419 23.1407 13.0212C23.1407 12.8555 23.0889 12.7209 22.9854 12.6174C22.8922 12.5139 22.7576 12.4362 22.5816 12.3845C22.4056 12.3327 22.1934 12.3068 21.9449 12.3068C21.7689 12.3068 21.5981 12.3224 21.4325 12.3534C21.2668 12.3845 21.1167 12.4311 20.9821 12.4932C20.8579 12.5449 20.7595 12.6174 20.687 12.7106C20.6146 12.7934 20.5783 12.8918 20.5783 13.0056C20.5783 13.1609 20.6456 13.2904 20.7802 13.3939C20.9252 13.4871 21.1115 13.5647 21.3393 13.6268C21.5774 13.6889 21.8259 13.7562 22.0847 13.8287C22.416 13.9115 22.7628 13.9995 23.1252 14.0927C23.4875 14.1755 23.824 14.2946 24.1346 14.4499C24.4555 14.6052 24.7143 14.8174 24.911 15.0866C25.1077 15.3454 25.2061 15.6819 25.2061 16.096C25.2061 16.6758 25.0922 17.1624 24.8645 17.5558C24.647 17.9492 24.3416 18.2649 23.9482 18.5031C23.5548 18.7412 23.0993 18.912 22.5816 19.0155C22.0743 19.1294 21.5308 19.1864 20.951 19.1864Z" fill="white"/>
<defs>
<linearGradient id="paint0_linear_66_652" x1="15" y1="0" x2="15" y2="29" gradientUnits="userSpaceOnUse">
<stop stop-color="#FFA68C"/>
<stop offset="1" stop-color="#D08B5B"/>
</linearGradient>
</defs>
</svg>
