<svg width="29" height="29" viewBox="0 0 29 29" fill="none" xmlns="http://www.w3.org/2000/svg">
<path d="M9.76633 19.4608C10.5232 21.0694 11.6543 22.6071 13.1339 24.0389C10.0324 23.5731 7.45359 21.6802 6.05309 19.0621L9.76628 19.4608H9.76633ZM13.0776 5.03886C10.0561 5.51232 7.53999 7.33805 6.13253 9.86555L9.76721 9.50758C10.5147 7.93144 11.6287 6.43132 13.0776 5.03884L13.0776 5.03886ZM14.2172 9.55544L14.2676 4.93382H14.2574C12.6317 6.35276 11.3947 7.88879 10.5702 9.51449L14.2172 9.55556L14.2172 9.55544ZM6.36719 10.9906L5.69574 10.9846L5.03194 10.976L4.97983 15.7762L2.29229 10.9469L0.793894 10.9306L0.720459 17.7615L1.38851 17.7708L2.05313 17.7768L2.10612 12.8527L4.87145 17.8076L6.29472 17.8238L6.36733 10.9905L6.36719 10.9906ZM12.7547 12.2729L12.7606 11.6638L12.7683 11.059L7.73832 11.0052L7.66488 17.8386L12.8512 17.8932L12.8581 17.2859L12.864 16.6802L9.10602 16.64L9.12479 14.8571L12.4659 14.893L12.4719 14.3069L12.4779 13.7175L9.13675 13.6824L9.15303 12.2335L12.7547 12.2728V12.2729ZM19.5735 16.0932L18.6373 11.1229L17.1175 11.105L16.0881 16.0966L14.9997 11.0836L13.5158 11.0665L15.344 17.9204L16.0215 17.9272L16.7006 17.9358L17.8308 12.5658L18.8705 17.9581L19.5522 17.9674L20.2287 17.9743L22.2038 11.1613L20.7609 11.1459L19.5735 16.0931L19.5735 16.0932ZM15.0015 4.94229H14.9912L14.9417 9.56309L18.5912 9.60158C17.8002 7.95792 16.5974 6.39628 15.0015 4.94229H15.0015ZM22.7959 9.64598C21.277 7.11078 18.6851 5.35257 15.664 4.99573C17.5993 6.4945 18.68 8.01771 19.395 9.61005L22.7959 9.6459L22.7959 9.64598ZM15.7156 24.0662C18.8154 23.6689 21.4189 21.8445 22.8786 19.2836L19.1815 19.5624C18.3895 21.1539 17.2243 22.666 15.7157 24.0662L15.7156 24.0662ZM18.3724 19.5539L14.8348 19.5154L14.787 23.9287C16.3435 22.5729 17.5471 21.101 18.3724 19.5539L18.3724 19.5539ZM27.7934 14.758C27.4603 14.4632 26.8007 14.1984 25.8089 13.9686C25.1255 13.8046 24.6787 13.6704 24.4703 13.5543C24.2575 13.4423 24.1507 13.2826 24.1533 13.0768C24.1551 12.7958 24.2601 12.5676 24.4677 12.4113C24.6719 12.26 24.9572 12.1823 25.3186 12.1874C25.7372 12.1908 26.0754 12.2917 26.3343 12.4821C26.5915 12.6744 26.7308 12.9315 26.7512 13.2579L28.1411 13.2749C28.0967 12.5873 27.8361 12.0439 27.3595 11.6356C26.8854 11.2272 26.2634 11.0197 25.498 11.012C24.6813 11.0026 24.0295 11.1914 23.5452 11.5707C23.0616 11.9543 22.8165 12.4839 22.8096 13.1434C22.8036 13.7355 22.9796 14.1728 23.3375 14.4573C23.7006 14.74 24.4233 15.01 25.5032 15.262C26.0909 15.3987 26.4728 15.5328 26.6522 15.6524C26.8333 15.7755 26.9239 15.9634 26.9213 16.2231C26.9187 16.4836 26.788 16.6836 26.5309 16.8288C26.2729 16.9723 25.9183 17.0423 25.4613 17.0372C25.0196 17.0321 24.6736 16.9321 24.4293 16.7331C24.1817 16.5374 24.0552 16.2599 24.0432 15.8934L22.6687 15.8789C22.6935 16.617 22.949 17.1876 23.4308 17.5925C23.9134 18.0009 24.5875 18.2068 25.4494 18.2153C26.313 18.2239 26.9956 18.047 27.5048 17.6728C28.0157 17.3004 28.272 16.7955 28.2788 16.1531C28.289 15.5158 28.125 15.0493 27.7935 14.758L27.7934 14.758ZM14.0634 23.9167L14.1113 19.5086L10.5737 19.4702C11.3682 21.0335 12.5376 22.5302 14.0634 23.9167L14.0634 23.9167Z" fill="white"/>
</svg>
