<svg width="26" height="28" viewBox="0 0 26 28" fill="none" xmlns="http://www.w3.org/2000/svg">
<path d="M21.855 22.482C20.6697 20.5232 20.0293 18.2833 20 15.994V12.006C20 9.88426 19.1571 7.84943 17.6568 6.34914C16.1565 4.84885 14.1217 4.006 12 4.006C9.87825 4.006 7.84342 4.84885 6.34313 6.34914C4.84284 7.84943 3.99999 9.88426 3.99999 12.006V15.988C3.9717 18.2793 3.33125 20.5214 2.14499 22.482C2.05316 22.6336 2.00329 22.807 2.00049 22.9842C1.99769 23.1615 2.04207 23.3363 2.12907 23.4907C2.21607 23.6452 2.34256 23.7738 2.4956 23.8633C2.64863 23.9527 2.82271 23.9999 2.99999 24H21C21.1773 23.9999 21.3513 23.9527 21.5044 23.8633C21.6574 23.7738 21.7839 23.6452 21.8709 23.4907C21.9579 23.3363 22.0023 23.1615 21.9995 22.9842C21.9967 22.807 21.9468 22.6336 21.855 22.482Z" fill="white"/>
<path d="M13.007 27.825C13.4261 27.6757 13.8067 27.435 14.1213 27.1204C14.4359 26.8058 14.6766 26.4251 14.826 26.006H9.17395C9.30619 26.3771 9.51022 26.7186 9.77442 27.0108C10.0386 27.3031 10.3578 27.5404 10.7137 27.7094C11.0696 27.8783 11.4554 27.9754 11.8488 27.9953C12.2423 28.0151 12.6358 27.9572 13.007 27.825Z" fill="white"/>
<path fill-rule="evenodd" clip-rule="evenodd" d="M18 16C22.4183 16 26 12.4183 26 8C26 3.58172 22.4183 0 18 0C13.5817 0 10 3.58172 10 8C10 12.4183 13.5817 16 18 16Z" fill="#FF4267"/>
<path d="M18 4.72C18.4667 4.72 18.8667 4.80333 19.2 4.97C19.5333 5.13 19.7833 5.35333 19.95 5.64C20.1233 5.92667 20.21 6.24667 20.21 6.6C20.21 7.04667 20.0833 7.42 19.83 7.72C19.5833 8.01333 19.2333 8.19 18.78 8.25V8.3C19.2667 8.44 19.6467 8.65 19.92 8.93C20.2 9.20333 20.34 9.58333 20.34 10.07C20.34 10.6633 20.1433 11.1467 19.75 11.52C19.3567 11.8867 18.7933 12.07 18.06 12.07C17.3067 12.07 16.7 11.88 16.24 11.5C15.78 11.1133 15.5167 10.5433 15.45 9.79H16.58C16.62 10.19 16.7633 10.51 17.01 10.75C17.2567 10.9833 17.59 11.1 18.01 11.1C18.4033 11.1 18.7033 10.9967 18.91 10.79C19.1233 10.5833 19.23 10.3167 19.23 9.99C19.23 9.59667 19.0767 9.29667 18.77 9.09C18.47 8.88333 18.0333 8.78 17.46 8.78H17.19V7.84H17.46C18.5467 7.85333 19.09 7.48333 19.09 6.73C19.09 6.40333 18.99 6.14667 18.79 5.96C18.59 5.77333 18.3167 5.68 17.97 5.68C17.6233 5.68 17.3333 5.78667 17.1 6C16.8667 6.20667 16.7267 6.51 16.68 6.91H15.56C15.6067 6.21667 15.84 5.68 16.26 5.3C16.68 4.91333 17.26 4.72 18 4.72Z" fill="white"/>
</svg>
