<svg width="52" height="52" viewBox="0 0 52 52" fill="none" xmlns="http://www.w3.org/2000/svg">
<rect x="0.5625" y="0.5625" width="50.875" height="50.875" rx="25.4375" fill="#EEF1F4"/>
<path d="M18.8125 21C18.8125 21.6799 19.0141 22.3445 19.3918 22.9098C19.7695 23.4751 20.3064 23.9157 20.9345 24.1758C21.5626 24.436 22.2538 24.5041 22.9206 24.3715C23.5874 24.2388 24.1999 23.9114 24.6807 23.4307C25.1614 22.9499 25.4888 22.3374 25.6215 21.6706C25.7541 21.0038 25.686 20.3126 25.4258 19.6845C25.1657 19.0564 24.7251 18.5195 24.1598 18.1418C23.5945 17.7641 22.9299 17.5625 22.25 17.5625C21.3385 17.5632 20.4646 17.9255 19.8201 18.5701C19.1755 19.2146 18.8132 20.0885 18.8125 21ZM23.8125 21C23.8125 21.309 23.7209 21.6111 23.5492 21.8681C23.3775 22.125 23.1335 22.3253 22.8479 22.4436C22.5624 22.5618 22.2483 22.5928 21.9452 22.5325C21.6421 22.4722 21.3637 22.3234 21.1451 22.1049C20.9266 21.8863 20.7778 21.6079 20.7175 21.3048C20.6572 21.0017 20.6882 20.6876 20.8064 20.4021C20.9247 20.1165 21.125 19.8725 21.3819 19.7008C21.6389 19.5291 21.941 19.4375 22.25 19.4375C22.6642 19.4382 23.0612 19.603 23.3541 19.8959C23.647 20.1888 23.8118 20.5858 23.8125 21ZM38.5 22.5625C38.2514 22.5625 38.0129 22.6613 37.8371 22.8371C37.6613 23.0129 37.5625 23.2514 37.5625 23.5V26.3338L37.0738 25.915C36.406 25.3617 35.566 25.0589 34.6988 25.0589C33.8315 25.0589 32.9915 25.3617 32.3238 25.915L27.125 30.375C26.7973 30.6359 26.3908 30.778 25.9719 30.778C25.553 30.778 25.1465 30.6359 24.8188 30.375L24.4038 30.0188C23.788 29.5091 23.0248 29.2106 22.2267 29.1671C21.4285 29.1237 20.6375 29.3376 19.97 29.7775L14.8113 33.24C14.5407 32.097 14.4151 30.9244 14.4375 29.75V22.25C14.4375 16.4825 16.4825 14.4375 22.25 14.4375H27.25C27.4986 14.4375 27.7371 14.3387 27.9129 14.1629C28.0887 13.9871 28.1875 13.7486 28.1875 13.5C28.1875 13.2514 28.0887 13.0129 27.9129 12.8371C27.7371 12.6613 27.4986 12.5625 27.25 12.5625H22.25C15.46 12.5625 12.5625 15.4588 12.5625 22.25V29.75C12.5625 36.5413 15.46 39.4375 22.25 39.4375H29.75C36.54 39.4375 39.4375 36.5413 39.4375 29.75V23.5C39.4375 23.2514 39.3387 23.0129 39.1629 22.8371C38.9871 22.6613 38.7486 22.5625 38.5 22.5625ZM37.5625 29.75C37.5625 35.5175 35.5175 37.5625 29.75 37.5625H22.25C18.8038 37.5625 16.695 36.8238 15.5488 35.0063L21.0138 31.3388C21.3415 31.1291 21.7263 31.0266 22.1149 31.0454C22.5035 31.0642 22.8766 31.2034 23.1825 31.4438L23.5975 31.8013C24.2648 32.3557 25.105 32.6592 25.9725 32.6592C26.84 32.6592 27.6802 32.3557 28.3475 31.8013L33.55 27.3375C33.878 27.0777 34.2841 26.9364 34.7025 26.9364C35.1209 26.9364 35.527 27.0777 35.855 27.3375L37.565 28.805L37.5625 29.75ZM29.75 17.25C29.75 17.0014 29.8488 16.7629 30.0246 16.5871C30.2004 16.4113 30.4389 16.3125 30.6875 16.3125H33.1875V13.8125C33.1875 13.5639 33.2863 13.3254 33.4621 13.1496C33.6379 12.9738 33.8764 12.875 34.125 12.875C34.3736 12.875 34.6121 12.9738 34.7879 13.1496C34.9637 13.3254 35.0625 13.5639 35.0625 13.8125V16.3125H37.5625C37.8111 16.3125 38.0496 16.4113 38.2254 16.5871C38.4012 16.7629 38.5 17.0014 38.5 17.25C38.5 17.4986 38.4012 17.7371 38.2254 17.9129C38.0496 18.0887 37.8111 18.1875 37.5625 18.1875H35.0625V20.6875C35.0625 20.9361 34.9637 21.1746 34.7879 21.3504C34.6121 21.5262 34.3736 21.625 34.125 21.625C33.8764 21.625 33.6379 21.5262 33.4621 21.3504C33.2863 21.1746 33.1875 20.9361 33.1875 20.6875V18.1875H30.6875C30.4389 18.1875 30.2004 18.0887 30.0246 17.9129C29.8488 17.7371 29.75 17.4986 29.75 17.25Z" fill="#CBCBCB"/>
</svg>
