<svg width="92" height="66" viewBox="0 0 92 66" fill="none" xmlns="http://www.w3.org/2000/svg">
<rect x="26" width="40" height="40" rx="20" fill="#CB2027"/>
<g clip-path="url(#clip0_66_700)">
<path d="M46.2173 12C41.8313 12.0007 39.5 14.8107 39.5 17.8747C39.5 19.2953 40.294 21.068 41.5653 21.63C41.928 21.7933 41.88 21.594 42.192 20.4007C42.2167 20.3013 42.204 20.2153 42.124 20.1227C40.3067 18.0207 41.7693 13.6993 45.958 13.6993C52.02 13.6993 50.8873 22.0873 47.0127 22.0873C46.014 22.0873 45.27 21.3033 45.5053 20.3333C45.7907 19.178 46.3493 17.936 46.3493 17.1033C46.3493 15.0047 43.2227 15.316 43.2227 18.0967C43.2227 18.956 43.5267 19.536 43.5267 19.536C43.5267 19.536 42.5207 23.6 42.334 24.3593C42.018 25.6447 42.3767 27.7253 42.408 27.9047C42.4273 28.0033 42.538 28.0347 42.6 27.9533C42.6993 27.8233 43.9153 26.0887 44.256 24.8347C44.38 24.378 44.8887 22.5247 44.8887 22.5247C45.224 23.13 46.1907 23.6367 47.2207 23.6367C50.2847 23.6367 52.4993 20.9433 52.4993 17.6013C52.4887 14.3973 49.7467 12 46.2173 12V12Z" fill="white"/>
</g>
<path d="M20.2578 61C20.1218 61 20.0098 60.956 19.9218 60.868C19.8338 60.78 19.7898 60.668 19.7898 60.532V52.096C19.7898 51.96 19.8338 51.848 19.9218 51.76C20.0098 51.672 20.1218 51.628 20.2578 51.628H22.6578C23.2498 51.628 23.7738 51.76 24.2298 52.024C24.6858 52.28 25.0418 52.636 25.2978 53.092C25.5538 53.548 25.6818 54.076 25.6818 54.676C25.6818 55.26 25.5538 55.78 25.2978 56.236C25.0418 56.684 24.6858 57.04 24.2298 57.304C23.7738 57.56 23.2498 57.688 22.6578 57.688H20.7258V60.532C20.7258 60.668 20.6818 60.78 20.5938 60.868C20.5058 60.956 20.3938 61 20.2578 61ZM20.7258 56.788H22.6578C23.0658 56.788 23.4298 56.7 23.7498 56.524C24.0698 56.34 24.3178 56.088 24.4938 55.768C24.6778 55.448 24.7698 55.084 24.7698 54.676C24.7698 54.252 24.6778 53.88 24.4938 53.56C24.3178 53.24 24.0698 52.988 23.7498 52.804C23.4298 52.62 23.0658 52.528 22.6578 52.528H20.7258V56.788ZM27.6775 61C27.5335 61 27.4175 60.96 27.3295 60.88C27.2495 60.792 27.2095 60.676 27.2095 60.532V54.904C27.2095 54.76 27.2495 54.648 27.3295 54.568C27.4175 54.48 27.5335 54.436 27.6775 54.436C27.8135 54.436 27.9215 54.48 28.0015 54.568C28.0895 54.648 28.1335 54.76 28.1335 54.904V60.532C28.1335 60.676 28.0895 60.792 28.0015 60.88C27.9215 60.96 27.8135 61 27.6775 61ZM27.6655 53.188C27.4895 53.188 27.3375 53.124 27.2095 52.996C27.0815 52.868 27.0175 52.712 27.0175 52.528C27.0175 52.328 27.0815 52.172 27.2095 52.06C27.3455 51.94 27.5015 51.88 27.6775 51.88C27.8455 51.88 27.9935 51.94 28.1215 52.06C28.2575 52.172 28.3255 52.328 28.3255 52.528C28.3255 52.712 28.2615 52.868 28.1335 52.996C28.0055 53.124 27.8495 53.188 27.6655 53.188ZM36.1143 61C35.9783 61 35.8663 60.956 35.7783 60.868C35.6903 60.78 35.6463 60.672 35.6463 60.544V57.424C35.6463 56.928 35.5503 56.52 35.3583 56.2C35.1743 55.88 34.9183 55.64 34.5903 55.48C34.2703 55.32 33.9063 55.24 33.4983 55.24C33.1063 55.24 32.7503 55.316 32.4303 55.468C32.1183 55.62 31.8703 55.828 31.6863 56.092C31.5023 56.356 31.4103 56.656 31.4103 56.992H30.7503C30.7663 56.488 30.9023 56.04 31.1583 55.648C31.4143 55.248 31.7543 54.936 32.1783 54.712C32.6023 54.48 33.0743 54.364 33.5943 54.364C34.1623 54.364 34.6703 54.484 35.1183 54.724C35.5663 54.956 35.9183 55.3 36.1743 55.756C36.4383 56.212 36.5703 56.768 36.5703 57.424V60.544C36.5703 60.672 36.5263 60.78 36.4383 60.868C36.3503 60.956 36.2423 61 36.1143 61ZM30.9543 61C30.8103 61 30.6943 60.96 30.6063 60.88C30.5263 60.792 30.4863 60.68 30.4863 60.544V54.904C30.4863 54.76 30.5263 54.648 30.6063 54.568C30.6943 54.48 30.8103 54.436 30.9543 54.436C31.0903 54.436 31.1983 54.48 31.2783 54.568C31.3663 54.648 31.4103 54.76 31.4103 54.904V60.544C31.4103 60.68 31.3663 60.792 31.2783 60.88C31.1983 60.96 31.0903 61 30.9543 61ZM41.1753 61C40.7513 61 40.3713 60.9 40.0353 60.7C39.7073 60.5 39.4473 60.228 39.2553 59.884C39.0633 59.532 38.9673 59.132 38.9673 58.684V52.816C38.9673 52.68 39.0073 52.568 39.0873 52.48C39.1753 52.392 39.2873 52.348 39.4233 52.348C39.5593 52.348 39.6713 52.392 39.7593 52.48C39.8473 52.568 39.8913 52.68 39.8913 52.816V58.684C39.8913 59.092 40.0113 59.428 40.2513 59.692C40.4913 59.948 40.7993 60.076 41.1753 60.076H41.4993C41.6273 60.076 41.7313 60.12 41.8113 60.208C41.8913 60.296 41.9313 60.408 41.9313 60.544C41.9313 60.68 41.8833 60.792 41.7873 60.88C41.6913 60.96 41.5713 61 41.4273 61H41.1753ZM38.1873 55.48C38.0673 55.48 37.9673 55.444 37.8873 55.372C37.8073 55.292 37.7673 55.196 37.7673 55.084C37.7673 54.964 37.8073 54.868 37.8873 54.796C37.9673 54.716 38.0673 54.676 38.1873 54.676H41.2473C41.3673 54.676 41.4673 54.716 41.5473 54.796C41.6273 54.868 41.6673 54.964 41.6673 55.084C41.6673 55.196 41.6273 55.292 41.5473 55.372C41.4673 55.444 41.3673 55.48 41.2473 55.48H38.1873ZM46.4115 61.06C45.7635 61.06 45.1875 60.92 44.6835 60.64C44.1875 60.352 43.7955 59.956 43.5075 59.452C43.2275 58.948 43.0875 58.372 43.0875 57.724C43.0875 57.068 43.2195 56.492 43.4835 55.996C43.7555 55.492 44.1275 55.096 44.5995 54.808C45.0715 54.52 45.6155 54.376 46.2315 54.376C46.8395 54.376 47.3675 54.516 47.8155 54.796C48.2715 55.068 48.6235 55.448 48.8715 55.936C49.1195 56.424 49.2435 56.98 49.2435 57.604C49.2435 57.732 49.2035 57.836 49.1235 57.916C49.0435 57.988 48.9395 58.024 48.8115 58.024H43.7115V57.256H48.9075L48.3915 57.628C48.3995 57.164 48.3155 56.748 48.1395 56.38C47.9635 56.012 47.7115 55.724 47.3835 55.516C47.0635 55.308 46.6795 55.204 46.2315 55.204C45.7755 55.204 45.3755 55.312 45.0315 55.528C44.6875 55.744 44.4195 56.044 44.2275 56.428C44.0435 56.804 43.9515 57.236 43.9515 57.724C43.9515 58.212 44.0555 58.644 44.2635 59.02C44.4795 59.396 44.7715 59.692 45.1395 59.908C45.5075 60.124 45.9315 60.232 46.4115 60.232C46.6995 60.232 46.9875 60.184 47.2755 60.088C47.5715 59.984 47.8075 59.856 47.9835 59.704C48.0715 59.632 48.1715 59.596 48.2835 59.596C48.3955 59.588 48.4915 59.616 48.5715 59.68C48.6755 59.776 48.7275 59.88 48.7275 59.992C48.7355 60.104 48.6915 60.2 48.5955 60.28C48.3315 60.504 47.9955 60.692 47.5875 60.844C47.1795 60.988 46.7875 61.06 46.4115 61.06ZM51.1906 56.956C51.2146 56.46 51.3426 56.016 51.5746 55.624C51.8146 55.232 52.1226 54.924 52.4986 54.7C52.8826 54.476 53.3066 54.364 53.7706 54.364C54.1386 54.364 54.4226 54.416 54.6226 54.52C54.8226 54.624 54.8986 54.776 54.8506 54.976C54.8186 55.096 54.7626 55.176 54.6826 55.216C54.6106 55.256 54.5186 55.272 54.4066 55.264C54.3026 55.256 54.1826 55.248 54.0466 55.24C53.5986 55.2 53.1986 55.248 52.8466 55.384C52.5026 55.512 52.2266 55.712 52.0186 55.984C51.8186 56.256 51.7186 56.58 51.7186 56.956H51.1906ZM51.2626 61C51.1186 61 51.0066 60.96 50.9266 60.88C50.8466 60.8 50.8066 60.688 50.8066 60.544V54.892C50.8066 54.748 50.8466 54.636 50.9266 54.556C51.0066 54.476 51.1186 54.436 51.2626 54.436C51.4066 54.436 51.5186 54.476 51.5986 54.556C51.6786 54.636 51.7186 54.748 51.7186 54.892V60.544C51.7186 60.688 51.6786 60.8 51.5986 60.88C51.5186 60.96 51.4066 61 51.2626 61ZM58.7982 61.06C58.1502 61.06 57.5742 60.92 57.0702 60.64C56.5742 60.352 56.1822 59.956 55.8942 59.452C55.6142 58.948 55.4742 58.372 55.4742 57.724C55.4742 57.068 55.6062 56.492 55.8702 55.996C56.1422 55.492 56.5142 55.096 56.9862 54.808C57.4582 54.52 58.0022 54.376 58.6182 54.376C59.2262 54.376 59.7542 54.516 60.2022 54.796C60.6582 55.068 61.0102 55.448 61.2582 55.936C61.5062 56.424 61.6302 56.98 61.6302 57.604C61.6302 57.732 61.5902 57.836 61.5102 57.916C61.4302 57.988 61.3262 58.024 61.1982 58.024H56.0982V57.256H61.2942L60.7782 57.628C60.7862 57.164 60.7022 56.748 60.5262 56.38C60.3502 56.012 60.0982 55.724 59.7702 55.516C59.4502 55.308 59.0662 55.204 58.6182 55.204C58.1622 55.204 57.7622 55.312 57.4182 55.528C57.0742 55.744 56.8062 56.044 56.6142 56.428C56.4302 56.804 56.3382 57.236 56.3382 57.724C56.3382 58.212 56.4422 58.644 56.6502 59.02C56.8662 59.396 57.1582 59.692 57.5262 59.908C57.8942 60.124 58.3182 60.232 58.7982 60.232C59.0862 60.232 59.3742 60.184 59.6622 60.088C59.9582 59.984 60.1942 59.856 60.3702 59.704C60.4582 59.632 60.5582 59.596 60.6702 59.596C60.7822 59.588 60.8782 59.616 60.9582 59.68C61.0622 59.776 61.1142 59.88 61.1142 59.992C61.1222 60.104 61.0782 60.2 60.9822 60.28C60.7182 60.504 60.3822 60.692 59.9742 60.844C59.5662 60.988 59.1742 61.06 58.7982 61.06ZM65.4853 61.06C65.0133 61.06 64.5453 60.98 64.0813 60.82C63.6173 60.66 63.2413 60.42 62.9533 60.1C62.8653 60.004 62.8293 59.896 62.8453 59.776C62.8613 59.656 62.9213 59.552 63.0253 59.464C63.1373 59.384 63.2533 59.352 63.3733 59.368C63.4933 59.384 63.5933 59.436 63.6733 59.524C63.8653 59.748 64.1173 59.92 64.4293 60.04C64.7493 60.16 65.1013 60.22 65.4853 60.22C66.0773 60.22 66.5053 60.12 66.7693 59.92C67.0333 59.712 67.1693 59.464 67.1773 59.176C67.1773 58.888 67.0413 58.652 66.7693 58.468C66.4973 58.276 66.0493 58.128 65.4253 58.024C64.6173 57.896 64.0253 57.672 63.6493 57.352C63.2733 57.032 63.0853 56.652 63.0853 56.212C63.0853 55.804 63.1933 55.464 63.4093 55.192C63.6253 54.92 63.9133 54.716 64.2733 54.58C64.6333 54.444 65.0293 54.376 65.4613 54.376C65.9973 54.376 66.4573 54.468 66.8413 54.652C67.2333 54.836 67.5493 55.084 67.7893 55.396C67.8693 55.5 67.9013 55.608 67.8853 55.72C67.8693 55.832 67.8053 55.924 67.6933 55.996C67.5973 56.052 67.4853 56.072 67.3573 56.056C67.2373 56.032 67.1333 55.972 67.0453 55.876C66.8453 55.644 66.6133 55.476 66.3493 55.372C66.0853 55.26 65.7813 55.204 65.4373 55.204C64.9973 55.204 64.6453 55.296 64.3813 55.48C64.1173 55.656 63.9853 55.88 63.9853 56.152C63.9853 56.336 64.0333 56.496 64.1293 56.632C64.2333 56.768 64.4053 56.888 64.6453 56.992C64.8933 57.096 65.2373 57.184 65.6773 57.256C66.2773 57.352 66.7493 57.496 67.0933 57.688C67.4453 57.872 67.6933 58.092 67.8373 58.348C67.9893 58.596 68.0653 58.868 68.0653 59.164C68.0653 59.54 67.9533 59.872 67.7293 60.16C67.5133 60.44 67.2093 60.66 66.8173 60.82C66.4333 60.98 65.9893 61.06 65.4853 61.06ZM72.23 61C71.806 61 71.426 60.9 71.09 60.7C70.762 60.5 70.502 60.228 70.31 59.884C70.118 59.532 70.022 59.132 70.022 58.684V52.816C70.022 52.68 70.062 52.568 70.142 52.48C70.23 52.392 70.342 52.348 70.478 52.348C70.614 52.348 70.726 52.392 70.814 52.48C70.902 52.568 70.946 52.68 70.946 52.816V58.684C70.946 59.092 71.066 59.428 71.306 59.692C71.546 59.948 71.854 60.076 72.23 60.076H72.554C72.682 60.076 72.786 60.12 72.866 60.208C72.946 60.296 72.986 60.408 72.986 60.544C72.986 60.68 72.938 60.792 72.842 60.88C72.746 60.96 72.626 61 72.482 61H72.23ZM69.242 55.48C69.122 55.48 69.022 55.444 68.942 55.372C68.862 55.292 68.822 55.196 68.822 55.084C68.822 54.964 68.862 54.868 68.942 54.796C69.022 54.716 69.122 54.676 69.242 54.676H72.302C72.422 54.676 72.522 54.716 72.602 54.796C72.682 54.868 72.722 54.964 72.722 55.084C72.722 55.196 72.682 55.292 72.602 55.372C72.522 55.444 72.422 55.48 72.302 55.48H69.242Z" fill="#464D61"/>
<defs>
<clipPath id="clip0_66_700">
<rect width="16" height="16" fill="white" transform="translate(38 12)"/>
</clipPath>
</defs>
</svg>
