<svg width="34" height="34" viewBox="0 0 34 34" fill="none" xmlns="http://www.w3.org/2000/svg">
<rect width="34" height="34" rx="17" fill="#F3F4F6"/>
<rect width="34" height="34" rx="17" fill="#F3F4F6"/>
<path d="M17.6 16.87C17.5 16.86 17.38 16.86 17.27 16.87C14.89 16.79 13 14.84 13 12.44C13 9.99 14.98 8 17.44 8C19.89 8 21.88 9.99 21.88 12.44C21.87 14.84 19.98 16.79 17.6 16.87Z" fill="#9CA3AF" stroke="#9CA3AF" stroke-width="1.5" stroke-linecap="round" stroke-linejoin="round"/>
<path d="M17.6 16.87C17.5 16.86 17.38 16.86 17.27 16.87C14.89 16.79 13 14.84 13 12.44C13 9.99 14.98 8 17.44 8C19.89 8 21.88 9.99 21.88 12.44C21.87 14.84 19.98 16.79 17.6 16.87Z" fill="#9CA3AF" stroke="#9CA3AF" stroke-width="1.5" stroke-linecap="round" stroke-linejoin="round"/>
<path d="M17.6 16.87C17.5 16.86 17.38 16.86 17.27 16.87C14.89 16.79 13 14.84 13 12.44C13 9.99 14.98 8 17.44 8C19.89 8 21.88 9.99 21.88 12.44C21.87 14.84 19.98 16.79 17.6 16.87Z" fill="#9CA3AF" stroke="#9CA3AF" stroke-width="1.5" stroke-linecap="round" stroke-linejoin="round"/>
<path d="M9.66129 22.4326C6.1129 24.1235 6.1129 26.8791 9.66129 28.5596C13.6935 30.4801 20.3065 30.4801 24.3387 28.5596C27.8871 26.8687 27.8871 24.1131 24.3387 22.4326C20.3211 20.5225 13.7082 20.5225 9.66129 22.4326Z" fill="#9CA3AF" stroke="#9CA3AF" stroke-width="1.5" stroke-linecap="round" stroke-linejoin="round"/>
</svg>
