<svg width="29" height="29" viewBox="0 0 29 29" fill="none" xmlns="http://www.w3.org/2000/svg">
<path fill-rule="evenodd" clip-rule="evenodd" d="M26.5834 14.5C26.5834 21.1734 21.1735 26.5833 14.5001 26.5833C7.82664 26.5833 2.41675 21.1734 2.41675 14.5C2.41675 7.82656 7.82664 2.41667 14.5001 2.41667C21.1735 2.41667 26.5834 7.82656 26.5834 14.5ZM14.5001 9.36459C13.7493 9.36459 13.1407 9.9732 13.1407 10.724C13.1407 11.2245 12.7349 11.6302 12.2345 11.6302C11.734 11.6302 11.3282 11.2245 11.3282 10.724C11.3282 8.97218 12.7484 7.55209 14.5001 7.55209C16.2518 7.55209 17.672 8.97218 17.672 10.724C17.672 11.5829 17.3294 12.3637 16.7754 12.934C16.6638 13.0487 16.5575 13.155 16.456 13.2564C16.1953 13.5169 15.9668 13.7452 15.7663 14.0028C15.5017 14.3428 15.4063 14.5928 15.4063 14.8021V15.7083C15.4063 16.2088 15.0006 16.6146 14.5001 16.6146C13.9996 16.6146 13.5938 16.2088 13.5938 15.7083V14.8021C13.5938 14.0104 13.9624 13.3695 14.336 12.8895C14.6123 12.5344 14.9597 12.1876 15.2418 11.9063C15.3268 11.8214 15.4058 11.7425 15.4752 11.671C15.714 11.4253 15.8595 11.0926 15.8595 10.724C15.8595 9.9732 15.2508 9.36459 14.5001 9.36459ZM14.5001 20.5417C15.1674 20.5417 15.7084 20.0007 15.7084 19.3333C15.7084 18.666 15.1674 18.125 14.5001 18.125C13.8327 18.125 13.2917 18.666 13.2917 19.3333C13.2917 20.0007 13.8327 20.5417 14.5001 20.5417Z" fill="white"/>
</svg>
