<svg width="92" height="66" viewBox="0 0 92 66" fill="none" xmlns="http://www.w3.org/2000/svg">
<rect x="26" width="40" height="40" rx="20" fill="#FF5722"/>
<g clip-path="url(#clip0_66_717)">
<path d="M52.2166 18.2053C51.7113 18.2053 51.2666 18.4179 50.9393 18.7493C49.736 17.9039 48.1133 17.3599 46.3153 17.3019L47.2493 13.0313L50.2233 13.7086C50.2233 14.4473 50.8166 15.0506 51.5446 15.0506C52.2866 15.0506 52.8833 14.4313 52.8833 13.6919C52.8833 12.9526 52.2906 12.3333 51.5453 12.3333C51.026 12.3333 50.578 12.6513 50.3546 13.0859L47.07 12.3473C46.9046 12.3026 46.7426 12.4226 46.6986 12.5906L45.6733 17.2986C43.8893 17.3739 42.284 17.9173 41.0766 18.7633C40.7493 18.4179 40.2873 18.2053 39.782 18.2053C37.9073 18.2053 37.2933 20.7579 39.01 21.6306C38.9493 21.9006 38.922 22.1886 38.922 22.4759C38.922 25.3433 42.1053 27.6666 46.014 27.6666C49.9393 27.6666 53.1226 25.3433 53.1226 22.4759C53.1226 22.1886 53.0926 21.8873 53.0186 21.6166C54.7006 20.7406 54.0813 18.2066 52.2166 18.2053ZM41.734 21.8119C41.734 21.0593 42.3273 20.4533 43.0726 20.4533C43.8006 20.4533 44.3946 21.0553 44.3946 21.8119C44.3946 22.5513 43.8013 23.1539 43.0726 23.1539C42.3306 23.1573 41.734 22.5513 41.734 21.8119ZM48.96 25.0106C47.7326 26.2559 44.2693 26.2559 43.0413 25.0106C42.906 24.8906 42.906 24.6786 43.0413 24.5419C43.1593 24.4219 43.3686 24.4219 43.4866 24.5419C44.424 25.5173 47.5333 25.5339 48.5113 24.5419C48.6293 24.4219 48.8386 24.4219 48.9566 24.5419C49.0946 24.6793 49.0946 24.8913 48.96 25.0106ZM48.9326 23.1566C48.2046 23.1566 47.6113 22.5546 47.6113 21.8159C47.6113 21.0633 48.2046 20.4573 48.9326 20.4573C49.6746 20.4573 50.2713 21.0593 50.2713 21.8159C50.268 22.5513 49.6746 23.1566 48.9326 23.1566Z" fill="white"/>
</g>
<path d="M27.7578 61C27.6218 61 27.5098 60.956 27.4218 60.868C27.3338 60.78 27.2898 60.668 27.2898 60.532V52.096C27.2898 51.96 27.3338 51.848 27.4218 51.76C27.5098 51.672 27.6218 51.628 27.7578 51.628H30.0018C30.5858 51.628 31.1058 51.752 31.5618 52C32.0178 52.24 32.3738 52.58 32.6298 53.02C32.8938 53.452 33.0258 53.952 33.0258 54.52C33.0258 55.064 32.8938 55.548 32.6298 55.972C32.3738 56.396 32.0178 56.728 31.5618 56.968C31.1058 57.208 30.5858 57.328 30.0018 57.328H28.2258V60.532C28.2258 60.668 28.1818 60.78 28.0938 60.868C28.0058 60.956 27.8938 61 27.7578 61ZM32.7738 61C32.6698 61 32.5858 60.98 32.5218 60.94C32.4658 60.9 32.4138 60.84 32.3658 60.76L30.0618 57.088L30.9978 56.848L33.1458 60.28C33.2658 60.472 33.2858 60.64 33.2058 60.784C33.1338 60.928 32.9898 61 32.7738 61ZM28.2258 56.428H30.0018C30.4098 56.428 30.7698 56.348 31.0818 56.188C31.4018 56.02 31.6538 55.792 31.8378 55.504C32.0218 55.216 32.1138 54.888 32.1138 54.52C32.1138 54.128 32.0218 53.784 31.8378 53.488C31.6538 53.184 31.4018 52.948 31.0818 52.78C30.7698 52.612 30.4098 52.528 30.0018 52.528H28.2258V56.428ZM37.5638 61.06C36.9158 61.06 36.3398 60.92 35.8358 60.64C35.3398 60.352 34.9478 59.956 34.6598 59.452C34.3798 58.948 34.2398 58.372 34.2398 57.724C34.2398 57.068 34.3718 56.492 34.6358 55.996C34.9078 55.492 35.2798 55.096 35.7518 54.808C36.2238 54.52 36.7678 54.376 37.3838 54.376C37.9918 54.376 38.5198 54.516 38.9678 54.796C39.4238 55.068 39.7758 55.448 40.0238 55.936C40.2718 56.424 40.3958 56.98 40.3958 57.604C40.3958 57.732 40.3558 57.836 40.2758 57.916C40.1958 57.988 40.0918 58.024 39.9638 58.024H34.8638V57.256H40.0598L39.5438 57.628C39.5518 57.164 39.4678 56.748 39.2918 56.38C39.1158 56.012 38.8638 55.724 38.5358 55.516C38.2158 55.308 37.8318 55.204 37.3838 55.204C36.9278 55.204 36.5278 55.312 36.1838 55.528C35.8398 55.744 35.5718 56.044 35.3798 56.428C35.1958 56.804 35.1038 57.236 35.1038 57.724C35.1038 58.212 35.2078 58.644 35.4158 59.02C35.6318 59.396 35.9238 59.692 36.2918 59.908C36.6598 60.124 37.0838 60.232 37.5638 60.232C37.8518 60.232 38.1398 60.184 38.4278 60.088C38.7238 59.984 38.9598 59.856 39.1358 59.704C39.2238 59.632 39.3238 59.596 39.4358 59.596C39.5478 59.588 39.6438 59.616 39.7238 59.68C39.8278 59.776 39.8798 59.88 39.8798 59.992C39.8878 60.104 39.8438 60.2 39.7478 60.28C39.4838 60.504 39.1478 60.692 38.7398 60.844C38.3318 60.988 37.9398 61.06 37.5638 61.06ZM44.7125 61.06C44.0805 61.06 43.5125 60.916 43.0085 60.628C42.5045 60.332 42.1045 59.932 41.8085 59.428C41.5205 58.924 41.3765 58.352 41.3765 57.712C41.3765 57.08 41.5165 56.512 41.7965 56.008C42.0845 55.504 42.4725 55.108 42.9605 54.82C43.4485 54.524 44.0005 54.376 44.6165 54.376C45.1525 54.376 45.6365 54.492 46.0685 54.724C46.5005 54.948 46.8485 55.248 47.1125 55.624V52.096C47.1125 51.952 47.1565 51.84 47.2445 51.76C47.3325 51.672 47.4445 51.628 47.5805 51.628C47.7165 51.628 47.8285 51.672 47.9165 51.76C48.0045 51.84 48.0485 51.952 48.0485 52.096V57.76C48.0325 58.384 47.8765 58.948 47.5805 59.452C47.2925 59.948 46.8965 60.34 46.3925 60.628C45.8965 60.916 45.3365 61.06 44.7125 61.06ZM44.7125 60.22C45.1765 60.22 45.5885 60.112 45.9485 59.896C46.3165 59.672 46.6045 59.372 46.8125 58.996C47.0285 58.62 47.1365 58.192 47.1365 57.712C47.1365 57.24 47.0285 56.816 46.8125 56.44C46.6045 56.056 46.3165 55.756 45.9485 55.54C45.5885 55.324 45.1765 55.216 44.7125 55.216C44.2565 55.216 43.8445 55.324 43.4765 55.54C43.1085 55.756 42.8165 56.056 42.6005 56.44C42.3845 56.816 42.2765 57.24 42.2765 57.712C42.2765 58.192 42.3845 58.62 42.6005 58.996C42.8165 59.372 43.1085 59.672 43.4765 59.896C43.8445 60.112 44.2565 60.22 44.7125 60.22ZM53.1969 61.06C52.5649 61.06 51.9969 60.916 51.4929 60.628C50.9889 60.332 50.5889 59.932 50.2929 59.428C50.0049 58.924 49.8609 58.352 49.8609 57.712C49.8609 57.08 50.0009 56.512 50.2809 56.008C50.5689 55.504 50.9569 55.108 51.4449 54.82C51.9329 54.524 52.4849 54.376 53.1009 54.376C53.6369 54.376 54.1209 54.492 54.5529 54.724C54.9849 54.948 55.3329 55.248 55.5969 55.624V52.096C55.5969 51.952 55.6409 51.84 55.7289 51.76C55.8169 51.672 55.9289 51.628 56.0649 51.628C56.2009 51.628 56.3129 51.672 56.4009 51.76C56.4889 51.84 56.5329 51.952 56.5329 52.096V57.76C56.5169 58.384 56.3609 58.948 56.0649 59.452C55.7769 59.948 55.3809 60.34 54.8769 60.628C54.3809 60.916 53.8209 61.06 53.1969 61.06ZM53.1969 60.22C53.6609 60.22 54.0729 60.112 54.4329 59.896C54.8009 59.672 55.0889 59.372 55.2969 58.996C55.5129 58.62 55.6209 58.192 55.6209 57.712C55.6209 57.24 55.5129 56.816 55.2969 56.44C55.0889 56.056 54.8009 55.756 54.4329 55.54C54.0729 55.324 53.6609 55.216 53.1969 55.216C52.7409 55.216 52.3289 55.324 51.9609 55.54C51.5929 55.756 51.3009 56.056 51.0849 56.44C50.8689 56.816 50.7609 57.24 50.7609 57.712C50.7609 58.192 50.8689 58.62 51.0849 58.996C51.3009 59.372 51.5929 59.672 51.9609 59.896C52.3289 60.112 52.7409 60.22 53.1969 60.22ZM59.3533 61C59.2093 61 59.0933 60.96 59.0053 60.88C58.9253 60.792 58.8853 60.676 58.8853 60.532V54.904C58.8853 54.76 58.9253 54.648 59.0053 54.568C59.0933 54.48 59.2093 54.436 59.3533 54.436C59.4893 54.436 59.5973 54.48 59.6773 54.568C59.7653 54.648 59.8093 54.76 59.8093 54.904V60.532C59.8093 60.676 59.7653 60.792 59.6773 60.88C59.5973 60.96 59.4893 61 59.3533 61ZM59.3413 53.188C59.1653 53.188 59.0133 53.124 58.8853 52.996C58.7573 52.868 58.6933 52.712 58.6933 52.528C58.6933 52.328 58.7573 52.172 58.8853 52.06C59.0213 51.94 59.1773 51.88 59.3533 51.88C59.5213 51.88 59.6693 51.94 59.7973 52.06C59.9333 52.172 60.0013 52.328 60.0013 52.528C60.0013 52.712 59.9373 52.868 59.8093 52.996C59.6813 53.124 59.5253 53.188 59.3413 53.188ZM64.73 61C64.306 61 63.926 60.9 63.59 60.7C63.262 60.5 63.002 60.228 62.81 59.884C62.618 59.532 62.522 59.132 62.522 58.684V52.816C62.522 52.68 62.562 52.568 62.642 52.48C62.73 52.392 62.842 52.348 62.978 52.348C63.114 52.348 63.226 52.392 63.314 52.48C63.402 52.568 63.446 52.68 63.446 52.816V58.684C63.446 59.092 63.566 59.428 63.806 59.692C64.046 59.948 64.354 60.076 64.73 60.076H65.054C65.182 60.076 65.286 60.12 65.366 60.208C65.446 60.296 65.486 60.408 65.486 60.544C65.486 60.68 65.438 60.792 65.342 60.88C65.246 60.96 65.126 61 64.982 61H64.73ZM61.742 55.48C61.622 55.48 61.522 55.444 61.442 55.372C61.362 55.292 61.322 55.196 61.322 55.084C61.322 54.964 61.362 54.868 61.442 54.796C61.522 54.716 61.622 54.676 61.742 54.676H64.802C64.922 54.676 65.022 54.716 65.102 54.796C65.182 54.868 65.222 54.964 65.222 55.084C65.222 55.196 65.182 55.292 65.102 55.372C65.022 55.444 64.922 55.48 64.802 55.48H61.742Z" fill="#464D61"/>
<defs>
<clipPath id="clip0_66_717">
<rect width="16" height="16" fill="white" transform="translate(38 12)"/>
</clipPath>
</defs>
</svg>
