<svg width="24" height="24" viewBox="0 0 24 24" fill="none" xmlns="http://www.w3.org/2000/svg">
<path d="M19.44 5.35999L18.96 11.12M5.04004 5.35999L5.62046 14.9953C5.76911 17.463 5.84344 18.6968 6.45957 19.584C6.7642 20.0227 7.15665 20.393 7.61193 20.6713C8.17086 21.0129 8.84493 21.1472 9.84004 21.2" stroke="white" stroke-width="1.44" stroke-linecap="round"/>
<path d="M11.2803 14.9599L12.3711 16.367C12.92 14.3185 15.0256 13.1028 17.0741 13.6517C18.1227 13.9327 18.9531 14.6215 19.4403 15.5019M20.8803 19.7599L19.7894 18.3547C19.2405 20.4032 17.1349 21.6189 15.0864 21.07C14.0622 20.7955 13.2461 20.1319 12.7547 19.2809" stroke="white" stroke-width="1.44" stroke-linecap="round" stroke-linejoin="round"/>
<path d="M3.6001 5.36H20.8801M16.1336 5.36L15.4783 4.00806C15.0429 3.11001 14.8252 2.66098 14.4497 2.38094C14.3665 2.31882 14.2783 2.26356 14.186 2.21571C13.7702 2 13.2712 2 12.2732 2C11.2501 2 10.7387 2 10.316 2.22476C10.2223 2.27457 10.1329 2.33206 10.0487 2.39664C9.66883 2.68803 9.4567 3.15349 9.03236 4.08441L8.4509 5.36" stroke="white" stroke-width="1.44" stroke-linecap="round"/>
</svg>
