<svg width="34" height="34" viewBox="0 0 34 34" fill="none" xmlns="http://www.w3.org/2000/svg">
<rect width="34" height="34" rx="17" fill="#F3F4F6"/>
<path fill-rule="evenodd" clip-rule="evenodd" d="M11.9876 7.36843C13.2213 7.09424 14.7181 7 16.5 7C18.2819 7 19.7786 7.09424 21.0124 7.36843C22.257 7.64502 23.2914 8.1172 24.0871 8.9129C24.8828 9.7086 25.3549 10.743 25.6316 11.9876C25.9058 13.2213 26 14.7181 26 16.5C26 18.2819 25.9058 19.7786 25.6316 21.0124C25.3549 22.257 24.8828 23.2914 24.0871 24.0871C23.2914 24.8828 22.257 25.3549 21.0124 25.6316C19.7786 25.9058 18.2819 26 16.5 26C14.7181 26 13.2213 25.9058 11.9876 25.6316C10.743 25.3549 9.7086 24.8828 8.9129 24.0871C8.1172 23.2914 7.64502 22.257 7.36843 21.0124C7.09424 19.7786 7 18.2819 7 16.5C7 14.7181 7.09424 13.2213 7.36843 11.9876C7.64502 10.743 8.1172 9.7086 8.9129 8.9129C9.7086 8.1172 10.743 7.64502 11.9876 7.36843ZM13.65 16.025C13.65 14.7133 14.7133 13.65 16.025 13.65C17.3367 13.65 18.4 14.7133 18.4 16.025C18.4 17.3367 17.3367 18.4 16.025 18.4C14.7133 18.4 13.65 17.3367 13.65 16.025ZM16.025 11.75C13.664 11.75 11.75 13.664 11.75 16.025C11.75 18.386 13.664 20.3 16.025 20.3C16.8615 20.3 17.6419 20.0597 18.3009 19.6445L19.6283 20.9717C19.9992 21.3427 20.6008 21.3427 20.9717 20.9717C21.3427 20.6008 21.3427 19.9992 20.9717 19.6283L19.6445 18.3009C20.0597 17.6419 20.3 16.8615 20.3 16.025C20.3 13.664 18.386 11.75 16.025 11.75Z" fill="#9CA3AF"/>
<path fill-rule="evenodd" clip-rule="evenodd" d="M11.9876 7.36843C13.2213 7.09424 14.7181 7 16.5 7C18.2819 7 19.7786 7.09424 21.0124 7.36843C22.257 7.64502 23.2914 8.1172 24.0871 8.9129C24.8828 9.7086 25.3549 10.743 25.6316 11.9876C25.9058 13.2213 26 14.7181 26 16.5C26 18.2819 25.9058 19.7786 25.6316 21.0124C25.3549 22.257 24.8828 23.2914 24.0871 24.0871C23.2914 24.8828 22.257 25.3549 21.0124 25.6316C19.7786 25.9058 18.2819 26 16.5 26C14.7181 26 13.2213 25.9058 11.9876 25.6316C10.743 25.3549 9.7086 24.8828 8.9129 24.0871C8.1172 23.2914 7.64502 22.257 7.36843 21.0124C7.09424 19.7786 7 18.2819 7 16.5C7 14.7181 7.09424 13.2213 7.36843 11.9876C7.64502 10.743 8.1172 9.7086 8.9129 8.9129C9.7086 8.1172 10.743 7.64502 11.9876 7.36843ZM13.65 16.025C13.65 14.7133 14.7133 13.65 16.025 13.65C17.3367 13.65 18.4 14.7133 18.4 16.025C18.4 17.3367 17.3367 18.4 16.025 18.4C14.7133 18.4 13.65 17.3367 13.65 16.025ZM16.025 11.75C13.664 11.75 11.75 13.664 11.75 16.025C11.75 18.386 13.664 20.3 16.025 20.3C16.8615 20.3 17.6419 20.0597 18.3009 19.6445L19.6283 20.9717C19.9992 21.3427 20.6008 21.3427 20.9717 20.9717C21.3427 20.6008 21.3427 19.9992 20.9717 19.6283L19.6445 18.3009C20.0597 17.6419 20.3 16.8615 20.3 16.025C20.3 13.664 18.386 11.75 16.025 11.75Z" fill="#9CA3AF"/>
</svg>
