<svg width="295" height="295" viewBox="0 0 295 295" fill="none" xmlns="http://www.w3.org/2000/svg">
<path d="M242.171 196.529C246.585 160.51 225.215 112.631 203.054 92.866C163.058 57.171 129.83 64.074 103.988 76.8593C78.1455 89.6446 74.4462 132.319 56.6046 151.63C38.763 170.941 28.6032 196.912 55.6842 222.772C82.7652 248.632 104.601 235.487 132.909 233.852C161.218 232.218 198.747 245.121 219.049 233.894C233.239 226.059 240.224 212.453 242.171 196.529Z" fill="#DE4619"/>
<path opacity="0.7" d="M242.171 196.529C246.585 160.51 225.215 112.631 203.054 92.866C163.058 57.171 129.83 64.074 103.988 76.8593C78.1455 89.6446 74.4462 132.319 56.6046 151.63C38.763 170.941 28.6032 196.912 55.6842 222.772C82.7652 248.632 104.601 235.487 132.909 233.852C161.218 232.218 198.747 245.121 219.049 233.894C233.239 226.059 240.224 212.453 242.171 196.529Z" fill="white"/>
<path d="M130.16 195.26V62.5459" stroke="#263238" stroke-linecap="round" stroke-linejoin="round"/>
<path d="M43.8901 196.576H127.605L254.792 237.628" stroke="#263238" stroke-linecap="round" stroke-linejoin="round"/>
<path d="M82.01 193.461H76.228V97.8456H88.1637L83.013 79.2547H67.555L62.4043 97.8456H74.34V193.461H68.5403C67.0574 193.462 65.6341 194.045 64.5761 195.084C63.5182 196.123 62.91 197.536 62.8822 199.019C62.8822 199.019 62.8822 199.048 62.8822 199.06C62.8822 199.06 62.8822 199.095 62.8822 199.107C63.0533 200.441 68.5285 201.514 75.2722 201.514C82.0159 201.514 87.4911 200.441 87.6622 199.107C87.6575 197.61 87.0603 196.176 86.0012 195.118C84.942 194.06 83.5071 193.464 82.01 193.461Z" fill="#263238"/>
<path d="M159.058 55.9674V168.551L243.823 182.499V42.0198L159.058 55.9674ZM241.623 88.205L198.553 90.6476V51.5306L241.623 44.6748V88.205ZM198.553 94.7599L241.623 92.7834V132.113L198.553 130.101V94.7599ZM195.06 129.936L160.48 128.325V96.5063L195.03 94.9251L195.06 129.936ZM195.06 52.0852V90.86L160.48 92.8011V57.584L195.06 52.0852ZM160.48 132.03L195.03 134.018V172.433L160.48 166.935V132.03ZM198.523 172.988V134.219L241.593 136.697V179.844L198.523 172.988Z" fill="#263238" stroke="#263238" stroke-linecap="round" stroke-linejoin="round"/>
<path d="M129.824 251.311C167.28 251.311 197.644 241.851 197.644 230.183C197.644 218.514 167.28 209.055 129.824 209.055C92.3674 209.055 62.0031 218.514 62.0031 230.183C62.0031 241.851 92.3674 251.311 129.824 251.311Z" fill="#DE4619"/>
<path opacity="0.5" d="M129.824 251.311C167.28 251.311 197.644 241.851 197.644 230.183C197.644 218.514 167.28 209.055 129.824 209.055C92.3674 209.055 62.0031 218.514 62.0031 230.183C62.0031 241.851 92.3674 251.311 129.824 251.311Z" fill="white"/>
<path d="M124.095 137.022C124.095 137.022 108.725 135.199 98.6126 143.087C88.5 150.975 79.8034 183.938 80.004 199.727C80.2046 215.515 86.0751 223.392 100.837 229.858C115.599 236.325 143.099 233.906 158.468 229.05C173.838 224.194 178.894 207.22 178.693 198.11C178.493 189.001 168.38 178.493 164.94 176.28C161.501 174.068 151.795 169.407 146.945 162.12C142.096 154.834 135.01 139.045 124.095 137.022Z" fill="#DE4619"/>
<mask id="mask0_2_763" style="mask-type:luminance" maskUnits="userSpaceOnUse" x="80" y="136" width="99" height="98">
<path d="M124.095 137.022C124.095 137.022 108.725 135.199 98.6126 143.087C88.5 150.975 79.8034 183.938 80.004 199.727C80.2046 215.515 86.0751 223.392 100.837 229.858C115.599 236.325 143.099 233.906 158.468 229.05C173.838 224.194 178.894 207.22 178.693 198.11C178.493 189.001 168.38 178.493 164.94 176.28C161.501 174.068 151.795 169.407 146.945 162.12C142.096 154.834 135.01 139.045 124.095 137.022Z" fill="white"/>
</mask>
<g mask="url(#mask0_2_763)">
<path opacity="0.13" d="M161.288 227.958C155.477 227.174 148.586 225.598 143.37 222.43C132.355 215.745 129.605 203.155 125.67 198.435C121.735 193.715 114.655 194.11 111.51 188.995C108.365 183.879 113.475 146.125 104.43 143.765C102.595 143.235 100.694 142.963 98.7837 142.957C98.7306 143.004 98.6657 143.04 98.6126 143.087C88.5 150.975 79.8034 183.938 80.004 199.727C80.2046 215.515 86.0751 223.392 100.837 229.858C115.599 236.325 143.099 233.906 158.468 229.05C159.43 228.745 160.372 228.38 161.288 227.958Z" fill="black"/>
</g>
<path d="M124.095 137.022C124.095 137.022 108.725 135.199 98.6126 143.087C88.5 150.975 79.8034 183.938 80.004 199.727C80.2046 215.515 86.0751 223.392 100.837 229.858C115.599 236.325 143.099 233.906 158.468 229.05C173.838 224.194 178.894 207.22 178.693 198.11C178.493 189.001 168.38 178.493 164.94 176.28C161.501 174.068 151.795 169.407 146.945 162.12C142.096 154.834 135.01 139.045 124.095 137.022Z" stroke="#263238" stroke-linecap="round" stroke-linejoin="round"/>
<path d="M118.041 144.149C118.041 144.149 108.011 146.066 106.241 147.836C104.471 149.606 97.0963 177.336 97.0963 177.336C99.1467 176.837 101.298 176.939 103.291 177.631C106.241 178.811 106.536 181.909 106.831 183.384C107.068 185.145 107.216 186.917 107.274 188.694C107.274 188.694 137.087 186.033 143.429 184.564C149.772 183.095 159.424 182.41 159.424 182.41C159.424 182.41 143.116 145.63 140.609 144.302C138.101 142.975 127.629 142.827 126.154 143.122C124.679 143.417 118.041 144.149 118.041 144.149Z" fill="#263238" stroke="#263238" stroke-linecap="round" stroke-linejoin="round"/>
<path d="M108.159 178.221L110.666 157.719" stroke="white" stroke-linecap="round" stroke-linejoin="round"/>
<path d="M110.076 163.176L113.469 158.751" stroke="white" stroke-linecap="round" stroke-linejoin="round"/>
<path d="M120.254 165.831C120.254 165.831 129.841 162.734 136.184 162.734" stroke="white" stroke-linecap="round" stroke-linejoin="round"/>
<path d="M129.304 157.377L128.661 162.291C128.661 162.291 130.284 162.291 130.431 163.029C130.441 163.302 130.394 163.575 130.293 163.829C130.191 164.083 130.037 164.313 129.841 164.504C129.841 164.504 134.414 167.011 135.004 169.961" stroke="white" stroke-linecap="round" stroke-linejoin="round"/>
<path d="M123.546 138.65C123.546 138.65 118.041 140.42 117.251 141.795C116.46 143.169 117.056 152.81 117.056 153.99C117.056 155.17 117.746 153.3 118.336 151.925C118.926 150.55 120.991 148.479 121.676 148.68C122.36 148.881 122.761 149.659 122.761 150.94C122.761 152.22 124.331 153.99 125.711 154.969C127.092 155.949 128.366 156.94 128.366 156.94C128.366 156.94 131.216 152.81 131.906 151.724C132.597 150.639 132.496 148.385 132.591 147.594C132.685 146.804 134.461 149.76 134.856 148.975C135.252 148.19 133.971 147.5 132.591 145.335C131.21 143.169 131.611 140.91 129.546 139.334C127.481 137.759 125.121 138.249 123.546 138.65Z" fill="white"/>
<mask id="mask1_2_763" style="mask-type:luminance" maskUnits="userSpaceOnUse" x="116" y="138" width="19" height="19">
<path d="M123.546 138.65C123.546 138.65 118.041 140.42 117.251 141.795C116.46 143.169 117.056 152.81 117.056 153.99C117.056 155.17 117.746 153.3 118.336 151.925C118.926 150.55 120.991 148.479 121.676 148.68C122.36 148.881 122.761 149.659 122.761 150.94C122.761 152.22 124.331 153.99 125.711 154.969C127.092 155.949 128.366 156.94 128.366 156.94C128.366 156.94 131.216 152.81 131.906 151.724C132.597 150.639 132.496 148.385 132.591 147.594C132.685 146.804 134.461 149.76 134.856 148.975C135.252 148.19 133.971 147.5 132.591 145.335C131.21 143.169 131.611 140.91 129.546 139.334C127.481 137.759 125.121 138.249 123.546 138.65Z" fill="white"/>
</mask>
<g mask="url(#mask1_2_763)">
<path d="M117.251 141.789C116.732 142.709 116.814 147.299 116.932 150.639C118.189 149.022 120.779 145.966 122.278 146.544C124.189 147.282 124.921 152.716 124.921 152.716L123.629 138.65H123.546C123.546 138.65 118.041 140.42 117.251 141.789Z" fill="#DE4619"/>
<path opacity="0.5" d="M117.251 141.789C116.732 142.709 116.814 147.299 116.932 150.639C118.189 149.022 120.779 145.966 122.278 146.544C124.189 147.282 124.921 152.716 124.921 152.716L123.629 138.65H123.546C123.546 138.65 118.041 140.42 117.251 141.789Z" fill="white"/>
</g>
<path d="M123.546 138.65C123.546 138.65 118.041 140.42 117.251 141.795C116.46 143.169 117.056 152.81 117.056 153.99C117.056 155.17 117.746 153.3 118.336 151.925C118.926 150.55 120.991 148.479 121.676 148.68C122.36 148.881 122.761 149.659 122.761 150.94C122.761 152.22 124.331 153.99 125.711 154.969C127.092 155.949 128.366 156.94 128.366 156.94C128.366 156.94 131.216 152.81 131.906 151.724C132.597 150.639 132.496 148.385 132.591 147.594C132.685 146.804 134.461 149.76 134.856 148.975C135.252 148.19 133.971 147.5 132.591 145.335C131.21 143.169 131.611 140.91 129.546 139.334C127.481 137.759 125.121 138.249 123.546 138.65Z" stroke="#263238" stroke-linecap="round" stroke-linejoin="round"/>
<path d="M110.519 178.516C110.519 178.516 107.126 173.649 102.996 173.206C98.8663 172.764 93.8513 176.156 93.7038 177.336C93.5563 178.516 92.5238 184.859 93.2613 185.744C93.9988 186.629 96.8013 187.366 102.259 185.596C107.716 183.826 109.929 181.614 110.519 178.516Z" fill="white"/>
<mask id="mask2_2_763" style="mask-type:luminance" maskUnits="userSpaceOnUse" x="92" y="173" width="19" height="14">
<path d="M110.519 178.516C110.519 178.516 107.126 173.649 102.996 173.206C98.8663 172.764 93.8513 176.156 93.7038 177.336C93.5563 178.516 92.5238 184.859 93.2613 185.744C93.9988 186.629 96.8013 187.366 102.259 185.596C107.716 183.826 109.929 181.614 110.519 178.516Z" fill="white"/>
</mask>
<g mask="url(#mask2_2_763)">
<path d="M96.7187 185.59C96.7187 185.59 95.5387 182.216 96.1287 181.042C96.7187 179.867 99.0787 178.092 100.536 176.322C101.993 174.552 97.0963 177.319 96.8603 176.322C96.6774 175.519 99.4504 173.914 100.542 173.318C97.1081 173.979 93.8218 176.369 93.7038 177.319C93.5563 178.499 92.5238 184.841 93.2613 185.726C93.6389 186.18 94.577 186.599 96.1405 186.652C96.4945 186.045 96.7187 185.59 96.7187 185.59Z" fill="#DE4619"/>
<path opacity="0.5" d="M96.7187 185.59C96.7187 185.59 95.5387 182.216 96.1287 181.042C96.7187 179.867 99.0787 178.092 100.536 176.322C101.993 174.552 97.0963 177.319 96.8603 176.322C96.6774 175.519 99.4504 173.914 100.542 173.318C97.1081 173.979 93.8218 176.369 93.7038 177.319C93.5563 178.499 92.5238 184.841 93.2613 185.726C93.6389 186.18 94.577 186.599 96.1405 186.652C96.4945 186.045 96.7187 185.59 96.7187 185.59Z" fill="white"/>
</g>
<path d="M110.519 178.516C110.519 178.516 107.126 173.649 102.996 173.206C98.8663 172.764 93.8513 176.156 93.7038 177.336C93.5563 178.516 92.5238 184.859 93.2613 185.744C93.9988 186.629 96.8013 187.366 102.259 185.596C107.716 183.826 109.929 181.614 110.519 178.516Z" stroke="#263238" stroke-linecap="round" stroke-linejoin="round"/>
<path d="M99.0138 179.844C99.0138 179.844 93.4796 182.039 93.2613 186.334C93.1374 188.694 97.0963 189.726 101.226 189.726C105.356 189.726 111.256 184.564 115.091 182.351C118.926 180.139 127.776 174.976 128.809 174.534C129.841 174.091 133.381 175.271 134.856 175.714C136.262 176.015 137.696 176.163 139.134 176.156C139.134 176.156 141.199 179.401 142.231 179.401C143.264 179.401 140.019 174.534 139.576 173.501C139.134 172.469 131.906 170.109 131.021 170.109C130.136 170.109 109.486 175.271 106.389 176.451C103.291 177.631 99.0138 179.844 99.0138 179.844Z" fill="white"/>
<mask id="mask3_2_763" style="mask-type:luminance" maskUnits="userSpaceOnUse" x="93" y="170" width="50" height="20">
<path d="M99.0138 179.844C99.0138 179.844 93.4796 182.039 93.2613 186.334C93.1374 188.694 97.0963 189.726 101.226 189.726C105.356 189.726 111.256 184.564 115.091 182.351C118.926 180.139 127.776 174.976 128.809 174.534C129.841 174.091 133.381 175.271 134.856 175.714C136.262 176.015 137.696 176.163 139.134 176.156C139.134 176.156 141.199 179.401 142.231 179.401C143.264 179.401 140.019 174.534 139.576 173.501C139.134 172.469 131.906 170.109 131.021 170.109C130.136 170.109 109.486 175.271 106.389 176.451C103.291 177.631 99.0138 179.844 99.0138 179.844Z" fill="white"/>
</mask>
<g mask="url(#mask3_2_763)">
<path d="M110.584 179.23C119.015 175.012 131.021 170.109 131.021 170.109C130.136 170.109 109.486 175.271 106.389 176.451C103.291 177.631 99.0138 179.844 99.0138 179.844C99.0138 179.844 93.4796 182.039 93.2613 186.334C93.1374 188.694 97.0963 189.726 101.226 189.726C105.356 189.726 111.256 184.564 115.091 182.351L117.416 181.006C111.781 181.72 104.247 182.393 110.584 179.23Z" fill="#DE4619"/>
<path opacity="0.5" d="M110.584 179.23C119.015 175.012 131.021 170.109 131.021 170.109C130.136 170.109 109.486 175.271 106.389 176.451C103.291 177.631 99.0138 179.844 99.0138 179.844C99.0138 179.844 93.4796 182.039 93.2613 186.334C93.1374 188.694 97.0963 189.726 101.226 189.726C105.356 189.726 111.256 184.564 115.091 182.351L117.416 181.006C111.781 181.72 104.247 182.393 110.584 179.23Z" fill="white"/>
</g>
<path d="M99.0138 179.844C99.0138 179.844 93.4796 182.039 93.2613 186.334C93.1374 188.694 97.0963 189.726 101.226 189.726C105.356 189.726 111.256 184.564 115.091 182.351C118.926 180.139 127.776 174.976 128.809 174.534C129.841 174.091 133.381 175.271 134.856 175.714C136.262 176.015 137.696 176.163 139.134 176.156C139.134 176.156 141.199 179.401 142.231 179.401C143.264 179.401 140.019 174.534 139.576 173.501C139.134 172.469 131.906 170.109 131.021 170.109C130.136 170.109 109.486 175.271 106.389 176.451C103.291 177.631 99.0138 179.844 99.0138 179.844Z" stroke="#263238" stroke-linecap="round" stroke-linejoin="round"/>
<path d="M142.155 147.04L137.659 172.321L170.109 172.469L174.935 148.491C174.975 148.28 174.969 148.062 174.917 147.853C174.865 147.644 174.769 147.449 174.634 147.281C174.5 147.112 174.33 146.975 174.138 146.879C173.945 146.782 173.734 146.728 173.519 146.721L143.665 145.824C143.309 145.813 142.962 145.929 142.684 146.152C142.407 146.375 142.219 146.69 142.155 147.04Z" fill="white" stroke="#263238" stroke-linecap="round" stroke-linejoin="round"/>
<path d="M137.659 172.321L121.859 183.496L157.996 182.463L170.109 172.469L137.659 172.321Z" fill="white"/>
<mask id="mask4_2_763" style="mask-type:luminance" maskUnits="userSpaceOnUse" x="121" y="172" width="50" height="12">
<path d="M137.659 172.321L121.859 183.496L157.996 182.463L170.109 172.469L137.659 172.321Z" fill="white"/>
</mask>
<g mask="url(#mask4_2_763)">
<path d="M137.659 172.321L121.859 183.496L157.996 182.463L170.109 172.469L137.659 172.321Z" fill="#DE4619"/>
<path opacity="0.5" d="M137.659 172.321L121.859 183.496L157.996 182.463L170.109 172.469L137.659 172.321Z" fill="white"/>
</g>
<path d="M137.659 172.321L121.859 183.496L157.996 182.463L170.109 172.469L137.659 172.321Z" stroke="#263238" stroke-linecap="round" stroke-linejoin="round"/>
<path d="M149.606 183.384C149.606 183.384 162.586 172.026 175.419 168.191C188.251 164.356 190.906 164.946 190.611 170.699C190.316 176.451 184.121 206.541 179.991 214.211C175.861 221.881 170.699 235.894 170.846 238.549C170.994 241.204 176.009 249.021 180.434 251.824C184.859 254.626 184.416 258.019 181.614 258.609C178.811 259.199 175.566 260.231 165.979 254.036C156.391 247.841 152.409 238.991 152.999 236.779C153.589 234.566 159.784 231.616 162.291 227.191C164.799 222.766 168.929 206.246 169.224 198.724C169.463 193.975 170.459 189.294 172.174 184.859C172.174 184.859 155.949 187.809 151.229 190.759L149.606 183.384Z" fill="white"/>
<mask id="mask5_2_763" style="mask-type:luminance" maskUnits="userSpaceOnUse" x="149" y="165" width="42" height="95">
<path d="M149.606 183.384C149.606 183.384 162.586 172.026 175.419 168.191C188.251 164.356 190.906 164.946 190.611 170.699C190.316 176.451 184.121 206.541 179.991 214.211C175.861 221.881 170.699 235.894 170.846 238.549C170.994 241.204 176.009 249.021 180.434 251.824C184.859 254.626 184.416 258.019 181.614 258.609C178.811 259.199 175.566 260.231 165.979 254.036C156.391 247.841 152.409 238.991 152.999 236.779C153.589 234.566 159.784 231.616 162.291 227.191C164.799 222.766 168.929 206.246 169.224 198.724C169.463 193.975 170.459 189.294 172.174 184.859C172.174 184.859 155.949 187.809 151.229 190.759L149.606 183.384Z" fill="white"/>
</mask>
<g mask="url(#mask5_2_763)">
<path d="M149.606 183.384C149.606 183.384 162.586 172.026 175.419 168.191C188.251 164.356 190.906 164.946 190.611 170.699C190.316 176.451 184.121 206.541 179.991 214.211C175.861 221.881 170.699 235.894 170.846 238.549C170.994 241.204 176.009 249.021 180.434 251.824C184.859 254.626 184.416 258.019 181.614 258.609C178.811 259.199 175.566 260.231 165.979 254.036C156.391 247.841 152.409 238.991 152.999 236.779C153.589 234.566 159.784 231.616 162.291 227.191C164.799 222.766 168.929 206.246 169.224 198.724C169.463 193.975 170.459 189.294 172.174 184.859C172.174 184.859 155.949 187.809 151.229 190.759L149.606 183.384Z" fill="#DE4619"/>
<path opacity="0.5" d="M149.606 183.384C149.606 183.384 162.586 172.026 175.419 168.191C188.251 164.356 190.906 164.946 190.611 170.699C190.316 176.451 184.121 206.541 179.991 214.211C175.861 221.881 170.699 235.894 170.846 238.549C170.994 241.204 176.009 249.021 180.434 251.824C184.859 254.626 184.416 258.019 181.614 258.609C178.811 259.199 175.566 260.231 165.979 254.036C156.391 247.841 152.409 238.991 152.999 236.779C153.589 234.566 159.784 231.616 162.291 227.191C164.799 222.766 168.929 206.246 169.224 198.724C169.463 193.975 170.459 189.294 172.174 184.859C172.174 184.859 155.949 187.809 151.229 190.759L149.606 183.384Z" fill="white"/>
</g>
<path d="M149.606 183.384C149.606 183.384 162.586 172.026 175.419 168.191C188.251 164.356 190.906 164.946 190.611 170.699C190.316 176.451 184.121 206.541 179.991 214.211C175.861 221.881 170.699 235.894 170.846 238.549C170.994 241.204 176.009 249.021 180.434 251.824C184.859 254.626 184.416 258.019 181.614 258.609C178.811 259.199 175.566 260.231 165.979 254.036C156.391 247.841 152.409 238.991 152.999 236.779C153.589 234.566 159.784 231.616 162.291 227.191C164.799 222.766 168.929 206.246 169.224 198.724C169.463 193.975 170.459 189.294 172.174 184.859C172.174 184.859 155.949 187.809 151.229 190.759L149.606 183.384Z" stroke="#263238" stroke-linecap="round" stroke-linejoin="round"/>
<path d="M162.291 227.191C162.102 227.522 161.89 227.84 161.666 228.159C164.717 228.446 167.609 229.652 169.961 231.616C170.668 232.231 171.342 232.882 171.979 233.569C174.121 226.91 176.8 220.436 179.991 214.211C184.121 206.541 190.316 176.451 190.611 170.699C190.906 164.946 188.251 164.356 175.419 168.191C162.586 172.026 149.606 183.384 149.606 183.384L151.229 190.759C155.949 187.809 172.174 184.859 172.174 184.859C170.459 189.294 169.463 193.975 169.224 198.724C168.929 206.246 164.799 222.766 162.291 227.191Z" fill="white" stroke="#263238" stroke-linecap="round" stroke-linejoin="round"/>
<path d="M162.291 227.191C162.102 227.522 161.89 227.84 161.666 228.159C164.717 228.446 167.609 229.652 169.961 231.616C170.668 232.231 171.342 232.882 171.979 233.569C174.805 229.77 177.985 217.787 181.572 212.854C190.841 200.116 190.316 176.451 190.611 170.699C190.906 164.946 188.251 164.356 175.419 168.191C162.586 172.026 149.606 183.384 149.606 183.384L151.229 190.759C155.949 187.809 172.174 184.859 172.174 184.859C170.459 189.294 169.463 193.975 169.224 198.724C168.929 206.246 164.799 222.766 162.291 227.191Z" fill="#263238"/>
<mask id="mask6_2_763" style="mask-type:luminance" maskUnits="userSpaceOnUse" x="149" y="165" width="42" height="69">
<path d="M162.291 227.191C162.102 227.522 161.89 227.84 161.666 228.159C164.717 228.446 167.609 229.652 169.961 231.616C170.668 232.231 171.342 232.882 171.979 233.569C174.805 229.77 177.985 217.787 181.572 212.854C190.841 200.116 190.316 176.451 190.611 170.699C190.906 164.946 188.251 164.356 175.419 168.191C162.586 172.026 149.606 183.384 149.606 183.384L151.229 190.759C155.949 187.809 172.174 184.859 172.174 184.859C170.459 189.294 169.463 193.975 169.224 198.724C168.929 206.246 164.799 222.766 162.291 227.191Z" fill="white"/>
</mask>
<g mask="url(#mask6_2_763)">
<path opacity="0.53" d="M162.291 227.191C162.102 227.522 161.89 227.84 161.666 228.159C164.717 228.446 167.609 229.652 169.961 231.616C170.668 232.231 171.342 232.882 171.979 233.569C174.805 229.77 177.985 217.787 181.572 212.854C190.841 200.116 190.316 176.451 190.611 170.699C190.906 164.946 188.251 164.356 175.419 168.191C162.586 172.026 149.606 183.384 149.606 183.384L151.229 190.759C155.949 187.809 172.174 184.859 172.174 184.859C170.459 189.294 169.463 193.975 169.224 198.724C168.929 206.246 164.799 222.766 162.291 227.191Z" fill="white"/>
<path opacity="0.14" d="M184.375 169.92C184.145 167.825 161.33 177.484 151.707 181.649C150.373 182.711 149.606 183.384 149.606 183.384L151.229 190.759C155.949 187.809 172.174 184.859 172.174 184.859C170.459 189.294 169.463 193.975 169.224 198.724C168.929 206.246 164.799 222.766 162.291 227.191C162.102 227.522 161.89 227.84 161.666 228.159C163.29 228.333 164.881 228.744 166.386 229.38C169.92 221.84 173.725 213.067 175.525 206.205C178.77 193.815 184.67 172.575 184.375 169.92Z" fill="black"/>
<path d="M172.174 184.859C172.174 184.859 176.599 175.861 180.434 172.174" stroke="#263238" stroke-linecap="round" stroke-linejoin="round"/>
</g>
<path d="M162.291 227.191C162.102 227.522 161.89 227.84 161.666 228.159C164.717 228.446 167.609 229.652 169.961 231.616C170.668 232.231 171.342 232.882 171.979 233.569C174.805 229.77 177.985 217.787 181.572 212.854C190.841 200.116 190.316 176.451 190.611 170.699C190.906 164.946 188.251 164.356 175.419 168.191C162.586 172.026 149.606 183.384 149.606 183.384L151.229 190.759C155.949 187.809 172.174 184.859 172.174 184.859C170.459 189.294 169.463 193.975 169.224 198.724C168.929 206.246 164.799 222.766 162.291 227.191Z" stroke="#263238" stroke-linecap="round" stroke-linejoin="round"/>
<path d="M130.16 195.29C134.911 195.073 139.608 194.189 144.113 192.664C150.786 190.234 138.65 185.785 134.001 188.216C132.702 188.846 131.633 189.867 130.944 191.136C130.255 192.405 129.981 193.857 130.16 195.29Z" fill="#263238" stroke="#263238" stroke-linecap="round" stroke-linejoin="round"/>
<path d="M110.961 185.744C110.961 185.744 106.241 188.399 104.619 191.349C102.996 194.299 109.976 199.214 117.351 198.919C124.726 198.624 138.249 190.611 138.249 190.611C138.249 190.611 138.396 203.591 140.904 208.311C143.411 213.031 154.916 224.536 159.489 227.486C164.061 230.436 179.401 241.499 181.761 243.269C184.121 245.039 188.546 248.284 189.579 248.431C190.611 248.579 201.379 235.451 203.886 231.026C206.394 226.601 208.606 217.309 207.721 215.244C206.836 213.179 205.066 214.949 203.296 216.424C201.526 217.899 185.301 228.666 183.826 229.404C183.021 229.817 182.182 230.163 181.319 230.436C181.319 230.436 168.044 217.751 160.964 208.016C153.884 198.281 153.294 185.744 150.639 181.024C147.984 176.304 144.149 174.239 138.396 174.829C132.644 175.419 120.696 178.516 110.961 185.744Z" fill="white"/>
<mask id="mask7_2_763" style="mask-type:luminance" maskUnits="userSpaceOnUse" x="104" y="174" width="104" height="75">
<path d="M110.961 185.744C110.961 185.744 106.241 188.399 104.619 191.349C102.996 194.299 109.976 199.214 117.351 198.919C124.726 198.624 138.249 190.611 138.249 190.611C138.249 190.611 138.396 203.591 140.904 208.311C143.411 213.031 154.916 224.536 159.489 227.486C164.061 230.436 179.401 241.499 181.761 243.269C184.121 245.039 188.546 248.284 189.579 248.431C190.611 248.579 201.379 235.451 203.886 231.026C206.394 226.601 208.606 217.309 207.721 215.244C206.836 213.179 205.066 214.949 203.296 216.424C201.526 217.899 185.301 228.666 183.826 229.404C183.021 229.817 182.182 230.163 181.319 230.436C181.319 230.436 168.044 217.751 160.964 208.016C153.884 198.281 153.294 185.744 150.639 181.024C147.984 176.304 144.149 174.239 138.396 174.829C132.644 175.419 120.696 178.516 110.961 185.744Z" fill="white"/>
</mask>
<g mask="url(#mask7_2_763)">
<path d="M173.372 237.18C177.313 240 180.741 242.49 181.761 243.257C184.121 245.027 188.546 248.272 189.579 248.419C189.945 248.473 191.538 246.85 193.55 244.543L176.658 233.675L173.372 237.18Z" fill="#DE4619"/>
<path opacity="0.5" d="M173.372 237.18C177.313 240 180.741 242.49 181.761 243.257C184.121 245.027 188.546 248.272 189.579 248.419C189.945 248.473 191.538 246.85 193.55 244.543L176.658 233.675L173.372 237.18Z" fill="white"/>
</g>
<path d="M110.961 185.744C110.961 185.744 106.241 188.399 104.619 191.349C102.996 194.299 109.976 199.214 117.351 198.919C124.726 198.624 138.249 190.611 138.249 190.611C138.249 190.611 138.396 203.591 140.904 208.311C143.411 213.031 154.916 224.536 159.489 227.486C164.061 230.436 179.401 241.499 181.761 243.269C184.121 245.039 188.546 248.284 189.579 248.431C190.611 248.579 201.379 235.451 203.886 231.026C206.394 226.601 208.606 217.309 207.721 215.244C206.836 213.179 205.066 214.949 203.296 216.424C201.526 217.899 185.301 228.666 183.826 229.404C183.021 229.817 182.182 230.163 181.319 230.436C181.319 230.436 168.044 217.751 160.964 208.016C153.884 198.281 153.294 185.744 150.639 181.024C147.984 176.304 144.149 174.239 138.396 174.829C132.644 175.419 120.696 178.516 110.961 185.744Z" stroke="#263238" stroke-linecap="round" stroke-linejoin="round"/>
<path d="M180.404 229.551C177.283 226.507 165.584 210.807 160.964 201.78C154.197 188.552 153.465 184.045 150.81 179.325C148.155 174.605 144.149 174.239 138.42 174.829C132.691 175.419 122.372 176.487 109.746 183.649C109.746 183.649 104.436 186.528 102.819 189.478C101.203 192.428 107.109 199.857 117.375 198.918C124.726 198.246 138.272 190.611 138.272 190.611C138.272 190.611 138.42 203.591 140.927 208.311C143.435 213.031 154.94 224.536 159.512 227.486C162.409 229.357 169.637 234.49 175.142 238.443C176.499 233.504 178.935 230.802 180.404 229.551Z" fill="#263238"/>
<mask id="mask8_2_763" style="mask-type:luminance" maskUnits="userSpaceOnUse" x="102" y="174" width="79" height="65">
<path d="M180.404 229.551C177.283 226.507 165.584 210.807 160.964 201.78C154.197 188.552 153.465 184.045 150.81 179.325C148.155 174.605 144.149 174.239 138.42 174.829C132.691 175.419 122.372 176.487 109.746 183.649C109.746 183.649 104.436 186.528 102.819 189.478C101.203 192.428 107.109 199.857 117.375 198.918C124.726 198.246 138.272 190.611 138.272 190.611C138.272 190.611 138.42 203.591 140.927 208.311C143.435 213.031 154.94 224.536 159.512 227.486C162.409 229.357 169.637 234.49 175.142 238.443C176.499 233.504 178.935 230.802 180.404 229.551Z" fill="white"/>
</mask>
<g mask="url(#mask8_2_763)">
<path opacity="0.53" d="M180.404 229.551C177.283 226.507 165.584 210.807 160.964 201.78C154.197 188.552 153.465 184.045 150.81 179.325C148.155 174.605 144.149 174.239 138.42 174.829C132.691 175.419 122.372 176.487 109.746 183.649C109.746 183.649 104.436 186.528 102.819 189.478C101.203 192.428 107.109 199.857 117.375 198.918C124.726 198.246 138.272 190.611 138.272 190.611C138.272 190.611 138.42 203.591 140.927 208.311C143.435 213.031 154.94 224.536 159.512 227.486C162.409 229.357 169.637 234.49 175.142 238.443C176.499 233.504 178.935 230.802 180.404 229.551Z" fill="white"/>
<path opacity="0.14" d="M150.745 208.565C146.32 197.355 148.975 174.935 136.585 177.885C127.558 180.033 111.009 187.667 102.695 191.65C103.681 195.036 109.109 199.674 117.351 198.918C124.702 198.246 138.249 190.611 138.249 190.611C138.249 190.611 138.396 203.591 140.904 208.311C143.411 213.031 154.916 224.536 159.489 227.486C162.386 229.357 169.613 234.49 175.118 238.443C175.592 236.716 176.284 235.056 177.177 233.504C166.191 225.38 153.217 214.825 150.745 208.565Z" fill="black"/>
<path d="M138.249 190.611L137.806 182.941" stroke="#263238" stroke-linecap="round" stroke-linejoin="round"/>
</g>
<path d="M180.404 229.551C177.283 226.507 165.584 210.807 160.964 201.78C154.197 188.552 153.465 184.045 150.81 179.325C148.155 174.605 144.149 174.239 138.42 174.829C132.691 175.419 122.372 176.487 109.746 183.649C109.746 183.649 104.436 186.528 102.819 189.478C101.203 192.428 107.109 199.857 117.375 198.918C124.726 198.246 138.272 190.611 138.272 190.611C138.272 190.611 138.42 203.591 140.927 208.311C143.435 213.031 154.94 224.536 159.512 227.486C162.409 229.357 169.637 234.49 175.142 238.443C176.499 233.504 178.935 230.802 180.404 229.551Z" stroke="#263238" stroke-linecap="round" stroke-linejoin="round"/>
<path d="M181.761 243.269C184.121 245.039 188.546 248.284 189.579 248.431C190.611 248.579 201.379 235.451 203.886 231.026C206.394 226.601 208.606 217.309 207.721 215.244C206.836 213.179 205.066 214.949 203.296 216.424C201.526 217.899 185.301 228.666 183.826 229.404C183.437 229.599 183.083 229.758 182.77 229.894C182.345 230.702 181.826 231.953 182.18 232.796C182.77 234.124 185.278 235.894 185.278 235.894L180.811 242.584L181.761 243.269Z" fill="#263238" stroke="#263238" stroke-linecap="round" stroke-linejoin="round"/>
<path d="M203.886 231.026C206.394 226.601 208.606 217.309 207.721 215.244C207.208 214.064 206.4 214.141 205.462 214.719C206.081 217.474 205.462 222.79 202.411 228.519C199.691 233.628 191.29 242.679 187.071 247.057C187.84 247.635 188.689 248.098 189.591 248.431C190.611 248.579 201.379 235.451 203.886 231.026Z" fill="white"/>
<mask id="mask9_2_763" style="mask-type:luminance" maskUnits="userSpaceOnUse" x="187" y="214" width="21" height="35">
<path d="M203.886 231.026C206.394 226.601 208.606 217.309 207.721 215.244C207.208 214.064 206.4 214.141 205.462 214.719C206.081 217.474 205.462 222.79 202.411 228.519C199.691 233.628 191.29 242.679 187.071 247.057C187.84 247.635 188.689 248.098 189.591 248.431C190.611 248.579 201.379 235.451 203.886 231.026Z" fill="white"/>
</mask>
<g mask="url(#mask9_2_763)">
<path d="M189.726 248.39L189.856 248.325L189.891 248.296C189.963 248.255 190.03 248.208 190.092 248.154L190.163 248.095L190.334 247.953L190.428 247.865L190.658 247.653L190.8 247.517L190.995 247.328L191.16 247.163L191.325 246.998L191.744 246.555L191.815 246.484L192.074 246.201L192.181 246.089C192.487 245.753 192.818 245.387 193.16 244.998V244.968L193.526 244.555L190.948 242.897C189.484 244.49 188.121 245.93 187.036 247.057L187.431 247.316L187.49 247.352L187.856 247.582L188.446 247.918L188.611 248.012L188.776 248.101L188.965 248.195L189.089 248.254C189.148 248.284 189.209 248.309 189.272 248.331L189.36 248.366C189.429 248.395 189.5 248.415 189.573 248.425C189.61 248.435 189.648 248.435 189.685 248.425L189.726 248.39Z" fill="#DE4619"/>
<path opacity="0.5" d="M189.726 248.39L189.856 248.325L189.891 248.296C189.963 248.255 190.03 248.208 190.092 248.154L190.163 248.095L190.334 247.953L190.428 247.865L190.658 247.653L190.8 247.517L190.995 247.328L191.16 247.163L191.325 246.998L191.744 246.555L191.815 246.484L192.074 246.201L192.181 246.089C192.487 245.753 192.818 245.387 193.16 244.998V244.968L193.526 244.555L190.948 242.897C189.484 244.49 188.121 245.93 187.036 247.057L187.431 247.316L187.49 247.352L187.856 247.582L188.446 247.918L188.611 248.012L188.776 248.101L188.965 248.195L189.089 248.254C189.148 248.284 189.209 248.309 189.272 248.331L189.36 248.366C189.429 248.395 189.5 248.415 189.573 248.425C189.61 248.435 189.648 248.435 189.685 248.425L189.726 248.39Z" fill="white"/>
</g>
<path d="M203.886 231.026C206.394 226.601 208.606 217.309 207.721 215.244C207.208 214.064 206.4 214.141 205.462 214.719C206.081 217.474 205.462 222.79 202.411 228.519C199.691 233.628 191.29 242.679 187.071 247.057C187.84 247.635 188.689 248.098 189.591 248.431C190.611 248.579 201.379 235.451 203.886 231.026Z" stroke="#263238" stroke-linecap="round" stroke-linejoin="round"/>
<path d="M180.434 251.824C176.009 249.021 170.994 241.204 170.846 238.549C170.84 238.258 170.863 237.967 170.917 237.682C170.036 237.71 169.186 238.013 168.486 238.549C166.67 236.901 164.749 235.374 162.734 233.976C161.111 233.042 159.293 232.498 157.424 232.389C155.282 234.159 153.294 235.575 152.981 236.779C152.391 238.991 156.374 247.841 165.961 254.036C175.549 260.231 178.794 259.199 181.596 258.609C184.399 258.019 184.859 254.626 180.434 251.824Z" fill="#263238" stroke="#263238" stroke-linecap="round" stroke-linejoin="round"/>
<path d="M180.434 251.824C178.968 250.83 177.645 249.639 176.504 248.284C173.46 246.986 169.395 245.334 165.831 243.115C161.996 240.755 162.881 239.28 160.669 237.068C158.97 235.369 155.63 235.15 154.179 235.139C153.655 235.576 153.249 236.138 152.999 236.773C152.409 238.985 156.391 247.835 165.979 254.03C175.566 260.225 178.811 259.193 181.614 258.603C184.416 258.013 184.859 254.626 180.434 251.824Z" fill="white"/>
<mask id="mask10_2_763" style="mask-type:luminance" maskUnits="userSpaceOnUse" x="152" y="235" width="32" height="25">
<path d="M180.434 251.824C178.968 250.83 177.645 249.639 176.504 248.284C173.46 246.986 169.395 245.334 165.831 243.115C161.996 240.755 162.881 239.28 160.669 237.068C158.97 235.369 155.63 235.15 154.179 235.139C153.655 235.576 153.249 236.138 152.999 236.773C152.409 238.985 156.391 247.835 165.979 254.03C175.566 260.225 178.811 259.193 181.614 258.603C184.416 258.013 184.859 254.626 180.434 251.824Z" fill="white"/>
</mask>
<g mask="url(#mask10_2_763)">
<path d="M180.434 251.824C178.968 250.83 177.645 249.639 176.504 248.284C173.46 246.986 169.395 245.334 165.831 243.115C161.996 240.755 162.881 239.28 160.669 237.068C158.97 235.369 155.63 235.15 154.179 235.139C153.655 235.576 153.249 236.138 152.999 236.773C152.409 238.985 156.391 247.835 165.979 254.03C175.566 260.225 178.811 259.193 181.614 258.603C184.416 258.013 184.859 254.626 180.434 251.824Z" fill="#DE4619"/>
<path opacity="0.5" d="M180.434 251.824C178.968 250.83 177.645 249.639 176.504 248.284C173.46 246.986 169.395 245.334 165.831 243.115C161.996 240.755 162.881 239.28 160.669 237.068C158.97 235.369 155.63 235.15 154.179 235.139C153.655 235.576 153.249 236.138 152.999 236.773C152.409 238.985 156.391 247.835 165.979 254.03C175.566 260.225 178.811 259.193 181.614 258.603C184.416 258.013 184.859 254.626 180.434 251.824Z" fill="white"/>
</g>
<path d="M180.434 251.824C178.968 250.83 177.645 249.639 176.504 248.284C173.46 246.986 169.395 245.334 165.831 243.115C161.996 240.755 162.881 239.28 160.669 237.068C158.97 235.369 155.63 235.15 154.179 235.139C153.655 235.576 153.249 236.138 152.999 236.773C152.409 238.985 156.391 247.835 165.979 254.03C175.566 260.225 178.811 259.193 181.614 258.603C184.416 258.013 184.859 254.626 180.434 251.824Z" stroke="#263238" stroke-linecap="round" stroke-linejoin="round"/>
<path d="M181.171 252.856C177.336 250.644 169.519 249.169 164.504 245.776C159.489 242.384 160.816 239.434 157.129 237.074C156.54 236.633 155.834 236.376 155.099 236.334C154.365 236.292 153.634 236.467 152.999 236.838C152.485 239.139 156.48 247.889 165.979 254.036C175.478 260.184 178.811 259.199 181.614 258.609C183.478 258.214 184.286 256.585 183.325 254.715C182.723 253.972 181.994 253.343 181.171 252.856Z" fill="#263238"/>
<mask id="mask11_2_763" style="mask-type:luminance" maskUnits="userSpaceOnUse" x="152" y="236" width="32" height="24">
<path d="M181.171 252.856C177.336 250.644 169.519 249.169 164.504 245.776C159.489 242.384 160.816 239.434 157.129 237.074C156.54 236.633 155.834 236.376 155.099 236.334C154.365 236.292 153.634 236.467 152.999 236.838C152.485 239.139 156.48 247.889 165.979 254.036C175.478 260.184 178.811 259.199 181.614 258.609C183.478 258.214 184.286 256.585 183.325 254.715C182.723 253.972 181.994 253.343 181.171 252.856Z" fill="white"/>
</mask>
<g mask="url(#mask11_2_763)">
<path opacity="0.53" d="M181.171 252.856C177.336 250.644 169.519 249.169 164.504 245.776C159.489 242.384 160.816 239.434 157.129 237.074C156.54 236.633 155.834 236.376 155.099 236.334C154.365 236.292 153.634 236.467 152.999 236.838C152.485 239.139 156.48 247.889 165.979 254.036C175.478 260.184 178.811 259.199 181.614 258.609C183.478 258.214 184.286 256.585 183.325 254.715C182.723 253.972 181.994 253.343 181.171 252.856Z" fill="white"/>
</g>
<path d="M181.171 252.856C177.336 250.644 169.519 249.169 164.504 245.776C159.489 242.384 160.816 239.434 157.129 237.074C156.54 236.633 155.834 236.376 155.099 236.334C154.365 236.292 153.634 236.467 152.999 236.838C152.485 239.139 156.48 247.889 165.979 254.036C175.478 260.184 178.811 259.199 181.614 258.609C183.478 258.214 184.286 256.585 183.325 254.715C182.723 253.972 181.994 253.343 181.171 252.856Z" stroke="#263238" stroke-linecap="round" stroke-linejoin="round"/>
<path d="M107.669 224.643C107.669 224.643 110.501 221.203 110.902 223.834C111.303 226.466 110.702 231.315 108.678 233.133C106.654 234.95 105.645 232.124 105.645 232.124L106.861 230.507C106.861 230.507 107.87 232.531 108.678 229.292C109.486 226.053 107.061 226.46 107.061 226.46L107.669 224.643Z" fill="white" stroke="#263238" stroke-linecap="round" stroke-linejoin="round"/>
<path d="M105.504 237.587C103.828 238.826 98.3648 238.826 96.6951 237.587C93.1551 234.962 93.7451 222.277 93.7451 222.277H108.412C108.412 222.277 109.05 234.962 105.504 237.587Z" fill="white" stroke="#263238" stroke-linecap="round" stroke-linejoin="round"/>
<path d="M95.3499 219.787C95.3499 218.194 96.8308 218.194 96.8308 216.595C96.8308 214.996 95.3499 214.996 95.3499 213.403C95.3499 211.81 96.8308 211.804 96.8308 210.205C96.8308 208.606 95.3499 208.606 95.3499 207.007C95.3499 205.408 96.8308 205.409 96.8308 203.81" stroke="#263238" stroke-linecap="round" stroke-linejoin="round"/>
<path d="M100.418 219.787C100.418 218.607 101.899 218.607 101.899 217.362C101.899 216.117 100.418 216.152 100.418 214.937C100.418 213.722 101.899 213.728 101.899 212.512C101.899 211.297 100.418 211.297 100.418 210.081C100.418 208.866 101.899 208.872 101.899 207.656" stroke="#263238" stroke-linecap="round" stroke-linejoin="round"/>
<path d="M105.993 219.787C105.993 218.194 107.468 218.194 107.468 216.595C107.468 214.996 105.993 214.996 105.993 213.403C105.993 211.81 107.468 211.804 107.468 210.205C107.468 208.606 105.993 208.606 105.993 207.007C105.993 205.408 107.468 205.409 107.468 203.81" stroke="#263238" stroke-linecap="round" stroke-linejoin="round"/>
<path d="M108.424 222.277C108.424 222.648 105.144 222.943 101.091 222.943C97.0373 222.943 93.7569 222.648 93.7569 222.277C93.7569 221.905 97.0373 221.61 101.091 221.61C105.144 221.61 108.424 221.905 108.424 222.277Z" fill="white" stroke="#263238" stroke-linecap="round" stroke-linejoin="round"/>
<path d="M121.965 130.98C121.965 130.98 122.655 138.432 122.944 140.786C123.233 143.14 123.888 149.901 124.567 152.137C125.245 154.373 128.945 158.262 129.287 157.365C129.629 156.468 131.47 150.385 130.738 146.745C130.007 143.105 129.782 139.995 130.237 139.075C130.691 138.154 132.325 137.122 132.325 137.122C130.422 136.147 128.572 135.07 126.785 133.895C124.177 132.16 122.331 130.195 121.965 130.98Z" fill="white"/>
<mask id="mask12_2_763" style="mask-type:luminance" maskUnits="userSpaceOnUse" x="121" y="130" width="12" height="28">
<path d="M121.965 130.98C121.965 130.98 122.655 138.432 122.944 140.786C123.233 143.14 123.888 149.901 124.567 152.137C125.245 154.373 128.945 158.262 129.287 157.365C129.629 156.468 131.47 150.385 130.738 146.745C130.007 143.105 129.782 139.995 130.237 139.075C130.691 138.154 132.325 137.122 132.325 137.122C130.422 136.147 128.572 135.07 126.785 133.895C124.177 132.16 122.331 130.195 121.965 130.98Z" fill="white"/>
</mask>
<g mask="url(#mask12_2_763)">
<path d="M131.434 137.523L130.844 136.378C129.759 135.788 128.248 134.915 126.815 133.954C124.189 132.184 122.342 130.195 121.977 131.004C121.977 131.004 122.667 138.455 122.956 140.809C123.245 143.164 123.9 149.925 124.579 152.161C124.81 152.815 125.13 153.434 125.528 154.002C124.815 149.553 125.587 141.517 125.587 141.517L131.434 137.523Z" fill="#DE4619"/>
<path opacity="0.5" d="M131.434 137.523L130.844 136.378C129.759 135.788 128.248 134.915 126.815 133.954C124.189 132.184 122.342 130.195 121.977 131.004C121.977 131.004 122.667 138.455 122.956 140.809C123.245 143.164 123.9 149.925 124.579 152.161C124.81 152.815 125.13 153.434 125.528 154.002C124.815 149.553 125.587 141.517 125.587 141.517L131.434 137.523Z" fill="white"/>
</g>
<path d="M121.965 130.98C121.965 130.98 122.655 138.432 122.944 140.786C123.233 143.14 123.888 149.901 124.567 152.137C125.245 154.373 128.945 158.262 129.287 157.365C129.629 156.468 131.47 150.385 130.738 146.745C130.007 143.105 129.782 139.995 130.237 139.075C130.691 138.154 132.325 137.122 132.325 137.122C130.422 136.147 128.572 135.07 126.785 133.895C124.177 132.16 122.331 130.195 121.965 130.98Z" stroke="#263238" stroke-linecap="round" stroke-linejoin="round"/>
<path d="M121.693 132.06C121.693 132.06 125.941 135.6 129.198 136.898C132.455 138.196 137.458 138.113 138.172 136.42C138.886 134.726 136.933 121.316 135.252 117.788C133.57 114.259 131.777 114.2 128.809 113.929C125.841 113.658 119.906 116.077 118.861 118.944C117.817 121.811 119.009 125.871 119.87 128.278C120.326 129.606 120.938 130.876 121.693 132.06Z" fill="white"/>
<mask id="mask13_2_763" style="mask-type:luminance" maskUnits="userSpaceOnUse" x="118" y="113" width="21" height="25">
<path d="M121.693 132.06C121.693 132.06 125.941 135.6 129.198 136.898C132.455 138.196 137.458 138.113 138.172 136.42C138.886 134.726 136.933 121.316 135.252 117.788C133.57 114.259 131.777 114.2 128.809 113.929C125.841 113.658 119.906 116.077 118.861 118.944C117.817 121.811 119.009 125.871 119.87 128.278C120.326 129.606 120.938 130.876 121.693 132.06Z" fill="white"/>
</mask>
<g mask="url(#mask13_2_763)">
<path d="M129.322 131.9C127.818 127.44 127.44 120.419 127.44 118.549C127.44 117.103 131.204 115.516 132.921 114.867C131.794 114.171 130.484 114.082 128.791 113.929C125.841 113.664 119.888 116.077 118.844 118.944C117.799 121.811 118.991 125.871 119.853 128.278C120.308 129.606 120.92 130.876 121.676 132.06C121.676 132.06 125.924 135.6 129.181 136.898C131.438 137.752 133.882 137.986 136.261 137.576C133.93 136.697 130.325 134.88 129.322 131.9Z" fill="#DE4619"/>
<path opacity="0.5" d="M129.322 131.9C127.818 127.44 127.44 120.419 127.44 118.549C127.44 117.103 131.204 115.516 132.921 114.867C131.794 114.171 130.484 114.082 128.791 113.929C125.841 113.664 119.888 116.077 118.844 118.944C117.799 121.811 118.991 125.871 119.853 128.278C120.308 129.606 120.92 130.876 121.676 132.06C121.676 132.06 125.924 135.6 129.181 136.898C131.438 137.752 133.882 137.986 136.261 137.576C133.93 136.697 130.325 134.88 129.322 131.9Z" fill="white"/>
</g>
<path d="M121.693 132.06C121.693 132.06 125.941 135.6 129.198 136.898C132.455 138.196 137.458 138.113 138.172 136.42C138.886 134.726 136.933 121.316 135.252 117.788C133.57 114.259 131.777 114.2 128.809 113.929C125.841 113.658 119.906 116.077 118.861 118.944C117.817 121.811 119.009 125.871 119.87 128.278C120.326 129.606 120.938 130.876 121.693 132.06Z" stroke="#263238" stroke-linecap="round" stroke-linejoin="round"/>
<path d="M135.57 123.31C135.641 125.009 134.573 126.431 133.21 126.484C131.847 126.537 130.655 125.21 130.591 123.534C130.526 121.859 131.588 120.413 132.951 120.354C134.313 120.295 135.505 121.593 135.57 123.31Z" stroke="#263238" stroke-linecap="round" stroke-linejoin="round"/>
<path d="M138.91 122.649C138.98 124.348 138.432 125.747 137.688 125.776C136.945 125.806 136.284 124.455 136.219 122.755C136.154 121.056 136.703 119.652 137.446 119.623C138.19 119.593 138.845 120.95 138.91 122.649Z" stroke="#263238" stroke-linecap="round" stroke-linejoin="round"/>
<path d="M135.747 122.685C135.747 122.685 140.621 123.611 140.149 124.785C139.677 125.959 136.384 127.228 136.384 127.228" fill="white"/>
<path d="M135.747 122.685C135.747 122.685 140.621 123.611 140.149 124.785C139.677 125.959 136.384 127.228 136.384 127.228" stroke="#263238" stroke-linecap="round" stroke-linejoin="round"/>
<path d="M135.446 122.13C135.446 122.13 135.517 121.54 136.266 121.912" stroke="#263238" stroke-linecap="round" stroke-linejoin="round"/>
<path d="M130.437 123.77L121.575 127.257" stroke="#263238" stroke-linecap="round" stroke-linejoin="round"/>
<path d="M130.555 120.903C130.742 120.481 131.054 120.127 131.448 119.888C131.843 119.65 132.302 119.538 132.762 119.569" stroke="#263238" stroke-width="2" stroke-linecap="round" stroke-linejoin="round"/>
<path d="M136.455 119.611L135.092 120.124" stroke="#263238" stroke-width="2" stroke-linecap="round" stroke-linejoin="round"/>
<path d="M132.243 129.505C132.243 129.505 134.013 129.045 135.016 130.095" stroke="#263238" stroke-linecap="round" stroke-linejoin="round"/>
<path d="M133.381 123.617C133.464 124.207 133.381 124.714 133.139 124.744C132.898 124.773 132.685 124.319 132.603 123.723C132.52 123.127 132.632 122.632 132.85 122.602C133.069 122.573 133.305 123.027 133.381 123.617Z" fill="#263238"/>
<path d="M122.401 127.281C122.401 127.281 121.811 128.461 123.475 128.52C125.139 128.579 126.272 127.77 125.464 126.75C124.655 125.729 123.458 124.773 124.691 123.44C125.924 122.106 128.319 120.985 126.974 119.499C125.629 118.012 120.679 119.363 121.918 118.159C123.157 116.956 128.88 115.699 131.452 115.858C134.024 116.018 138.827 114.023 139.883 111.416C140.939 108.808 139.464 103.988 136.007 104.247C132.549 104.507 129.971 107.569 128.437 107.787C126.903 108.005 123.758 106.3 121.121 107.787C118.484 109.274 118.395 113.545 118.171 114.071C117.947 114.596 114.372 115.374 113.74 118.991C113.503 120.449 113.605 121.942 114.036 123.355C114.468 124.768 115.218 126.063 116.23 127.139C117.711 128.75 118.378 129.363 118.378 129.363L122.401 127.281Z" fill="#263238" stroke="#263238" stroke-linecap="round" stroke-linejoin="round"/>
<path d="M114.897 120.743C114.866 121.292 114.997 121.838 115.274 122.313" stroke="white" stroke-width="0.75" stroke-linecap="round" stroke-linejoin="round"/>
<path d="M129.936 111.404C129.936 111.404 128.649 108.59 131.93 108.59C135.21 108.59 135.682 112.719 132.284 114.218C128.885 115.717 121.493 116.094 117.504 117.858C116.722 118.165 116.025 118.657 115.475 119.292" stroke="white" stroke-width="0.75" stroke-linecap="round" stroke-linejoin="round"/>
<path d="M123.994 121.398C122.814 121.823 121.286 122.413 119.735 123.133C116.448 124.661 117.15 126.183 117.15 126.183" stroke="white" stroke-width="0.75" stroke-linecap="round" stroke-linejoin="round"/>
<path d="M126.183 120.673C126.183 120.673 125.894 120.755 125.405 120.915" stroke="white" stroke-width="0.75" stroke-linecap="round" stroke-linejoin="round"/>
<path d="M122.962 128.543C122.962 128.543 121.056 125.794 119.05 126.897C117.044 128.001 118.602 131.924 119.811 133.287C121.021 134.65 123.351 132.107 123.593 131.47" fill="white"/>
<mask id="mask14_2_763" style="mask-type:luminance" maskUnits="userSpaceOnUse" x="118" y="126" width="6" height="8">
<path d="M122.962 128.543C122.962 128.543 121.056 125.794 119.05 126.897C117.044 128.001 118.602 131.924 119.811 133.287C121.021 134.65 123.351 132.107 123.593 131.47" fill="white"/>
</mask>
<g mask="url(#mask14_2_763)">
<path d="M122.962 128.543C122.962 128.543 121.056 125.794 119.05 126.897C117.044 128.001 118.602 131.924 119.811 133.287C121.021 134.65 123.351 132.107 123.593 131.47" fill="#DE4619"/>
<path opacity="0.5" d="M122.962 128.543C122.962 128.543 121.056 125.794 119.05 126.897C117.044 128.001 118.602 131.924 119.811 133.287C121.021 134.65 123.351 132.107 123.593 131.47" fill="white"/>
</g>
<path d="M122.962 128.543C122.962 128.543 121.056 125.794 119.05 126.897C117.044 128.001 118.602 131.924 119.811 133.287C121.021 134.65 123.351 132.107 123.593 131.47" stroke="#263238" stroke-linecap="round" stroke-linejoin="round"/>
<path d="M98.8958 126.036H56.6046C54.9363 126.036 53.5838 127.388 53.5838 129.057V159.973C53.5838 161.641 54.9363 162.993 56.6046 162.993H98.8958C100.564 162.993 101.917 161.641 101.917 159.973V129.057C101.917 127.388 100.564 126.036 98.8958 126.036Z" fill="white" stroke="#263238" stroke-linecap="round" stroke-linejoin="round"/>
<path d="M100.996 152.621L129.316 159.996L100.996 146.131" fill="white"/>
<path d="M100.996 152.621L129.316 159.996L100.996 146.131" stroke="#263238" stroke-linecap="round" stroke-linejoin="round"/>
<path d="M68.8589 129.588H57.4896V159.442H68.8589V129.588Z" fill="#DE4619" stroke="#263238" stroke-linecap="round" stroke-linejoin="round"/>
<path d="M99.4091 129.588H97.9872V159.442H99.4091V129.588Z" fill="#DE4619" stroke="#263238" stroke-linecap="round" stroke-linejoin="round"/>
<path d="M99.4091 143.234H97.9872V145.783H99.4091V143.234Z" fill="#263238" stroke="#263238" stroke-linecap="round" stroke-linejoin="round"/>
<path d="M72.4166 130.296H94.8071" stroke="#263238" stroke-linecap="round" stroke-linejoin="round"/>
<path d="M72.4166 133.493H94.8071" stroke="#263238" stroke-linecap="round" stroke-linejoin="round"/>
<path d="M72.4166 136.697H94.8071" stroke="#263238" stroke-linecap="round" stroke-linejoin="round"/>
<path d="M72.4166 139.895H94.8071" stroke="#263238" stroke-linecap="round" stroke-linejoin="round"/>
<path d="M72.4166 147.712H94.8071" stroke="#263238" stroke-linecap="round" stroke-linejoin="round"/>
<path d="M72.4166 150.556H94.8071" stroke="#263238" stroke-linecap="round" stroke-linejoin="round"/>
<path d="M72.4166 153.4H94.8071" stroke="#263238" stroke-linecap="round" stroke-linejoin="round"/>
<path d="M72.4166 159.3H94.8071" stroke="#263238" stroke-linecap="round" stroke-linejoin="round"/>
<path d="M57.4896 159.436L68.8648 129.588" stroke="#263238" stroke-linecap="round" stroke-linejoin="round"/>
<path d="M228.843 242.053C234.295 242.053 238.714 240.072 238.714 237.628C238.714 235.185 234.295 233.203 228.843 233.203C223.392 233.203 218.973 235.185 218.973 237.628C218.973 240.072 223.392 242.053 228.843 242.053Z" fill="#DE4619"/>
<path opacity="0.5" d="M228.843 242.053C234.295 242.053 238.714 240.072 238.714 237.628C238.714 235.185 234.295 233.203 228.843 233.203C223.392 233.203 218.973 235.185 218.973 237.628C218.973 240.072 223.392 242.053 228.843 242.053Z" fill="white"/>
<path d="M217.297 172.15C218.353 172.61 220.937 172.551 220.937 172.551C220.937 172.551 220.383 170.858 220.347 170.781C219.757 169.601 217.987 167.637 216.53 167.831C216.291 167.875 216.063 167.967 215.861 168.102C215.659 168.238 215.487 168.413 215.355 168.618C215.224 168.823 215.137 169.053 215.098 169.293C215.06 169.533 215.071 169.779 215.132 170.014C215.35 171.006 216.394 171.755 217.297 172.15Z" fill="#263238"/>
<path d="M251.139 163.353C249.676 163.2 247.936 165.2 247.399 166.404C247.352 166.51 246.809 168.215 246.844 168.215H246.874C246.596 168.528 246.284 168.87 245.995 169.247C245.405 169.949 244.779 170.746 244.142 171.666C243.443 172.646 242.803 173.667 242.224 174.723C241.569 175.903 241.02 177.139 240.584 178.416C240.581 178.432 240.581 178.448 240.584 178.463C240.584 178.033 240.584 176.823 240.584 176.729C240.413 175.431 239.322 173.006 237.87 172.74C237.629 172.707 237.384 172.724 237.15 172.79C236.916 172.856 236.698 172.97 236.51 173.124C236.322 173.278 236.168 173.469 236.056 173.685C235.945 173.901 235.88 174.138 235.864 174.38C235.782 175.413 236.531 176.451 237.263 177.106C238.089 177.844 240.378 178.558 240.561 178.611C240.152 179.922 239.829 181.258 239.593 182.611C239.451 183.402 239.339 184.198 239.227 185C239.227 184.623 239.227 184.292 239.227 184.245C239.056 182.941 237.965 180.522 236.519 180.257C236.278 180.223 236.033 180.239 235.799 180.304C235.564 180.37 235.346 180.482 235.157 180.636C234.969 180.789 234.813 180.98 234.702 181.196C234.59 181.412 234.524 181.648 234.507 181.891C234.425 182.93 235.174 183.962 235.906 184.617C236.637 185.272 238.59 185.933 239.109 186.098C239.074 186.405 239.033 186.688 238.991 187.018C238.814 188.493 238.649 189.968 238.437 191.414C238.36 191.921 238.272 192.417 238.183 192.912C238.183 192.582 238.183 192.322 238.183 192.263C238.012 190.959 236.92 188.54 235.469 188.269C235.228 188.236 234.983 188.253 234.749 188.319C234.515 188.385 234.297 188.499 234.109 188.652C233.921 188.806 233.766 188.997 233.655 189.214C233.544 189.43 233.479 189.667 233.463 189.909C233.38 190.948 234.13 191.98 234.861 192.635C235.593 193.29 237.357 193.886 237.971 194.081C237.864 194.588 237.752 195.095 237.628 195.585C237.534 195.915 237.463 196.24 237.351 196.564C237.239 196.889 237.145 197.213 237.038 197.532C236.82 198.122 236.596 198.771 236.366 199.355C236.206 199.768 236.047 200.158 235.894 200.535C235.971 200.028 236.106 199.036 236.106 198.954C236.092 197.797 235.781 196.664 235.203 195.662C235.212 195.534 235.212 195.406 235.203 195.278C235.169 195.038 235.085 194.807 234.957 194.6C234.829 194.394 234.659 194.216 234.46 194.077C234.26 193.939 234.034 193.843 233.795 193.796C233.557 193.749 233.311 193.751 233.074 193.803C231.652 194.181 230.749 196.677 230.678 197.986C230.678 198.069 230.725 198.913 230.767 199.444C230.696 199.137 230.631 198.854 230.554 198.517C230.401 197.886 230.236 197.261 230.059 196.594C229.958 196.269 229.864 195.945 229.764 195.62C229.663 195.296 229.534 194.96 229.422 194.623C229.138 193.856 228.831 193.089 228.472 192.322C229.026 192.192 230.973 191.697 231.758 191.095C232.543 190.493 233.363 189.52 233.351 188.481C233.357 188.238 233.311 187.997 233.218 187.772C233.124 187.548 232.984 187.345 232.807 187.178C232.63 187.012 232.42 186.884 232.191 186.803C231.961 186.723 231.717 186.691 231.475 186.711C230.006 186.871 228.737 189.201 228.472 190.487C228.472 190.57 228.371 191.514 228.33 192.033C228.124 191.573 227.917 191.119 227.693 190.658C227.038 189.343 226.336 188.033 225.64 186.717C225.421 186.316 225.215 185.915 225.008 185.508C225.203 185.467 227.534 184.918 228.407 184.251C229.186 183.661 230.012 182.676 230.006 181.637C230.006 181.395 229.957 181.156 229.861 180.933C229.765 180.711 229.625 180.51 229.448 180.344C229.272 180.179 229.063 180.051 228.835 179.969C228.607 179.886 228.365 179.852 228.123 179.867C226.66 180.027 225.392 182.357 225.126 183.643C225.126 183.738 224.985 185.101 224.967 185.449C224.507 184.558 224.058 183.679 223.645 182.776C223.088 181.573 222.61 180.335 222.212 179.071C222.3 179.071 224.737 178.481 225.634 177.808C226.412 177.218 227.239 176.233 227.233 175.195C227.233 174.952 227.184 174.713 227.088 174.49C226.992 174.268 226.852 174.068 226.675 173.902C226.499 173.736 226.29 173.608 226.062 173.526C225.834 173.444 225.592 173.409 225.351 173.425C223.887 173.584 222.619 175.914 222.353 177.201C222.353 177.307 222.2 178.77 222.194 179.036C222.194 178.959 222.141 178.888 222.117 178.811C221.753 177.53 221.504 176.219 221.374 174.894C221.291 174.168 221.256 173.46 221.232 172.776C221.698 172.722 223.811 172.439 224.69 171.908C225.569 171.377 226.46 170.522 226.566 169.483C226.595 169.242 226.573 168.997 226.503 168.764C226.433 168.532 226.316 168.316 226.158 168.13C226.001 167.945 225.807 167.794 225.589 167.687C225.371 167.579 225.133 167.518 224.89 167.507C223.415 167.507 221.899 169.684 221.492 170.929C221.492 171 221.327 171.714 221.226 172.239C221.226 171.926 221.226 171.607 221.226 171.312C221.226 170.203 221.297 169.182 221.368 168.28C221.415 167.767 221.462 167.306 221.516 166.87C221.94 166.581 223.64 165.377 224.165 164.51C224.69 163.642 225.097 162.462 224.713 161.501C224.632 161.27 224.503 161.059 224.335 160.881C224.167 160.704 223.963 160.564 223.736 160.471C223.51 160.378 223.267 160.334 223.022 160.342C222.778 160.349 222.538 160.408 222.318 160.515C221.008 161.188 220.666 163.819 220.878 165.117C220.878 165.229 221.392 166.946 221.415 166.935C221.362 167.348 221.303 167.796 221.25 168.28C221.162 169.182 221.067 170.203 221.043 171.324C221.002 172.526 221.03 173.73 221.126 174.929C221.232 176.274 221.457 177.607 221.799 178.912C221.795 178.927 221.795 178.943 221.799 178.959C221.569 178.599 220.884 177.602 220.825 177.531C219.964 176.534 217.722 175.124 216.365 175.696C216.146 175.801 215.951 175.95 215.792 176.134C215.633 176.318 215.513 176.532 215.441 176.764C215.368 176.996 215.344 177.24 215.37 177.482C215.396 177.723 215.472 177.957 215.592 178.168C216.093 179.083 217.291 179.531 218.265 179.673C219.356 179.832 221.663 179.165 221.846 179.112C222.227 180.43 222.694 181.72 223.244 182.977C223.563 183.714 223.905 184.446 224.259 185.172C224.047 184.865 223.858 184.582 223.828 184.582C222.967 183.59 220.719 182.174 219.368 182.747C219.148 182.852 218.952 183.001 218.793 183.185C218.633 183.369 218.513 183.584 218.441 183.817C218.368 184.05 218.344 184.295 218.371 184.537C218.397 184.779 218.474 185.013 218.595 185.225C219.097 186.133 220.294 186.587 221.262 186.729C222.229 186.871 224.212 186.34 224.749 186.192C224.884 186.469 225.02 186.747 225.162 187.024C225.828 188.357 226.501 189.679 227.121 190.995C227.339 191.461 227.534 191.927 227.711 192.393C227.528 192.116 227.368 191.892 227.339 191.856C226.477 190.865 224.23 189.449 222.878 190.021C222.659 190.126 222.463 190.276 222.303 190.46C222.144 190.644 222.024 190.859 221.951 191.092C221.879 191.324 221.855 191.569 221.881 191.812C221.908 192.054 221.984 192.288 222.106 192.499C222.607 193.408 223.805 193.856 224.772 193.998C225.74 194.139 227.545 193.662 228.165 193.491C228.354 193.974 228.548 194.458 228.708 194.936C228.814 195.26 228.938 195.567 229.02 195.904C229.103 196.24 229.203 196.559 229.298 196.883C229.445 197.514 229.604 198.163 229.74 198.777C229.835 199.208 229.917 199.615 230 200.028C229.787 199.562 229.351 198.665 229.309 198.594C228.607 197.479 226.601 195.738 225.179 196.104C224.943 196.17 224.724 196.285 224.535 196.442C224.347 196.599 224.194 196.793 224.086 197.014C223.979 197.234 223.919 197.474 223.911 197.719C223.903 197.964 223.948 198.208 224.041 198.435C224.395 199.408 225.51 200.034 226.448 200.323C227.486 200.635 229.775 200.323 230.059 200.323C230.194 201.007 230.324 201.674 230.43 202.305C230.82 204.488 231.056 206.323 231.203 207.615C231.203 207.845 231.25 208.046 231.274 208.241H226.843L228.265 236.029C228.318 237.047 228.759 238.005 229.498 238.707C230.237 239.408 231.217 239.799 232.236 239.8C233.254 239.799 234.233 239.408 234.971 238.706C235.709 238.005 236.149 237.046 236.201 236.029L237.628 208.241H233.498C233.528 208.176 233.557 208.117 233.593 208.052C234.183 206.872 234.944 205.172 235.793 203.102C236.059 202.447 236.336 201.739 236.608 201.013C236.885 201.072 239.151 201.532 240.207 201.29C241.168 201.078 242.325 200.535 242.756 199.591C242.86 199.371 242.919 199.131 242.927 198.888C242.935 198.644 242.892 198.401 242.802 198.174C242.712 197.948 242.575 197.742 242.402 197.571C242.228 197.399 242.021 197.266 241.794 197.178C240.396 196.712 238.254 198.299 237.487 199.355C237.44 199.414 237.021 200.152 236.761 200.618C236.867 200.317 236.979 200.028 237.092 199.721C237.316 199.131 237.516 198.505 237.741 197.845C237.835 197.526 237.935 197.202 238.03 196.871C238.124 196.541 238.207 196.193 238.295 195.851C238.484 195.054 238.637 194.24 238.773 193.414C239.304 193.609 241.204 194.269 242.189 194.198C243.174 194.128 244.396 193.768 244.962 192.901C245.098 192.699 245.191 192.471 245.235 192.232C245.279 191.992 245.273 191.746 245.217 191.509C245.162 191.272 245.058 191.049 244.913 190.854C244.768 190.659 244.583 190.496 244.372 190.375C243.062 189.697 240.72 190.965 239.788 191.868C239.729 191.927 239.133 192.67 238.814 193.083C238.897 192.582 238.974 192.086 239.038 191.585C239.221 190.122 239.357 188.635 239.499 187.16L239.64 185.809C239.829 185.879 242.071 186.711 243.18 186.635C244.16 186.564 245.387 186.204 245.953 185.337C246.089 185.135 246.182 184.907 246.226 184.668C246.27 184.428 246.264 184.182 246.209 183.946C246.153 183.709 246.05 183.486 245.904 183.29C245.759 183.095 245.575 182.932 245.363 182.812C244.053 182.133 241.705 183.402 240.779 184.304C240.708 184.375 239.853 185.443 239.652 185.726C239.752 184.729 239.87 183.738 240.024 182.776C240.222 181.463 240.504 180.165 240.868 178.888C240.956 178.923 243.292 179.802 244.408 179.72C245.387 179.655 246.614 179.295 247.181 178.422C247.316 178.22 247.409 177.992 247.453 177.753C247.497 177.514 247.491 177.268 247.436 177.031C247.38 176.794 247.277 176.571 247.131 176.376C246.986 176.18 246.802 176.017 246.591 175.897C245.281 175.224 242.938 176.487 242.006 177.395C241.935 177.466 241.015 178.617 240.868 178.835C240.868 178.764 240.903 178.682 240.927 178.611C241.329 177.34 241.844 176.108 242.466 174.929C242.797 174.274 243.157 173.666 243.517 173.088C243.935 173.295 245.877 174.227 246.88 174.268C247.883 174.31 249.116 174.085 249.777 173.283C249.935 173.098 250.053 172.882 250.124 172.649C250.195 172.415 250.217 172.17 250.189 171.928C250.161 171.686 250.083 171.453 249.96 171.242C249.837 171.031 249.672 170.849 249.476 170.705C248.248 169.89 245.782 170.87 244.756 171.69C244.702 171.737 244.166 172.28 243.812 172.634L244.307 171.849C244.927 170.923 245.546 170.115 246.077 169.401C246.396 168.994 246.697 168.64 246.974 168.303C247.493 168.303 249.576 168.233 250.484 167.808C251.393 167.383 252.39 166.628 252.608 165.595C252.679 165.351 252.695 165.094 252.657 164.842C252.619 164.591 252.527 164.351 252.387 164.138C252.248 163.925 252.064 163.745 251.849 163.609C251.634 163.474 251.392 163.387 251.139 163.353ZM234.932 202.671C234.047 204.706 233.233 206.37 232.649 207.521L232.33 208.152H232.23C232.2 207.928 232.171 207.68 232.13 207.403C231.953 206.105 231.675 204.258 231.239 202.093C231.097 201.396 230.938 200.653 230.767 199.898C231.456 199.619 232.129 199.304 232.784 198.954C233.674 199.719 234.667 200.354 235.734 200.842C235.451 201.461 235.192 202.087 234.932 202.671Z" fill="#263238"/>
<path d="M243.428 172.717C243.428 172.717 243.894 171 243.912 170.888C244.095 169.584 243.676 166.964 242.354 166.321C242.131 166.227 241.891 166.18 241.649 166.182C241.407 166.184 241.168 166.236 240.947 166.335C240.726 166.433 240.527 166.576 240.363 166.754C240.199 166.932 240.074 167.142 239.994 167.371C239.64 168.351 240.089 169.548 240.626 170.374C241.239 171.342 243.422 172.717 243.428 172.717Z" fill="#263238"/>
</svg>
