<svg width="148" height="44" viewBox="0 0 148 44" fill="none" xmlns="http://www.w3.org/2000/svg">
<rect width="148" height="44" fill="#F74101"/>
<rect width="148" height="44" fill="black" fill-opacity="0.15"/>
<g clip-path="url(#clip0_66_824)">
<path d="M54.7166 20.2053C54.2113 20.2053 53.7666 20.4179 53.4393 20.7493C52.236 19.9039 50.6133 19.3599 48.8153 19.3019L49.7493 15.0313L52.7233 15.7086C52.7233 16.4473 53.3166 17.0506 54.0446 17.0506C54.7866 17.0506 55.3833 16.4313 55.3833 15.6919C55.3833 14.9526 54.7906 14.3333 54.0453 14.3333C53.526 14.3333 53.078 14.6513 52.8546 15.0859L49.57 14.3473C49.4046 14.3026 49.2426 14.4226 49.1986 14.5906L48.1733 19.2986C46.3893 19.3739 44.784 19.9173 43.5766 20.7633C43.2493 20.4179 42.7873 20.2053 42.282 20.2053C40.4073 20.2053 39.7933 22.7579 41.51 23.6306C41.4493 23.9006 41.422 24.1886 41.422 24.4759C41.422 27.3433 44.6053 29.6666 48.514 29.6666C52.4393 29.6666 55.6226 27.3433 55.6226 24.4759C55.6226 24.1886 55.5926 23.8873 55.5186 23.6166C57.2006 22.7406 56.5813 20.2066 54.7166 20.2053ZM44.234 23.8119C44.234 23.0593 44.8273 22.4533 45.5726 22.4533C46.3006 22.4533 46.8946 23.0553 46.8946 23.8119C46.8946 24.5513 46.3013 25.1539 45.5726 25.1539C44.8306 25.1573 44.234 24.5513 44.234 23.8119ZM51.46 27.0106C50.2326 28.2559 46.7693 28.2559 45.5413 27.0106C45.406 26.8906 45.406 26.6786 45.5413 26.5419C45.6593 26.4219 45.8686 26.4219 45.9866 26.5419C46.924 27.5173 50.0333 27.5339 51.0113 26.5419C51.1293 26.4219 51.3386 26.4219 51.4566 26.5419C51.5946 26.6793 51.5946 26.8913 51.46 27.0106ZM51.4326 25.1566C50.7046 25.1566 50.1113 24.5546 50.1113 23.8159C50.1113 23.0633 50.7046 22.4573 51.4326 22.4573C52.1746 22.4573 52.7713 23.0593 52.7713 23.8159C52.768 24.5513 52.1746 25.1566 51.4326 25.1566Z" fill="white"/>
</g>
<path d="M73.7796 26.104C73.8636 26.2253 73.9056 26.356 73.9056 26.496C73.9056 26.664 73.8356 26.8087 73.6956 26.93C73.565 27.042 73.411 27.098 73.2336 27.098C72.9723 27.098 72.7623 26.9813 72.6036 26.748L70.7276 23.836C70.513 23.5 70.2843 23.2667 70.0416 23.136C69.799 22.996 69.4816 22.926 69.0896 22.926H67.5076V26.342C67.5076 26.566 67.4423 26.7433 67.3116 26.874C67.1903 27.0047 67.0176 27.07 66.7936 27.07C66.579 27.07 66.4063 27.0047 66.2756 26.874C66.145 26.7433 66.0796 26.566 66.0796 26.342V17.83C66.0796 17.6153 66.1403 17.4473 66.2616 17.326C66.3923 17.1953 66.5696 17.13 66.7936 17.13H70.2796C71.3716 17.13 72.2023 17.3727 72.7716 17.858C73.3503 18.3433 73.6396 19.0527 73.6396 19.986C73.6396 20.7607 73.4203 21.3907 72.9816 21.876C72.543 22.352 71.9176 22.6553 71.1056 22.786C71.3483 22.8513 71.5676 22.968 71.7636 23.136C71.9596 23.304 72.151 23.5373 72.3376 23.836L73.7796 26.104ZM70.1116 21.764C70.8396 21.764 71.3763 21.624 71.7216 21.344C72.0763 21.0547 72.2536 20.6113 72.2536 20.014C72.2536 19.4167 72.081 18.9827 71.7356 18.712C71.3903 18.432 70.849 18.292 70.1116 18.292H67.4936V21.764H70.1116ZM80.9257 25.278C81.0563 25.278 81.1637 25.3293 81.2477 25.432C81.3317 25.5347 81.3737 25.6653 81.3737 25.824C81.3737 26.0947 81.2057 26.3233 80.8697 26.51C80.543 26.6967 80.1837 26.8413 79.7917 26.944C79.409 27.0467 79.0403 27.098 78.6857 27.098C77.603 27.098 76.749 26.7853 76.1237 26.16C75.4983 25.5253 75.1857 24.662 75.1857 23.57C75.1857 22.87 75.321 22.2493 75.5917 21.708C75.8717 21.1667 76.259 20.7467 76.7537 20.448C77.2577 20.1493 77.827 20 78.4617 20C79.3763 20 80.0997 20.294 80.6317 20.882C81.1637 21.47 81.4297 22.2633 81.4297 23.262C81.4297 23.6353 81.2617 23.822 80.9257 23.822H76.5997C76.693 25.2687 77.3883 25.992 78.6857 25.992C79.031 25.992 79.3297 25.9453 79.5817 25.852C79.8337 25.7587 80.0997 25.6373 80.3797 25.488C80.4077 25.4693 80.4823 25.432 80.6037 25.376C80.7343 25.3107 80.8417 25.278 80.9257 25.278ZM78.4897 21.036C77.9483 21.036 77.5143 21.2087 77.1877 21.554C76.861 21.8993 76.665 22.3847 76.5997 23.01H80.2117C80.1837 22.3753 80.0203 21.89 79.7217 21.554C79.4323 21.2087 79.0217 21.036 78.4897 21.036ZM88.5738 17.06C88.7885 17.06 88.9611 17.1207 89.0918 17.242C89.2225 17.3633 89.2878 17.5267 89.2878 17.732V26.384C89.2878 26.5987 89.2225 26.7667 89.0918 26.888C88.9705 27.0093 88.8025 27.07 88.5878 27.07C88.3731 27.07 88.2005 27.0093 88.0698 26.888C87.9485 26.7667 87.8878 26.5987 87.8878 26.384V25.824C87.6825 26.2347 87.3838 26.552 86.9918 26.776C86.5998 26.9907 86.1471 27.098 85.6338 27.098C85.0458 27.098 84.5185 26.9487 84.0518 26.65C83.5945 26.3513 83.2351 25.9313 82.9738 25.39C82.7218 24.8487 82.5958 24.228 82.5958 23.528C82.5958 22.8187 82.7218 22.198 82.9738 21.666C83.2351 21.134 83.5945 20.7233 84.0518 20.434C84.5091 20.1447 85.0365 20 85.6338 20C86.1471 20 86.5951 20.112 86.9778 20.336C87.3698 20.5507 87.6685 20.8587 87.8738 21.26V17.704C87.8738 17.508 87.9345 17.354 88.0558 17.242C88.1865 17.1207 88.3591 17.06 88.5738 17.06ZM85.9698 25.978C86.5765 25.978 87.0478 25.768 87.3838 25.348C87.7198 24.928 87.8878 24.3307 87.8878 23.556C87.8878 22.7813 87.7198 22.184 87.3838 21.764C87.0571 21.344 86.5858 21.134 85.9698 21.134C85.3538 21.134 84.8731 21.344 84.5278 21.764C84.1918 22.1747 84.0238 22.7627 84.0238 23.528C84.0238 24.2933 84.1965 24.8953 84.5418 25.334C84.8871 25.7633 85.3631 25.978 85.9698 25.978ZM96.8453 17.06C97.06 17.06 97.2326 17.1207 97.3633 17.242C97.494 17.3633 97.5593 17.5267 97.5593 17.732V26.384C97.5593 26.5987 97.494 26.7667 97.3633 26.888C97.242 27.0093 97.074 27.07 96.8593 27.07C96.6446 27.07 96.472 27.0093 96.3413 26.888C96.22 26.7667 96.1593 26.5987 96.1593 26.384V25.824C95.954 26.2347 95.6553 26.552 95.2633 26.776C94.8713 26.9907 94.4186 27.098 93.9053 27.098C93.3173 27.098 92.79 26.9487 92.3233 26.65C91.866 26.3513 91.5066 25.9313 91.2453 25.39C90.9933 24.8487 90.8673 24.228 90.8673 23.528C90.8673 22.8187 90.9933 22.198 91.2453 21.666C91.5066 21.134 91.866 20.7233 92.3233 20.434C92.7806 20.1447 93.308 20 93.9053 20C94.4186 20 94.8666 20.112 95.2493 20.336C95.6413 20.5507 95.94 20.8587 96.1453 21.26V17.704C96.1453 17.508 96.206 17.354 96.3273 17.242C96.458 17.1207 96.6306 17.06 96.8453 17.06ZM94.2413 25.978C94.848 25.978 95.3193 25.768 95.6553 25.348C95.9913 24.928 96.1593 24.3307 96.1593 23.556C96.1593 22.7813 95.9913 22.184 95.6553 21.764C95.3286 21.344 94.8573 21.134 94.2413 21.134C93.6253 21.134 93.1446 21.344 92.7993 21.764C92.4633 22.1747 92.2953 22.7627 92.2953 23.528C92.2953 24.2933 92.468 24.8953 92.8133 25.334C93.1586 25.7633 93.6346 25.978 94.2413 25.978ZM100.245 27.07C100.039 27.07 99.8668 27.014 99.7268 26.902C99.5961 26.79 99.5308 26.622 99.5308 26.398V20.714C99.5308 20.49 99.5961 20.322 99.7268 20.21C99.8668 20.0887 100.039 20.028 100.245 20.028C100.45 20.028 100.618 20.0887 100.749 20.21C100.879 20.322 100.945 20.49 100.945 20.714V26.398C100.945 26.622 100.879 26.79 100.749 26.902C100.618 27.014 100.45 27.07 100.245 27.07ZM100.245 18.656C99.9741 18.656 99.7594 18.5813 99.6008 18.432C99.4421 18.2827 99.3628 18.0867 99.3628 17.844C99.3628 17.6013 99.4421 17.41 99.6008 17.27C99.7594 17.1207 99.9741 17.046 100.245 17.046C100.506 17.046 100.716 17.1207 100.875 17.27C101.043 17.41 101.127 17.6013 101.127 17.844C101.127 18.0867 101.047 18.2827 100.889 18.432C100.73 18.5813 100.515 18.656 100.245 18.656ZM106.459 25.992C106.664 26.0107 106.809 26.0667 106.893 26.16C106.986 26.244 107.033 26.3653 107.033 26.524C107.033 26.7107 106.958 26.8553 106.809 26.958C106.669 27.0513 106.459 27.0887 106.179 27.07L105.801 27.042C105.045 26.986 104.48 26.7573 104.107 26.356C103.733 25.9453 103.547 25.3433 103.547 24.55V21.26H102.707C102.296 21.26 102.091 21.078 102.091 20.714C102.091 20.546 102.142 20.4153 102.245 20.322C102.357 20.2193 102.511 20.168 102.707 20.168H103.547V18.726C103.547 18.5113 103.607 18.3433 103.729 18.222C103.859 18.1007 104.032 18.04 104.247 18.04C104.461 18.04 104.634 18.1007 104.765 18.222C104.895 18.3433 104.961 18.5113 104.961 18.726V20.168H106.347C106.543 20.168 106.692 20.2193 106.795 20.322C106.907 20.4153 106.963 20.546 106.963 20.714C106.963 20.8913 106.907 21.0267 106.795 21.12C106.692 21.2133 106.543 21.26 106.347 21.26H104.961V24.648C104.961 25.0867 105.049 25.4087 105.227 25.614C105.413 25.8193 105.693 25.936 106.067 25.964L106.459 25.992Z" fill="white"/>
<defs>
<clipPath id="clip0_66_824">
<rect width="16" height="16" fill="white" transform="translate(40.5 14)"/>
</clipPath>
</defs>
</svg>
