<svg width="335" height="40" viewBox="0 0 335 40" fill="none" xmlns="http://www.w3.org/2000/svg">
<rect x="91.5" width="40" height="40" rx="8" fill="#EDEFF2"/>
<path d="M120.105 18.3665C120.209 18.9563 120.267 19.5701 120.267 20.2083C120.267 22.987 119.273 25.3238 117.553 26.9124H114.638V24.6624C115.607 24.0076 116.253 23.0338 116.466 21.8851L116.474 21.846H111.533V18.3665H120.105Z" fill="#4285F4" stroke="#030712" stroke-width="0.0666667"/>
<path d="M111.5 29.1667C113.975 29.1667 116.05 28.3459 117.567 26.9459L114.604 24.6459C113.784 25.1959 112.734 25.5209 111.5 25.5209C109.113 25.5209 107.092 23.9084 106.371 21.7417H103.309V24.1167C104.817 27.1125 107.917 29.1667 111.5 29.1667Z" fill="#34A853"/>
<path d="M106.371 21.7417C106.188 21.1917 106.083 20.6042 106.083 20.0001C106.083 19.3959 106.188 18.8084 106.371 18.2584V15.8834H103.308C102.667 17.1608 102.333 18.5706 102.333 20.0001C102.333 21.4792 102.688 22.8792 103.308 24.1167L106.371 21.7417Z" fill="#D43C31"/>
<path d="M111.5 14.4792C112.846 14.4792 114.054 14.9417 115.004 15.85L117.634 13.2209C116.046 11.7417 113.971 10.8334 111.5 10.8334C107.917 10.8334 104.817 12.8875 103.309 15.8834L106.371 18.2584C107.092 16.0917 109.113 14.4792 111.5 14.4792Z" fill="#EA4335"/>
<rect x="147.5" width="40" height="40" rx="8" fill="#EDEFF2"/>
<path d="M168.937 29.0514C173.315 28.3619 176.662 24.5712 176.662 19.9996C176.662 14.9395 172.56 10.8377 167.5 10.8375C162.44 10.8375 158.337 14.9394 158.337 19.9996C158.337 24.5714 161.686 28.3621 166.064 29.0514V22.6539H163.741V22.65H163.736V19.9996H163.741V19.9957H166.064V17.9801C166.064 16.8307 166.406 15.9379 167.011 15.3326C167.616 14.7275 168.482 14.4099 169.53 14.4098C170.031 14.4098 170.545 14.4548 170.933 14.4996C171.126 14.522 171.289 14.5444 171.403 14.5611C171.46 14.5695 171.505 14.5767 171.536 14.5816C171.551 14.5841 171.563 14.5862 171.571 14.5875C171.574 14.5881 171.577 14.5881 171.579 14.5885C171.58 14.5886 171.582 14.5884 171.582 14.5885V14.5934L171.586 14.5689V16.8492H171.582V16.8531H170.426C169.858 16.8531 169.485 17.0293 169.255 17.2955C169.025 17.5618 168.937 17.919 168.937 18.2809V19.9957H171.475V20.0269L171.073 22.65H171.069L171.095 22.6539H168.937V29.0514Z" fill="#1877F2" stroke="#030712" stroke-width="0.00814815"/>
<path d="M171.068 22.6497L171.475 20H168.932V18.2805C168.932 17.5556 169.287 16.8489 170.426 16.8489H171.582V14.5931C171.582 14.5931 170.533 14.4141 169.53 14.4141C167.436 14.4141 166.068 15.6831 166.068 17.9805V20H163.74V22.6497H166.068V29.0553C166.534 29.1285 167.013 29.1667 167.5 29.1667C167.987 29.1667 168.466 29.1285 168.932 29.0553V22.6497H171.068Z" fill="white"/>
<rect x="203.5" width="40" height="40" rx="8" fill="#EDEFF2"/>
<path d="M227.067 15.0391H227.077C228.323 15.0084 229.51 15.5293 230.315 16.4473C229.13 17.3294 228.405 18.6853 228.405 20.1846C228.405 21.9122 229.383 23.4953 230.902 24.2754C230.617 25.0751 230.223 25.8227 229.743 26.5176C229.318 27.1074 228.913 27.6629 228.464 28.0752C228.021 28.4812 227.574 28.7128 227.067 28.7129C226.512 28.7129 226.163 28.5581 225.712 28.3691C225.246 28.1739 224.708 27.961 223.862 27.9609C223.034 27.9609 222.465 28.1847 221.979 28.3877C221.497 28.5894 221.133 28.75 220.619 28.75C220.148 28.75 219.729 28.5444 219.294 28.1455C218.85 27.7388 218.425 27.1642 217.945 26.4834C216.733 24.6708 216.038 22.5739 216 20.3721C216 16.8619 218.275 15.0771 220.467 15.0771C221.031 15.0772 221.559 15.2569 222.084 15.4619C222.337 15.5606 222.605 15.6709 222.852 15.7529C223.099 15.8354 223.366 15.9033 223.633 15.9033C223.893 15.9033 224.165 15.8312 224.419 15.7471C224.672 15.6631 224.961 15.5478 225.237 15.4453C225.812 15.232 226.421 15.0391 227.067 15.0391ZM226.983 10.4824C226.926 11.3271 226.62 12.1276 226.064 12.7715L226.059 12.7793C225.509 13.4482 224.717 13.9007 223.864 14.0039C223.914 13.1551 224.251 12.3723 224.819 11.7461L224.824 11.7402C225.384 11.1022 226.147 10.6609 226.983 10.4824Z" fill="black" stroke="#030712" stroke-width="0.833333"/>
</svg>
