<svg width="148" height="44" viewBox="0 0 148 44" fill="none" xmlns="http://www.w3.org/2000/svg">
<rect width="148" height="44" fill="#4267B2"/>
<rect width="148" height="44" fill="black" fill-opacity="0.15"/>
<path d="M40.8333 30H37.661V22.1131H35.5V19.5453H37.6609V17.7181C37.6609 15.5529 38.6167 14 41.7804 14C42.4495 14 43.5 14.1345 43.5 14.1345V16.5189H42.3966C41.2724 16.5189 40.8334 16.8599 40.8334 17.8028V19.5453H43.4579L43.2242 22.1131H40.8334L40.8333 30Z" fill="white"/>
<path d="M57.5515 27.07C57.3368 27.07 57.1641 27.0047 57.0335 26.874C56.9028 26.734 56.8375 26.5567 56.8375 26.342V17.83C56.8375 17.6153 56.8981 17.4473 57.0195 17.326C57.1501 17.1953 57.3275 17.13 57.5515 17.13H62.5635C63.0115 17.13 63.2355 17.326 63.2355 17.718C63.2355 18.11 63.0115 18.306 62.5635 18.306H58.2655V21.4H62.2835C62.7315 21.4 62.9555 21.596 62.9555 21.988C62.9555 22.38 62.7315 22.576 62.2835 22.576H58.2655V26.342C58.2655 26.566 58.2001 26.7433 58.0695 26.874C57.9481 27.0047 57.7755 27.07 57.5515 27.07ZM67.182 20C68.0874 20 68.7594 20.2287 69.198 20.686C69.646 21.1433 69.87 21.8387 69.87 22.772V26.398C69.87 26.6127 69.8094 26.7807 69.688 26.902C69.5667 27.014 69.3987 27.07 69.184 27.07C68.9787 27.07 68.8154 27.0093 68.694 26.888C68.5727 26.7667 68.512 26.6033 68.512 26.398V25.88C68.3347 26.272 68.0687 26.5753 67.714 26.79C67.3687 26.9953 66.9627 27.098 66.496 27.098C66.048 27.098 65.6374 27.0093 65.264 26.832C64.9 26.6453 64.6107 26.3933 64.396 26.076C64.1814 25.7587 64.074 25.3993 64.074 24.998C64.0647 24.494 64.1907 24.102 64.452 23.822C64.7134 23.5327 65.138 23.3273 65.726 23.206C66.314 23.0753 67.1307 23.01 68.176 23.01H68.498V22.604C68.498 22.0813 68.3907 21.7033 68.176 21.47C67.9614 21.2367 67.616 21.12 67.14 21.12C66.8134 21.12 66.5054 21.162 66.216 21.246C65.9267 21.33 65.6094 21.4513 65.264 21.61C65.012 21.75 64.8347 21.82 64.732 21.82C64.592 21.82 64.4754 21.7687 64.382 21.666C64.298 21.5633 64.256 21.4327 64.256 21.274C64.256 21.134 64.2934 21.0127 64.368 20.91C64.452 20.798 64.5827 20.6907 64.76 20.588C65.0867 20.4107 65.4694 20.2707 65.908 20.168C66.3467 20.056 66.7714 20 67.182 20ZM66.748 26.048C67.2614 26.048 67.6814 25.8753 68.008 25.53C68.3347 25.1753 68.498 24.7227 68.498 24.172V23.808H68.246C67.518 23.808 66.958 23.8407 66.566 23.906C66.174 23.9713 65.894 24.0833 65.726 24.242C65.558 24.3913 65.474 24.6107 65.474 24.9C65.474 25.236 65.5954 25.5113 65.838 25.726C66.0807 25.9407 66.384 26.048 66.748 26.048ZM74.7302 27.098C74.0676 27.098 73.4842 26.9533 72.9802 26.664C72.4856 26.3747 72.0982 25.964 71.8182 25.432C71.5476 24.9 71.4122 24.284 71.4122 23.584C71.4122 22.8747 71.5522 22.2493 71.8322 21.708C72.1216 21.1667 72.5229 20.7467 73.0362 20.448C73.5496 20.1493 74.1376 20 74.8002 20C75.1549 20 75.5096 20.0513 75.8642 20.154C76.2282 20.2567 76.5502 20.3967 76.8302 20.574C77.1289 20.7793 77.2782 21.0173 77.2782 21.288C77.2782 21.4467 77.2362 21.582 77.1522 21.694C77.0682 21.7967 76.9609 21.848 76.8302 21.848C76.7462 21.848 76.6622 21.8293 76.5782 21.792C76.4942 21.7453 76.3869 21.68 76.2562 21.596C76.0229 21.4467 75.8036 21.3347 75.5982 21.26C75.4022 21.176 75.1642 21.134 74.8842 21.134C74.2496 21.134 73.7549 21.3487 73.4002 21.778C73.0549 22.2073 72.8822 22.8047 72.8822 23.57C72.8822 24.3353 73.0549 24.928 73.4002 25.348C73.7456 25.7587 74.2356 25.964 74.8702 25.964C75.1502 25.964 75.3976 25.922 75.6122 25.838C75.8269 25.754 76.0462 25.642 76.2702 25.502C76.3729 25.4367 76.4756 25.3807 76.5782 25.334C76.6809 25.2873 76.7742 25.264 76.8582 25.264C76.9889 25.264 77.0962 25.32 77.1802 25.432C77.2642 25.5347 77.3062 25.6653 77.3062 25.824C77.3062 25.9547 77.2689 26.076 77.1942 26.188C77.1289 26.2907 77.0122 26.398 76.8442 26.51C76.5642 26.6967 76.2376 26.8413 75.8642 26.944C75.4909 27.0467 75.1129 27.098 74.7302 27.098ZM83.9198 25.278C84.0505 25.278 84.1578 25.3293 84.2418 25.432C84.3258 25.5347 84.3678 25.6653 84.3678 25.824C84.3678 26.0947 84.1998 26.3233 83.8638 26.51C83.5371 26.6967 83.1778 26.8413 82.7858 26.944C82.4031 27.0467 82.0345 27.098 81.6798 27.098C80.5971 27.098 79.7431 26.7853 79.1178 26.16C78.4925 25.5253 78.1798 24.662 78.1798 23.57C78.1798 22.87 78.3151 22.2493 78.5858 21.708C78.8658 21.1667 79.2531 20.7467 79.7478 20.448C80.2518 20.1493 80.8211 20 81.4558 20C82.3705 20 83.0938 20.294 83.6258 20.882C84.1578 21.47 84.4238 22.2633 84.4238 23.262C84.4238 23.6353 84.2558 23.822 83.9198 23.822H79.5938C79.6871 25.2687 80.3825 25.992 81.6798 25.992C82.0251 25.992 82.3238 25.9453 82.5758 25.852C82.8278 25.7587 83.0938 25.6373 83.3738 25.488C83.4018 25.4693 83.4765 25.432 83.5978 25.376C83.7285 25.3107 83.8358 25.278 83.9198 25.278ZM81.4838 21.036C80.9425 21.036 80.5085 21.2087 80.1818 21.554C79.8551 21.8993 79.6591 22.3847 79.5938 23.01H83.2058C83.1778 22.3753 83.0145 21.89 82.7158 21.554C82.4265 21.2087 82.0158 21.036 81.4838 21.036ZM89.65 20C90.2473 20 90.7746 20.1447 91.232 20.434C91.6893 20.7233 92.044 21.134 92.296 21.666C92.5573 22.198 92.688 22.8187 92.688 23.528C92.688 24.228 92.5573 24.8487 92.296 25.39C92.044 25.9313 91.6846 26.3513 91.218 26.65C90.7606 26.9487 90.238 27.098 89.65 27.098C89.1366 27.098 88.684 26.9907 88.292 26.776C87.9 26.552 87.6013 26.2347 87.396 25.824V26.384C87.396 26.5893 87.3306 26.7573 87.2 26.888C87.0786 27.0093 86.9106 27.07 86.696 27.07C86.4813 27.07 86.3086 27.0093 86.178 26.888C86.0473 26.7573 85.982 26.5893 85.982 26.384V17.732C85.982 17.5267 86.0473 17.3633 86.178 17.242C86.318 17.1207 86.4953 17.06 86.71 17.06C86.9153 17.06 87.0786 17.1207 87.2 17.242C87.3306 17.354 87.396 17.508 87.396 17.704V21.288C87.6013 20.8773 87.9 20.56 88.292 20.336C88.684 20.112 89.1366 20 89.65 20ZM89.314 25.978C89.9206 25.978 90.392 25.7633 90.728 25.334C91.0733 24.9047 91.246 24.3027 91.246 23.528C91.246 22.7627 91.078 22.1747 90.742 21.764C90.406 21.344 89.93 21.134 89.314 21.134C88.698 21.134 88.222 21.344 87.886 21.764C87.5593 22.184 87.396 22.7813 87.396 23.556C87.396 24.3307 87.5593 24.928 87.886 25.348C88.222 25.768 88.698 25.978 89.314 25.978ZM97.2214 27.098C96.5494 27.098 95.9568 26.9533 95.4434 26.664C94.9394 26.3747 94.5474 25.964 94.2674 25.432C93.9968 24.8907 93.8614 24.2653 93.8614 23.556C93.8614 22.8373 93.9968 22.212 94.2674 21.68C94.5474 21.1387 94.9394 20.7233 95.4434 20.434C95.9568 20.1447 96.5494 20 97.2214 20C97.8934 20 98.4814 20.1447 98.9854 20.434C99.4988 20.7233 99.8908 21.1387 100.161 21.68C100.441 22.212 100.581 22.8373 100.581 23.556C100.581 24.2653 100.441 24.8907 100.161 25.432C99.8908 25.964 99.4988 26.3747 98.9854 26.664C98.4814 26.9533 97.8934 27.098 97.2214 27.098ZM97.2214 25.978C97.8468 25.978 98.3228 25.7727 98.6494 25.362C98.9854 24.9513 99.1534 24.3493 99.1534 23.556C99.1534 22.772 98.9854 22.1747 98.6494 21.764C98.3134 21.344 97.8374 21.134 97.2214 21.134C96.6054 21.134 96.1294 21.344 95.7934 21.764C95.4574 22.1747 95.2894 22.772 95.2894 23.556C95.2894 24.3493 95.4528 24.9513 95.7794 25.362C96.1154 25.7727 96.5961 25.978 97.2214 25.978ZM105.124 27.098C104.452 27.098 103.859 26.9533 103.346 26.664C102.842 26.3747 102.45 25.964 102.17 25.432C101.899 24.8907 101.764 24.2653 101.764 23.556C101.764 22.8373 101.899 22.212 102.17 21.68C102.45 21.1387 102.842 20.7233 103.346 20.434C103.859 20.1447 104.452 20 105.124 20C105.796 20 106.384 20.1447 106.888 20.434C107.401 20.7233 107.793 21.1387 108.064 21.68C108.344 22.212 108.484 22.8373 108.484 23.556C108.484 24.2653 108.344 24.8907 108.064 25.432C107.793 25.964 107.401 26.3747 106.888 26.664C106.384 26.9533 105.796 27.098 105.124 27.098ZM105.124 25.978C105.749 25.978 106.225 25.7727 106.552 25.362C106.888 24.9513 107.056 24.3493 107.056 23.556C107.056 22.772 106.888 22.1747 106.552 21.764C106.216 21.344 105.74 21.134 105.124 21.134C104.508 21.134 104.032 21.344 103.696 21.764C103.36 22.1747 103.192 22.772 103.192 23.556C103.192 24.3493 103.355 24.9513 103.682 25.362C104.018 25.7727 104.498 25.978 105.124 25.978ZM115.798 25.894C115.966 26.034 116.05 26.2067 116.05 26.412C116.05 26.5893 115.989 26.7433 115.868 26.874C115.747 27.0047 115.602 27.07 115.434 27.07C115.257 27.07 115.098 27.0047 114.958 26.874L111.472 23.794V26.384C111.472 26.608 111.407 26.7807 111.276 26.902C111.145 27.014 110.977 27.07 110.772 27.07C110.567 27.07 110.394 27.014 110.254 26.902C110.123 26.7807 110.058 26.608 110.058 26.384V17.746C110.058 17.522 110.123 17.354 110.254 17.242C110.394 17.1207 110.567 17.06 110.772 17.06C110.977 17.06 111.145 17.1207 111.276 17.242C111.407 17.354 111.472 17.522 111.472 17.746V23.234L114.664 20.252C114.823 20.112 114.977 20.042 115.126 20.042C115.303 20.042 115.457 20.1073 115.588 20.238C115.719 20.3687 115.784 20.5227 115.784 20.7C115.784 20.8773 115.705 21.0407 115.546 21.19L113.054 23.472L115.798 25.894Z" fill="white"/>
</svg>
