<svg width="148" height="44" viewBox="0 0 148 44" fill="none" xmlns="http://www.w3.org/2000/svg">
<rect width="148" height="44" fill="#0077B5"/>
<rect width="148" height="44" fill="black" fill-opacity="0.15"/>
<g clip-path="url(#clip0_66_833)">
<path d="M50.9961 30V29.9993H51.0001V24.1313C51.0001 21.2607 50.3821 19.0493 47.0261 19.0493C45.4128 19.0493 44.3301 19.9347 43.8881 20.774H43.8414V19.3173H40.6594V29.9993H43.9728V24.71C43.9728 23.3173 44.2368 21.9707 45.9614 21.9707C47.6608 21.9707 47.6861 23.56 47.6861 24.7993V30H50.9961Z" fill="white"/>
<path d="M35.2637 19.318H38.581V30H35.2637V19.318Z" fill="white"/>
<path d="M36.9213 14C35.8607 14 35 14.8607 35 15.9213C35 16.982 35.8607 17.8607 36.9213 17.8607C37.982 17.8607 38.8427 16.982 38.8427 15.9213C38.842 14.8607 37.9813 14 36.9213 14V14Z" fill="white"/>
</g>
<path d="M61.1605 27C60.9458 27 60.7732 26.9393 60.6425 26.818C60.5212 26.6967 60.4605 26.5333 60.4605 26.328V17.788C60.4605 17.5733 60.5258 17.4007 60.6565 17.27C60.7872 17.13 60.9598 17.06 61.1745 17.06C61.3985 17.06 61.5758 17.1253 61.7065 17.256C61.8372 17.3867 61.9025 17.564 61.9025 17.788V25.796H66.1585C66.3732 25.796 66.5365 25.8473 66.6485 25.95C66.7698 26.0527 66.8305 26.202 66.8305 26.398C66.8305 26.594 66.7698 26.7433 66.6485 26.846C66.5365 26.9487 66.3732 27 66.1585 27H61.1605ZM68.6628 27.07C68.4574 27.07 68.2848 27.014 68.1448 26.902C68.0141 26.79 67.9488 26.622 67.9488 26.398V20.714C67.9488 20.49 68.0141 20.322 68.1448 20.21C68.2848 20.0887 68.4574 20.028 68.6628 20.028C68.8681 20.028 69.0361 20.0887 69.1668 20.21C69.2974 20.322 69.3628 20.49 69.3628 20.714V26.398C69.3628 26.622 69.2974 26.79 69.1668 26.902C69.0361 27.014 68.8681 27.07 68.6628 27.07ZM68.6628 18.656C68.3921 18.656 68.1774 18.5813 68.0188 18.432C67.8601 18.2827 67.7808 18.0867 67.7808 17.844C67.7808 17.6013 67.8601 17.41 68.0188 17.27C68.1774 17.1207 68.3921 17.046 68.6628 17.046C68.9241 17.046 69.1341 17.1207 69.2928 17.27C69.4608 17.41 69.5448 17.6013 69.5448 17.844C69.5448 18.0867 69.4654 18.2827 69.3068 18.432C69.1481 18.5813 68.9334 18.656 68.6628 18.656ZM75.0214 20C76.6547 20 77.4714 20.9193 77.4714 22.758V26.398C77.4714 26.6127 77.406 26.7807 77.2754 26.902C77.154 27.014 76.9814 27.07 76.7574 27.07C76.5427 27.07 76.37 27.0093 76.2394 26.888C76.118 26.7667 76.0574 26.6033 76.0574 26.398V22.828C76.0574 22.2493 75.9407 21.8247 75.7074 21.554C75.4834 21.2833 75.1287 21.148 74.6434 21.148C74.074 21.148 73.6167 21.3253 73.2714 21.68C72.926 22.0347 72.7534 22.5107 72.7534 23.108V26.398C72.7534 26.6033 72.688 26.7667 72.5574 26.888C72.436 27.0093 72.268 27.07 72.0534 27.07C71.8387 27.07 71.666 27.0093 71.5354 26.888C71.4047 26.7667 71.3394 26.6033 71.3394 26.398V20.7C71.3394 20.504 71.4047 20.3453 71.5354 20.224C71.6754 20.0933 71.848 20.028 72.0534 20.028C72.2587 20.028 72.422 20.0887 72.5434 20.21C72.6647 20.3313 72.7254 20.49 72.7254 20.686V21.26C72.9494 20.8493 73.262 20.5367 73.6634 20.322C74.0647 20.1073 74.5174 20 75.0214 20ZM85.1458 25.894C85.3138 26.034 85.3978 26.2067 85.3978 26.412C85.3978 26.5893 85.3371 26.7433 85.2158 26.874C85.0944 27.0047 84.9498 27.07 84.7818 27.07C84.6044 27.07 84.4458 27.0047 84.3058 26.874L80.8198 23.794V26.384C80.8198 26.608 80.7544 26.7807 80.6238 26.902C80.4931 27.014 80.3251 27.07 80.1198 27.07C79.9144 27.07 79.7418 27.014 79.6018 26.902C79.4711 26.7807 79.4058 26.608 79.4058 26.384V17.746C79.4058 17.522 79.4711 17.354 79.6018 17.242C79.7418 17.1207 79.9144 17.06 80.1198 17.06C80.3251 17.06 80.4931 17.1207 80.6238 17.242C80.7544 17.354 80.8198 17.522 80.8198 17.746V23.234L84.0118 20.252C84.1704 20.112 84.3244 20.042 84.4738 20.042C84.6511 20.042 84.8051 20.1073 84.9358 20.238C85.0664 20.3687 85.1318 20.5227 85.1318 20.7C85.1318 20.8773 85.0524 21.0407 84.8938 21.19L82.4018 23.472L85.1458 25.894ZM91.8768 25.278C92.0075 25.278 92.1148 25.3293 92.1988 25.432C92.2828 25.5347 92.3248 25.6653 92.3248 25.824C92.3248 26.0947 92.1568 26.3233 91.8208 26.51C91.4942 26.6967 91.1348 26.8413 90.7428 26.944C90.3602 27.0467 89.9915 27.098 89.6368 27.098C88.5542 27.098 87.7002 26.7853 87.0748 26.16C86.4495 25.5253 86.1368 24.662 86.1368 23.57C86.1368 22.87 86.2722 22.2493 86.5428 21.708C86.8228 21.1667 87.2102 20.7467 87.7048 20.448C88.2088 20.1493 88.7782 20 89.4128 20C90.3275 20 91.0508 20.294 91.5828 20.882C92.1148 21.47 92.3808 22.2633 92.3808 23.262C92.3808 23.6353 92.2128 23.822 91.8768 23.822H87.5508C87.6442 25.2687 88.3395 25.992 89.6368 25.992C89.9822 25.992 90.2808 25.9453 90.5328 25.852C90.7848 25.7587 91.0508 25.6373 91.3308 25.488C91.3588 25.4693 91.4335 25.432 91.5548 25.376C91.6855 25.3107 91.7928 25.278 91.8768 25.278ZM89.4408 21.036C88.8995 21.036 88.4655 21.2087 88.1388 21.554C87.8122 21.8993 87.6162 22.3847 87.5508 23.01H91.1628C91.1348 22.3753 90.9715 21.89 90.6728 21.554C90.3835 21.2087 89.9728 21.036 89.4408 21.036ZM99.525 17.06C99.7397 17.06 99.9123 17.1207 100.043 17.242C100.174 17.3633 100.239 17.5267 100.239 17.732V26.384C100.239 26.5987 100.174 26.7667 100.043 26.888C99.9217 27.0093 99.7537 27.07 99.539 27.07C99.3243 27.07 99.1517 27.0093 99.021 26.888C98.8997 26.7667 98.839 26.5987 98.839 26.384V25.824C98.6337 26.2347 98.335 26.552 97.943 26.776C97.551 26.9907 97.0983 27.098 96.585 27.098C95.997 27.098 95.4697 26.9487 95.003 26.65C94.5457 26.3513 94.1863 25.9313 93.925 25.39C93.673 24.8487 93.547 24.228 93.547 23.528C93.547 22.8187 93.673 22.198 93.925 21.666C94.1863 21.134 94.5457 20.7233 95.003 20.434C95.4603 20.1447 95.9877 20 96.585 20C97.0983 20 97.5463 20.112 97.929 20.336C98.321 20.5507 98.6197 20.8587 98.825 21.26V17.704C98.825 17.508 98.8857 17.354 99.007 17.242C99.1377 17.1207 99.3103 17.06 99.525 17.06ZM96.921 25.978C97.5277 25.978 97.999 25.768 98.335 25.348C98.671 24.928 98.839 24.3307 98.839 23.556C98.839 22.7813 98.671 22.184 98.335 21.764C98.0083 21.344 97.537 21.134 96.921 21.134C96.305 21.134 95.8243 21.344 95.479 21.764C95.143 22.1747 94.975 22.7627 94.975 23.528C94.975 24.2933 95.1477 24.8953 95.493 25.334C95.8383 25.7633 96.3143 25.978 96.921 25.978ZM102.924 27.07C102.719 27.07 102.546 27.014 102.406 26.902C102.276 26.79 102.21 26.622 102.21 26.398V20.714C102.21 20.49 102.276 20.322 102.406 20.21C102.546 20.0887 102.719 20.028 102.924 20.028C103.13 20.028 103.298 20.0887 103.428 20.21C103.559 20.322 103.624 20.49 103.624 20.714V26.398C103.624 26.622 103.559 26.79 103.428 26.902C103.298 27.014 103.13 27.07 102.924 27.07ZM102.924 18.656C102.654 18.656 102.439 18.5813 102.28 18.432C102.122 18.2827 102.042 18.0867 102.042 17.844C102.042 17.6013 102.122 17.41 102.28 17.27C102.439 17.1207 102.654 17.046 102.924 17.046C103.186 17.046 103.396 17.1207 103.554 17.27C103.722 17.41 103.806 17.6013 103.806 17.844C103.806 18.0867 103.727 18.2827 103.568 18.432C103.41 18.5813 103.195 18.656 102.924 18.656ZM109.283 20C110.916 20 111.733 20.9193 111.733 22.758V26.398C111.733 26.6127 111.668 26.7807 111.537 26.902C111.416 27.014 111.243 27.07 111.019 27.07C110.804 27.07 110.632 27.0093 110.501 26.888C110.38 26.7667 110.319 26.6033 110.319 26.398V22.828C110.319 22.2493 110.202 21.8247 109.969 21.554C109.745 21.2833 109.39 21.148 108.905 21.148C108.336 21.148 107.878 21.3253 107.533 21.68C107.188 22.0347 107.015 22.5107 107.015 23.108V26.398C107.015 26.6033 106.95 26.7667 106.819 26.888C106.698 27.0093 106.53 27.07 106.315 27.07C106.1 27.07 105.928 27.0093 105.797 26.888C105.666 26.7667 105.601 26.6033 105.601 26.398V20.7C105.601 20.504 105.666 20.3453 105.797 20.224C105.937 20.0933 106.11 20.028 106.315 20.028C106.52 20.028 106.684 20.0887 106.805 20.21C106.926 20.3313 106.987 20.49 106.987 20.686V21.26C107.211 20.8493 107.524 20.5367 107.925 20.322C108.326 20.1073 108.779 20 109.283 20Z" fill="white"/>
<defs>
<clipPath id="clip0_66_833">
<rect width="16" height="16" fill="white" transform="translate(35 14)"/>
</clipPath>
</defs>
</svg>
