<svg width="148" height="44" viewBox="0 0 148 44" fill="none" xmlns="http://www.w3.org/2000/svg">
<rect width="148" height="44" fill="#E60023"/>
<rect width="148" height="44" fill="black" fill-opacity="0.15"/>
<g clip-path="url(#clip0_66_829)">
<path d="M41.7173 14C37.3313 14.0007 35 16.8107 35 19.8747C35 21.2953 35.794 23.068 37.0653 23.63C37.428 23.7933 37.38 23.594 37.692 22.4007C37.7167 22.3013 37.704 22.2153 37.624 22.1227C35.8067 20.0207 37.2693 15.6993 41.458 15.6993C47.52 15.6993 46.3873 24.0873 42.5127 24.0873C41.514 24.0873 40.77 23.3033 41.0053 22.3333C41.2907 21.178 41.8493 19.936 41.8493 19.1033C41.8493 17.0047 38.7227 17.316 38.7227 20.0967C38.7227 20.956 39.0267 21.536 39.0267 21.536C39.0267 21.536 38.0207 25.6 37.834 26.3593C37.518 27.6447 37.8767 29.7253 37.908 29.9047C37.9273 30.0033 38.038 30.0347 38.1 29.9533C38.1993 29.8233 39.4153 28.0887 39.756 26.8347C39.88 26.378 40.3887 24.5247 40.3887 24.5247C40.724 25.13 41.6907 25.6367 42.7207 25.6367C45.7847 25.6367 47.9993 22.9433 47.9993 19.6013C47.9887 16.3973 45.2467 14 41.7173 14V14Z" fill="white"/>
</g>
<path d="M59.3835 27.07C59.1688 27.07 58.9962 27.0047 58.8655 26.874C58.7348 26.7433 58.6695 26.566 58.6695 26.342V17.83C58.6695 17.6153 58.7302 17.4473 58.8515 17.326C58.9822 17.1953 59.1595 17.13 59.3835 17.13H62.7575C63.8028 17.13 64.6148 17.3867 65.1935 17.9C65.7722 18.4133 66.0615 19.1413 66.0615 20.084C66.0615 21.0173 65.7722 21.7453 65.1935 22.268C64.6148 22.7907 63.8028 23.052 62.7575 23.052H60.1115V26.342C60.1115 26.566 60.0462 26.7433 59.9155 26.874C59.7942 27.0047 59.6168 27.07 59.3835 27.07ZM62.6035 21.89C63.9848 21.89 64.6755 21.288 64.6755 20.084C64.6755 18.8893 63.9848 18.292 62.6035 18.292H60.1115V21.89H62.6035ZM68.3483 27.07C68.143 27.07 67.9703 27.014 67.8303 26.902C67.6996 26.79 67.6343 26.622 67.6343 26.398V20.714C67.6343 20.49 67.6996 20.322 67.8303 20.21C67.9703 20.0887 68.143 20.028 68.3483 20.028C68.5536 20.028 68.7216 20.0887 68.8523 20.21C68.983 20.322 69.0483 20.49 69.0483 20.714V26.398C69.0483 26.622 68.983 26.79 68.8523 26.902C68.7216 27.014 68.5536 27.07 68.3483 27.07ZM68.3483 18.656C68.0776 18.656 67.863 18.5813 67.7043 18.432C67.5456 18.2827 67.4663 18.0867 67.4663 17.844C67.4663 17.6013 67.5456 17.41 67.7043 17.27C67.863 17.1207 68.0776 17.046 68.3483 17.046C68.6096 17.046 68.8196 17.1207 68.9783 17.27C69.1463 17.41 69.2303 17.6013 69.2303 17.844C69.2303 18.0867 69.151 18.2827 68.9923 18.432C68.8336 18.5813 68.619 18.656 68.3483 18.656ZM74.7069 20C76.3403 20 77.1569 20.9193 77.1569 22.758V26.398C77.1569 26.6127 77.0916 26.7807 76.9609 26.902C76.8396 27.014 76.6669 27.07 76.4429 27.07C76.2283 27.07 76.0556 27.0093 75.9249 26.888C75.8036 26.7667 75.7429 26.6033 75.7429 26.398V22.828C75.7429 22.2493 75.6263 21.8247 75.3929 21.554C75.1689 21.2833 74.8143 21.148 74.3289 21.148C73.7596 21.148 73.3023 21.3253 72.9569 21.68C72.6116 22.0347 72.4389 22.5107 72.4389 23.108V26.398C72.4389 26.6033 72.3736 26.7667 72.2429 26.888C72.1216 27.0093 71.9536 27.07 71.7389 27.07C71.5243 27.07 71.3516 27.0093 71.2209 26.888C71.0903 26.7667 71.0249 26.6033 71.0249 26.398V20.7C71.0249 20.504 71.0903 20.3453 71.2209 20.224C71.3609 20.0933 71.5336 20.028 71.7389 20.028C71.9443 20.028 72.1076 20.0887 72.2289 20.21C72.3503 20.3313 72.4109 20.49 72.4109 20.686V21.26C72.6349 20.8493 72.9476 20.5367 73.3489 20.322C73.7503 20.1073 74.2029 20 74.7069 20ZM82.4373 25.992C82.6427 26.0107 82.7873 26.0667 82.8713 26.16C82.9647 26.244 83.0113 26.3653 83.0113 26.524C83.0113 26.7107 82.9367 26.8553 82.7873 26.958C82.6473 27.0513 82.4373 27.0887 82.1573 27.07L81.7793 27.042C81.0233 26.986 80.4587 26.7573 80.0853 26.356C79.712 25.9453 79.5253 25.3433 79.5253 24.55V21.26H78.6853C78.2747 21.26 78.0693 21.078 78.0693 20.714C78.0693 20.546 78.1207 20.4153 78.2233 20.322C78.3353 20.2193 78.4893 20.168 78.6853 20.168H79.5253V18.726C79.5253 18.5113 79.586 18.3433 79.7073 18.222C79.838 18.1007 80.0107 18.04 80.2253 18.04C80.44 18.04 80.6127 18.1007 80.7433 18.222C80.874 18.3433 80.9393 18.5113 80.9393 18.726V20.168H82.3253C82.5213 20.168 82.6707 20.2193 82.7733 20.322C82.8853 20.4153 82.9413 20.546 82.9413 20.714C82.9413 20.8913 82.8853 21.0267 82.7733 21.12C82.6707 21.2133 82.5213 21.26 82.3253 21.26H80.9393V24.648C80.9393 25.0867 81.028 25.4087 81.2053 25.614C81.392 25.8193 81.672 25.936 82.0453 25.964L82.4373 25.992ZM89.3749 25.278C89.5055 25.278 89.6129 25.3293 89.6969 25.432C89.7809 25.5347 89.8229 25.6653 89.8229 25.824C89.8229 26.0947 89.6549 26.3233 89.3189 26.51C88.9922 26.6967 88.6329 26.8413 88.2409 26.944C87.8582 27.0467 87.4895 27.098 87.1349 27.098C86.0522 27.098 85.1982 26.7853 84.5729 26.16C83.9475 25.5253 83.6349 24.662 83.6349 23.57C83.6349 22.87 83.7702 22.2493 84.0409 21.708C84.3209 21.1667 84.7082 20.7467 85.2029 20.448C85.7069 20.1493 86.2762 20 86.9109 20C87.8255 20 88.5489 20.294 89.0809 20.882C89.6129 21.47 89.8789 22.2633 89.8789 23.262C89.8789 23.6353 89.7109 23.822 89.3749 23.822H85.0489C85.1422 25.2687 85.8375 25.992 87.1349 25.992C87.4802 25.992 87.7789 25.9453 88.0309 25.852C88.2829 25.7587 88.5489 25.6373 88.8289 25.488C88.8569 25.4693 88.9315 25.432 89.0529 25.376C89.1835 25.3107 89.2909 25.278 89.3749 25.278ZM86.9389 21.036C86.3975 21.036 85.9635 21.2087 85.6369 21.554C85.3102 21.8993 85.1142 22.3847 85.0489 23.01H88.6609C88.6329 22.3753 88.4695 21.89 88.1709 21.554C87.8815 21.2087 87.4709 21.036 86.9389 21.036ZM95.021 20.028C95.469 20 95.693 20.1913 95.693 20.602C95.693 20.8073 95.6417 20.9613 95.539 21.064C95.4364 21.1667 95.259 21.2273 95.007 21.246L94.587 21.288C93.999 21.344 93.5604 21.5493 93.271 21.904C92.991 22.2587 92.851 22.688 92.851 23.192V26.398C92.851 26.622 92.7857 26.79 92.655 26.902C92.5244 27.014 92.3564 27.07 92.151 27.07C91.9457 27.07 91.773 27.014 91.633 26.902C91.5024 26.79 91.437 26.622 91.437 26.398V20.7C91.437 20.4853 91.5024 20.322 91.633 20.21C91.773 20.0887 91.9457 20.028 92.151 20.028C92.3377 20.028 92.4917 20.0887 92.613 20.21C92.7437 20.322 92.809 20.4807 92.809 20.686V21.358C92.9957 20.9473 93.2664 20.6347 93.621 20.42C93.9757 20.2053 94.377 20.0793 94.825 20.042L95.021 20.028ZM101.775 25.278C101.906 25.278 102.013 25.3293 102.097 25.432C102.181 25.5347 102.223 25.6653 102.223 25.824C102.223 26.0947 102.055 26.3233 101.719 26.51C101.393 26.6967 101.033 26.8413 100.641 26.944C100.259 27.0467 99.8899 27.098 99.5353 27.098C98.4526 27.098 97.5986 26.7853 96.9733 26.16C96.3479 25.5253 96.0353 24.662 96.0353 23.57C96.0353 22.87 96.1706 22.2493 96.4413 21.708C96.7213 21.1667 97.1086 20.7467 97.6033 20.448C98.1073 20.1493 98.6766 20 99.3113 20C100.226 20 100.949 20.294 101.481 20.882C102.013 21.47 102.279 22.2633 102.279 23.262C102.279 23.6353 102.111 23.822 101.775 23.822H97.4493C97.5426 25.2687 98.2379 25.992 99.5353 25.992C99.8806 25.992 100.179 25.9453 100.431 25.852C100.683 25.7587 100.949 25.6373 101.229 25.488C101.257 25.4693 101.332 25.432 101.453 25.376C101.584 25.3107 101.691 25.278 101.775 25.278ZM99.3393 21.036C98.7979 21.036 98.3639 21.2087 98.0373 21.554C97.7106 21.8993 97.5146 22.3847 97.4493 23.01H101.061C101.033 22.3753 100.87 21.89 100.571 21.554C100.282 21.2087 99.8713 21.036 99.3393 21.036ZM106.217 27.098C105.265 27.098 104.486 26.902 103.879 26.51C103.711 26.4073 103.59 26.3 103.515 26.188C103.45 26.076 103.417 25.95 103.417 25.81C103.417 25.6607 103.459 25.5347 103.543 25.432C103.627 25.3293 103.735 25.278 103.865 25.278C103.987 25.278 104.178 25.3527 104.439 25.502C104.719 25.6513 104.99 25.7727 105.251 25.866C105.522 25.9593 105.858 26.006 106.259 26.006C106.707 26.006 107.057 25.9267 107.309 25.768C107.561 25.6093 107.687 25.3853 107.687 25.096C107.687 24.9093 107.636 24.76 107.533 24.648C107.44 24.536 107.272 24.438 107.029 24.354C106.787 24.2607 106.427 24.1627 105.951 24.06C105.13 23.8827 104.537 23.6447 104.173 23.346C103.819 23.038 103.641 22.6227 103.641 22.1C103.641 21.6987 103.758 21.3393 103.991 21.022C104.225 20.6953 104.547 20.4433 104.957 20.266C105.368 20.0887 105.835 20 106.357 20C106.731 20 107.095 20.0513 107.449 20.154C107.804 20.2473 108.117 20.3873 108.387 20.574C108.695 20.7793 108.849 21.0173 108.849 21.288C108.849 21.4373 108.803 21.5633 108.709 21.666C108.625 21.7687 108.523 21.82 108.401 21.82C108.317 21.82 108.233 21.8013 108.149 21.764C108.065 21.7267 107.953 21.666 107.813 21.582C107.561 21.4327 107.323 21.316 107.099 21.232C106.885 21.148 106.614 21.106 106.287 21.106C105.895 21.106 105.578 21.19 105.335 21.358C105.102 21.526 104.985 21.7547 104.985 22.044C104.985 22.3053 105.093 22.5107 105.307 22.66C105.531 22.8 105.947 22.9353 106.553 23.066C107.179 23.1967 107.669 23.346 108.023 23.514C108.378 23.682 108.63 23.892 108.779 24.144C108.938 24.3867 109.017 24.6993 109.017 25.082C109.017 25.6887 108.761 26.1787 108.247 26.552C107.743 26.916 107.067 27.098 106.217 27.098ZM113.869 25.992C114.074 26.0107 114.219 26.0667 114.303 26.16C114.396 26.244 114.443 26.3653 114.443 26.524C114.443 26.7107 114.368 26.8553 114.219 26.958C114.079 27.0513 113.869 27.0887 113.589 27.07L113.211 27.042C112.455 26.986 111.89 26.7573 111.517 26.356C111.144 25.9453 110.957 25.3433 110.957 24.55V21.26H110.117C109.706 21.26 109.501 21.078 109.501 20.714C109.501 20.546 109.552 20.4153 109.655 20.322C109.767 20.2193 109.921 20.168 110.117 20.168H110.957V18.726C110.957 18.5113 111.018 18.3433 111.139 18.222C111.27 18.1007 111.442 18.04 111.657 18.04C111.872 18.04 112.044 18.1007 112.175 18.222C112.306 18.3433 112.371 18.5113 112.371 18.726V20.168H113.757C113.953 20.168 114.102 20.2193 114.205 20.322C114.317 20.4153 114.373 20.546 114.373 20.714C114.373 20.8913 114.317 21.0267 114.205 21.12C114.102 21.2133 113.953 21.26 113.757 21.26H112.371V24.648C112.371 25.0867 112.46 25.4087 112.637 25.614C112.824 25.8193 113.104 25.936 113.477 25.964L113.869 25.992Z" fill="white"/>
<defs>
<clipPath id="clip0_66_829">
<rect width="16" height="16" fill="white" transform="translate(33.5 14)"/>
</clipPath>
</defs>
</svg>
