<svg width="148" height="44" viewBox="0 0 148 44" fill="none" xmlns="http://www.w3.org/2000/svg">
<rect width="148" height="44" fill="#1DA1F2"/>
<rect width="148" height="44" fill="black" fill-opacity="0.15"/>
<path d="M44.0038 28.4021C50.0081 28.4021 53.2917 23.4563 53.2917 19.1674C53.2917 19.0269 53.2888 18.8871 53.2824 18.7479C53.9214 18.2882 54.4728 17.7191 54.9108 17.0672C54.3259 17.3257 53.6965 17.4998 53.0362 17.5782C53.7101 17.1764 54.2275 16.5407 54.4716 15.783C53.8308 16.161 53.1298 16.4274 52.3988 16.5709C51.8031 15.94 50.955 15.5454 50.016 15.5454C48.2133 15.5454 46.7514 16.9989 46.7514 18.7906C46.7514 19.0453 46.7801 19.293 46.8361 19.5307C44.123 19.3949 41.7173 18.1034 40.1072 16.1396C39.8172 16.6349 39.6647 17.1978 39.6652 17.7709C39.6652 18.897 40.2415 19.891 41.1179 20.4726C40.5995 20.4568 40.0925 20.3176 39.6395 20.0666C39.639 20.0803 39.639 20.0935 39.639 20.1081C39.639 21.6799 40.7642 22.9923 42.2579 23.2897C41.9773 23.3656 41.6879 23.404 41.3971 23.4039C41.1871 23.4039 40.9825 23.3833 40.7836 23.3454C41.1992 24.635 42.4043 25.5734 43.833 25.5996C42.7157 26.4703 41.3083 26.9889 39.7787 26.9889C39.5184 26.9892 39.2584 26.9741 39 26.944C40.4447 27.8647 42.1602 28.4019 44.0039 28.4019" fill="white"/>
<path d="M67.4985 27.07C67.2838 27.07 67.1065 27.0047 66.9665 26.874C66.8358 26.734 66.7705 26.5567 66.7705 26.342V18.334H63.9705C63.5225 18.334 63.2985 18.1333 63.2985 17.732C63.2985 17.536 63.3545 17.3867 63.4665 17.284C63.5878 17.1813 63.7558 17.13 63.9705 17.13H71.0265C71.2412 17.13 71.4045 17.1813 71.5165 17.284C71.6378 17.3867 71.6985 17.536 71.6985 17.732C71.6985 18.1333 71.4745 18.334 71.0265 18.334H68.2265V26.342C68.2265 26.5567 68.1612 26.734 68.0305 26.874C67.8998 27.0047 67.7225 27.07 67.4985 27.07ZM80.9703 20.462C81.073 20.182 81.2643 20.042 81.5443 20.042C81.7217 20.042 81.8803 20.1027 82.0203 20.224C82.1603 20.3453 82.2303 20.4947 82.2303 20.672C82.2303 20.7653 82.2117 20.8493 82.1743 20.924L79.8503 26.594C79.7943 26.7433 79.701 26.86 79.5703 26.944C79.4397 27.0187 79.295 27.056 79.1363 27.056C78.987 27.056 78.847 27.0187 78.7163 26.944C78.5857 26.86 78.4923 26.7433 78.4363 26.594L76.6163 22.1L74.8383 26.594C74.7823 26.7433 74.689 26.86 74.5583 26.944C74.437 27.0187 74.297 27.056 74.1383 27.056C73.989 27.056 73.8443 27.0187 73.7043 26.944C73.5737 26.86 73.4757 26.7433 73.4103 26.594L71.1003 20.924C71.063 20.8493 71.0443 20.77 71.0443 20.686C71.0443 20.4993 71.119 20.3453 71.2683 20.224C71.427 20.1027 71.5997 20.042 71.7863 20.042C72.0663 20.042 72.2577 20.1773 72.3603 20.448L74.1663 25.222L76.0143 20.49C76.0703 20.3407 76.159 20.2287 76.2803 20.154C76.4017 20.0793 76.5323 20.042 76.6723 20.042C76.803 20.042 76.929 20.0793 77.0503 20.154C77.1717 20.2287 77.2603 20.3407 77.3163 20.49L79.1643 25.194L80.9703 20.462ZM84.4606 27.07C84.2553 27.07 84.0826 27.014 83.9426 26.902C83.8119 26.79 83.7466 26.622 83.7466 26.398V20.714C83.7466 20.49 83.8119 20.322 83.9426 20.21C84.0826 20.0887 84.2553 20.028 84.4606 20.028C84.6659 20.028 84.8339 20.0887 84.9646 20.21C85.0953 20.322 85.1606 20.49 85.1606 20.714V26.398C85.1606 26.622 85.0953 26.79 84.9646 26.902C84.8339 27.014 84.6659 27.07 84.4606 27.07ZM84.4606 18.656C84.1899 18.656 83.9753 18.5813 83.8166 18.432C83.6579 18.2827 83.5786 18.0867 83.5786 17.844C83.5786 17.6013 83.6579 17.41 83.8166 17.27C83.9753 17.1207 84.1899 17.046 84.4606 17.046C84.7219 17.046 84.9319 17.1207 85.0906 17.27C85.2586 17.41 85.3426 17.6013 85.3426 17.844C85.3426 18.0867 85.2633 18.2827 85.1046 18.432C84.9459 18.5813 84.7313 18.656 84.4606 18.656ZM90.6746 25.992C90.88 26.0107 91.0246 26.0667 91.1086 26.16C91.202 26.244 91.2486 26.3653 91.2486 26.524C91.2486 26.7107 91.174 26.8553 91.0246 26.958C90.8846 27.0513 90.6746 27.0887 90.3946 27.07L90.0166 27.042C89.2606 26.986 88.696 26.7573 88.3226 26.356C87.9493 25.9453 87.7626 25.3433 87.7626 24.55V21.26H86.9226C86.512 21.26 86.3066 21.078 86.3066 20.714C86.3066 20.546 86.358 20.4153 86.4606 20.322C86.5726 20.2193 86.7266 20.168 86.9226 20.168H87.7626V18.726C87.7626 18.5113 87.8233 18.3433 87.9446 18.222C88.0753 18.1007 88.248 18.04 88.4626 18.04C88.6773 18.04 88.85 18.1007 88.9806 18.222C89.1113 18.3433 89.1766 18.5113 89.1766 18.726V20.168H90.5626C90.7586 20.168 90.908 20.2193 91.0106 20.322C91.1226 20.4153 91.1786 20.546 91.1786 20.714C91.1786 20.8913 91.1226 21.0267 91.0106 21.12C90.908 21.2133 90.7586 21.26 90.5626 21.26H89.1766V24.648C89.1766 25.0867 89.2653 25.4087 89.4426 25.614C89.6293 25.8193 89.9093 25.936 90.2826 25.964L90.6746 25.992ZM95.5828 25.992C95.7882 26.0107 95.9328 26.0667 96.0168 26.16C96.1102 26.244 96.1568 26.3653 96.1568 26.524C96.1568 26.7107 96.0822 26.8553 95.9328 26.958C95.7928 27.0513 95.5828 27.0887 95.3028 27.07L94.9248 27.042C94.1688 26.986 93.6042 26.7573 93.2308 26.356C92.8575 25.9453 92.6708 25.3433 92.6708 24.55V21.26H91.8308C91.4202 21.26 91.2148 21.078 91.2148 20.714C91.2148 20.546 91.2662 20.4153 91.3688 20.322C91.4808 20.2193 91.6348 20.168 91.8308 20.168H92.6708V18.726C92.6708 18.5113 92.7315 18.3433 92.8528 18.222C92.9835 18.1007 93.1562 18.04 93.3708 18.04C93.5855 18.04 93.7582 18.1007 93.8888 18.222C94.0195 18.3433 94.0848 18.5113 94.0848 18.726V20.168H95.4708C95.6668 20.168 95.8162 20.2193 95.9188 20.322C96.0308 20.4153 96.0868 20.546 96.0868 20.714C96.0868 20.8913 96.0308 21.0267 95.9188 21.12C95.8162 21.2133 95.6668 21.26 95.4708 21.26H94.0848V24.648C94.0848 25.0867 94.1735 25.4087 94.3508 25.614C94.5375 25.8193 94.8175 25.936 95.1908 25.964L95.5828 25.992ZM102.52 25.278C102.651 25.278 102.758 25.3293 102.842 25.432C102.926 25.5347 102.968 25.6653 102.968 25.824C102.968 26.0947 102.8 26.3233 102.464 26.51C102.138 26.6967 101.778 26.8413 101.386 26.944C101.004 27.0467 100.635 27.098 100.28 27.098C99.1977 27.098 98.3437 26.7853 97.7184 26.16C97.093 25.5253 96.7804 24.662 96.7804 23.57C96.7804 22.87 96.9157 22.2493 97.1864 21.708C97.4664 21.1667 97.8537 20.7467 98.3484 20.448C98.8524 20.1493 99.4217 20 100.056 20C100.971 20 101.694 20.294 102.226 20.882C102.758 21.47 103.024 22.2633 103.024 23.262C103.024 23.6353 102.856 23.822 102.52 23.822H98.1944C98.2877 25.2687 98.983 25.992 100.28 25.992C100.626 25.992 100.924 25.9453 101.176 25.852C101.428 25.7587 101.694 25.6373 101.974 25.488C102.002 25.4693 102.077 25.432 102.198 25.376C102.329 25.3107 102.436 25.278 102.52 25.278ZM100.084 21.036C99.543 21.036 99.109 21.2087 98.7824 21.554C98.4557 21.8993 98.2597 22.3847 98.1944 23.01H101.806C101.778 22.3753 101.615 21.89 101.316 21.554C101.027 21.2087 100.616 21.036 100.084 21.036ZM108.167 20.028C108.615 20 108.839 20.1913 108.839 20.602C108.839 20.8073 108.787 20.9613 108.685 21.064C108.582 21.1667 108.405 21.2273 108.153 21.246L107.733 21.288C107.145 21.344 106.706 21.5493 106.417 21.904C106.137 22.2587 105.997 22.688 105.997 23.192V26.398C105.997 26.622 105.931 26.79 105.801 26.902C105.67 27.014 105.502 27.07 105.297 27.07C105.091 27.07 104.919 27.014 104.779 26.902C104.648 26.79 104.583 26.622 104.583 26.398V20.7C104.583 20.4853 104.648 20.322 104.779 20.21C104.919 20.0887 105.091 20.028 105.297 20.028C105.483 20.028 105.637 20.0887 105.759 20.21C105.889 20.322 105.955 20.4807 105.955 20.686V21.358C106.141 20.9473 106.412 20.6347 106.767 20.42C107.121 20.2053 107.523 20.0793 107.971 20.042L108.167 20.028Z" fill="white"/>
</svg>
