<svg width="148" height="44" viewBox="0 0 148 44" fill="none" xmlns="http://www.w3.org/2000/svg">
<rect width="148" height="44" fill="#4FCE5D"/>
<rect width="148" height="44" fill="black" fill-opacity="0.15"/>
<g clip-path="url(#clip0_66_820)">
<path fill-rule="evenodd" clip-rule="evenodd" d="M41.3057 16.6721C39.9024 15.2671 38.0361 14.493 36.0478 14.4922C31.9508 14.4922 28.6165 17.8264 28.6148 21.9245C28.6143 23.2346 28.9565 24.5134 29.607 25.6406L28.5525 29.4922L32.4928 28.4586C33.5786 29.0508 34.8009 29.3629 36.0448 29.3633H36.0479C40.1444 29.3633 43.4792 26.0287 43.4807 21.9305C43.4815 19.9443 42.7091 18.0769 41.3057 16.6721ZM36.0478 28.108H36.0453C34.9367 28.1075 33.8495 27.8096 32.9009 27.2469L32.6754 27.1129L30.3371 27.7263L30.9612 25.4466L30.8143 25.2128C30.1959 24.2292 29.8693 23.0923 29.8698 21.925C29.8711 18.5188 32.6426 15.7476 36.0503 15.7476C37.7004 15.7481 39.2516 16.3915 40.418 17.5593C41.5844 18.7271 42.2263 20.2792 42.2258 21.93C42.2243 25.3365 39.453 28.108 36.0478 28.108ZM39.4366 23.481C39.2509 23.388 38.3377 22.9388 38.1674 22.8768C37.9973 22.8148 37.8734 22.7839 37.7497 22.9698C37.6258 23.1556 37.27 23.574 37.1616 23.6979C37.0532 23.8219 36.9449 23.8374 36.7592 23.7444C36.5734 23.6515 35.975 23.4553 35.2656 22.8226C34.7135 22.3301 34.3408 21.7219 34.2324 21.5361C34.1242 21.35 34.2315 21.2592 34.3139 21.157C34.515 20.9074 34.7163 20.6456 34.7782 20.5218C34.8401 20.3978 34.8091 20.2893 34.7626 20.1964C34.7163 20.1035 34.3448 19.1893 34.1901 18.8173C34.0392 18.4553 33.8863 18.5042 33.7722 18.4985C33.664 18.4931 33.5401 18.492 33.4162 18.492C33.2924 18.492 33.0912 18.5385 32.9209 18.7245C32.7507 18.9104 32.271 19.3597 32.271 20.2738C32.271 21.188 32.9365 22.0711 33.0293 22.1951C33.1222 22.319 34.339 24.1949 36.202 24.9993C36.6451 25.1909 36.991 25.305 37.2608 25.3906C37.7057 25.532 38.1105 25.512 38.4306 25.4642C38.7874 25.4109 39.5293 25.0149 39.6842 24.5811C39.8389 24.1472 39.8389 23.7754 39.7924 23.6979C39.7461 23.6205 39.6222 23.574 39.4366 23.481Z" fill="white"/>
</g>
<path d="M65.9286 17.494C65.9846 17.3447 66.0686 17.2327 66.1806 17.158C66.2926 17.0833 66.4186 17.046 66.5586 17.046C66.736 17.046 66.89 17.1067 67.0206 17.228C67.1606 17.34 67.2306 17.4893 67.2306 17.676C67.2306 17.7787 67.212 17.872 67.1746 17.956L64.0806 26.608C64.0153 26.7667 63.9126 26.888 63.7726 26.972C63.6326 27.056 63.4786 27.098 63.3106 27.098C63.152 27.098 63.0026 27.056 62.8626 26.972C62.7226 26.888 62.6246 26.7667 62.5686 26.608L60.0206 19.384L57.4166 26.608C57.3606 26.7667 57.2626 26.888 57.1226 26.972C56.9826 27.056 56.8333 27.098 56.6746 27.098C56.5066 27.098 56.3526 27.056 56.2126 26.972C56.082 26.888 55.984 26.7667 55.9186 26.608L52.8246 17.956C52.7873 17.872 52.7686 17.7787 52.7686 17.676C52.7686 17.4893 52.8386 17.34 52.9786 17.228C53.1186 17.1067 53.2866 17.046 53.4826 17.046C53.6226 17.046 53.7486 17.0833 53.8606 17.158C53.982 17.2327 54.0706 17.3447 54.1266 17.494L56.7166 24.942L59.3486 17.564C59.4046 17.4053 59.4933 17.284 59.6146 17.2C59.7453 17.116 59.8853 17.074 60.0346 17.074C60.184 17.074 60.3193 17.1207 60.4406 17.214C60.562 17.298 60.6553 17.4193 60.7206 17.578L63.2966 25.012L65.9286 17.494ZM73.1281 20C74.7521 20 75.5641 20.9193 75.5641 22.758V26.398C75.5641 26.6033 75.4988 26.7667 75.3681 26.888C75.2375 27.0093 75.0648 27.07 74.8501 27.07C74.6355 27.07 74.4628 27.0093 74.3321 26.888C74.2108 26.7667 74.1501 26.6033 74.1501 26.398V22.772C74.1501 22.212 74.0335 21.8013 73.8001 21.54C73.5761 21.2787 73.2215 21.148 72.7361 21.148C72.1668 21.148 71.7095 21.3253 71.3641 21.68C71.0188 22.0347 70.8461 22.5107 70.8461 23.108V26.398C70.8461 26.6033 70.7808 26.7667 70.6501 26.888C70.5288 27.0093 70.3608 27.07 70.1461 27.07C69.9315 27.07 69.7588 27.0093 69.6281 26.888C69.4975 26.7667 69.4321 26.6033 69.4321 26.398V17.732C69.4321 17.5267 69.4975 17.3633 69.6281 17.242C69.7681 17.1207 69.9455 17.06 70.1601 17.06C70.3655 17.06 70.5288 17.1207 70.6501 17.242C70.7808 17.354 70.8461 17.508 70.8461 17.704V21.204C71.0795 20.812 71.3921 20.5133 71.7841 20.308C72.1761 20.1027 72.6241 20 73.1281 20ZM80.3686 20C81.2739 20 81.9459 20.2287 82.3846 20.686C82.8326 21.1433 83.0566 21.8387 83.0566 22.772V26.398C83.0566 26.6127 82.9959 26.7807 82.8746 26.902C82.7532 27.014 82.5852 27.07 82.3706 27.07C82.1652 27.07 82.0019 27.0093 81.8806 26.888C81.7592 26.7667 81.6986 26.6033 81.6986 26.398V25.88C81.5212 26.272 81.2552 26.5753 80.9006 26.79C80.5552 26.9953 80.1492 27.098 79.6826 27.098C79.2346 27.098 78.8239 27.0093 78.4506 26.832C78.0866 26.6453 77.7972 26.3933 77.5826 26.076C77.3679 25.7587 77.2606 25.3993 77.2606 24.998C77.2512 24.494 77.3772 24.102 77.6386 23.822C77.8999 23.5327 78.3246 23.3273 78.9126 23.206C79.5006 23.0753 80.3172 23.01 81.3626 23.01H81.6846V22.604C81.6846 22.0813 81.5772 21.7033 81.3626 21.47C81.1479 21.2367 80.8026 21.12 80.3266 21.12C79.9999 21.12 79.6919 21.162 79.4026 21.246C79.1132 21.33 78.7959 21.4513 78.4506 21.61C78.1986 21.75 78.0212 21.82 77.9186 21.82C77.7786 21.82 77.6619 21.7687 77.5686 21.666C77.4846 21.5633 77.4426 21.4327 77.4426 21.274C77.4426 21.134 77.4799 21.0127 77.5546 20.91C77.6386 20.798 77.7692 20.6907 77.9466 20.588C78.2732 20.4107 78.6559 20.2707 79.0946 20.168C79.5332 20.056 79.9579 20 80.3686 20ZM79.9346 26.048C80.4479 26.048 80.8679 25.8753 81.1946 25.53C81.5212 25.1753 81.6846 24.7227 81.6846 24.172V23.808H81.4326C80.7046 23.808 80.1446 23.8407 79.7526 23.906C79.3606 23.9713 79.0806 24.0833 78.9126 24.242C78.7446 24.3913 78.6606 24.6107 78.6606 24.9C78.6606 25.236 78.7819 25.5113 79.0246 25.726C79.2672 25.9407 79.5706 26.048 79.9346 26.048ZM88.3367 25.992C88.5421 26.0107 88.6867 26.0667 88.7707 26.16C88.8641 26.244 88.9107 26.3653 88.9107 26.524C88.9107 26.7107 88.8361 26.8553 88.6867 26.958C88.5467 27.0513 88.3367 27.0887 88.0567 27.07L87.6787 27.042C86.9227 26.986 86.3581 26.7573 85.9847 26.356C85.6114 25.9453 85.4247 25.3433 85.4247 24.55V21.26H84.5847C84.1741 21.26 83.9687 21.078 83.9687 20.714C83.9687 20.546 84.0201 20.4153 84.1227 20.322C84.2347 20.2193 84.3887 20.168 84.5847 20.168H85.4247V18.726C85.4247 18.5113 85.4854 18.3433 85.6067 18.222C85.7374 18.1007 85.9101 18.04 86.1247 18.04C86.3394 18.04 86.5121 18.1007 86.6427 18.222C86.7734 18.3433 86.8387 18.5113 86.8387 18.726V20.168H88.2247C88.4207 20.168 88.5701 20.2193 88.6727 20.322C88.7847 20.4153 88.8407 20.546 88.8407 20.714C88.8407 20.8913 88.7847 21.0267 88.6727 21.12C88.5701 21.2133 88.4207 21.26 88.2247 21.26H86.8387V24.648C86.8387 25.0867 86.9274 25.4087 87.1047 25.614C87.2914 25.8193 87.5714 25.936 87.9447 25.964L88.3367 25.992ZM92.3063 27.098C91.3543 27.098 90.575 26.902 89.9683 26.51C89.8003 26.4073 89.679 26.3 89.6043 26.188C89.539 26.076 89.5063 25.95 89.5063 25.81C89.5063 25.6607 89.5483 25.5347 89.6323 25.432C89.7163 25.3293 89.8236 25.278 89.9543 25.278C90.0756 25.278 90.267 25.3527 90.5283 25.502C90.8083 25.6513 91.079 25.7727 91.3403 25.866C91.611 25.9593 91.947 26.006 92.3483 26.006C92.7963 26.006 93.1463 25.9267 93.3983 25.768C93.6503 25.6093 93.7763 25.3853 93.7763 25.096C93.7763 24.9093 93.725 24.76 93.6223 24.648C93.529 24.536 93.361 24.438 93.1183 24.354C92.8756 24.2607 92.5163 24.1627 92.0403 24.06C91.219 23.8827 90.6263 23.6447 90.2623 23.346C89.9076 23.038 89.7303 22.6227 89.7303 22.1C89.7303 21.6987 89.847 21.3393 90.0803 21.022C90.3136 20.6953 90.6356 20.4433 91.0463 20.266C91.457 20.0887 91.9236 20 92.4463 20C92.8196 20 93.1836 20.0513 93.5383 20.154C93.893 20.2473 94.2056 20.3873 94.4763 20.574C94.7843 20.7793 94.9383 21.0173 94.9383 21.288C94.9383 21.4373 94.8916 21.5633 94.7983 21.666C94.7143 21.7687 94.6116 21.82 94.4903 21.82C94.4063 21.82 94.3223 21.8013 94.2383 21.764C94.1543 21.7267 94.0423 21.666 93.9023 21.582C93.6503 21.4327 93.4123 21.316 93.1883 21.232C92.9736 21.148 92.703 21.106 92.3763 21.106C91.9843 21.106 91.667 21.19 91.4243 21.358C91.191 21.526 91.0743 21.7547 91.0743 22.044C91.0743 22.3053 91.1816 22.5107 91.3963 22.66C91.6203 22.8 92.0356 22.9353 92.6423 23.066C93.2676 23.1967 93.7576 23.346 94.1123 23.514C94.467 23.682 94.719 23.892 94.8683 24.144C95.027 24.3867 95.1063 24.6993 95.1063 25.082C95.1063 25.6887 94.8496 26.1787 94.3363 26.552C93.8323 26.916 93.1556 27.098 92.3063 27.098ZM99.5502 20C100.456 20 101.128 20.2287 101.566 20.686C102.014 21.1433 102.238 21.8387 102.238 22.772V26.398C102.238 26.6127 102.178 26.7807 102.056 26.902C101.935 27.014 101.767 27.07 101.552 27.07C101.347 27.07 101.184 27.0093 101.062 26.888C100.941 26.7667 100.88 26.6033 100.88 26.398V25.88C100.703 26.272 100.437 26.5753 100.082 26.79C99.7369 26.9953 99.3309 27.098 98.8642 27.098C98.4162 27.098 98.0055 27.0093 97.6322 26.832C97.2682 26.6453 96.9789 26.3933 96.7642 26.076C96.5495 25.7587 96.4422 25.3993 96.4422 24.998C96.4329 24.494 96.5589 24.102 96.8202 23.822C97.0815 23.5327 97.5062 23.3273 98.0942 23.206C98.6822 23.0753 99.4989 23.01 100.544 23.01H100.866V22.604C100.866 22.0813 100.759 21.7033 100.544 21.47C100.33 21.2367 99.9842 21.12 99.5082 21.12C99.1815 21.12 98.8735 21.162 98.5842 21.246C98.2949 21.33 97.9775 21.4513 97.6322 21.61C97.3802 21.75 97.2029 21.82 97.1002 21.82C96.9602 21.82 96.8435 21.7687 96.7502 21.666C96.6662 21.5633 96.6242 21.4327 96.6242 21.274C96.6242 21.134 96.6615 21.0127 96.7362 20.91C96.8202 20.798 96.9509 20.6907 97.1282 20.588C97.4549 20.4107 97.8375 20.2707 98.2762 20.168C98.7149 20.056 99.1395 20 99.5502 20ZM99.1162 26.048C99.6295 26.048 100.05 25.8753 100.376 25.53C100.703 25.1753 100.866 24.7227 100.866 24.172V23.808H100.614C99.8862 23.808 99.3262 23.8407 98.9342 23.906C98.5422 23.9713 98.2622 24.0833 98.0942 24.242C97.9262 24.3913 97.8422 24.6107 97.8422 24.9C97.8422 25.236 97.9635 25.5113 98.2062 25.726C98.4489 25.9407 98.7522 26.048 99.1162 26.048ZM107.84 20C108.428 20 108.951 20.1493 109.408 20.448C109.875 20.7467 110.234 21.1667 110.486 21.708C110.748 22.2493 110.878 22.8747 110.878 23.584C110.878 24.284 110.752 24.9 110.5 25.432C110.248 25.964 109.889 26.3747 109.422 26.664C108.965 26.9533 108.438 27.098 107.84 27.098C107.327 27.098 106.874 26.9907 106.482 26.776C106.09 26.552 105.792 26.2347 105.586 25.824V28.946C105.586 29.142 105.521 29.296 105.39 29.408C105.269 29.5293 105.106 29.59 104.9 29.59C104.686 29.59 104.508 29.5293 104.368 29.408C104.238 29.2867 104.172 29.1233 104.172 28.918V20.714C104.172 20.5087 104.238 20.3453 104.368 20.224C104.499 20.0933 104.672 20.028 104.886 20.028C105.092 20.028 105.26 20.0933 105.39 20.224C105.521 20.3453 105.586 20.5087 105.586 20.714V21.288C105.792 20.8773 106.09 20.56 106.482 20.336C106.874 20.112 107.327 20 107.84 20ZM107.504 25.978C108.12 25.978 108.596 25.7727 108.932 25.362C109.268 24.942 109.436 24.3493 109.436 23.584C109.436 22.8093 109.264 22.2073 108.918 21.778C108.582 21.3487 108.111 21.134 107.504 21.134C106.888 21.134 106.412 21.344 106.076 21.764C105.75 22.184 105.586 22.7813 105.586 23.556C105.586 24.3307 105.75 24.928 106.076 25.348C106.412 25.768 106.888 25.978 107.504 25.978ZM116.112 20C116.7 20 117.223 20.1493 117.68 20.448C118.147 20.7467 118.506 21.1667 118.758 21.708C119.019 22.2493 119.15 22.8747 119.15 23.584C119.15 24.284 119.024 24.9 118.772 25.432C118.52 25.964 118.161 26.3747 117.694 26.664C117.237 26.9533 116.709 27.098 116.112 27.098C115.599 27.098 115.146 26.9907 114.754 26.776C114.362 26.552 114.063 26.2347 113.858 25.824V28.946C113.858 29.142 113.793 29.296 113.662 29.408C113.541 29.5293 113.377 29.59 113.172 29.59C112.957 29.59 112.78 29.5293 112.64 29.408C112.509 29.2867 112.444 29.1233 112.444 28.918V20.714C112.444 20.5087 112.509 20.3453 112.64 20.224C112.771 20.0933 112.943 20.028 113.158 20.028C113.363 20.028 113.531 20.0933 113.662 20.224C113.793 20.3453 113.858 20.5087 113.858 20.714V21.288C114.063 20.8773 114.362 20.56 114.754 20.336C115.146 20.112 115.599 20 116.112 20ZM115.776 25.978C116.392 25.978 116.868 25.7727 117.204 25.362C117.54 24.942 117.708 24.3493 117.708 23.584C117.708 22.8093 117.535 22.2073 117.19 21.778C116.854 21.3487 116.383 21.134 115.776 21.134C115.16 21.134 114.684 21.344 114.348 21.764C114.021 22.184 113.858 22.7813 113.858 23.556C113.858 24.3307 114.021 24.928 114.348 25.348C114.684 25.768 115.16 25.978 115.776 25.978Z" fill="white"/>
<defs>
<clipPath id="clip0_66_820">
<rect width="16" height="16" fill="white" transform="translate(28 14)"/>
</clipPath>
</defs>
</svg>
