<svg width="19" height="19" viewBox="0 0 19 19" fill="none" xmlns="http://www.w3.org/2000/svg">
<path d="M12.8172 1.58334H6.18308C3.30141 1.58334 1.5835 3.30126 1.5835 6.18293V12.8092C1.5835 15.6988 3.30141 17.4167 6.18308 17.4167H12.8093C15.691 17.4167 17.4089 15.6988 17.4089 12.8171V6.18293C17.4168 3.30126 15.6989 1.58334 12.8172 1.58334ZM10.5531 13.4583H8.43933C8.11475 13.4583 7.84558 13.1892 7.84558 12.8646C7.84558 12.54 8.11475 12.2708 8.43933 12.2708H10.5531C10.8777 12.2708 11.1468 12.54 11.1468 12.8646C11.1468 13.1892 10.8856 13.4583 10.5531 13.4583ZM12.6668 10.0938H6.3335C6.00891 10.0938 5.73975 9.82459 5.73975 9.50001C5.73975 9.17543 6.00891 8.90626 6.3335 8.90626H12.6668C12.9914 8.90626 13.2606 9.17543 13.2606 9.50001C13.2606 9.82459 12.9914 10.0938 12.6668 10.0938ZM14.2502 6.72918H4.75016C4.42558 6.72918 4.15641 6.46001 4.15641 6.13543C4.15641 5.81084 4.42558 5.54168 4.75016 5.54168H14.2502C14.5747 5.54168 14.8439 5.81084 14.8439 6.13543C14.8439 6.46001 14.5747 6.72918 14.2502 6.72918Z" fill="#9CA3AF"/>
</svg>
