<svg width="353" height="353" viewBox="0 0 353 353" fill="none" xmlns="http://www.w3.org/2000/svg">
<path d="M299.746 155.158C300.827 125.915 290.321 96.3196 267.165 82.2349C255.734 75.2808 242.37 71.2072 228.998 71.8073C214.652 72.4497 201.146 78.2883 187.62 83.1033C174.093 87.9182 159.443 91.7659 145.5 88.3488C135.411 85.8778 126.536 79.7709 116.554 76.9893C77.2223 66.0392 42.9742 110.666 62.2198 146.142C66.9429 154.84 74.2218 161.815 80.3428 169.602C86.4638 177.39 91.5965 186.793 90.7704 196.656C90.0644 204.825 85.4331 212.097 83.5057 220.06C79.8204 235.317 87.1345 252.098 99.779 261.396C112.423 270.695 129.48 272.862 144.73 269.035C159.98 265.209 173.394 255.847 183.962 244.255C189.61 238.042 195.145 230.784 203.272 228.673C211.073 226.654 219.114 229.944 227.028 231.455C234.345 232.808 241.861 232.655 249.117 231.004C256.373 229.353 263.215 226.239 269.226 221.853C288.323 207.726 298.772 181.583 299.746 155.158Z" fill="#DE4619"/>
<path opacity="0.7" d="M299.746 155.158C300.827 125.915 290.321 96.3196 267.165 82.2349C255.734 75.2808 242.37 71.2072 228.998 71.8073C214.652 72.4497 201.146 78.2883 187.62 83.1033C174.093 87.9182 159.443 91.7659 145.5 88.3488C135.411 85.8778 126.536 79.7709 116.554 76.9893C77.2223 66.0392 42.9742 110.666 62.2198 146.142C66.9429 154.84 74.2218 161.815 80.3428 169.602C86.4638 177.39 91.5965 186.793 90.7704 196.656C90.0644 204.825 85.4331 212.097 83.5057 220.06C79.8204 235.317 87.1345 252.098 99.779 261.396C112.423 270.695 129.48 272.862 144.73 269.035C159.98 265.209 173.394 255.847 183.962 244.255C189.61 238.042 195.145 230.784 203.272 228.673C211.073 226.654 219.114 229.944 227.028 231.455C234.345 232.808 241.861 232.655 249.117 231.004C256.373 229.353 263.215 226.239 269.226 221.853C288.323 207.726 298.772 181.583 299.746 155.158Z" fill="white"/>
<path d="M173.951 317.135C226.672 317.135 269.41 308.588 269.41 298.045C269.41 287.502 226.672 278.955 173.951 278.955C121.231 278.955 78.4931 287.502 78.4931 298.045C78.4931 308.588 121.231 317.135 173.951 317.135Z" fill="#DE4619"/>
<path opacity="0.5" d="M173.951 317.135C226.672 317.135 269.41 308.588 269.41 298.045C269.41 287.502 226.672 278.955 173.951 278.955C121.231 278.955 78.4931 287.502 78.4931 298.045C78.4931 308.588 121.231 317.135 173.951 317.135Z" fill="white"/>
<path d="M275.291 44.0897H206.463C204.111 44.0897 202.205 45.9957 202.205 48.3469V124.221C202.205 126.572 204.111 128.478 206.463 128.478H275.291C277.642 128.478 279.548 126.572 279.548 124.221V48.3469C279.548 45.9957 277.642 44.0897 275.291 44.0897Z" fill="white" stroke="#263238" stroke-linecap="round" stroke-linejoin="round"/>
<path d="M206.463 44.0897H275.284C276.407 44.0897 277.484 44.536 278.279 45.3304C279.073 46.1248 279.52 47.2022 279.52 48.3257V52.7453H202.205V48.3469C202.203 47.787 202.311 47.2322 202.524 46.7144C202.737 46.1966 203.05 45.7262 203.446 45.3303C203.842 44.9345 204.312 44.621 204.83 44.408C205.348 44.1951 205.903 44.0869 206.463 44.0897Z" fill="#263238" stroke="#263238" stroke-linecap="round" stroke-linejoin="round"/>
<path d="M206.42 89.1466H237.541" stroke="#263238" stroke-linecap="round" stroke-linejoin="round"/>
<path d="M206.42 93.1638H237.541" stroke="#263238" stroke-linecap="round" stroke-linejoin="round"/>
<path d="M206.42 97.1809H237.541" stroke="#263238" stroke-linecap="round" stroke-linejoin="round"/>
<path d="M206.42 101.198H237.541" stroke="#263238" stroke-linecap="round" stroke-linejoin="round"/>
<path d="M206.42 105.215H237.541" stroke="#263238" stroke-linecap="round" stroke-linejoin="round"/>
<path d="M206.42 109.239H237.541" stroke="#263238" stroke-linecap="round" stroke-linejoin="round"/>
<path d="M206.42 113.257H237.541" stroke="#263238" stroke-linecap="round" stroke-linejoin="round"/>
<path d="M206.42 117.274H237.541" stroke="#263238" stroke-linecap="round" stroke-linejoin="round"/>
<path d="M206.42 121.291H237.541" stroke="#263238" stroke-linecap="round" stroke-linejoin="round"/>
<path d="M243.012 89.1466H274.133" stroke="#263238" stroke-linecap="round" stroke-linejoin="round"/>
<path d="M243.012 93.1638H274.133" stroke="#263238" stroke-linecap="round" stroke-linejoin="round"/>
<path d="M243.012 97.1809H274.133" stroke="#263238" stroke-linecap="round" stroke-linejoin="round"/>
<path d="M243.012 101.198H274.133" stroke="#263238" stroke-linecap="round" stroke-linejoin="round"/>
<path d="M243.012 105.215H274.133" stroke="#263238" stroke-linecap="round" stroke-linejoin="round"/>
<path d="M243.012 109.239H274.133" stroke="#263238" stroke-linecap="round" stroke-linejoin="round"/>
<path d="M243.012 113.257H274.133" stroke="#263238" stroke-linecap="round" stroke-linejoin="round"/>
<path d="M243.012 117.274H274.133" stroke="#263238" stroke-linecap="round" stroke-linejoin="round"/>
<path d="M243.012 121.291H274.133" stroke="#263238" stroke-linecap="round" stroke-linejoin="round"/>
<path d="M227.233 63.7094C227.387 63.2324 227.468 62.735 227.473 62.2339C227.473 60.4054 225.616 60.2995 223.795 60.2995H223.336V59.8688H231.286V60.2995C229.217 60.2995 228.462 61.6197 227.819 63.5753L223.583 76.2198C223.265 77.1587 222.997 77.8577 222.002 77.8577H221.917L218.189 65.778L214.723 76.248C214.398 77.187 214.13 77.8859 213.134 77.8859H213.057L207.635 60.2995H205.728V59.8688H212.704V60.2995H210.72L214.744 74.1512H214.906L217.942 64.952L216.53 60.3348H214.624V59.8688H221.606V60.2995H219.622L223.647 74.1512H223.802L227.233 63.7094Z" fill="#DE4619"/>
<path d="M274.352 55.8658H242.327V84.8118H274.352V55.8658Z" fill="#DE4619" stroke="#263238" stroke-width="2" stroke-linecap="round" stroke-linejoin="round"/>
<path d="M274.352 67.9666C273.278 68.0278 272.21 68.1766 271.16 68.4114C266.296 69.4704 265.025 76.4527 259.526 76.4527C254.654 76.4527 254.238 69.894 247.255 69.0468C245.556 68.7792 243.817 69.0874 242.313 69.9222V84.8118H274.352V67.9666Z" fill="#263238" stroke="#263238" stroke-linecap="round" stroke-linejoin="round"/>
<path d="M252.967 62.4881C252.968 63.2008 252.758 63.8979 252.363 64.4911C251.968 65.0843 251.406 65.5469 250.747 65.8203C250.089 66.0937 249.365 66.1656 248.666 66.0269C247.966 65.8882 247.324 65.5451 246.82 65.0411C246.316 64.5371 245.973 63.8949 245.835 63.1958C245.696 62.4967 245.768 61.7722 246.041 61.114C246.315 60.4558 246.777 59.8935 247.37 59.4984C247.964 59.1033 248.661 58.8931 249.373 58.8945C250.326 58.8945 251.24 59.2731 251.914 59.947C252.588 60.621 252.967 61.535 252.967 62.4881Z" fill="white" stroke="#263238" stroke-linecap="round" stroke-linejoin="round"/>
<path d="M275.813 46.6242H204.528V49.3706H275.813V46.6242Z" fill="white" stroke="#263238" stroke-linecap="round" stroke-linejoin="round"/>
<path d="M271.365 145.316H240.506C239.293 145.316 238.129 145.798 237.271 146.656C236.413 147.514 235.931 148.678 235.931 149.891V166.397C235.931 167.61 236.413 168.774 237.271 169.632C238.129 170.49 239.293 170.972 240.506 170.972H241.452C240.492 173.09 238.628 176.338 235.684 178.265C235.684 178.265 241.946 177.827 248.47 170.972H271.351C272.564 170.972 273.728 170.49 274.586 169.632C275.444 168.774 275.926 167.61 275.926 166.397V149.891C275.926 148.68 275.446 147.518 274.591 146.661C273.736 145.803 272.576 145.32 271.365 145.316Z" fill="#263238" stroke="#263238" stroke-linecap="round" stroke-linejoin="round"/>
<path d="M250.63 157.558C250.631 157.091 250.494 156.634 250.236 156.245C249.977 155.856 249.609 155.553 249.178 155.374C248.746 155.194 248.272 155.147 247.814 155.238C247.356 155.329 246.935 155.553 246.605 155.884C246.274 156.214 246.05 156.635 245.959 157.093C245.868 157.551 245.915 158.025 246.095 158.457C246.274 158.888 246.577 159.256 246.966 159.515C247.355 159.773 247.812 159.91 248.279 159.909C248.902 159.907 249.499 159.659 249.939 159.218C250.38 158.778 250.628 158.181 250.63 157.558Z" fill="#DE4619" stroke="#263238" stroke-linecap="round" stroke-linejoin="round"/>
<path d="M258.629 157.558C258.629 157.093 258.491 156.638 258.233 156.252C257.974 155.865 257.607 155.564 257.178 155.386C256.748 155.208 256.275 155.161 255.819 155.252C255.363 155.343 254.944 155.567 254.616 155.896C254.287 156.224 254.063 156.643 253.972 157.099C253.881 157.555 253.928 158.028 254.106 158.458C254.284 158.887 254.585 159.254 254.972 159.513C255.358 159.771 255.813 159.909 256.278 159.909C256.901 159.907 257.498 159.659 257.938 159.218C258.379 158.778 258.627 158.181 258.629 157.558Z" fill="#DE4619" stroke="#263238" stroke-linecap="round" stroke-linejoin="round"/>
<path d="M266.635 157.558C266.636 157.091 266.499 156.635 266.241 156.246C265.983 155.857 265.615 155.554 265.184 155.374C264.754 155.195 264.279 155.147 263.821 155.237C263.363 155.328 262.943 155.552 262.612 155.881C262.282 156.211 262.056 156.631 261.965 157.088C261.873 157.546 261.919 158.02 262.098 158.452C262.276 158.883 262.578 159.252 262.966 159.511C263.354 159.771 263.81 159.909 264.277 159.909C264.901 159.907 265.498 159.659 265.94 159.219C266.381 158.778 266.631 158.182 266.635 157.558Z" fill="#DE4619" stroke="#263238" stroke-linecap="round" stroke-linejoin="round"/>
<path d="M101.664 54.1008H152.496C153.706 54.1008 154.866 54.5813 155.721 55.4366C156.576 56.2919 157.057 57.4519 157.057 58.6615V93.898H97.1244V58.6615C97.1244 57.4556 97.602 56.2988 98.4527 55.4441C99.3035 54.5894 100.458 54.1064 101.664 54.1008Z" fill="#DE4619" stroke="#263238" stroke-linecap="round" stroke-linejoin="round"/>
<path d="M157.029 88.2147H97.1244V93.8768H157.029V88.2147Z" fill="#263238" stroke="#263238" stroke-linecap="round" stroke-linejoin="round"/>
<path d="M154.289 90.1491H99.8708V91.9424H154.289V90.1491Z" fill="white" stroke="#263238" stroke-linecap="round" stroke-linejoin="round"/>
<path d="M127.08 80.4346C131.65 80.4346 135.354 76.73 135.354 72.1603C135.354 67.5905 131.65 63.8859 127.08 63.8859C122.51 63.8859 118.806 67.5905 118.806 72.1603C118.806 76.73 122.51 80.4346 127.08 80.4346Z" fill="#263238" stroke="#263238" stroke-linecap="round" stroke-linejoin="round"/>
<path d="M123.345 67.0135L132.276 72.1673L123.345 77.3211V67.0135Z" fill="white" stroke="#263238" stroke-linecap="round" stroke-linejoin="round"/>
<path d="M131.118 108.371H74.2641C73.1646 108.371 72.2732 109.262 72.2732 110.362V132.029C72.2732 133.129 73.1646 134.02 74.2641 134.02H131.118C132.218 134.02 133.109 133.129 133.109 132.029V110.362C133.109 109.262 132.218 108.371 131.118 108.371Z" fill="#263238" stroke="#263238" stroke-linecap="round" stroke-linejoin="round"/>
<path d="M79.5168 111.866L79.8133 112.36C78.4719 113.108 77.2223 114.421 77.2223 115.961C77.2051 116.225 77.2409 116.49 77.3275 116.74C77.4141 116.991 77.5498 117.221 77.7267 117.419C77.9036 117.616 78.1181 117.776 78.3575 117.889C78.597 118.002 78.8567 118.067 79.1214 118.079C79.3191 118.079 79.4532 117.98 79.4532 117.782C79.4532 117.584 79.3544 117.521 79.1567 117.485C78.8901 117.413 78.6579 117.249 78.5014 117.021C78.345 116.793 78.2744 116.518 78.3025 116.243C78.3076 116.024 78.3573 115.808 78.4485 115.608C78.5397 115.409 78.6705 115.23 78.8329 115.083C78.9954 114.936 79.1861 114.823 79.3935 114.752C79.6009 114.68 79.8206 114.652 80.0392 114.669C80.2771 114.669 80.5124 114.718 80.7312 114.811C80.95 114.905 81.1478 115.041 81.313 115.212C81.4783 115.383 81.6075 115.586 81.6931 115.808C81.7786 116.03 81.8188 116.266 81.8113 116.504C81.8078 116.803 81.7442 117.098 81.6242 117.372C81.5042 117.645 81.3302 117.892 81.1128 118.097C80.8953 118.302 80.6388 118.461 80.3585 118.564C80.0782 118.668 79.78 118.714 79.4815 118.7C79.1104 118.724 78.7384 118.67 78.3897 118.541C78.0409 118.412 77.7231 118.211 77.4568 117.951C77.1906 117.692 76.9819 117.379 76.8442 117.034C76.7065 116.688 76.6429 116.318 76.6575 115.946C76.6363 114.16 78.013 112.72 79.5168 111.866ZM85.5813 111.866L85.8778 112.36C84.5294 113.108 83.2868 114.421 83.2868 115.961C83.2687 116.225 83.3038 116.491 83.39 116.741C83.4763 116.992 83.6119 117.223 83.789 117.421C83.966 117.618 84.1809 117.778 84.4208 117.891C84.6608 118.004 84.921 118.068 85.186 118.079C85.3836 118.079 85.5178 117.98 85.5178 117.782C85.5178 117.584 85.4189 117.521 85.2213 117.485C84.9547 117.413 84.7224 117.249 84.566 117.021C84.4095 116.793 84.339 116.518 84.367 116.243C84.3711 116.023 84.4201 115.807 84.511 115.607C84.6018 115.407 84.7326 115.228 84.8953 115.081C85.058 114.933 85.2491 114.82 85.4569 114.75C85.6648 114.679 85.8849 114.651 86.1038 114.669C86.3416 114.669 86.5769 114.718 86.7957 114.811C87.0145 114.905 87.2124 115.041 87.3776 115.212C87.5428 115.383 87.672 115.586 87.7576 115.808C87.8432 116.03 87.8834 116.266 87.8758 116.504C87.8714 116.803 87.8071 117.097 87.6868 117.37C87.5664 117.644 87.3925 117.89 87.1752 118.095C86.9579 118.299 86.7018 118.458 86.422 118.562C86.1421 118.666 85.8443 118.713 85.546 118.7C85.1752 118.723 84.8037 118.668 84.4554 118.538C84.1072 118.409 83.7898 118.208 83.5238 117.949C83.2578 117.69 83.049 117.377 82.9109 117.033C82.7729 116.688 82.7085 116.318 82.722 115.946C82.6938 114.16 84.0705 112.72 85.5813 111.866Z" fill="#DE4619"/>
<path d="M91.3846 117.09H126.007" stroke="white" stroke-linecap="round" stroke-linejoin="round"/>
<path d="M91.3846 120.062H126.007" stroke="white" stroke-linecap="round" stroke-linejoin="round"/>
<path d="M91.3846 123.035H126.007" stroke="white" stroke-linecap="round" stroke-linejoin="round"/>
<path d="M91.3846 126.014H126.007" stroke="white" stroke-linecap="round" stroke-linejoin="round"/>
<path d="M119.881 173.789C127.027 172.622 131.875 165.884 130.708 158.737C129.542 151.591 122.803 146.744 115.657 147.91C108.511 149.077 103.664 155.815 104.83 162.961C105.996 170.107 112.735 174.955 119.881 173.789Z" fill="#263238" stroke="#263238" stroke-linecap="round" stroke-linejoin="round"/>
<path d="M126.085 168.165C130.117 163.574 129.663 156.584 125.073 152.552C120.482 148.52 113.492 148.973 109.46 153.564C105.428 158.155 105.881 165.145 110.472 169.177C115.063 173.209 122.053 172.755 126.085 168.165Z" fill="white" stroke="#263238" stroke-linecap="round" stroke-linejoin="round"/>
<path d="M117.775 152.849V160.848H123.183" stroke="#263238" stroke-width="2" stroke-linecap="round" stroke-linejoin="round"/>
<path d="M199.798 160.876C199.798 160.876 207.317 176.924 207.317 177.771C207.317 178.618 200.645 182.247 199.374 183.009C198.389 183.571 197.373 184.078 196.332 184.527L197.094 191.961C197.094 191.961 208.581 189.342 213.396 186.723C218.21 184.104 218.041 181.145 216.926 176.754C215.81 172.363 208.39 155.391 208.39 155.391L199.798 160.876Z" fill="white"/>
<mask id="mask0_24_151" style="mask-type:luminance" maskUnits="userSpaceOnUse" x="196" y="155" width="22" height="37">
<path d="M199.798 160.876C199.798 160.876 207.317 176.924 207.317 177.771C207.317 178.618 200.645 182.247 199.374 183.009C198.389 183.571 197.373 184.078 196.332 184.527L197.094 191.961C197.094 191.961 208.581 189.342 213.396 186.723C218.21 184.104 218.041 181.145 216.926 176.754C215.81 172.363 208.39 155.391 208.39 155.391L199.798 160.876Z" fill="white"/>
</mask>
<g mask="url(#mask0_24_151)">
<g style="mix-blend-mode:multiply" opacity="0.5">
<path d="M213.374 186.723C218.189 184.104 218.02 181.145 216.904 176.754C215.789 172.363 208.369 155.391 208.369 155.391L207.169 156.153L206.787 156.859C206.787 156.859 213.713 173.86 214.13 179.522C214.412 183.327 206.752 188.071 201.69 190.782C205.446 189.787 210.557 188.255 213.374 186.723Z" fill="#DE4619"/>
</g>
</g>
<path d="M199.798 160.876C199.798 160.876 207.317 176.924 207.317 177.771C207.317 178.618 200.645 182.247 199.374 183.009C198.389 183.571 197.373 184.078 196.332 184.527L197.094 191.961C197.094 191.961 208.581 189.342 213.396 186.723C218.21 184.104 218.041 181.145 216.926 176.754C215.81 172.363 208.39 155.391 208.39 155.391L199.798 160.876Z" stroke="#263238" stroke-linecap="round" stroke-linejoin="round"/>
<path d="M145.549 157.332C145.549 157.332 140.063 177.432 139.901 180.983C139.739 184.534 150.795 191.538 151.197 191.961C151.599 192.385 150.569 179.748 150.569 179.748L154.317 161.392L145.549 157.332Z" fill="white"/>
<mask id="mask1_24_151" style="mask-type:luminance" maskUnits="userSpaceOnUse" x="139" y="157" width="16" height="35">
<path d="M145.549 157.332C145.549 157.332 140.063 177.432 139.901 180.983C139.739 184.534 150.795 191.538 151.197 191.961C151.599 192.385 150.569 179.748 150.569 179.748L154.317 161.392L145.549 157.332Z" fill="white"/>
</mask>
<g mask="url(#mask1_24_151)">
<g style="mix-blend-mode:multiply" opacity="0.5">
<path d="M148.062 158.977L147.942 158.433L145.549 157.332C145.549 157.332 140.063 177.432 139.901 180.983C139.739 184.534 150.795 191.538 151.197 191.961C151.359 192.131 151.296 190.239 151.162 187.902C147.872 185.113 143.149 181.188 142.598 179.536" fill="#DE4619"/>
</g>
</g>
<path d="M145.549 157.332C145.549 157.332 140.063 177.432 139.901 180.983C139.739 184.534 150.795 191.538 151.197 191.961C151.599 192.385 150.569 179.748 150.569 179.748L154.317 161.392L145.549 157.332Z" stroke="#263238" stroke-linecap="round" stroke-linejoin="round"/>
<path d="M171.311 137.14C171.311 137.14 169.193 138.665 165.063 138.835C160.933 139.004 160.735 136.011 155.602 136.011C149.383 136.011 141.581 155.687 141.581 155.687C141.581 155.687 145.464 159.492 149.27 161.095C151.375 162.017 153.588 162.67 155.857 163.037L156.45 175.963H198.344L198.845 163.037L211.941 154.543C211.941 154.543 205.517 143.057 202.396 138.75C199.276 134.444 194.03 136.046 192.427 137.14C190.825 138.235 186.073 138.496 184.322 138.242C182.038 137.736 179.781 137.117 177.559 136.385C177.559 136.385 174.862 134.14 171.311 137.14Z" fill="#DE4619" stroke="#263238" stroke-linecap="round" stroke-linejoin="round"/>
<path d="M156.28 141.701L156.111 163.157" stroke="#263238" stroke-width="0.5" stroke-linecap="round" stroke-linejoin="round"/>
<path d="M157.798 143.65C157.798 143.65 158.391 154.12 160.622 159.951" stroke="#263238" stroke-width="0.5" stroke-linecap="round" stroke-linejoin="round"/>
<path d="M161.01 160.791C161.492 162.215 162.085 163.598 162.782 164.929" stroke="#263238" stroke-width="0.5" stroke-linecap="round" stroke-linejoin="round"/>
<path d="M159.147 142.464C159.948 146.271 161.08 150.001 162.528 153.611" stroke="#263238" stroke-width="0.5" stroke-linecap="round" stroke-linejoin="round"/>
<path d="M195.562 144.321C195.562 144.321 193.536 152.602 191.757 156.323" stroke="#263238" stroke-width="0.5" stroke-linecap="round" stroke-linejoin="round"/>
<path d="M198.845 163.072L198.76 146.347" stroke="#263238" stroke-width="0.5" stroke-linecap="round" stroke-linejoin="round"/>
<path d="M197.92 146.686C197.92 146.686 196.395 157.276 192.682 162.818" stroke="#263238" stroke-width="0.5" stroke-linecap="round" stroke-linejoin="round"/>
<path d="M196.063 160.707C196.063 160.707 194.369 163.919 193.19 165.606" stroke="#263238" stroke-width="0.5" stroke-linecap="round" stroke-linejoin="round"/>
<path d="M168.946 138.411C168.946 138.411 170.132 145.676 171.819 149.39C173.507 153.103 176.465 153.866 178.999 152.771C181.534 151.677 183.391 146.262 183.235 139.357" stroke="#263238" stroke-width="0.5" stroke-linecap="round" stroke-linejoin="round"/>
<path d="M162.952 123.204C162.952 123.204 161.342 120.422 160.078 121.856C158.815 123.289 161.095 126.586 162.359 127.68C163.623 128.774 164.554 128.104 164.477 126.925C164.399 125.746 162.952 123.204 162.952 123.204Z" fill="#DE4619" stroke="#263238" stroke-linecap="round" stroke-linejoin="round"/>
<path opacity="0.5" d="M162.952 123.204C162.952 123.204 161.342 120.422 160.078 121.856C158.815 123.289 161.095 126.586 162.359 127.68C163.623 128.774 164.554 128.104 164.477 126.925C164.399 125.746 162.952 123.204 162.952 123.204Z" fill="white"/>
<path d="M162.952 123.204C162.952 123.204 161.342 120.422 160.078 121.856C158.815 123.289 161.095 126.586 162.359 127.68C163.623 128.774 164.554 128.104 164.477 126.925C164.399 125.746 162.952 123.204 162.952 123.204Z" stroke="#263238" stroke-linecap="round" stroke-linejoin="round"/>
<path d="M188.502 123.204C188.502 123.204 190.105 120.422 191.375 121.856C192.646 123.289 190.359 126.586 189.095 127.68C187.831 128.774 186.892 128.104 186.977 126.925C187.062 125.746 188.502 123.204 188.502 123.204Z" fill="#DE4619" stroke="#263238" stroke-linecap="round" stroke-linejoin="round"/>
<path opacity="0.5" d="M188.502 123.204C188.502 123.204 190.105 120.422 191.375 121.856C192.646 123.289 190.359 126.586 189.095 127.68C187.831 128.774 186.892 128.104 186.977 126.925C187.062 125.746 188.502 123.204 188.502 123.204Z" fill="white"/>
<path d="M188.502 123.204C188.502 123.204 190.105 120.422 191.375 121.856C192.646 123.289 190.359 126.586 189.095 127.68C187.831 128.774 186.892 128.104 186.977 126.925C187.062 125.746 188.502 123.204 188.502 123.204Z" stroke="#263238" stroke-linecap="round" stroke-linejoin="round"/>
<path d="M170.548 136.555C171.346 140.159 172.362 143.713 173.591 147.194C175.116 150.992 177.983 150.992 179.169 148.542C180.355 146.093 181.11 136.964 181.11 136.964C181.11 136.964 173.168 138.072 170.548 136.555Z" fill="white" stroke="#263238" stroke-linecap="round" stroke-linejoin="round"/>
<path d="M163.121 124.136C163.121 124.136 165.317 131.902 169.475 136.47C173.634 141.038 175.123 142.118 177.333 141.786C179.543 141.454 181.894 138.581 185.184 132.608C188.474 126.635 188.714 122.053 188.989 121.63C189.264 121.206 188.283 112.762 183.581 109.126C178.879 105.491 173.612 103.895 169.052 107.863C164.491 111.83 161.596 118.304 163.121 124.136Z" fill="white"/>
<mask id="mask2_24_151" style="mask-type:luminance" maskUnits="userSpaceOnUse" x="162" y="105" width="28" height="37">
<path d="M163.121 124.136C163.121 124.136 165.317 131.902 169.475 136.47C173.634 141.038 175.123 142.118 177.333 141.786C179.543 141.454 181.894 138.581 185.184 132.608C188.474 126.635 188.714 122.053 188.989 121.63C189.264 121.206 188.283 112.762 183.581 109.126C178.879 105.491 173.612 103.895 169.052 107.863C164.491 111.83 161.596 118.304 163.121 124.136Z" fill="white"/>
</mask>
<g mask="url(#mask2_24_151)">
<g style="mix-blend-mode:multiply" opacity="0.5">
<path d="M183.56 109.098C178.83 105.47 173.591 103.867 169.031 107.835C164.47 111.802 161.596 118.305 163.121 124.136C163.121 124.136 163.538 125.633 164.364 127.666C164.361 127.406 164.397 127.147 164.47 126.897C165.479 123.698 168.459 117.507 178.484 120.345C186.448 122.59 185.473 129.594 184.732 133.328L185.163 132.552C188.46 126.558 188.693 121.997 188.968 121.573C189.243 121.15 188.29 112.734 183.56 109.098Z" fill="#DE4619"/>
</g>
</g>
<path d="M163.121 124.136C163.121 124.136 165.317 131.902 169.475 136.47C173.634 141.038 175.123 142.118 177.333 141.786C179.543 141.454 181.894 138.581 185.184 132.608C188.474 126.635 188.714 122.053 188.989 121.63C189.264 121.206 188.283 112.762 183.581 109.126C178.879 105.491 173.612 103.895 169.052 107.863C164.491 111.83 161.596 118.304 163.121 124.136Z" stroke="#263238" stroke-linecap="round" stroke-linejoin="round"/>
<path d="M177.312 128.188C177.05 129.837 176.908 131.503 176.888 133.173C176.973 134.86 177.481 135.368 176.719 135.538C175.956 135.707 175.116 134.521 175.116 134.521" stroke="#263238" stroke-linecap="round" stroke-linejoin="round"/>
<path d="M168.861 129.544C169.35 129.897 169.935 130.095 170.539 130.11C171.142 130.125 171.736 129.957 172.243 129.629" stroke="#263238" stroke-linecap="round" stroke-linejoin="round"/>
<path d="M179.592 129.544C180.081 129.897 180.664 130.094 181.266 130.109C181.869 130.124 182.462 129.957 182.967 129.629" stroke="#263238" stroke-linecap="round" stroke-linejoin="round"/>
<path d="M174.255 126.699C174.255 126.699 172.645 122.724 167.329 124.581" stroke="#263238" stroke-linecap="round" stroke-linejoin="round"/>
<path d="M178.682 126.212C178.682 126.212 180.03 122.322 184.845 124.602" stroke="#263238" stroke-linecap="round" stroke-linejoin="round"/>
<path d="M175.279 129.833C175.279 132.008 172.786 133.766 169.708 133.766C166.63 133.766 164.131 132.008 164.131 129.833C164.131 127.659 166.461 126.755 169.539 126.755C172.617 126.755 175.279 127.666 175.279 129.833Z" stroke="#263238" stroke-linecap="round" stroke-linejoin="round"/>
<path d="M188.121 129.833C188.121 132.008 185.622 133.766 182.543 133.766C179.465 133.766 176.973 132.008 176.973 129.833C176.973 127.659 179.296 126.755 182.374 126.755C185.452 126.755 188.121 127.666 188.121 129.833Z" stroke="#263238" stroke-linecap="round" stroke-linejoin="round"/>
<path d="M116.935 197.56L116.589 283.148C116.589 283.418 116.696 283.677 116.887 283.867C117.077 284.058 117.336 284.165 117.605 284.165C117.868 284.165 118.121 284.063 118.31 283.879C118.498 283.696 118.608 283.446 118.615 283.184L121.058 197.68L116.935 197.56Z" fill="white" stroke="#263238" stroke-linecap="round" stroke-linejoin="round"/>
<path d="M111.174 217.568L110.842 306.051C110.841 306.185 110.867 306.317 110.917 306.441C110.968 306.565 111.043 306.677 111.138 306.772C111.232 306.867 111.345 306.941 111.468 306.992C111.592 307.043 111.725 307.069 111.859 307.068C112.121 307.068 112.373 306.967 112.563 306.785C112.752 306.603 112.864 306.356 112.875 306.093L115.311 217.681L111.174 217.568Z" fill="white" stroke="#263238" stroke-linecap="round" stroke-linejoin="round"/>
<path d="M235.26 197.56L235.606 283.148C235.607 283.282 235.582 283.414 235.531 283.537C235.481 283.66 235.407 283.772 235.313 283.867C235.219 283.961 235.108 284.036 234.985 284.087C234.862 284.139 234.73 284.165 234.597 284.165C234.333 284.165 234.08 284.063 233.89 283.88C233.7 283.697 233.589 283.447 233.58 283.184L231.144 197.68L235.26 197.56Z" fill="white" stroke="#263238" stroke-linecap="round" stroke-linejoin="round"/>
<path d="M241.028 217.568L241.374 306.051C241.375 306.185 241.35 306.317 241.299 306.441C241.248 306.565 241.173 306.677 241.079 306.772C240.984 306.867 240.872 306.941 240.748 306.992C240.624 307.043 240.491 307.069 240.358 307.068C240.096 307.068 239.844 306.966 239.656 306.785C239.468 306.603 239.357 306.355 239.348 306.093L236.905 217.681L241.028 217.568Z" fill="white" stroke="#263238" stroke-linecap="round" stroke-linejoin="round"/>
<path d="M151.289 221.246L151.084 299.782C151.062 299.978 151.116 300.175 151.236 300.331C151.356 300.488 151.531 300.592 151.726 300.622C151.917 300.595 152.09 300.498 152.211 300.348C152.331 300.199 152.39 300.009 152.376 299.817L153.908 221.338L151.289 221.246Z" fill="white" stroke="#263238" stroke-linecap="round" stroke-linejoin="round"/>
<path d="M200.998 218.719L201.189 287.257C201.205 287.423 201.157 287.589 201.055 287.72C200.952 287.852 200.803 287.939 200.638 287.963C200.474 287.939 200.325 287.851 200.224 287.72C200.123 287.588 200.076 287.422 200.095 287.257L198.788 218.775L200.998 218.719Z" fill="white" stroke="#263238" stroke-linecap="round" stroke-linejoin="round"/>
<path d="M150.519 218.719L150.71 287.257C150.726 287.423 150.678 287.589 150.576 287.72C150.473 287.852 150.324 287.939 150.159 287.963C149.995 287.939 149.846 287.851 149.745 287.72C149.644 287.588 149.597 287.422 149.616 287.257L148.309 218.775L150.519 218.719Z" fill="white" stroke="#263238" stroke-linecap="round" stroke-linejoin="round"/>
<path d="M199.579 221.246L199.798 299.782C199.82 299.978 199.766 300.175 199.646 300.331C199.526 300.488 199.35 300.592 199.156 300.622C198.966 300.594 198.794 300.496 198.673 300.346C198.553 300.197 198.493 300.008 198.506 299.817L196.974 221.338L199.579 221.246Z" fill="white" stroke="#263238" stroke-linecap="round" stroke-linejoin="round"/>
<path d="M175.088 226.746C192.439 226.746 206.505 223.531 206.505 219.566C206.505 215.601 192.439 212.386 175.088 212.386C157.737 212.386 143.671 215.601 143.671 219.566C143.671 223.531 157.737 226.746 175.088 226.746Z" fill="white" stroke="#263238" stroke-linecap="round" stroke-linejoin="round"/>
<path d="M159.789 280.515C159.789 280.515 158.144 282.873 159.323 284.045C160.502 285.217 161.674 284.751 161.554 285.93C161.434 287.109 159.556 291.105 157.911 295.341C156.266 299.577 159.676 303.813 162.853 302.641C166.03 301.469 165.677 289.693 166.143 287.575C166.609 285.457 166.969 285.104 166.849 283.106C166.729 281.108 166.616 278.99 165.084 278.75C163.552 278.51 160.495 279.696 159.789 280.515Z" fill="white" stroke="#263238" stroke-linecap="round" stroke-linejoin="round"/>
<path d="M164.837 299.393C162.719 298.589 159.471 298.751 157.643 298.935C158.257 301.596 160.608 303.467 162.853 302.641C163.792 302.295 164.406 301.038 164.837 299.393Z" fill="#DE4619" stroke="#263238" stroke-linecap="round" stroke-linejoin="round"/>
<path d="M156.146 275.34C156.146 275.34 159.556 281.108 160.495 282.633C161.434 284.158 164.618 283.692 164.971 281.574C165.324 279.456 163.672 273.575 163.672 273.575L156.612 275.34H156.146Z" fill="white" stroke="#263238" stroke-linecap="round" stroke-linejoin="round"/>
<path d="M148.027 266.162C148.027 266.162 147.081 267.694 147.554 268.753C148.027 269.812 149.319 272.869 150.145 274.401C150.971 275.933 154.734 276.872 159.083 276.166C163.432 275.46 165.91 273.455 166.03 271.69C166.15 269.925 165.324 267.574 164.731 264.75C164.138 261.926 162.613 262.046 160.495 262.046C158.377 262.046 149.792 264.517 148.027 266.162Z" fill="#DE4619" stroke="#263238" stroke-linecap="round" stroke-linejoin="round"/>
<path d="M160.735 231.568C160.799 228.673 162.472 227.247 162.599 225.263C162.798 222.641 162.581 220.003 161.956 217.448L158.737 213.05C149.474 213.17 142.838 213.325 142.732 213.36C142.379 213.473 142.139 215.478 141.906 217.123C141.906 217.123 137.974 217.625 138.68 228.568C138.778 230.092 142.746 247.735 143.036 249.748C144.801 262.039 148.733 268.195 148.733 268.195C148.733 268.195 149.086 269.727 153.675 269.374C158.264 269.021 162.853 265.964 162.853 265.964C162.853 265.964 160.495 242.038 160.735 231.568Z" fill="#263238" stroke="#263238" stroke-linecap="round" stroke-linejoin="round"/>
<path d="M141.271 215.33C141.271 215.33 136.406 216.036 133.427 219.439C130.448 222.842 132.975 225.087 138.764 224.48C144.553 223.873 151.232 217.949 151.515 217.632C151.797 217.314 145.478 213.29 141.271 215.33Z" fill="white" stroke="#263238" stroke-linecap="round" stroke-linejoin="round"/>
<path d="M149.905 217.448C153.004 217.607 156.079 218.081 159.083 218.86C163.086 220.039 170.146 222.39 171.791 222.39C173.436 222.39 172.97 216.269 172.97 215.097C172.97 213.925 151.79 213.212 149.199 213.212C146.608 213.212 149.905 217.448 149.905 217.448Z" fill="white" stroke="#263238" stroke-linecap="round" stroke-linejoin="round"/>
<path d="M172.97 215.097C172.97 215.097 171.085 216.036 170.379 219.566C169.673 223.096 168.734 224.981 170.146 225.92C171.558 226.859 177.679 227.565 178.618 226.626C179.557 225.687 182.148 220.978 182.621 217.921C183.094 214.864 172.97 215.097 172.97 215.097Z" fill="#DE4619" stroke="#263238" stroke-linecap="round" stroke-linejoin="round"/>
<path d="M180.969 216.269C179.875 217.525 179.001 218.957 178.385 220.505C177.886 222.125 177.492 223.776 177.206 225.447C179.458 226.064 181.66 226.853 183.793 227.805C187.563 229.45 193.917 230.629 200.031 232.041C206.145 233.453 207.797 234.865 209.915 234.865C212.033 234.865 214.624 233.213 217.921 229.217C221.218 225.221 218.387 216.742 215.097 214.151C211.807 211.56 194.15 209.449 191.799 210.155C189.448 210.861 180.969 216.269 180.969 216.269Z" fill="#263238" stroke="#263238" stroke-linecap="round" stroke-linejoin="round"/>
<path d="M136.816 224.543C136.351 222.431 135.409 220.453 134.062 218.761C133.843 218.966 133.632 219.178 133.427 219.411C130.808 222.39 132.446 224.508 136.816 224.543Z" fill="#DE4619" stroke="#263238" stroke-linecap="round" stroke-linejoin="round"/>
<path d="M160.375 226.407C160.375 226.407 157.946 252.395 152.99 256.44" stroke="white" stroke-width="0.5" stroke-linecap="round" stroke-linejoin="round"/>
<path d="M158.659 251.075C158.659 251.075 156.732 259.547 151.677 262.914" stroke="white" stroke-width="0.5" stroke-linecap="round" stroke-linejoin="round"/>
<path d="M189.914 221.684C189.914 221.684 182.381 222.157 187.323 225.447C192.265 228.737 201.21 230.862 201.21 230.862" stroke="white" stroke-width="0.5" stroke-linecap="round" stroke-linejoin="round"/>
<path d="M244.601 212.781L242.059 210.494L236.185 197.786C235.907 197.208 235.469 196.721 234.924 196.382C234.379 196.043 233.749 195.867 233.107 195.873H119.017C118.375 195.865 117.743 196.041 117.196 196.38C116.65 196.719 116.211 197.207 115.932 197.786L108.611 213.614L107.404 213.17V216.791L107.46 216.749C107.532 217.232 107.777 217.673 108.15 217.988C108.523 218.304 108.998 218.473 109.486 218.465H242.631C243.145 218.476 243.644 218.288 244.022 217.939C244.4 217.59 244.628 217.108 244.657 216.594L244.601 212.781Z" fill="#263238" stroke="#263238" stroke-linecap="round" stroke-linejoin="round"/>
<path d="M242.631 215.153H109.486C109.157 215.167 108.829 215.096 108.534 214.948C108.239 214.799 107.987 214.579 107.801 214.307C107.614 214.034 107.5 213.719 107.469 213.39C107.438 213.062 107.491 212.731 107.623 212.428L115.932 194.475C116.21 193.894 116.648 193.406 117.195 193.067C117.742 192.728 118.374 192.552 119.017 192.561H233.107C233.749 192.554 234.38 192.73 234.925 193.069C235.471 193.408 235.908 193.896 236.185 194.475L244.495 212.428C244.627 212.731 244.679 213.062 244.648 213.39C244.617 213.719 244.503 214.034 244.317 214.307C244.13 214.579 243.878 214.799 243.583 214.948C243.288 215.096 242.961 215.167 242.631 215.153Z" fill="white" stroke="#263238" stroke-linecap="round" stroke-linejoin="round"/>
<g style="mix-blend-mode:multiply" opacity="0.5">
<path d="M116.229 203.095C116.229 203.095 113.214 205.164 115.099 205.919C116.984 206.674 138.651 206.11 141.292 205.354C143.932 204.599 146.94 197.631 146.94 196.501C146.94 195.371 143.142 194.559 141.744 194.496C140.346 194.432 121.877 195.555 121.877 195.555L116.229 203.095Z" fill="#DE4619"/>
</g>
<g style="mix-blend-mode:multiply" opacity="0.5">
<path d="M224.007 206.674C228.272 206.674 231.73 205.239 231.73 203.469C231.73 201.699 228.272 200.264 224.007 200.264C219.741 200.264 216.283 201.699 216.283 203.469C216.283 205.239 219.741 206.674 224.007 206.674Z" fill="#DE4619"/>
</g>
<g style="mix-blend-mode:multiply" opacity="0.5">
<path d="M174.834 210.635C190.13 210.635 202.53 208.315 202.53 205.453C202.53 202.591 190.13 200.271 174.834 200.271C159.538 200.271 147.137 202.591 147.137 205.453C147.137 208.315 159.538 210.635 174.834 210.635Z" fill="#DE4619"/>
</g>
<path d="M218.359 190.86C218.359 190.86 217.85 188.834 216.163 189.512C214.476 190.189 214.645 194.665 214.977 197.2C215.309 199.734 217.596 198.548 217.596 198.548V197.03C217.596 197.03 216.756 197.701 216.333 196.776C215.909 195.851 215.994 191.199 216.417 191.284C216.841 191.368 217.681 192.802 217.681 192.802C217.681 192.802 217.935 192.639 218.359 190.86Z" fill="#DE4619" stroke="#263238" stroke-linecap="round" stroke-linejoin="round"/>
<path d="M217.144 191.199V202.297C217.144 203.603 220.145 204.662 223.851 204.662C227.558 204.662 230.551 203.603 230.551 202.297V191.199H217.144Z" fill="#DE4619" stroke="#263238" stroke-linecap="round" stroke-linejoin="round"/>
<path d="M230.551 191.199C230.551 192.329 227.551 193.239 223.851 193.239C220.152 193.239 217.144 192.329 217.144 191.199C217.144 190.069 220.145 189.159 223.851 189.159C227.558 189.159 230.551 190.076 230.551 191.199Z" fill="white" stroke="#263238" stroke-linecap="round" stroke-linejoin="round"/>
<path d="M229.676 191.199C229.676 192.18 227.064 192.971 223.851 192.971C220.639 192.971 218.02 192.18 218.02 191.199C218.02 190.218 220.632 189.427 223.851 189.427C227.071 189.427 229.676 190.218 229.676 191.199Z" fill="white" stroke="#263238" stroke-linecap="round" stroke-linejoin="round"/>
<path d="M219.354 192.329C222.289 193.185 225.407 193.185 228.342 192.329C225.407 191.472 222.289 191.472 219.354 192.329Z" fill="#263238" stroke="#263238" stroke-linecap="round" stroke-linejoin="round"/>
<path d="M115.396 196.268L115.48 200.066L141.073 200.32V195.929L115.396 196.268Z" fill="white" stroke="#263238" stroke-linecap="round" stroke-linejoin="round"/>
<path d="M141.073 200.32L144.794 192.3V189.935L140.903 196.692L141.073 200.32Z" fill="white" stroke="#263238" stroke-linecap="round" stroke-linejoin="round"/>
<path d="M115.396 199.727L115.48 203.533L141.073 203.787V199.396L115.396 199.727Z" fill="white" stroke="#263238" stroke-linecap="round" stroke-linejoin="round"/>
<path d="M141.073 203.787L144.794 195.76V193.395L140.903 200.151L141.073 203.787Z" fill="white" stroke="#263238" stroke-linecap="round" stroke-linejoin="round"/>
<path d="M125.28 186.638C125.28 186.638 125.873 185.459 125.026 184.951C124.178 184.443 123.253 185.657 122.745 186.045C122.237 186.433 111.597 193.479 111.259 194.581C110.92 195.682 111.259 198.111 113.539 198.379C115.819 198.647 117.846 197.115 118.862 196.861C119.879 196.607 120.274 196.522 120.274 196.522L127.285 187.062L125.28 186.638Z" fill="white" stroke="#263238" stroke-linecap="round" stroke-linejoin="round"/>
<path d="M113.539 198.386C115.819 198.64 117.845 197.122 118.862 196.868C119.879 196.614 120.274 196.529 120.274 196.529L120.528 196.183L113.941 194.842C113.583 194.505 113.123 194.296 112.633 194.25C112.143 194.204 111.652 194.323 111.237 194.588C110.92 195.675 111.259 198.125 113.539 198.386Z" fill="white" stroke="#263238" stroke-linecap="round" stroke-linejoin="round"/>
<path d="M113.963 194.856H133.731C139.901 194.856 141.758 194.517 141.758 194.517L145.556 186.659C145.556 186.659 133.554 187.422 129.848 187.168C128.316 187.124 126.791 186.954 125.287 186.659L113.963 194.856Z" fill="white" stroke="#263238" stroke-linecap="round" stroke-linejoin="round"/>
<path d="M113.963 194.856L114.301 196.374C114.301 196.374 130.349 196.459 134.571 196.459C138.793 196.459 142.005 196.628 142.005 196.628L141.751 194.51L113.963 194.856Z" fill="white" stroke="#263238" stroke-linecap="round" stroke-linejoin="round"/>
<path d="M142.005 196.607L145.549 188.495V186.638L141.751 194.496L142.005 196.607Z" fill="white" stroke="#263238" stroke-linecap="round" stroke-linejoin="round"/>
<path d="M199.021 206.096H150.625C150.518 206.096 150.412 206.076 150.312 206.036C150.213 205.995 150.123 205.936 150.046 205.86C149.97 205.785 149.91 205.695 149.869 205.596C149.827 205.497 149.806 205.391 149.806 205.284C149.806 205.176 149.827 205.07 149.869 204.971C149.91 204.872 149.97 204.783 150.046 204.707C150.123 204.632 150.213 204.572 150.312 204.532C150.412 204.491 150.518 204.471 150.625 204.472H199.021C199.128 204.471 199.234 204.491 199.333 204.532C199.432 204.572 199.522 204.632 199.598 204.707C199.673 204.783 199.733 204.873 199.773 204.972C199.814 205.071 199.834 205.177 199.833 205.284C199.834 205.391 199.814 205.497 199.773 205.595C199.733 205.694 199.673 205.784 199.598 205.86C199.522 205.935 199.432 205.995 199.333 206.036C199.234 206.076 199.128 206.096 199.021 206.096Z" fill="white" stroke="#263238" stroke-linecap="round" stroke-linejoin="round"/>
<path d="M199.431 204.458H150.209C150.028 204.458 149.855 204.389 149.724 204.266C149.592 204.143 149.513 203.974 149.503 203.794L146.827 171.636C146.815 171.536 146.824 171.435 146.854 171.339C146.884 171.244 146.934 171.156 147.001 171.081C147.068 171.006 147.15 170.946 147.242 170.906C147.333 170.865 147.433 170.844 147.533 170.845H202.114C202.214 170.844 202.313 170.865 202.405 170.906C202.497 170.946 202.579 171.006 202.645 171.081C202.712 171.156 202.762 171.244 202.792 171.339C202.822 171.435 202.832 171.536 202.82 171.636L200.144 203.794C200.133 203.975 200.053 204.145 199.92 204.268C199.787 204.392 199.612 204.46 199.431 204.458Z" fill="white" stroke="#263238" stroke-linecap="round" stroke-linejoin="round"/>
<path d="M179.465 188.205C179.465 190.126 177.382 191.679 174.82 191.679C172.257 191.679 170.167 190.126 170.167 188.205C170.167 186.285 172.25 184.739 174.82 184.739C177.39 184.739 179.465 186.292 179.465 188.205Z" fill="white" stroke="#263238" stroke-linecap="round" stroke-linejoin="round"/>
<path d="M227.565 163.086C228.32 162.497 228.851 161.667 229.069 160.735C229.227 160.036 229.21 159.308 229.019 158.617" stroke="#263238" stroke-linecap="round" stroke-linejoin="round"/>
<path d="M221.931 188.262C221.931 188.262 226.626 185.438 225.094 182.212C223.562 178.985 218.38 176.846 218.38 171.819C218.38 167.484 222.99 165.882 225.998 164.145" stroke="#263238" stroke-linecap="round" stroke-linejoin="round"/>
<path d="M226.266 188.17C226.266 188.17 228.885 186.426 228.885 183.659C228.885 181.802 226.901 180.588 224.282 177.601" stroke="#263238" stroke-linecap="round" stroke-linejoin="round"/>
<path d="M222.835 175.794C222.835 175.794 221.119 174.446 222.383 171.911" stroke="#263238" stroke-linecap="round" stroke-linejoin="round"/>
<path d="M183.087 101.84C183.927 101.664 185.727 100.972 186.942 98.1552C186.96 98.1126 186.971 98.0666 186.971 98.0201C186.972 97.9736 186.964 97.9273 186.947 97.884C186.93 97.8407 186.904 97.8012 186.872 97.7678C186.84 97.7343 186.801 97.7076 186.758 97.6892C186.672 97.6534 186.575 97.6525 186.488 97.6867C186.401 97.721 186.331 97.7877 186.292 97.8728C185.177 100.457 183.581 101.029 182.918 101.156C184.105 99.7184 184.761 97.9157 184.774 96.0513C184.774 91.1517 180.235 87.1839 174.636 87.1839C169.038 87.1839 164.498 91.1517 164.498 96.0513C164.502 97.8405 165.098 99.5782 166.192 100.993C165.126 100.937 163.326 101.389 161.046 104.05C160.981 104.117 160.944 104.207 160.944 104.301C160.944 104.394 160.981 104.484 161.046 104.552C161.111 104.606 161.194 104.636 161.279 104.636C161.33 104.636 161.381 104.625 161.427 104.603C161.474 104.581 161.514 104.549 161.547 104.509C164.463 101.113 166.39 101.685 166.778 101.84C166.119 102.203 165.501 102.636 164.936 103.132C161.681 106.062 159.697 111.604 159.951 116.222C160.237 119.284 161.347 122.212 163.164 124.694C165.528 123.002 167.488 120.808 168.903 118.269C169.958 116.404 170.901 114.478 171.727 112.501C171.727 114.57 171.996 117.069 173.083 118.855C173.867 120.266 175.016 121.44 176.41 122.255C177.803 123.07 179.39 123.495 181.004 123.486C181.562 123.494 182.118 123.44 182.663 123.324C182.711 123.312 182.756 123.29 182.795 123.26C182.834 123.229 182.866 123.191 182.889 123.148C185.614 123.726 188.326 123.677 188.742 123.098C189.413 122.173 190.366 119.286 190.684 115.756C191.262 109.769 187.492 104.573 183.087 101.84ZM173.74 118.424C172.37 116.186 172.412 112.536 172.575 110.44L172.666 110.2C172.732 112.356 173.281 114.47 174.275 116.385C175.269 118.301 176.681 119.968 178.406 121.263C179.359 121.921 180.417 122.415 181.534 122.724C179.804 122.844 176.246 122.512 173.74 118.424Z" fill="#263238"/>
<path d="M173.86 107.312C173.86 107.312 173.281 111.59 178.717 115.784C184.153 119.978 189.307 118.326 189.307 118.326" stroke="white" stroke-width="0.5" stroke-linecap="round" stroke-linejoin="round"/>
<path d="M174.657 105.9C174.657 105.9 180.383 114.238 188.29 112.063" stroke="white" stroke-width="0.5" stroke-linecap="round" stroke-linejoin="round"/>
<path d="M171.826 103.125C170.923 102.667 169.912 102.465 168.902 102.543C167.892 102.62 166.923 102.973 166.101 103.563C163.058 105.589 161.533 110.376 161.533 110.376" stroke="white" stroke-width="0.5" stroke-linecap="round" stroke-linejoin="round"/>
<path d="M171.975 105.448C171.975 105.448 169.511 104.792 167.986 106.317C167.242 106.99 166.607 107.773 166.101 108.639" stroke="white" stroke-width="0.5" stroke-linecap="round" stroke-linejoin="round"/>
</svg>
