<svg width="16" height="14" viewBox="0 0 16 14" fill="none" xmlns="http://www.w3.org/2000/svg">
<path fill-rule="evenodd" clip-rule="evenodd" d="M11.1116 0C13.4746 0 15.2564 1.92798 15.2564 4.48468V9.35821C15.2564 10.6667 14.7938 11.8489 13.9529 12.6877C13.1986 13.4391 12.22 13.8372 11.123 13.8372H4.13129C3.03638 13.8372 2.05855 13.4398 1.30354 12.6877C0.46266 11.8489 0 10.6667 0 9.35821V4.48468C0 1.92798 1.78181 0 4.14478 0H11.1116ZM11.1116 1.0644H4.14478C2.36013 1.0644 1.0644 2.50276 1.0644 4.48468V9.35821C1.0644 10.3822 1.41636 11.2968 2.055 11.9334C2.60565 12.4833 3.32448 12.7728 4.13342 12.7728H11.1116C11.1131 12.7714 11.1187 12.7728 11.123 12.7728C11.9326 12.7728 12.6508 12.4833 13.2014 11.9334C13.8408 11.2968 14.192 10.3822 14.192 9.35821V4.48468C14.192 2.50276 12.8963 1.0644 11.1116 1.0644ZM12.23 4.349C12.4152 4.57678 12.3804 4.91171 12.1526 5.09763L8.99915 7.66071C8.60036 7.97719 8.12351 8.13543 7.64737 8.13543C7.17264 8.13543 6.69934 7.97861 6.30338 7.66496L3.12082 5.09905C2.89162 4.91455 2.85614 4.57891 3.03993 4.35042C3.22513 4.12264 3.56007 4.08645 3.78856 4.27023L6.96828 6.83331C7.36778 7.14979 7.9305 7.14979 8.33284 6.83047L11.4806 4.27165C11.7091 4.08503 12.044 4.12051 12.23 4.349Z" fill="#828282"/>
</svg>
