<svg width="16" height="16" viewBox="0 0 16 16" fill="none" xmlns="http://www.w3.org/2000/svg">
<path fill-rule="evenodd" clip-rule="evenodd" d="M13.3663 0.833344C14.233 0.833344 14.8997 1.96668 15.0997 3.96668L15.106 4.02292C15.1701 4.59598 15.2204 5.04593 14.833 5.43334C14.4997 5.83334 14.033 5.83334 13.2997 5.83334H12.433V12.4333C12.433 13.5667 12.433 14.2333 11.8997 14.5667C11.233 15.0333 10.3663 14.4333 9.89968 14.1C9.86634 14.0667 9.83301 14.05 9.79967 14.0333C9.76634 14.0167 9.73301 14 9.69967 13.9667C9.56634 13.8333 9.36634 13.7 9.29967 13.7C9.29967 13.7 9.03301 13.9 8.89968 13.9667L7.63301 14.7667C7.23301 15.0333 6.96634 15.1667 6.63301 15.1667C6.29967 15.1667 6.03301 15.0333 5.63301 14.7667L4.36634 13.9667C4.23301 13.8333 4.03301 13.7 3.96634 13.7C3.96634 13.7 3.69967 13.9 3.56634 13.9667C3.53301 14 3.49967 14.0167 3.46634 14.0333C3.43301 14.05 3.39967 14.0667 3.36634 14.1C2.89967 14.4333 2.03301 15.0333 1.36634 14.5667C0.833008 14.2333 0.833008 13.5667 0.833008 12.4333V5.36668C0.833008 3.36668 0.833008 2.30001 1.56634 1.56668C2.29967 0.833344 3.36634 0.833344 5.36634 0.833344H13.3663ZM13.3663 4.83334C13.6997 4.83334 14.0997 4.83334 14.1663 4.76668C14.1663 4.70001 14.1663 4.36668 14.0997 4.03334C13.9663 2.50001 13.4997 1.90001 13.3663 1.83334C13.0997 1.90001 12.5663 2.90001 12.4997 4.83334H13.3663ZM3.99967 3.50001C3.72353 3.50001 3.49967 3.72387 3.49967 4.00001C3.49967 4.27615 3.72353 4.50001 3.99967 4.50001H9.33301C9.60915 4.50001 9.83301 4.27615 9.83301 4.00001C9.83301 3.72387 9.60915 3.50001 9.33301 3.50001H3.99967ZM3.49967 6.66668C3.49967 6.39053 3.72353 6.16668 3.99967 6.16668H5.33301C5.60915 6.16668 5.83301 6.39053 5.83301 6.66668C5.83301 6.94282 5.60915 7.16668 5.33301 7.16668H3.99967C3.72353 7.16668 3.49967 6.94282 3.49967 6.66668ZM8.83301 6.66668C8.83301 6.39053 8.60915 6.16668 8.33301 6.16668C8.05687 6.16668 7.83301 6.39053 7.83301 6.66668V6.82994C7.27702 7.01132 6.83301 7.48824 6.83301 8.12501C6.83301 8.94506 7.56942 9.50001 8.33301 9.50001C8.67395 9.50001 8.83301 9.72852 8.83301 9.87501C8.83301 10.0215 8.67395 10.25 8.33301 10.25C8.0754 10.25 7.90518 10.1072 7.85356 9.97943C7.75014 9.72338 7.45874 9.59965 7.20269 9.70306C6.94665 9.80647 6.82291 10.0979 6.92633 10.3539C7.08661 10.7508 7.42664 11.0402 7.83301 11.1715V11.3333C7.83301 11.6095 8.05687 11.8333 8.33301 11.8333C8.60915 11.8333 8.83301 11.6095 8.83301 11.3333V11.1701C9.38899 10.9887 9.83301 10.5118 9.83301 9.87501C9.83301 9.05496 9.0966 8.50001 8.33301 8.50001C7.99207 8.50001 7.83301 8.2715 7.83301 8.12501C7.83301 7.97852 7.99207 7.75001 8.33301 7.75001C8.59062 7.75001 8.76084 7.89278 8.81246 8.02059C8.91587 8.27664 9.20727 8.40037 9.46332 8.29696C9.71937 8.19354 9.8431 7.90214 9.73969 7.6461C9.57941 7.24924 9.23938 6.95981 8.83301 6.82849V6.66668Z" fill="#FE3333"/>
</svg>
