<svg width="92" height="66" viewBox="0 0 92 66" fill="none" xmlns="http://www.w3.org/2000/svg">
<rect x="26" width="40" height="40" rx="20" fill="#1DA1F2"/>
<path d="M43.0038 26.4022C49.0081 26.4022 52.2917 21.4563 52.2917 17.1675C52.2917 17.027 52.2888 16.8872 52.2824 16.7479C52.9214 16.2883 53.4728 15.7192 53.9108 15.0673C53.3259 15.3258 52.6965 15.4998 52.0362 15.5783C52.7101 15.1765 53.2275 14.5408 53.4716 13.7831C52.8308 14.161 52.1298 14.4275 51.3988 14.5709C50.8031 13.94 49.955 13.5455 49.016 13.5455C47.2133 13.5455 45.7514 14.999 45.7514 16.7907C45.7514 17.0454 45.7801 17.2931 45.8361 17.5307C43.123 17.395 40.7173 16.1035 39.1072 14.1396C38.8172 14.635 38.6647 15.1979 38.6652 15.771C38.6652 16.897 39.2415 17.8911 40.1179 18.4726C39.5995 18.4569 39.0925 18.3177 38.6395 18.0667C38.639 18.0803 38.639 18.0936 38.639 18.1082C38.639 19.68 39.7642 20.9924 41.2579 21.2897C40.9773 21.3657 40.6879 21.4041 40.3971 21.4039C40.1871 21.4039 39.9825 21.3834 39.7836 21.3454C40.1992 22.635 41.4043 23.5735 42.833 23.5997C41.7157 24.4704 40.3083 24.989 38.7787 24.989C38.5184 24.9892 38.2584 24.9742 38 24.944C39.4447 25.8647 41.1602 26.4019 43.0039 26.4019" fill="white"/>
<path d="M29.1525 61C29.0245 61 28.9125 60.956 28.8165 60.868C28.7285 60.772 28.6845 60.66 28.6845 60.532V51.628H29.6205V60.532C29.6205 60.66 29.5765 60.772 29.4885 60.868C29.4005 60.956 29.2885 61 29.1525 61ZM25.8405 52.48C25.7125 52.48 25.6085 52.44 25.5285 52.36C25.4485 52.28 25.4085 52.18 25.4085 52.06C25.4085 51.932 25.4485 51.828 25.5285 51.748C25.6085 51.668 25.7125 51.628 25.8405 51.628H32.4765C32.6045 51.628 32.7085 51.668 32.7885 51.748C32.8685 51.828 32.9085 51.932 32.9085 52.06C32.9085 52.18 32.8685 52.28 32.7885 52.36C32.7085 52.44 32.6045 52.48 32.4765 52.48H25.8405ZM34.4645 61C34.3605 61 34.2685 60.972 34.1885 60.916C34.1085 60.86 34.0525 60.788 34.0205 60.7L32.1485 55.084C32.1005 54.884 32.1045 54.728 32.1605 54.616C32.2165 54.496 32.3285 54.436 32.4965 54.436C32.6005 54.436 32.6925 54.464 32.7725 54.52C32.8525 54.576 32.9125 54.664 32.9525 54.784L34.6205 59.884H34.3565L35.9045 54.796C35.9365 54.692 35.9885 54.608 36.0605 54.544C36.1405 54.472 36.2405 54.436 36.3605 54.436C36.4805 54.436 36.5765 54.468 36.6485 54.532C36.7285 54.596 36.7845 54.684 36.8165 54.796L38.2925 59.764H38.0885L39.7205 54.784C39.8005 54.552 39.9485 54.436 40.1645 54.436C40.3405 54.436 40.4605 54.504 40.5245 54.64C40.5885 54.768 40.5885 54.916 40.5245 55.084L38.6525 60.7C38.6205 60.788 38.5645 60.86 38.4845 60.916C38.4125 60.972 38.3245 61 38.2205 61C38.1165 61 38.0205 60.972 37.9325 60.916C37.8525 60.86 37.8005 60.788 37.7765 60.7L36.2645 55.684H36.4085L34.8965 60.7C34.8645 60.796 34.8085 60.872 34.7285 60.928C34.6485 60.976 34.5605 61 34.4645 61ZM42.5193 61C42.3753 61 42.2593 60.96 42.1713 60.88C42.0913 60.792 42.0513 60.676 42.0513 60.532V54.904C42.0513 54.76 42.0913 54.648 42.1713 54.568C42.2593 54.48 42.3753 54.436 42.5193 54.436C42.6553 54.436 42.7633 54.48 42.8433 54.568C42.9313 54.648 42.9753 54.76 42.9753 54.904V60.532C42.9753 60.676 42.9313 60.792 42.8433 60.88C42.7633 60.96 42.6553 61 42.5193 61ZM42.5073 53.188C42.3313 53.188 42.1793 53.124 42.0513 52.996C41.9233 52.868 41.8593 52.712 41.8593 52.528C41.8593 52.328 41.9233 52.172 42.0513 52.06C42.1873 51.94 42.3433 51.88 42.5193 51.88C42.6873 51.88 42.8353 51.94 42.9633 52.06C43.0993 52.172 43.1673 52.328 43.1673 52.528C43.1673 52.712 43.1033 52.868 42.9753 52.996C42.8473 53.124 42.6913 53.188 42.5073 53.188ZM47.896 61C47.472 61 47.092 60.9 46.756 60.7C46.428 60.5 46.168 60.228 45.976 59.884C45.784 59.532 45.688 59.132 45.688 58.684V52.816C45.688 52.68 45.728 52.568 45.808 52.48C45.896 52.392 46.008 52.348 46.144 52.348C46.28 52.348 46.392 52.392 46.48 52.48C46.568 52.568 46.612 52.68 46.612 52.816V58.684C46.612 59.092 46.732 59.428 46.972 59.692C47.212 59.948 47.52 60.076 47.896 60.076H48.22C48.348 60.076 48.452 60.12 48.532 60.208C48.612 60.296 48.652 60.408 48.652 60.544C48.652 60.68 48.604 60.792 48.508 60.88C48.412 60.96 48.292 61 48.148 61H47.896ZM44.908 55.48C44.788 55.48 44.688 55.444 44.608 55.372C44.528 55.292 44.488 55.196 44.488 55.084C44.488 54.964 44.528 54.868 44.608 54.796C44.688 54.716 44.788 54.676 44.908 54.676H47.968C48.088 54.676 48.188 54.716 48.268 54.796C48.348 54.868 48.388 54.964 48.388 55.084C48.388 55.196 48.348 55.292 48.268 55.372C48.188 55.444 48.088 55.48 47.968 55.48H44.908ZM52.7242 61C52.3002 61 51.9202 60.9 51.5842 60.7C51.2562 60.5 50.9962 60.228 50.8042 59.884C50.6122 59.532 50.5162 59.132 50.5162 58.684V52.816C50.5162 52.68 50.5562 52.568 50.6362 52.48C50.7242 52.392 50.8362 52.348 50.9722 52.348C51.1082 52.348 51.2202 52.392 51.3082 52.48C51.3962 52.568 51.4402 52.68 51.4402 52.816V58.684C51.4402 59.092 51.5602 59.428 51.8002 59.692C52.0402 59.948 52.3482 60.076 52.7242 60.076H53.0482C53.1762 60.076 53.2802 60.12 53.3602 60.208C53.4402 60.296 53.4802 60.408 53.4802 60.544C53.4802 60.68 53.4322 60.792 53.3362 60.88C53.2402 60.96 53.1202 61 52.9762 61H52.7242ZM49.7362 55.48C49.6162 55.48 49.5162 55.444 49.4362 55.372C49.3562 55.292 49.3162 55.196 49.3162 55.084C49.3162 54.964 49.3562 54.868 49.4362 54.796C49.5162 54.716 49.6162 54.676 49.7362 54.676H52.7962C52.9162 54.676 53.0162 54.716 53.0962 54.796C53.1762 54.868 53.2162 54.964 53.2162 55.084C53.2162 55.196 53.1762 55.292 53.0962 55.372C53.0162 55.444 52.9162 55.48 52.7962 55.48H49.7362ZM57.9603 61.06C57.3123 61.06 56.7363 60.92 56.2323 60.64C55.7363 60.352 55.3443 59.956 55.0563 59.452C54.7763 58.948 54.6363 58.372 54.6363 57.724C54.6363 57.068 54.7683 56.492 55.0323 55.996C55.3043 55.492 55.6763 55.096 56.1483 54.808C56.6203 54.52 57.1643 54.376 57.7803 54.376C58.3883 54.376 58.9163 54.516 59.3643 54.796C59.8203 55.068 60.1723 55.448 60.4203 55.936C60.6683 56.424 60.7923 56.98 60.7923 57.604C60.7923 57.732 60.7523 57.836 60.6723 57.916C60.5923 57.988 60.4883 58.024 60.3603 58.024H55.2603V57.256H60.4563L59.9403 57.628C59.9483 57.164 59.8643 56.748 59.6883 56.38C59.5123 56.012 59.2603 55.724 58.9323 55.516C58.6123 55.308 58.2283 55.204 57.7803 55.204C57.3243 55.204 56.9243 55.312 56.5803 55.528C56.2363 55.744 55.9683 56.044 55.7763 56.428C55.5923 56.804 55.5003 57.236 55.5003 57.724C55.5003 58.212 55.6043 58.644 55.8123 59.02C56.0283 59.396 56.3203 59.692 56.6883 59.908C57.0563 60.124 57.4803 60.232 57.9603 60.232C58.2483 60.232 58.5363 60.184 58.8243 60.088C59.1203 59.984 59.3563 59.856 59.5323 59.704C59.6203 59.632 59.7203 59.596 59.8323 59.596C59.9443 59.588 60.0403 59.616 60.1203 59.68C60.2243 59.776 60.2763 59.88 60.2763 59.992C60.2843 60.104 60.2403 60.2 60.1443 60.28C59.8803 60.504 59.5443 60.692 59.1363 60.844C58.7283 60.988 58.3363 61.06 57.9603 61.06ZM62.7394 56.956C62.7634 56.46 62.8914 56.016 63.1234 55.624C63.3634 55.232 63.6714 54.924 64.0474 54.7C64.4314 54.476 64.8554 54.364 65.3194 54.364C65.6874 54.364 65.9714 54.416 66.1714 54.52C66.3714 54.624 66.4474 54.776 66.3994 54.976C66.3674 55.096 66.3114 55.176 66.2314 55.216C66.1594 55.256 66.0674 55.272 65.9554 55.264C65.8514 55.256 65.7314 55.248 65.5954 55.24C65.1474 55.2 64.7474 55.248 64.3954 55.384C64.0514 55.512 63.7754 55.712 63.5674 55.984C63.3674 56.256 63.2674 56.58 63.2674 56.956H62.7394ZM62.8114 61C62.6674 61 62.5554 60.96 62.4754 60.88C62.3954 60.8 62.3554 60.688 62.3554 60.544V54.892C62.3554 54.748 62.3954 54.636 62.4754 54.556C62.5554 54.476 62.6674 54.436 62.8114 54.436C62.9554 54.436 63.0674 54.476 63.1474 54.556C63.2274 54.636 63.2674 54.748 63.2674 54.892V60.544C63.2674 60.688 63.2274 60.8 63.1474 60.88C63.0674 60.96 62.9554 61 62.8114 61Z" fill="#464D61"/>
</svg>
