<svg width="49" height="50" viewBox="0 0 49 50" fill="none" xmlns="http://www.w3.org/2000/svg">
<rect width="49" height="50" rx="6" fill="#F3F4F6"/>
<path d="M24.5 9.91669C16.4458 9.91669 9.91663 16.4459 9.91663 24.5C9.91663 32.5541 16.4458 39.0834 24.5 39.0834C30.8519 39.0834 36.2518 35.0232 38.2531 29.3609C38.5215 28.6016 38.1234 27.7684 37.3641 27.5001C36.6047 27.2316 35.7716 27.6296 35.5031 28.3891C33.9008 32.9223 29.5774 36.1667 24.5 36.1667C18.0566 36.1667 12.8333 30.9434 12.8333 24.5C12.8333 18.0567 18.0566 12.8334 24.5 12.8334C26.7627 12.8334 28.6798 13.6517 30.5027 14.9342C31.7288 15.7969 32.8632 16.8307 34.0144 17.9375H29.6041C28.7987 17.9375 28.1458 18.5904 28.1458 19.3959C28.1458 20.2013 28.7987 20.8542 29.6041 20.8542H37.625C38.4304 20.8542 39.0833 20.2013 39.0833 19.3959V11.375C39.0833 10.5696 38.4304 9.91669 37.625 9.91669C36.8195 9.91669 36.1666 10.5696 36.1666 11.375V15.9596C34.9295 14.7669 33.6081 13.5529 32.181 12.5488C30.0342 11.0384 27.5401 9.91669 24.5 9.91669Z" fill="black"/>
</svg>
