<svg width="92" height="66" viewBox="0 0 92 66" fill="none" xmlns="http://www.w3.org/2000/svg">
<rect x="26" width="40" height="40" rx="20" fill="#25D366"/>
<g clip-path="url(#clip0_66_712)">
<path fill-rule="evenodd" clip-rule="evenodd" d="M51.3057 14.6721C49.9024 13.2671 48.0361 12.493 46.0478 12.4922C41.9508 12.4922 38.6165 15.8264 38.6148 19.9245C38.6143 21.2346 38.9565 22.5134 39.607 23.6406L38.5525 27.4922L42.4928 26.4586C43.5786 27.0508 44.8009 27.3629 46.0448 27.3633H46.0479C50.1444 27.3633 53.4792 24.0287 53.4807 19.9305C53.4815 17.9443 52.7091 16.0769 51.3057 14.6721ZM46.0478 26.108H46.0453C44.9367 26.1075 43.8495 25.8096 42.9009 25.2469L42.6754 25.1129L40.3371 25.7263L40.9612 23.4466L40.8143 23.2128C40.1959 22.2292 39.8693 21.0923 39.8698 19.925C39.8711 16.5188 42.6426 13.7476 46.0503 13.7476C47.7004 13.7481 49.2516 14.3915 50.418 15.5593C51.5844 16.7271 52.2263 18.2792 52.2258 19.93C52.2243 23.3365 49.453 26.108 46.0478 26.108ZM49.4366 21.481C49.2509 21.388 48.3377 20.9388 48.1674 20.8768C47.9973 20.8148 47.8734 20.7839 47.7497 20.9698C47.6258 21.1556 47.27 21.574 47.1616 21.6979C47.0532 21.8219 46.9449 21.8374 46.7592 21.7444C46.5734 21.6515 45.975 21.4553 45.2656 20.8226C44.7135 20.3301 44.3408 19.7219 44.2324 19.5361C44.1242 19.35 44.2315 19.2592 44.3139 19.157C44.515 18.9074 44.7163 18.6456 44.7782 18.5218C44.8401 18.3978 44.8091 18.2893 44.7626 18.1964C44.7163 18.1035 44.3448 17.1893 44.1901 16.8173C44.0392 16.4553 43.8863 16.5042 43.7722 16.4985C43.664 16.4931 43.5401 16.492 43.4162 16.492C43.2924 16.492 43.0912 16.5385 42.9209 16.7245C42.7507 16.9104 42.271 17.3597 42.271 18.2738C42.271 19.188 42.9365 20.0711 43.0293 20.1951C43.1222 20.319 44.339 22.1949 46.202 22.9993C46.6451 23.1909 46.991 23.305 47.2608 23.3906C47.7057 23.532 48.1105 23.512 48.4306 23.4642C48.7874 23.4109 49.5293 23.0149 49.6842 22.5811C49.8389 22.1472 49.8389 21.7754 49.7924 21.6979C49.7461 21.6205 49.6222 21.574 49.4366 21.481Z" fill="white"/>
</g>
<path d="M17.2587 61C17.1467 61 17.0467 60.964 16.9587 60.892C16.8787 60.82 16.8227 60.728 16.7907 60.616L14.3307 52.3C14.2747 52.108 14.2827 51.948 14.3547 51.82C14.4347 51.692 14.5587 51.628 14.7267 51.628C14.8227 51.628 14.9107 51.656 14.9907 51.712C15.0787 51.76 15.1427 51.852 15.1827 51.988L17.4027 59.716H17.1267L19.2267 52.192C19.2507 52.104 19.3027 52.032 19.3827 51.976C19.4707 51.92 19.5667 51.892 19.6707 51.892C19.7667 51.892 19.8587 51.92 19.9467 51.976C20.0347 52.024 20.0907 52.1 20.1147 52.204L22.2267 59.716H21.9507L24.1827 51.94C24.2387 51.732 24.3907 51.628 24.6387 51.628C24.8067 51.628 24.9227 51.696 24.9867 51.832C25.0507 51.96 25.0587 52.116 25.0107 52.3L22.5627 60.604C22.5227 60.732 22.4587 60.832 22.3707 60.904C22.2907 60.968 22.1947 61 22.0827 61C21.9707 61 21.8707 60.964 21.7827 60.892C21.7027 60.82 21.6467 60.728 21.6147 60.616L19.5267 52.996H19.8147L17.7387 60.604C17.6987 60.724 17.6347 60.82 17.5467 60.892C17.4667 60.964 17.3707 61 17.2587 61ZM26.8644 58.324C26.7204 58.324 26.6044 58.28 26.5164 58.192C26.4364 58.104 26.3964 57.992 26.3964 57.856V52.096C26.3964 51.952 26.4364 51.84 26.5164 51.76C26.6044 51.672 26.7204 51.628 26.8644 51.628C27.0004 51.628 27.1084 51.672 27.1884 51.76C27.2764 51.84 27.3204 51.952 27.3204 52.096V57.856C27.3204 57.992 27.2764 58.104 27.1884 58.192C27.1084 58.28 27.0004 58.324 26.8644 58.324ZM32.0244 61C31.8884 61 31.7764 60.956 31.6884 60.868C31.6004 60.78 31.5564 60.672 31.5564 60.544V57.424C31.5564 56.928 31.4604 56.52 31.2684 56.2C31.0844 55.88 30.8284 55.64 30.5004 55.48C30.1804 55.32 29.8164 55.24 29.4084 55.24C29.0164 55.24 28.6604 55.316 28.3404 55.468C28.0284 55.62 27.7804 55.828 27.5964 56.092C27.4124 56.356 27.3204 56.656 27.3204 56.992H26.6604C26.6764 56.488 26.8124 56.04 27.0684 55.648C27.3244 55.248 27.6644 54.936 28.0884 54.712C28.5124 54.48 28.9844 54.364 29.5044 54.364C30.0724 54.364 30.5804 54.484 31.0284 54.724C31.4764 54.956 31.8284 55.3 32.0844 55.756C32.3484 56.212 32.4804 56.768 32.4804 57.424V60.544C32.4804 60.672 32.4364 60.78 32.3484 60.868C32.2604 60.956 32.1524 61 32.0244 61ZM26.8644 61C26.7204 61 26.6044 60.96 26.5164 60.88C26.4364 60.792 26.3964 60.68 26.3964 60.544V54.904C26.3964 54.76 26.4364 54.648 26.5164 54.568C26.6044 54.48 26.7204 54.436 26.8644 54.436C27.0004 54.436 27.1084 54.48 27.1884 54.568C27.2764 54.648 27.3204 54.76 27.3204 54.904V60.544C27.3204 60.68 27.2764 60.792 27.1884 60.88C27.1084 60.96 27.0004 61 26.8644 61ZM37.4095 61.06C36.7935 61.06 36.2415 60.916 35.7535 60.628C35.2655 60.332 34.8775 59.932 34.5895 59.428C34.3095 58.924 34.1695 58.356 34.1695 57.724C34.1695 57.084 34.3135 56.512 34.6015 56.008C34.8975 55.504 35.2975 55.108 35.8015 54.82C36.3055 54.524 36.8735 54.376 37.5055 54.376C38.1375 54.376 38.7015 54.524 39.1975 54.82C39.7015 55.108 40.0975 55.504 40.3855 56.008C40.6815 56.512 40.8335 57.084 40.8415 57.724L40.4695 58.012C40.4695 58.588 40.3335 59.108 40.0615 59.572C39.7975 60.028 39.4335 60.392 38.9695 60.664C38.5135 60.928 37.9935 61.06 37.4095 61.06ZM37.5055 60.22C37.9695 60.22 38.3815 60.112 38.7415 59.896C39.1095 59.68 39.3975 59.384 39.6055 59.008C39.8215 58.624 39.9295 58.196 39.9295 57.724C39.9295 57.244 39.8215 56.816 39.6055 56.44C39.3975 56.064 39.1095 55.768 38.7415 55.552C38.3815 55.328 37.9695 55.216 37.5055 55.216C37.0495 55.216 36.6375 55.328 36.2695 55.552C35.9015 55.768 35.6095 56.064 35.3935 56.44C35.1775 56.816 35.0695 57.244 35.0695 57.724C35.0695 58.196 35.1775 58.624 35.3935 59.008C35.6095 59.384 35.9015 59.68 36.2695 59.896C36.6375 60.112 37.0495 60.22 37.5055 60.22ZM40.3735 61C40.2375 61 40.1255 60.96 40.0375 60.88C39.9495 60.792 39.9055 60.68 39.9055 60.544V58.492L40.1335 57.544L40.8415 57.724V60.544C40.8415 60.68 40.7975 60.792 40.7095 60.88C40.6215 60.96 40.5095 61 40.3735 61ZM45.2066 61C44.7826 61 44.4026 60.9 44.0666 60.7C43.7386 60.5 43.4786 60.228 43.2866 59.884C43.0946 59.532 42.9986 59.132 42.9986 58.684V52.816C42.9986 52.68 43.0386 52.568 43.1186 52.48C43.2066 52.392 43.3186 52.348 43.4546 52.348C43.5906 52.348 43.7026 52.392 43.7906 52.48C43.8786 52.568 43.9226 52.68 43.9226 52.816V58.684C43.9226 59.092 44.0426 59.428 44.2826 59.692C44.5226 59.948 44.8306 60.076 45.2066 60.076H45.5306C45.6586 60.076 45.7626 60.12 45.8426 60.208C45.9226 60.296 45.9626 60.408 45.9626 60.544C45.9626 60.68 45.9146 60.792 45.8186 60.88C45.7226 60.96 45.6026 61 45.4586 61H45.2066ZM42.2186 55.48C42.0986 55.48 41.9986 55.444 41.9186 55.372C41.8386 55.292 41.7986 55.196 41.7986 55.084C41.7986 54.964 41.8386 54.868 41.9186 54.796C41.9986 54.716 42.0986 54.676 42.2186 54.676H45.2786C45.3986 54.676 45.4986 54.716 45.5786 54.796C45.6586 54.868 45.6986 54.964 45.6986 55.084C45.6986 55.196 45.6586 55.292 45.5786 55.372C45.4986 55.444 45.3986 55.48 45.2786 55.48H42.2186ZM49.7587 61.06C49.2867 61.06 48.8187 60.98 48.3547 60.82C47.8907 60.66 47.5147 60.42 47.2267 60.1C47.1387 60.004 47.1027 59.896 47.1187 59.776C47.1347 59.656 47.1947 59.552 47.2987 59.464C47.4107 59.384 47.5267 59.352 47.6467 59.368C47.7667 59.384 47.8667 59.436 47.9467 59.524C48.1387 59.748 48.3907 59.92 48.7027 60.04C49.0227 60.16 49.3747 60.22 49.7587 60.22C50.3507 60.22 50.7787 60.12 51.0427 59.92C51.3067 59.712 51.4427 59.464 51.4507 59.176C51.4507 58.888 51.3147 58.652 51.0427 58.468C50.7707 58.276 50.3227 58.128 49.6987 58.024C48.8907 57.896 48.2987 57.672 47.9227 57.352C47.5467 57.032 47.3587 56.652 47.3587 56.212C47.3587 55.804 47.4667 55.464 47.6827 55.192C47.8987 54.92 48.1867 54.716 48.5467 54.58C48.9067 54.444 49.3027 54.376 49.7347 54.376C50.2707 54.376 50.7307 54.468 51.1147 54.652C51.5067 54.836 51.8227 55.084 52.0627 55.396C52.1427 55.5 52.1747 55.608 52.1587 55.72C52.1427 55.832 52.0787 55.924 51.9667 55.996C51.8707 56.052 51.7587 56.072 51.6307 56.056C51.5107 56.032 51.4067 55.972 51.3187 55.876C51.1187 55.644 50.8867 55.476 50.6227 55.372C50.3587 55.26 50.0547 55.204 49.7107 55.204C49.2707 55.204 48.9187 55.296 48.6547 55.48C48.3907 55.656 48.2587 55.88 48.2587 56.152C48.2587 56.336 48.3067 56.496 48.4027 56.632C48.5067 56.768 48.6787 56.888 48.9187 56.992C49.1667 57.096 49.5107 57.184 49.9507 57.256C50.5507 57.352 51.0227 57.496 51.3667 57.688C51.7187 57.872 51.9667 58.092 52.1107 58.348C52.2627 58.596 52.3387 58.868 52.3387 59.164C52.3387 59.54 52.2267 59.872 52.0027 60.16C51.7867 60.44 51.4827 60.66 51.0907 60.82C50.7067 60.98 50.2627 61.06 49.7587 61.06ZM56.8275 61.06C56.2115 61.06 55.6595 60.916 55.1715 60.628C54.6835 60.332 54.2955 59.932 54.0075 59.428C53.7275 58.924 53.5875 58.356 53.5875 57.724C53.5875 57.084 53.7315 56.512 54.0195 56.008C54.3155 55.504 54.7155 55.108 55.2195 54.82C55.7235 54.524 56.2915 54.376 56.9235 54.376C57.5555 54.376 58.1195 54.524 58.6155 54.82C59.1195 55.108 59.5155 55.504 59.8035 56.008C60.0995 56.512 60.2515 57.084 60.2595 57.724L59.8875 58.012C59.8875 58.588 59.7515 59.108 59.4795 59.572C59.2155 60.028 58.8515 60.392 58.3875 60.664C57.9315 60.928 57.4115 61.06 56.8275 61.06ZM56.9235 60.22C57.3875 60.22 57.7995 60.112 58.1595 59.896C58.5275 59.68 58.8155 59.384 59.0235 59.008C59.2395 58.624 59.3475 58.196 59.3475 57.724C59.3475 57.244 59.2395 56.816 59.0235 56.44C58.8155 56.064 58.5275 55.768 58.1595 55.552C57.7995 55.328 57.3875 55.216 56.9235 55.216C56.4675 55.216 56.0555 55.328 55.6875 55.552C55.3195 55.768 55.0275 56.064 54.8115 56.44C54.5955 56.816 54.4875 57.244 54.4875 57.724C54.4875 58.196 54.5955 58.624 54.8115 59.008C55.0275 59.384 55.3195 59.68 55.6875 59.896C56.0555 60.112 56.4675 60.22 56.9235 60.22ZM59.7915 61C59.6555 61 59.5435 60.96 59.4555 60.88C59.3675 60.792 59.3235 60.68 59.3235 60.544V58.492L59.5515 57.544L60.2595 57.724V60.544C60.2595 60.68 60.2155 60.792 60.1275 60.88C60.0395 60.96 59.9275 61 59.7915 61ZM62.5246 63.808C62.3806 63.808 62.2646 63.764 62.1766 63.676C62.0966 63.596 62.0566 63.484 62.0566 63.34V57.676C62.0646 57.052 62.2126 56.492 62.5006 55.996C62.7966 55.492 63.1926 55.096 63.6886 54.808C64.1926 54.52 64.7566 54.376 65.3806 54.376C66.0206 54.376 66.5926 54.524 67.0966 54.82C67.6006 55.108 67.9966 55.504 68.2846 56.008C68.5806 56.512 68.7286 57.084 68.7286 57.724C68.7286 58.356 68.5846 58.924 68.2966 59.428C68.0166 59.932 67.6326 60.332 67.1446 60.628C66.6566 60.916 66.1046 61.06 65.4886 61.06C64.9526 61.06 64.4646 60.948 64.0246 60.724C63.5926 60.492 63.2446 60.188 62.9806 59.812V63.34C62.9806 63.484 62.9366 63.596 62.8486 63.676C62.7686 63.764 62.6606 63.808 62.5246 63.808ZM65.3806 60.22C65.8446 60.22 66.2606 60.112 66.6286 59.896C66.9966 59.68 67.2846 59.384 67.4926 59.008C67.7086 58.624 67.8166 58.196 67.8166 57.724C67.8166 57.244 67.7086 56.816 67.4926 56.44C67.2846 56.064 66.9966 55.768 66.6286 55.552C66.2606 55.328 65.8446 55.216 65.3806 55.216C64.9246 55.216 64.5126 55.328 64.1446 55.552C63.7766 55.768 63.4886 56.064 63.2806 56.44C63.0726 56.816 62.9686 57.244 62.9686 57.724C62.9686 58.196 63.0726 58.624 63.2806 59.008C63.4886 59.384 63.7766 59.68 64.1446 59.896C64.5126 60.112 64.9246 60.22 65.3806 60.22ZM71.0089 63.808C70.8649 63.808 70.7489 63.764 70.6609 63.676C70.5809 63.596 70.5409 63.484 70.5409 63.34V57.676C70.5489 57.052 70.6969 56.492 70.9849 55.996C71.2809 55.492 71.6769 55.096 72.1729 54.808C72.6769 54.52 73.2409 54.376 73.8649 54.376C74.5049 54.376 75.0769 54.524 75.5809 54.82C76.0849 55.108 76.4809 55.504 76.7689 56.008C77.0649 56.512 77.2129 57.084 77.2129 57.724C77.2129 58.356 77.0689 58.924 76.7809 59.428C76.5009 59.932 76.1169 60.332 75.6289 60.628C75.1409 60.916 74.5889 61.06 73.9729 61.06C73.4369 61.06 72.9489 60.948 72.5089 60.724C72.0769 60.492 71.7289 60.188 71.4649 59.812V63.34C71.4649 63.484 71.4209 63.596 71.3329 63.676C71.2529 63.764 71.1449 63.808 71.0089 63.808ZM73.8649 60.22C74.3289 60.22 74.7449 60.112 75.1129 59.896C75.4809 59.68 75.7689 59.384 75.9769 59.008C76.1929 58.624 76.3009 58.196 76.3009 57.724C76.3009 57.244 76.1929 56.816 75.9769 56.44C75.7689 56.064 75.4809 55.768 75.1129 55.552C74.7449 55.328 74.3289 55.216 73.8649 55.216C73.4089 55.216 72.9969 55.328 72.6289 55.552C72.2609 55.768 71.9729 56.064 71.7649 56.44C71.5569 56.816 71.4529 57.244 71.4529 57.724C71.4529 58.196 71.5569 58.624 71.7649 59.008C71.9729 59.384 72.2609 59.68 72.6289 59.896C72.9969 60.112 73.4089 60.22 73.8649 60.22Z" fill="#464D61"/>
<defs>
<clipPath id="clip0_66_712">
<rect width="16" height="16" fill="white" transform="translate(38 12)"/>
</clipPath>
</defs>
</svg>
